G04 #@! TF.FileFunction,Legend,Bot*
%FSLAX46Y46*%
G04 Gerber Fmt 4.6, Leading zero omitted, Abs format (unit mm)*
G04 Created by KiCad (PCBNEW (after 2015-may-25 BZR unknown)-product) date 17/09/2017 09:43:34*
%MOMM*%
G01*
G04 APERTURE LIST*
%ADD10C,0.100000*%
%ADD11C,0.300000*%
%ADD12C,0.150000*%
%ADD13C,0.200660*%
%ADD14C,0.127000*%
%ADD15C,0.304800*%
G04 APERTURE END LIST*
D10*
D11*
X208550000Y-139242857D02*
X209050000Y-139242857D01*
X209050000Y-140028571D02*
X209050000Y-138528571D01*
X208335714Y-138528571D01*
X206907143Y-140028571D02*
X207407143Y-139314286D01*
X207764286Y-140028571D02*
X207764286Y-138528571D01*
X207192858Y-138528571D01*
X207050000Y-138600000D01*
X206978572Y-138671429D01*
X206907143Y-138814286D01*
X206907143Y-139028571D01*
X206978572Y-139171429D01*
X207050000Y-139242857D01*
X207192858Y-139314286D01*
X207764286Y-139314286D01*
X206335715Y-139600000D02*
X205621429Y-139600000D01*
X206478572Y-140028571D02*
X205978572Y-138528571D01*
X205478572Y-140028571D01*
X204978572Y-140028571D02*
X204978572Y-138528571D01*
X204478572Y-139600000D01*
X203978572Y-138528571D01*
X203978572Y-140028571D01*
X202192858Y-139957143D02*
X201978572Y-140028571D01*
X201621429Y-140028571D01*
X201478572Y-139957143D01*
X201407143Y-139885714D01*
X201335715Y-139742857D01*
X201335715Y-139600000D01*
X201407143Y-139457143D01*
X201478572Y-139385714D01*
X201621429Y-139314286D01*
X201907143Y-139242857D01*
X202050001Y-139171429D01*
X202121429Y-139100000D01*
X202192858Y-138957143D01*
X202192858Y-138814286D01*
X202121429Y-138671429D01*
X202050001Y-138600000D01*
X201907143Y-138528571D01*
X201550001Y-138528571D01*
X201335715Y-138600000D01*
X200050001Y-140028571D02*
X200050001Y-139242857D01*
X200121430Y-139100000D01*
X200264287Y-139028571D01*
X200550001Y-139028571D01*
X200692858Y-139100000D01*
X200050001Y-139957143D02*
X200192858Y-140028571D01*
X200550001Y-140028571D01*
X200692858Y-139957143D01*
X200764287Y-139814286D01*
X200764287Y-139671429D01*
X200692858Y-139528571D01*
X200550001Y-139457143D01*
X200192858Y-139457143D01*
X200050001Y-139385714D01*
X199478572Y-139028571D02*
X199121429Y-140028571D01*
X198764287Y-139028571D01*
X197621430Y-139957143D02*
X197764287Y-140028571D01*
X198050001Y-140028571D01*
X198192858Y-139957143D01*
X198264287Y-139814286D01*
X198264287Y-139242857D01*
X198192858Y-139100000D01*
X198050001Y-139028571D01*
X197764287Y-139028571D01*
X197621430Y-139100000D01*
X197550001Y-139242857D01*
X197550001Y-139385714D01*
X198264287Y-139528571D01*
X208695715Y-121262857D02*
X209195715Y-121262857D01*
X209195715Y-122048571D02*
X209195715Y-120548571D01*
X208481429Y-120548571D01*
X207695715Y-122048571D02*
X207838573Y-121977143D01*
X207910001Y-121834286D01*
X207910001Y-120548571D01*
X206481430Y-122048571D02*
X206481430Y-121262857D01*
X206552859Y-121120000D01*
X206695716Y-121048571D01*
X206981430Y-121048571D01*
X207124287Y-121120000D01*
X206481430Y-121977143D02*
X206624287Y-122048571D01*
X206981430Y-122048571D01*
X207124287Y-121977143D01*
X207195716Y-121834286D01*
X207195716Y-121691429D01*
X207124287Y-121548571D01*
X206981430Y-121477143D01*
X206624287Y-121477143D01*
X206481430Y-121405714D01*
X205838573Y-121977143D02*
X205695716Y-122048571D01*
X205410001Y-122048571D01*
X205267144Y-121977143D01*
X205195716Y-121834286D01*
X205195716Y-121762857D01*
X205267144Y-121620000D01*
X205410001Y-121548571D01*
X205624287Y-121548571D01*
X205767144Y-121477143D01*
X205838573Y-121334286D01*
X205838573Y-121262857D01*
X205767144Y-121120000D01*
X205624287Y-121048571D01*
X205410001Y-121048571D01*
X205267144Y-121120000D01*
X204552858Y-122048571D02*
X204552858Y-120548571D01*
X203910001Y-122048571D02*
X203910001Y-121262857D01*
X203981430Y-121120000D01*
X204124287Y-121048571D01*
X204338572Y-121048571D01*
X204481430Y-121120000D01*
X204552858Y-121191429D01*
X201195715Y-122048571D02*
X201695715Y-121334286D01*
X202052858Y-122048571D02*
X202052858Y-120548571D01*
X201481430Y-120548571D01*
X201338572Y-120620000D01*
X201267144Y-120691429D01*
X201195715Y-120834286D01*
X201195715Y-121048571D01*
X201267144Y-121191429D01*
X201338572Y-121262857D01*
X201481430Y-121334286D01*
X202052858Y-121334286D01*
X200267144Y-120548571D02*
X199981430Y-120548571D01*
X199838572Y-120620000D01*
X199695715Y-120762857D01*
X199624287Y-121048571D01*
X199624287Y-121548571D01*
X199695715Y-121834286D01*
X199838572Y-121977143D01*
X199981430Y-122048571D01*
X200267144Y-122048571D01*
X200410001Y-121977143D01*
X200552858Y-121834286D01*
X200624287Y-121548571D01*
X200624287Y-121048571D01*
X200552858Y-120762857D01*
X200410001Y-120620000D01*
X200267144Y-120548571D01*
X198981429Y-122048571D02*
X198981429Y-120548571D01*
X198481429Y-121620000D01*
X197981429Y-120548571D01*
X197981429Y-122048571D01*
D12*
X224600000Y-145080000D02*
X223600000Y-145080000D01*
X223600000Y-143380000D02*
X224600000Y-143380000D01*
X217696724Y-149822400D02*
G75*
G03X217696724Y-149822400I-366324J0D01*
G01*
X218175000Y-151005000D02*
X217925000Y-151005000D01*
X218175000Y-143255000D02*
X217830000Y-143255000D01*
X199925000Y-143255000D02*
X200270000Y-143255000D01*
X199925000Y-151005000D02*
X200270000Y-151005000D01*
X218175000Y-151005000D02*
X218175000Y-143255000D01*
X199925000Y-151005000D02*
X199925000Y-143255000D01*
X217925000Y-151005000D02*
X217925000Y-152830000D01*
D13*
X218043760Y-124390380D02*
G75*
G03X218043760Y-124390380I-101600J0D01*
G01*
X218442540Y-123890000D02*
X218442540Y-136389340D01*
X218442540Y-136389340D02*
X200042780Y-136389340D01*
X200042780Y-136389340D02*
X200042780Y-123890000D01*
X200042780Y-123890000D02*
X218442540Y-123890000D01*
D12*
X224266666Y-146687143D02*
X224314285Y-146734762D01*
X224457142Y-146782381D01*
X224552380Y-146782381D01*
X224695238Y-146734762D01*
X224790476Y-146639524D01*
X224838095Y-146544286D01*
X224885714Y-146353810D01*
X224885714Y-146210952D01*
X224838095Y-146020476D01*
X224790476Y-145925238D01*
X224695238Y-145830000D01*
X224552380Y-145782381D01*
X224457142Y-145782381D01*
X224314285Y-145830000D01*
X224266666Y-145877619D01*
X223933333Y-145782381D02*
X223266666Y-145782381D01*
X223695238Y-146782381D01*
D14*
X214626712Y-125411238D02*
X214463426Y-125459619D01*
X214191283Y-125459619D01*
X214082426Y-125411238D01*
X214027997Y-125362857D01*
X213973569Y-125266095D01*
X213973569Y-125169333D01*
X214027997Y-125072571D01*
X214082426Y-125024190D01*
X214191283Y-124975810D01*
X214408997Y-124927429D01*
X214517855Y-124879048D01*
X214572283Y-124830667D01*
X214626712Y-124733905D01*
X214626712Y-124637143D01*
X214572283Y-124540381D01*
X214517855Y-124492000D01*
X214408997Y-124443619D01*
X214136855Y-124443619D01*
X213973569Y-124492000D01*
X213538141Y-125411238D02*
X213374855Y-125459619D01*
X213102712Y-125459619D01*
X212993855Y-125411238D01*
X212939426Y-125362857D01*
X212884998Y-125266095D01*
X212884998Y-125169333D01*
X212939426Y-125072571D01*
X212993855Y-125024190D01*
X213102712Y-124975810D01*
X213320426Y-124927429D01*
X213429284Y-124879048D01*
X213483712Y-124830667D01*
X213538141Y-124733905D01*
X213538141Y-124637143D01*
X213483712Y-124540381D01*
X213429284Y-124492000D01*
X213320426Y-124443619D01*
X213048284Y-124443619D01*
X212884998Y-124492000D01*
X212558427Y-124443619D02*
X211905284Y-124443619D01*
X212231855Y-125459619D02*
X212231855Y-124443619D01*
X211633141Y-124443619D02*
X210925570Y-124443619D01*
X211306570Y-124830667D01*
X211143284Y-124830667D01*
X211034427Y-124879048D01*
X210979998Y-124927429D01*
X210925570Y-125024190D01*
X210925570Y-125266095D01*
X210979998Y-125362857D01*
X211034427Y-125411238D01*
X211143284Y-125459619D01*
X211469856Y-125459619D01*
X211578713Y-125411238D01*
X211633141Y-125362857D01*
X210272427Y-124879048D02*
X210381285Y-124830667D01*
X210435713Y-124782286D01*
X210490142Y-124685524D01*
X210490142Y-124637143D01*
X210435713Y-124540381D01*
X210381285Y-124492000D01*
X210272427Y-124443619D01*
X210054713Y-124443619D01*
X209945856Y-124492000D01*
X209891427Y-124540381D01*
X209836999Y-124637143D01*
X209836999Y-124685524D01*
X209891427Y-124782286D01*
X209945856Y-124830667D01*
X210054713Y-124879048D01*
X210272427Y-124879048D01*
X210381285Y-124927429D01*
X210435713Y-124975810D01*
X210490142Y-125072571D01*
X210490142Y-125266095D01*
X210435713Y-125362857D01*
X210381285Y-125411238D01*
X210272427Y-125459619D01*
X210054713Y-125459619D01*
X209945856Y-125411238D01*
X209891427Y-125362857D01*
X209836999Y-125266095D01*
X209836999Y-125072571D01*
X209891427Y-124975810D01*
X209945856Y-124927429D01*
X210054713Y-124879048D01*
X209510428Y-124443619D02*
X209129428Y-125459619D01*
X208748428Y-124443619D01*
X207986428Y-124927429D02*
X208367428Y-124927429D01*
X208367428Y-125459619D02*
X208367428Y-124443619D01*
X207823142Y-124443619D01*
X206897857Y-124443619D02*
X207115571Y-124443619D01*
X207224428Y-124492000D01*
X207278857Y-124540381D01*
X207387714Y-124685524D01*
X207442143Y-124879048D01*
X207442143Y-125266095D01*
X207387714Y-125362857D01*
X207333286Y-125411238D01*
X207224428Y-125459619D01*
X207006714Y-125459619D01*
X206897857Y-125411238D01*
X206843428Y-125362857D01*
X206789000Y-125266095D01*
X206789000Y-125024190D01*
X206843428Y-124927429D01*
X206897857Y-124879048D01*
X207006714Y-124830667D01*
X207224428Y-124830667D01*
X207333286Y-124879048D01*
X207387714Y-124927429D01*
X207442143Y-125024190D01*
X205809286Y-124782286D02*
X205809286Y-125459619D01*
X206081429Y-124395238D02*
X206353572Y-125120952D01*
X205646000Y-125120952D01*
X204992858Y-124443619D02*
X204884001Y-124443619D01*
X204775144Y-124492000D01*
X204720715Y-124540381D01*
X204666286Y-124637143D01*
X204611858Y-124830667D01*
X204611858Y-125072571D01*
X204666286Y-125266095D01*
X204720715Y-125362857D01*
X204775144Y-125411238D01*
X204884001Y-125459619D01*
X204992858Y-125459619D01*
X205101715Y-125411238D01*
X205156144Y-125362857D01*
X205210572Y-125266095D01*
X205265001Y-125072571D01*
X205265001Y-124830667D01*
X205210572Y-124637143D01*
X205156144Y-124540381D01*
X205101715Y-124492000D01*
X204992858Y-124443619D01*
X203523287Y-125459619D02*
X204176430Y-125459619D01*
X203849858Y-125459619D02*
X203849858Y-124443619D01*
X203958715Y-124588762D01*
X204067573Y-124685524D01*
X204176430Y-124733905D01*
D15*
M02*
