G04 #@! TF.FileFunction,Copper,L2,Bot,Signal*
%FSLAX46Y46*%
G04 Gerber Fmt 4.6, Leading zero omitted, Abs format (unit mm)*
G04 Created by KiCad (PCBNEW (after 2015-may-25 BZR unknown)-product) date 17/09/2017 09:43:34*
%MOMM*%
G01*
G04 APERTURE LIST*
%ADD10C,0.100000*%
%ADD11R,1.000000X1.250000*%
%ADD12R,0.600000X2.000000*%
%ADD13O,1.600000X1.600000*%
%ADD14R,1.800860X0.299720*%
%ADD15R,1.800860X0.200660*%
%ADD16R,1.600200X6.299200*%
%ADD17R,1.900000X1.900000*%
%ADD18C,1.900000*%
%ADD19C,0.889000*%
%ADD20C,0.400000*%
%ADD21C,0.210000*%
%ADD22C,0.410000*%
%ADD23C,0.310000*%
%ADD24C,0.254000*%
G04 APERTURE END LIST*
D10*
D11*
X223100000Y-144230000D03*
X225100000Y-144230000D03*
D12*
X217305000Y-151830000D03*
X216035000Y-151830000D03*
X214765000Y-151830000D03*
X213495000Y-151830000D03*
X212225000Y-151830000D03*
X210955000Y-151830000D03*
X209685000Y-151830000D03*
X208415000Y-151830000D03*
X207145000Y-151830000D03*
X205875000Y-151830000D03*
X204605000Y-151830000D03*
X203335000Y-151830000D03*
X202065000Y-151830000D03*
X200795000Y-151830000D03*
X200795000Y-142430000D03*
X202065000Y-142430000D03*
X203335000Y-142430000D03*
X204605000Y-142430000D03*
X205875000Y-142430000D03*
X207145000Y-142430000D03*
X208415000Y-142430000D03*
X209685000Y-142430000D03*
X210955000Y-142430000D03*
X212225000Y-142430000D03*
X213495000Y-142430000D03*
X214765000Y-142430000D03*
X216035000Y-142430000D03*
X217305000Y-142430000D03*
D13*
X189678600Y-156950600D03*
X187138600Y-156950600D03*
X184598600Y-156950600D03*
X182058600Y-156950600D03*
X179518600Y-156950600D03*
X176978600Y-156950600D03*
X174438600Y-156950600D03*
X171898600Y-156950600D03*
X171898600Y-138950600D03*
X174438600Y-138950600D03*
X176978600Y-138950600D03*
X179518600Y-138950600D03*
X182058600Y-138950600D03*
X184598600Y-138950600D03*
X187138600Y-138950600D03*
X189678600Y-138950600D03*
D14*
X219341700Y-124390380D03*
X219336620Y-124890760D03*
X219336620Y-125391140D03*
X219336620Y-125888980D03*
D15*
X219336620Y-126389360D03*
D14*
X219336620Y-126889740D03*
X219336620Y-127390120D03*
X219336620Y-127890500D03*
X219336620Y-128390880D03*
X219336620Y-128891260D03*
X219336620Y-129389100D03*
X219336620Y-129889480D03*
X219336620Y-130389860D03*
X219336620Y-130890240D03*
X219336620Y-131390620D03*
X219336620Y-131891000D03*
X219336620Y-132388840D03*
X219336620Y-132889220D03*
X219336620Y-133389600D03*
X219336620Y-133889980D03*
X219336620Y-134390360D03*
X219336620Y-134890740D03*
X219336620Y-135391120D03*
X219336620Y-135888960D03*
X199138540Y-135888960D03*
X199138540Y-135391120D03*
X199138540Y-134890740D03*
X199138540Y-134390360D03*
X199138540Y-133889980D03*
X199138540Y-133389600D03*
X199138540Y-132889220D03*
X199138540Y-132388840D03*
X199138540Y-131891000D03*
X199138540Y-131390620D03*
X199138540Y-130890240D03*
X199138540Y-130389860D03*
X199138540Y-129889480D03*
X199138540Y-129389100D03*
X199138540Y-128891260D03*
X199138540Y-128390880D03*
X199138540Y-127890500D03*
X199138540Y-127390120D03*
X199138540Y-126889740D03*
X199138540Y-126389360D03*
X199138540Y-125888980D03*
X199138540Y-125391140D03*
X199138540Y-124890760D03*
X199138540Y-124390380D03*
D16*
X168443180Y-163981420D03*
X170983180Y-163981420D03*
X173523180Y-163981420D03*
X176063180Y-163981420D03*
X178603180Y-163981420D03*
X181143180Y-163981420D03*
X183683180Y-163981420D03*
X186223180Y-163981420D03*
X188763180Y-163981420D03*
X191303180Y-163981420D03*
X193843180Y-163981420D03*
X196383180Y-163981420D03*
X198923180Y-163981420D03*
X201463180Y-163981420D03*
X204003180Y-163981420D03*
X206543180Y-163981420D03*
X209083180Y-163981420D03*
X211623180Y-163981420D03*
X214163180Y-163981420D03*
X216703180Y-163981420D03*
X219243180Y-163981420D03*
X221783180Y-163981420D03*
X224323180Y-163981420D03*
X226863180Y-163981420D03*
X229403180Y-163981420D03*
X231943180Y-163981420D03*
X234483180Y-163981420D03*
X237023180Y-163981420D03*
X239563180Y-163981420D03*
X242103180Y-163981420D03*
X244643180Y-163981420D03*
X247183180Y-163981420D03*
D17*
X175420000Y-125370000D03*
D18*
X175420000Y-122830000D03*
X177960000Y-125370000D03*
X177960000Y-122830000D03*
X180500000Y-125370000D03*
X180500000Y-122830000D03*
X183040000Y-125370000D03*
X183040000Y-122830000D03*
X185580000Y-125370000D03*
X185580000Y-122830000D03*
D19*
X210025000Y-122725000D03*
X235100000Y-138275000D03*
X221540000Y-154990000D03*
X225310000Y-150190000D03*
X208860000Y-157470000D03*
X212020000Y-157000000D03*
X194640000Y-149150000D03*
X194150014Y-123850000D03*
X195450000Y-121690480D03*
X215647463Y-125990480D03*
X237767061Y-151292939D03*
X246370000Y-124420000D03*
X209650000Y-131450000D03*
X235550000Y-135650000D03*
X235350000Y-133050000D03*
X229160000Y-130480000D03*
X210992138Y-129777254D03*
X198649223Y-136850777D03*
X193070472Y-135306781D03*
X178000000Y-135200000D03*
X200500018Y-137080497D03*
X195800000Y-155700000D03*
X231900000Y-127300000D03*
X204599990Y-145900000D03*
X206138216Y-148593110D03*
X248400000Y-158100000D03*
X222200000Y-148820000D03*
X211610000Y-153730000D03*
X205920000Y-154990000D03*
X192630000Y-147530000D03*
X197150000Y-131250000D03*
X193250000Y-127250000D03*
X210350000Y-120650000D03*
X233550000Y-128950000D03*
X186200000Y-136500000D03*
X203111153Y-146255252D03*
X224775000Y-148875000D03*
X230320000Y-146150000D03*
X239650000Y-136250000D03*
X244575000Y-156800000D03*
X196180000Y-157730000D03*
X213400000Y-145699984D03*
X186610000Y-150660000D03*
X212300000Y-144800000D03*
X199631566Y-140699568D03*
X203500002Y-144400000D03*
X173000000Y-149200000D03*
X191000000Y-142000000D03*
X210800000Y-144800000D03*
X198437062Y-141062938D03*
X179040000Y-148910000D03*
X209500000Y-144800000D03*
X198900000Y-142200000D03*
X183120000Y-152580000D03*
X202100000Y-144959520D03*
X205700000Y-145000000D03*
X208061194Y-146158873D03*
X192440000Y-157840000D03*
X206945758Y-147835606D03*
X198400000Y-154100000D03*
X193980000Y-155260000D03*
X198870000Y-157730000D03*
X208926181Y-149700362D03*
X203430000Y-157600000D03*
X207827177Y-149696321D03*
X210266854Y-158205238D03*
X208850997Y-147547902D03*
X215980000Y-157550000D03*
X209676329Y-148273610D03*
X223400000Y-156610000D03*
X210800374Y-147199626D03*
X231290000Y-154760000D03*
X214500000Y-144400000D03*
X230990000Y-151130000D03*
X234523954Y-153886046D03*
X228780000Y-155120000D03*
X220800000Y-157400000D03*
X213980000Y-157690000D03*
X176800000Y-150610000D03*
X181110000Y-149150000D03*
X177870000Y-149670000D03*
X177610000Y-154050000D03*
X174330000Y-154610000D03*
X174470000Y-150630000D03*
X192160000Y-155460000D03*
X224950000Y-122750000D03*
X224596536Y-123890492D03*
X225691924Y-123979674D03*
X208129006Y-127522422D03*
X226067949Y-125012356D03*
X217350000Y-124050000D03*
X208600000Y-136400000D03*
X216750000Y-125050000D03*
X208100000Y-134800000D03*
X229750310Y-126498254D03*
X208900000Y-132400000D03*
X209600000Y-135300000D03*
X228710903Y-126250717D03*
X210000000Y-133200000D03*
X210558164Y-134761716D03*
X227590383Y-126282093D03*
X227850000Y-127350000D03*
X212749998Y-133850000D03*
X231050000Y-131450000D03*
X232125335Y-132648735D03*
X232050000Y-133750000D03*
X231450000Y-135850000D03*
X214118685Y-134821064D03*
X213746856Y-135855264D03*
X213550000Y-136950000D03*
X214582132Y-137732193D03*
X229750000Y-136250000D03*
X228250000Y-137150000D03*
X191890000Y-133300000D03*
X191850000Y-132010000D03*
X193740000Y-131930000D03*
X208900000Y-137760436D03*
X195750000Y-130750000D03*
X201800000Y-135900000D03*
X202886503Y-135734653D03*
X202613012Y-134527505D03*
X203499648Y-133878117D03*
X204578875Y-133670518D03*
X205525000Y-133050000D03*
X204405860Y-132013669D03*
X205504782Y-131760518D03*
X206057406Y-130810553D03*
X205855722Y-129730205D03*
X206109127Y-128660806D03*
X201826296Y-126877091D03*
X202550000Y-125650000D03*
X201188170Y-125391568D03*
X206100000Y-136500000D03*
X207650000Y-123150000D03*
X196450000Y-125250000D03*
X197550000Y-123350000D03*
X201250000Y-123850000D03*
X207500000Y-126600000D03*
X224650000Y-137150000D03*
X212850000Y-131550000D03*
X224150000Y-139650000D03*
X238050000Y-157750000D03*
X237850000Y-153650000D03*
X228950000Y-145650000D03*
X227850000Y-142550000D03*
X189350000Y-126950000D03*
X182550000Y-127550000D03*
X193100000Y-139000000D03*
X188600000Y-129200000D03*
X178800000Y-129900000D03*
X189859520Y-132100000D03*
X192600000Y-136300000D03*
X189500000Y-128300000D03*
X179950000Y-128550000D03*
X190800000Y-130100000D03*
X201490000Y-157600000D03*
X205804297Y-157652482D03*
X179950000Y-153210000D03*
X179970000Y-150510000D03*
X217410000Y-157140000D03*
X225980000Y-155400000D03*
X232190000Y-152880000D03*
X241540000Y-157280000D03*
X236300000Y-125400000D03*
X217550002Y-138807762D03*
X230050000Y-123550000D03*
X209899996Y-129900000D03*
X234950000Y-122950000D03*
X226450000Y-137909510D03*
X172990000Y-146960000D03*
X237750000Y-127850000D03*
X218850000Y-139290490D03*
X201664194Y-136990578D03*
X196700000Y-138800000D03*
X188420000Y-141765000D03*
X192000000Y-134700000D03*
X206900000Y-137340425D03*
D20*
X197380000Y-149070000D02*
X195840000Y-147530000D01*
X197380000Y-149090000D02*
X197380000Y-149070000D01*
X235100000Y-135940000D02*
X235100000Y-137646383D01*
X235290000Y-135750000D02*
X235100000Y-135940000D01*
X234471383Y-138275000D02*
X235100000Y-138275000D01*
X233455000Y-138275000D02*
X234471383Y-138275000D01*
X235100000Y-137646383D02*
X235100000Y-138275000D01*
X233030000Y-138700000D02*
X233455000Y-138275000D01*
X211623180Y-157513180D02*
X211623180Y-163981420D01*
X209210000Y-157120000D02*
X208860000Y-157470000D01*
X211230000Y-157120000D02*
X209210000Y-157120000D01*
X211575000Y-157465000D02*
X211230000Y-157120000D01*
X211623180Y-157513180D02*
X211575000Y-157465000D01*
D21*
X212020000Y-157000000D02*
X211575000Y-157445000D01*
X211575000Y-157445000D02*
X211575000Y-157465000D01*
D20*
X225310000Y-150370000D02*
X222020000Y-153660000D01*
X222020000Y-153660000D02*
X220880000Y-153660000D01*
X220880000Y-153660000D02*
X218890000Y-155650000D01*
X218890000Y-155650000D02*
X215460000Y-155650000D01*
X215460000Y-155650000D02*
X214560000Y-156550000D01*
X214560000Y-156550000D02*
X212470000Y-156550000D01*
X212470000Y-156550000D02*
X212020000Y-157000000D01*
X225310000Y-150190000D02*
X225310000Y-150370000D01*
X212020000Y-157116360D02*
X211623180Y-157513180D01*
X212020000Y-157000000D02*
X212020000Y-157116360D01*
X189620000Y-149150000D02*
X187138600Y-151631400D01*
X187138600Y-151631400D02*
X187138600Y-156950600D01*
X189710000Y-149150000D02*
X189620000Y-149150000D01*
X194640000Y-149150000D02*
X189710000Y-149150000D01*
D21*
X196550000Y-124050000D02*
X194350014Y-124050000D01*
X197891140Y-125391140D02*
X196550000Y-124050000D01*
X194350014Y-124050000D02*
X194150014Y-123850000D01*
X199138540Y-125391140D02*
X197891140Y-125391140D01*
X194150014Y-123850000D02*
X195450000Y-122550014D01*
X195450000Y-122319097D02*
X195450000Y-121690480D01*
X195450000Y-122550014D02*
X195450000Y-122319097D01*
X215647463Y-121552537D02*
X215647463Y-125361863D01*
X215647463Y-125361863D02*
X215647463Y-125990480D01*
X216650000Y-120550000D02*
X215647463Y-121552537D01*
D20*
X236664122Y-150190000D02*
X237322562Y-150848440D01*
X225310000Y-150190000D02*
X236664122Y-150190000D01*
X237322562Y-150848440D02*
X237767061Y-151292939D01*
X246370000Y-125030000D02*
X246370000Y-124420000D01*
X237950000Y-133450000D02*
X246370000Y-125030000D01*
X235290000Y-135750000D02*
X235650000Y-135750000D01*
D21*
X235290000Y-135750000D02*
X235290000Y-135661387D01*
X235301387Y-135650000D02*
X235550000Y-135650000D01*
X235290000Y-135661387D02*
X235301387Y-135650000D01*
D22*
X235900000Y-133700000D02*
X235550000Y-134050000D01*
X236150000Y-133450000D02*
X235900000Y-133700000D01*
X235550000Y-134050000D02*
X235550000Y-135650000D01*
X237950000Y-133450000D02*
X236150000Y-133450000D01*
X235900000Y-133600000D02*
X235900000Y-133700000D01*
X235900000Y-133600000D02*
X235350000Y-133050000D01*
D21*
X210992138Y-130107862D02*
X210992138Y-129777254D01*
X209650000Y-131450000D02*
X210992138Y-130107862D01*
D22*
X198800000Y-136700000D02*
X198649223Y-136850777D01*
X198900000Y-136700000D02*
X198800000Y-136700000D01*
D21*
X194463691Y-136700000D02*
X193514971Y-135751280D01*
X193514971Y-135751280D02*
X193070472Y-135306781D01*
X198900000Y-136700000D02*
X194463691Y-136700000D01*
D20*
X189710000Y-145260000D02*
X186090000Y-141640000D01*
D23*
X168443180Y-163981420D02*
X168443180Y-147066820D01*
X185990000Y-141740000D02*
X186090000Y-141640000D01*
X173770000Y-141740000D02*
X185990000Y-141740000D01*
X168443180Y-147066820D02*
X173770000Y-141740000D01*
D20*
X189710000Y-149150000D02*
X189710000Y-145260000D01*
D23*
X186090000Y-141640000D02*
X187138600Y-140591400D01*
X187138600Y-140591400D02*
X187138600Y-138950600D01*
D21*
X200248970Y-134890740D02*
X200500018Y-135141788D01*
X200270298Y-136850777D02*
X200500018Y-137080497D01*
X200500018Y-136451880D02*
X200500018Y-137080497D01*
X200500018Y-135141788D02*
X200500018Y-136451880D01*
X198649223Y-136850777D02*
X200270298Y-136850777D01*
X199138540Y-134890740D02*
X200248970Y-134890740D01*
D20*
X208860000Y-157470000D02*
X207830000Y-156440000D01*
X195355501Y-155255501D02*
X195800000Y-155700000D01*
X207830000Y-156440000D02*
X196540000Y-156440000D01*
X196540000Y-156440000D02*
X196244499Y-156144499D01*
X194640000Y-154540000D02*
X195355501Y-155255501D01*
X196244499Y-156144499D02*
X195800000Y-155700000D01*
X194640000Y-149150000D02*
X194640000Y-154540000D01*
D21*
X204155491Y-146344499D02*
X204599990Y-145900000D01*
X200795000Y-151830000D02*
X200795000Y-149704990D01*
X200795000Y-149704990D02*
X204155491Y-146344499D01*
X247183180Y-163981420D02*
X247183180Y-159316820D01*
X247183180Y-159316820D02*
X248400000Y-158100000D01*
D22*
X223625000Y-147225000D02*
X223350000Y-146950000D01*
X223625000Y-149500000D02*
X223625000Y-147225000D01*
X224315000Y-150190000D02*
X223625000Y-149500000D01*
X225310000Y-150190000D02*
X224315000Y-150190000D01*
X223100000Y-146675000D02*
X223400000Y-146975000D01*
X223100000Y-144230000D02*
X223100000Y-146675000D01*
X205920000Y-154990000D02*
X210350000Y-154990000D01*
X210350000Y-154990000D02*
X211610000Y-153730000D01*
D21*
X211610000Y-153730000D02*
X211550000Y-153670000D01*
D20*
X222200000Y-151070000D02*
X220490000Y-152780000D01*
X222200000Y-148820000D02*
X222200000Y-151070000D01*
X211970000Y-154090000D02*
X211610000Y-153730000D01*
X218180000Y-154090000D02*
X211970000Y-154090000D01*
X219490000Y-152780000D02*
X218180000Y-154090000D01*
X220490000Y-152780000D02*
X219490000Y-152780000D01*
X198520000Y-150300000D02*
X198520000Y-150230000D01*
X198520000Y-147810000D02*
X196360000Y-145650000D01*
X196360000Y-145650000D02*
X196360000Y-145640000D01*
X196360000Y-145640000D02*
X196030000Y-145310000D01*
X196030000Y-145310000D02*
X194850000Y-145310000D01*
X194850000Y-145310000D02*
X192630000Y-147530000D01*
X198520000Y-149600000D02*
X198520000Y-147810000D01*
X198520000Y-150300000D02*
X198520000Y-149600000D01*
D21*
X199138540Y-129889480D02*
X197110520Y-129889480D01*
X196750000Y-130850000D02*
X197150000Y-131250000D01*
X196750000Y-130250000D02*
X196750000Y-130850000D01*
X197110520Y-129889480D02*
X196750000Y-130250000D01*
D20*
X209721383Y-120650000D02*
X210350000Y-120650000D01*
X193250000Y-127250000D02*
X193250000Y-121350000D01*
X193800000Y-120800000D02*
X193950000Y-120650000D01*
X193250000Y-121350000D02*
X193800000Y-120800000D01*
X193950000Y-120650000D02*
X209721383Y-120650000D01*
D21*
X221410520Y-129889480D02*
X221450000Y-129850000D01*
X221450000Y-129850000D02*
X226950000Y-129850000D01*
X226950000Y-129850000D02*
X227850000Y-128950000D01*
X227850000Y-128950000D02*
X233550000Y-128950000D01*
X219336620Y-129889480D02*
X221410520Y-129889480D01*
X217490240Y-130890240D02*
X217250000Y-130650000D01*
X217250000Y-130650000D02*
X217250000Y-130350000D01*
X217250000Y-130350000D02*
X217710520Y-129889480D01*
X217710520Y-129889480D02*
X219336620Y-129889480D01*
X219336620Y-130890240D02*
X217490240Y-130890240D01*
D22*
X177960000Y-122040000D02*
X177960000Y-122830000D01*
X179200000Y-120800000D02*
X177960000Y-122040000D01*
X193800000Y-120800000D02*
X179200000Y-120800000D01*
X189800000Y-136300000D02*
X186400000Y-136300000D01*
X186400000Y-136300000D02*
X186200000Y-136500000D01*
X191500000Y-139900000D02*
X191500000Y-138000000D01*
X189900000Y-141500000D02*
X191500000Y-139900000D01*
X189900000Y-143200000D02*
X189900000Y-141500000D01*
X192630000Y-145930000D02*
X189900000Y-143200000D01*
X191500000Y-138000000D02*
X189800000Y-136300000D01*
X192630000Y-147530000D02*
X192630000Y-145930000D01*
X189000000Y-135500000D02*
X189800000Y-136300000D01*
X193250000Y-127250000D02*
X192150000Y-127250000D01*
X189000000Y-130400000D02*
X189000000Y-135500000D01*
X192150000Y-127250000D02*
X189000000Y-130400000D01*
D20*
X196900000Y-151920000D02*
X198520000Y-150300000D01*
X196900000Y-154200000D02*
X196900000Y-151920000D01*
X197690000Y-154990000D02*
X196900000Y-154200000D01*
X205920000Y-154990000D02*
X197690000Y-154990000D01*
D21*
X198520000Y-149600000D02*
X201864748Y-146255252D01*
X201864748Y-146255252D02*
X202482536Y-146255252D01*
X202482536Y-146255252D02*
X203111153Y-146255252D01*
D22*
X227595000Y-148875000D02*
X230320000Y-146150000D01*
X224775000Y-148875000D02*
X227595000Y-148875000D01*
D20*
X231850000Y-139950000D02*
X235950000Y-139950000D01*
X235950000Y-139950000D02*
X239650000Y-136250000D01*
X228050000Y-143750000D02*
X231850000Y-139950000D01*
X227050000Y-143750000D02*
X228050000Y-143750000D01*
X225730000Y-142430000D02*
X227050000Y-143750000D01*
X217305000Y-142430000D02*
X225730000Y-142430000D01*
D23*
X170983180Y-157866020D02*
X171898600Y-156950600D01*
D21*
X170983180Y-163981420D02*
X170983180Y-157866020D01*
D22*
X244643180Y-163981420D02*
X244643180Y-156868180D01*
X244643180Y-156868180D02*
X244575000Y-156800000D01*
X227050000Y-144075000D02*
X226895000Y-144230000D01*
X226895000Y-144230000D02*
X225100000Y-144230000D01*
X227050000Y-143750000D02*
X227050000Y-144075000D01*
D21*
X196383180Y-157933180D02*
X196383180Y-163981420D01*
X196180000Y-157730000D02*
X196383180Y-157933180D01*
X217305000Y-151830000D02*
X217305000Y-149604984D01*
X213844499Y-146144483D02*
X213400000Y-145699984D01*
X217305000Y-149604984D02*
X213844499Y-146144483D01*
X185870000Y-163628240D02*
X186223180Y-163981420D01*
X185870000Y-155940000D02*
X185870000Y-163628240D01*
X185630000Y-155700000D02*
X185870000Y-155940000D01*
X185630000Y-154670000D02*
X185630000Y-155700000D01*
X185620000Y-154660000D02*
X185630000Y-154670000D01*
X185620000Y-151650000D02*
X185620000Y-154660000D01*
X186610000Y-150660000D02*
X185620000Y-151650000D01*
X212300000Y-144800000D02*
X212300000Y-145500000D01*
X216035000Y-149235000D02*
X213900000Y-147100000D01*
X216035000Y-151830000D02*
X216035000Y-149235000D01*
X213800000Y-147000000D02*
X213900000Y-147100000D01*
X213500000Y-147000000D02*
X213800000Y-147000000D01*
X212600000Y-146100000D02*
X213500000Y-147000000D01*
X212600000Y-145800000D02*
X212600000Y-146100000D01*
X212300000Y-145500000D02*
X212600000Y-145800000D01*
X202671385Y-144200000D02*
X202871385Y-144400000D01*
X200076065Y-143976065D02*
X200300000Y-144200000D01*
X199631566Y-140699568D02*
X200076065Y-141144067D01*
X200076065Y-141144067D02*
X200076065Y-143976065D01*
X200300000Y-144200000D02*
X202671385Y-144200000D01*
X202871385Y-144400000D02*
X203500002Y-144400000D01*
X173470000Y-163928240D02*
X173523180Y-163981420D01*
X173470000Y-158460000D02*
X173470000Y-163928240D01*
X173130000Y-158120000D02*
X173470000Y-158460000D01*
X173130000Y-149330000D02*
X173130000Y-158120000D01*
X173000000Y-149200000D02*
X173130000Y-149330000D01*
X210800000Y-144900000D02*
X212200000Y-146300000D01*
X212200000Y-146300000D02*
X212200000Y-146400000D01*
X212200000Y-146400000D02*
X214765000Y-148965000D01*
X214765000Y-148965000D02*
X214765000Y-151830000D01*
X210800000Y-144800000D02*
X210800000Y-144900000D01*
X197500000Y-142000000D02*
X197992563Y-141507437D01*
X197992563Y-141507437D02*
X198437062Y-141062938D01*
X191000000Y-142000000D02*
X197500000Y-142000000D01*
X178603180Y-159393180D02*
X178230000Y-159020000D01*
X178230000Y-159020000D02*
X178230000Y-154870000D01*
X178230000Y-154870000D02*
X179050000Y-154050000D01*
X179050000Y-154050000D02*
X179050000Y-148920000D01*
X179050000Y-148920000D02*
X179040000Y-148910000D01*
X178603180Y-163981420D02*
X178603180Y-159393180D01*
X209500000Y-144800000D02*
X209700000Y-144800000D01*
X213495000Y-149595000D02*
X211900000Y-148000000D01*
X211900000Y-148000000D02*
X211900000Y-147000000D01*
X211900000Y-147000000D02*
X209700000Y-144800000D01*
X213495000Y-149595000D02*
X213495000Y-151830000D01*
X199100000Y-142400000D02*
X198900000Y-142200000D01*
X183683180Y-159453180D02*
X183310000Y-159080000D01*
X183310000Y-159080000D02*
X183310000Y-152770000D01*
X183310000Y-152770000D02*
X183120000Y-152580000D01*
X183683180Y-163981420D02*
X183683180Y-159453180D01*
X202100000Y-144959520D02*
X202544499Y-145404019D01*
X203912447Y-145404019D02*
X204316466Y-145000000D01*
X205071383Y-145000000D02*
X205700000Y-145000000D01*
X202544499Y-145404019D02*
X203912447Y-145404019D01*
X204316466Y-145000000D02*
X205071383Y-145000000D01*
X209164890Y-146158873D02*
X208689811Y-146158873D01*
X212225000Y-149698375D02*
X210040499Y-147513874D01*
X210040499Y-147034483D02*
X210037058Y-147031041D01*
X210037058Y-147031041D02*
X209164890Y-146158873D01*
X210040499Y-147513874D02*
X210040499Y-147034483D01*
X208689811Y-146158873D02*
X208061194Y-146158873D01*
X212225000Y-151830000D02*
X212225000Y-149698375D01*
X192440000Y-157840000D02*
X192440000Y-157500000D01*
X188763180Y-159793180D02*
X188763180Y-163981420D01*
X188400000Y-159430000D02*
X188763180Y-159793180D01*
X188400000Y-154940000D02*
X188400000Y-159430000D01*
X190160000Y-153180000D02*
X188400000Y-154940000D01*
X192460000Y-153180000D02*
X190160000Y-153180000D01*
X193080000Y-153800000D02*
X192460000Y-153180000D01*
X193080000Y-156860000D02*
X193080000Y-153800000D01*
X192440000Y-157500000D02*
X193080000Y-156860000D01*
X207390257Y-148280105D02*
X206945758Y-147835606D01*
X209237821Y-148902821D02*
X208012973Y-148902821D01*
X210955000Y-150620000D02*
X209237821Y-148902821D01*
X210955000Y-151830000D02*
X210955000Y-150620000D01*
X208012973Y-148902821D02*
X207390257Y-148280105D01*
X188390000Y-163608240D02*
X188763180Y-163981420D01*
X207790000Y-154100000D02*
X198400000Y-154100000D01*
X207790000Y-154100000D02*
X207790000Y-154100000D01*
X207790000Y-154100000D02*
X208849999Y-154100000D01*
X208849999Y-154100000D02*
X209685000Y-153264999D01*
X209685000Y-153264999D02*
X209685000Y-153040000D01*
X209685000Y-153040000D02*
X209685000Y-151830000D01*
X193843180Y-155396820D02*
X193843180Y-163981420D01*
X193980000Y-155260000D02*
X193843180Y-155396820D01*
X209685000Y-151830000D02*
X209600000Y-151745000D01*
X198923180Y-157783180D02*
X198923180Y-163981420D01*
X198870000Y-157730000D02*
X198923180Y-157783180D01*
X208415000Y-150211543D02*
X208481682Y-150144861D01*
X208481682Y-150144861D02*
X208926181Y-149700362D01*
X208415000Y-151830000D02*
X208415000Y-150211543D01*
X204003180Y-158173180D02*
X204003180Y-163981420D01*
X203430000Y-157600000D02*
X204003180Y-158173180D01*
X207145000Y-150378498D02*
X207382678Y-150140820D01*
X207145000Y-151830000D02*
X207145000Y-150378498D01*
X207382678Y-150140820D02*
X207827177Y-149696321D01*
X209083180Y-163981420D02*
X209083180Y-159388912D01*
X209083180Y-159388912D02*
X209822355Y-158649737D01*
X209822355Y-158649737D02*
X210266854Y-158205238D01*
X207310319Y-147076105D02*
X207782116Y-147547902D01*
X205875000Y-151830000D02*
X205875000Y-151130000D01*
X205875000Y-151130000D02*
X204840499Y-150095499D01*
X204840499Y-148816704D02*
X206581098Y-147076105D01*
X206581098Y-147076105D02*
X207310319Y-147076105D01*
X207782116Y-147547902D02*
X208222380Y-147547902D01*
X208222380Y-147547902D02*
X208850997Y-147547902D01*
X204840499Y-150095499D02*
X204840499Y-148816704D01*
X209617047Y-147205015D02*
X209617047Y-148214328D01*
X208764600Y-146579531D02*
X208991563Y-146579531D01*
X208991563Y-146579531D02*
X209617047Y-147205015D01*
X208425109Y-146919022D02*
X208764600Y-146579531D01*
X209617047Y-148214328D02*
X209676329Y-148273610D01*
X207747220Y-146919022D02*
X208425109Y-146919022D01*
X207484293Y-146656094D02*
X207747220Y-146919022D01*
X206407125Y-146656094D02*
X207484293Y-146656094D01*
X204095000Y-148968219D02*
X206407125Y-146656094D01*
X204095000Y-150620000D02*
X204095000Y-148968219D01*
X204605000Y-151130000D02*
X204095000Y-150620000D01*
X204605000Y-151830000D02*
X204605000Y-151130000D01*
X216703180Y-158273180D02*
X216703180Y-163981420D01*
X215980000Y-157550000D02*
X216703180Y-158273180D01*
X224323180Y-157533180D02*
X224323180Y-163981420D01*
X223400000Y-156610000D02*
X224323180Y-157533180D01*
X203335000Y-149134235D02*
X207069864Y-145399371D01*
X207069864Y-145399371D02*
X209000119Y-145399371D01*
X210355875Y-146755127D02*
X210800374Y-147199626D01*
X203335000Y-151830000D02*
X203335000Y-149134235D01*
X209000119Y-145399371D02*
X210355875Y-146755127D01*
X231943180Y-155413180D02*
X231943180Y-163981420D01*
X231290000Y-154760000D02*
X231943180Y-155413180D01*
X214055501Y-143955501D02*
X214500000Y-144400000D01*
X207919750Y-143955501D02*
X214055501Y-143955501D01*
X202065000Y-149810251D02*
X207919750Y-143955501D01*
X202065000Y-151830000D02*
X202065000Y-149810251D01*
X231618617Y-151130000D02*
X230990000Y-151130000D01*
X236530000Y-151130000D02*
X231618617Y-151130000D01*
X239563180Y-154163180D02*
X236530000Y-151130000D01*
X239563180Y-163981420D02*
X239563180Y-154163180D01*
X237023180Y-156385272D02*
X234968453Y-154330545D01*
X234968453Y-154330545D02*
X234523954Y-153886046D01*
X237023180Y-163981420D02*
X237023180Y-156385272D01*
X229403180Y-155743180D02*
X229403180Y-163981420D01*
X228780000Y-155120000D02*
X229403180Y-155743180D01*
X221783180Y-158383180D02*
X221783180Y-163981420D01*
X220800000Y-157400000D02*
X221783180Y-158383180D01*
X214163180Y-157873180D02*
X214163180Y-163981420D01*
X213980000Y-157690000D02*
X214163180Y-157873180D01*
X175730000Y-163648240D02*
X176063180Y-163981420D01*
X175730000Y-155620000D02*
X175730000Y-163648240D01*
X176740000Y-154610000D02*
X175730000Y-155620000D01*
X176740000Y-150670000D02*
X176740000Y-154610000D01*
X176800000Y-150610000D02*
X176740000Y-150670000D01*
X181143180Y-159753180D02*
X180820000Y-159430000D01*
X180820000Y-159430000D02*
X180820000Y-152010000D01*
X180820000Y-152010000D02*
X181110000Y-151720000D01*
X181110000Y-151720000D02*
X181110000Y-149150000D01*
X181143180Y-163981420D02*
X181143180Y-159753180D01*
X177870000Y-149670000D02*
X177870000Y-153790000D01*
X177870000Y-153790000D02*
X177610000Y-154050000D01*
X174330000Y-150770000D02*
X174330000Y-154610000D01*
X174470000Y-150630000D02*
X174330000Y-150770000D01*
X191290000Y-163968240D02*
X191303180Y-163981420D01*
X191290000Y-156330000D02*
X191290000Y-163968240D01*
X192160000Y-155460000D02*
X191290000Y-156330000D01*
X223011623Y-124390380D02*
X224652003Y-122750000D01*
X219341700Y-124390380D02*
X223011623Y-124390380D01*
X224652003Y-122750000D02*
X224950000Y-122750000D01*
X224152037Y-124334991D02*
X224596536Y-123890492D01*
X223596268Y-124890760D02*
X224152037Y-124334991D01*
X219336620Y-124890760D02*
X223596268Y-124890760D01*
X219336620Y-125391140D02*
X224280458Y-125391140D01*
X225247425Y-124424173D02*
X225691924Y-123979674D01*
X224280458Y-125391140D02*
X225247425Y-124424173D01*
X211317665Y-136817665D02*
X211317665Y-134397155D01*
X214765000Y-140265000D02*
X211317665Y-136817665D01*
X208129006Y-128151039D02*
X208129006Y-127522422D01*
X211317665Y-134397155D02*
X210922725Y-134002215D01*
X210922725Y-134002215D02*
X208902215Y-134002215D01*
X208902215Y-134002215D02*
X208129006Y-133229006D01*
X208129006Y-133229006D02*
X208129006Y-128151039D01*
X214765000Y-142430000D02*
X214765000Y-140265000D01*
X225191325Y-125888980D02*
X225623450Y-125456855D01*
X225623450Y-125456855D02*
X226067949Y-125012356D01*
X219336620Y-125888980D02*
X225191325Y-125888980D01*
X217509501Y-124209501D02*
X217350000Y-124050000D01*
X218226190Y-126389360D02*
X217509501Y-125672671D01*
X219336620Y-126389360D02*
X218226190Y-126389360D01*
X217509501Y-125672671D02*
X217509501Y-124209501D01*
X210955000Y-138555000D02*
X210955000Y-142430000D01*
X208800000Y-136400000D02*
X210955000Y-138555000D01*
X208600000Y-136400000D02*
X208800000Y-136400000D01*
X219336620Y-126889740D02*
X217961123Y-126889740D01*
X217961123Y-126889740D02*
X216750000Y-125678617D01*
X216750000Y-125678617D02*
X216750000Y-125050000D01*
X208100000Y-135400000D02*
X207700000Y-135800000D01*
X207700000Y-135800000D02*
X207700000Y-138000000D01*
X207700000Y-138000000D02*
X208415000Y-138715000D01*
X208415000Y-138715000D02*
X208415000Y-142430000D01*
X208100000Y-134800000D02*
X208100000Y-135400000D01*
X228983253Y-125102580D02*
X229750310Y-125869637D01*
X227051847Y-125102580D02*
X228983253Y-125102580D01*
X229750310Y-125869637D02*
X229750310Y-126498254D01*
X224764307Y-127390120D02*
X227051847Y-125102580D01*
X219336620Y-127390120D02*
X224764307Y-127390120D01*
X215109880Y-127390120D02*
X210100000Y-132400000D01*
X210100000Y-132400000D02*
X208900000Y-132400000D01*
X219336620Y-127390120D02*
X215109880Y-127390120D01*
X209600000Y-135928617D02*
X209600000Y-135300000D01*
X209600000Y-136600000D02*
X209600000Y-135928617D01*
X212225000Y-142430000D02*
X212225000Y-139225000D01*
X212225000Y-139225000D02*
X209600000Y-136600000D01*
X224857912Y-127890500D02*
X227225821Y-125522591D01*
X219336620Y-127890500D02*
X224857912Y-127890500D01*
X227225821Y-125522591D02*
X227982777Y-125522591D01*
X227982777Y-125522591D02*
X228266404Y-125806218D01*
X228266404Y-125806218D02*
X228710903Y-126250717D01*
X210444499Y-132755501D02*
X210000000Y-133200000D01*
X215309500Y-127890500D02*
X210444499Y-132755501D01*
X219336620Y-127890500D02*
X215309500Y-127890500D01*
X210558164Y-135390333D02*
X210558164Y-134761716D01*
X213495000Y-139795000D02*
X210558164Y-136858164D01*
X210558164Y-136858164D02*
X210558164Y-135390333D01*
X213495000Y-142430000D02*
X213495000Y-139795000D01*
X219336620Y-128390880D02*
X225481596Y-128390880D01*
X225481596Y-128390880D02*
X227145884Y-126726592D01*
X227145884Y-126726592D02*
X227590383Y-126282093D01*
X226308740Y-128891260D02*
X227405501Y-127794499D01*
X219336620Y-128891260D02*
X226308740Y-128891260D01*
X227405501Y-127794499D02*
X227850000Y-127350000D01*
X219336620Y-129389100D02*
X217210898Y-129389100D01*
X217210898Y-129389100D02*
X213194497Y-133405501D01*
X213194497Y-133405501D02*
X212749998Y-133850000D01*
X229050000Y-131450000D02*
X230421383Y-131450000D01*
X230421383Y-131450000D02*
X231050000Y-131450000D01*
X219336620Y-130389860D02*
X227989860Y-130389860D01*
X227989860Y-130389860D02*
X229050000Y-131450000D01*
X231124671Y-132648735D02*
X231496718Y-132648735D01*
X219336620Y-131891000D02*
X230366936Y-131891000D01*
X230366936Y-131891000D02*
X231124671Y-132648735D01*
X231496718Y-132648735D02*
X232125335Y-132648735D01*
X219336620Y-132388840D02*
X227688840Y-132388840D01*
X227688840Y-132388840D02*
X229050000Y-133750000D01*
X231421383Y-133750000D02*
X232050000Y-133750000D01*
X229050000Y-133750000D02*
X231421383Y-133750000D01*
X227189220Y-132889220D02*
X228550000Y-134250000D01*
X228550000Y-134250000D02*
X229850000Y-134250000D01*
X229850000Y-134250000D02*
X231450000Y-135850000D01*
X219336620Y-132889220D02*
X227189220Y-132889220D01*
X215550149Y-133389600D02*
X214563184Y-134376565D01*
X219336620Y-133389600D02*
X215550149Y-133389600D01*
X214563184Y-134376565D02*
X214118685Y-134821064D01*
X219336620Y-133889980D02*
X217510020Y-133889980D01*
X217510020Y-133889980D02*
X215544736Y-135855264D01*
X215544736Y-135855264D02*
X214375473Y-135855264D01*
X214375473Y-135855264D02*
X213746856Y-135855264D01*
X215098893Y-136950000D02*
X214178617Y-136950000D01*
X217658533Y-134390360D02*
X215098893Y-136950000D01*
X219336620Y-134390360D02*
X217658533Y-134390360D01*
X214178617Y-136950000D02*
X213550000Y-136950000D01*
X219336620Y-134890740D02*
X217809260Y-134890740D01*
X217809260Y-134890740D02*
X214967807Y-137732193D01*
X214967807Y-137732193D02*
X214582132Y-137732193D01*
X229150000Y-135650000D02*
X229305501Y-135805501D01*
X222243983Y-135650000D02*
X229150000Y-135650000D01*
X222062933Y-135468950D02*
X222243983Y-135650000D01*
X220533902Y-135468950D02*
X222062933Y-135468950D01*
X229305501Y-135805501D02*
X229750000Y-136250000D01*
X220489051Y-135424099D02*
X220533902Y-135468950D01*
X219369599Y-135424099D02*
X220489051Y-135424099D01*
X219336620Y-135391120D02*
X219369599Y-135424099D01*
X227350000Y-136250000D02*
X228250000Y-137150000D01*
X221888960Y-135888960D02*
X222250000Y-136250000D01*
X222250000Y-136250000D02*
X227350000Y-136250000D01*
X219336620Y-135888960D02*
X221888960Y-135888960D01*
X197398960Y-135888960D02*
X194810000Y-133300000D01*
X194810000Y-133300000D02*
X191890000Y-133300000D01*
X199138540Y-135888960D02*
X197398960Y-135888960D01*
X197611120Y-135391120D02*
X197470000Y-135250000D01*
X197470000Y-135250000D02*
X197370000Y-135250000D01*
X197370000Y-135250000D02*
X194999998Y-132879998D01*
X194999998Y-132879998D02*
X192719998Y-132879998D01*
X192719998Y-132879998D02*
X191850000Y-132010000D01*
X199138540Y-135391120D02*
X197611120Y-135391120D01*
X197230360Y-134390360D02*
X199138540Y-134390360D01*
X197140000Y-134300000D02*
X197230360Y-134390360D01*
X197140000Y-134270000D02*
X197140000Y-134300000D01*
X196110000Y-133240000D02*
X197140000Y-134270000D01*
X196070000Y-133240000D02*
X196110000Y-133240000D01*
X194760000Y-131930000D02*
X196070000Y-133240000D01*
X193740000Y-131930000D02*
X194760000Y-131930000D01*
X209685000Y-138545436D02*
X209344499Y-138204935D01*
X209344499Y-138204935D02*
X208900000Y-137760436D01*
X209685000Y-142430000D02*
X209685000Y-138545436D01*
X197389980Y-133889980D02*
X195550000Y-132050000D01*
X195550000Y-132050000D02*
X195550000Y-130950000D01*
X195550000Y-130950000D02*
X195750000Y-130750000D01*
X199138540Y-133889980D02*
X197389980Y-133889980D01*
X201355501Y-135455501D02*
X201800000Y-135900000D01*
X200248970Y-133389600D02*
X201266649Y-134407279D01*
X201266649Y-134407279D02*
X201266649Y-135366649D01*
X201266649Y-135366649D02*
X201355501Y-135455501D01*
X199138540Y-133389600D02*
X200248970Y-133389600D01*
X201686660Y-134215079D02*
X201686660Y-134862596D01*
X202442004Y-135290154D02*
X202886503Y-135734653D01*
X200360801Y-132889220D02*
X201686660Y-134215079D01*
X202314218Y-135290154D02*
X202442004Y-135290154D01*
X201686660Y-134862596D02*
X201964562Y-135140498D01*
X201964562Y-135140498D02*
X202164562Y-135140498D01*
X202164562Y-135140498D02*
X202314218Y-135290154D01*
X199138540Y-132889220D02*
X200360801Y-132889220D01*
X199138540Y-132388840D02*
X200913840Y-132388840D01*
X200913840Y-132388840D02*
X202168513Y-133643513D01*
X202168513Y-133643513D02*
X202168513Y-134083006D01*
X202168513Y-134083006D02*
X202613012Y-134527505D01*
X201512531Y-131891000D02*
X203055149Y-133433618D01*
X199138540Y-131891000D02*
X201512531Y-131891000D01*
X203055149Y-133433618D02*
X203499648Y-133878117D01*
X203731283Y-133118616D02*
X203864209Y-133118616D01*
X199138540Y-131390620D02*
X202003287Y-131390620D01*
X202003287Y-131390620D02*
X203731283Y-133118616D01*
X204416111Y-133670518D02*
X204578875Y-133670518D01*
X203864209Y-133118616D02*
X204416111Y-133670518D01*
X204239578Y-132900000D02*
X205375000Y-132900000D01*
X205525000Y-134203874D02*
X205525000Y-133678617D01*
X202158367Y-130890240D02*
X203966732Y-132698605D01*
X199138540Y-130890240D02*
X202158367Y-130890240D01*
X203966732Y-132698605D02*
X204038183Y-132698605D01*
X205525000Y-133678617D02*
X205525000Y-133050000D01*
X200795000Y-142430000D02*
X200795000Y-138933874D01*
X200795000Y-138933874D02*
X205525000Y-134203874D01*
X204038183Y-132698605D02*
X204239578Y-132900000D01*
X205375000Y-132900000D02*
X205525000Y-133050000D01*
X199138540Y-130389860D02*
X202782051Y-130389860D01*
X202782051Y-130389860D02*
X203961361Y-131569170D01*
X203961361Y-131569170D02*
X204405860Y-132013669D01*
X206133399Y-131760518D02*
X205504782Y-131760518D01*
X206334501Y-131961620D02*
X206133399Y-131760518D01*
X206334501Y-133988358D02*
X206334501Y-131961620D01*
X202065000Y-142430000D02*
X202065000Y-138257859D01*
X202065000Y-138257859D02*
X206334501Y-133988358D01*
X205060283Y-131316019D02*
X205504782Y-131760518D01*
X203133364Y-129389100D02*
X205060283Y-131316019D01*
X199138540Y-129389100D02*
X203133364Y-129389100D01*
X199138540Y-128891260D02*
X203857354Y-128891260D01*
X203857354Y-128891260D02*
X205776647Y-130810553D01*
X205776647Y-130810553D02*
X206057406Y-130810553D01*
X206900000Y-130145866D02*
X206484339Y-129730205D01*
X203335000Y-137581844D02*
X206900000Y-134016844D01*
X199138540Y-128390880D02*
X204516397Y-128390880D01*
X204516397Y-128390880D02*
X205411223Y-129285706D01*
X206484339Y-129730205D02*
X205855722Y-129730205D01*
X206900000Y-134016844D02*
X206900000Y-130145866D01*
X203335000Y-142430000D02*
X203335000Y-137581844D01*
X205411223Y-129285706D02*
X205855722Y-129730205D01*
X205664628Y-128216307D02*
X206109127Y-128660806D01*
X205338821Y-127890500D02*
X205664628Y-128216307D01*
X199138540Y-127890500D02*
X205338821Y-127890500D01*
X199138540Y-127390120D02*
X201313267Y-127390120D01*
X201381797Y-127321590D02*
X201826296Y-126877091D01*
X201313267Y-127390120D02*
X201381797Y-127321590D01*
X204605000Y-138300000D02*
X204605000Y-137995000D01*
X204605000Y-142430000D02*
X204605000Y-138300000D01*
X206377091Y-126877091D02*
X207400000Y-127900000D01*
X201826296Y-126877091D02*
X206377091Y-126877091D01*
X207400000Y-127900000D02*
X207400000Y-134110828D01*
X207400000Y-134110828D02*
X204605000Y-136905828D01*
X204605000Y-136905828D02*
X204605000Y-138300000D01*
X202105501Y-126094499D02*
X202550000Y-125650000D01*
X201481437Y-126094499D02*
X202105501Y-126094499D01*
X199138540Y-126889740D02*
X200686196Y-126889740D01*
X200686196Y-126889740D02*
X201481437Y-126094499D01*
X200248970Y-126389360D02*
X201188170Y-125450160D01*
X199138540Y-126389360D02*
X200248970Y-126389360D01*
X201188170Y-125450160D02*
X201188170Y-125391568D01*
X205600000Y-137000000D02*
X206100000Y-136500000D01*
X205600000Y-142155000D02*
X205600000Y-137000000D01*
X205875000Y-142430000D02*
X205600000Y-142155000D01*
X198450000Y-123350000D02*
X198850000Y-122950000D01*
X198850000Y-122950000D02*
X207450000Y-122950000D01*
X207450000Y-122950000D02*
X207650000Y-123150000D01*
X197311020Y-125888980D02*
X196672040Y-125250000D01*
X196672040Y-125250000D02*
X196450000Y-125250000D01*
X199138540Y-125888980D02*
X197311020Y-125888980D01*
X197550000Y-123350000D02*
X198450000Y-123350000D01*
X199138540Y-124390380D02*
X200709620Y-124390380D01*
X200709620Y-124390380D02*
X200805501Y-124294499D01*
X200805501Y-124294499D02*
X201250000Y-123850000D01*
X201350000Y-123850000D02*
X201250000Y-123850000D01*
X201250000Y-123850000D02*
X204750000Y-123850000D01*
X204750000Y-123850000D02*
X207055501Y-126155501D01*
X207055501Y-126155501D02*
X207500000Y-126600000D01*
X223350000Y-137350000D02*
X223750000Y-136950000D01*
X223750000Y-136950000D02*
X224450000Y-136950000D01*
X224450000Y-136950000D02*
X224650000Y-137150000D01*
X212850000Y-131550000D02*
X212850000Y-132150000D01*
X216550000Y-137350000D02*
X222150000Y-137350000D01*
X215350000Y-138550000D02*
X216550000Y-137350000D01*
X213750000Y-138550000D02*
X215350000Y-138550000D01*
X211750000Y-136550000D02*
X213750000Y-138550000D01*
X211750000Y-133250000D02*
X211750000Y-136550000D01*
X212850000Y-132150000D02*
X211750000Y-133250000D01*
X222150000Y-137350000D02*
X223350000Y-137350000D01*
X238050000Y-157750000D02*
X238050000Y-153850000D01*
X238050000Y-153850000D02*
X237850000Y-153650000D01*
X228950000Y-145350000D02*
X228950000Y-145650000D01*
X227405501Y-142105501D02*
X227850000Y-142550000D01*
X227950000Y-142550000D02*
X227850000Y-142550000D01*
X226605501Y-142105501D02*
X227405501Y-142105501D01*
X224150000Y-139650000D02*
X226605501Y-142105501D01*
X189350000Y-126950000D02*
X188750000Y-127550000D01*
X188750000Y-127550000D02*
X182550000Y-127550000D01*
X187900000Y-129900000D02*
X188600000Y-129200000D01*
X178800000Y-129900000D02*
X184900000Y-129900000D01*
X184900000Y-129900000D02*
X187900000Y-129900000D01*
X189859520Y-135130903D02*
X189859520Y-132728617D01*
X193100000Y-139000000D02*
X193100000Y-138371383D01*
X193100000Y-138371383D02*
X189859520Y-135130903D01*
X189859520Y-132728617D02*
X189859520Y-132100000D01*
X192100000Y-136000000D02*
X192300000Y-136000000D01*
X192200000Y-136000000D02*
X192100000Y-136000000D01*
X192300000Y-136000000D02*
X192600000Y-136300000D01*
X187350000Y-128550000D02*
X187600000Y-128300000D01*
X187600000Y-128300000D02*
X189500000Y-128300000D01*
X184750000Y-128550000D02*
X179950000Y-128550000D01*
X184750000Y-128550000D02*
X187350000Y-128550000D01*
X190800000Y-132100000D02*
X190800000Y-130100000D01*
X190800000Y-134700000D02*
X190800000Y-132100000D01*
X192100000Y-136000000D02*
X190800000Y-134700000D01*
X201463180Y-157626820D02*
X201463180Y-163981420D01*
X201490000Y-157600000D02*
X201463180Y-157626820D01*
X206248796Y-158096981D02*
X205804297Y-157652482D01*
X206543180Y-158391365D02*
X206248796Y-158096981D01*
X206543180Y-163981420D02*
X206543180Y-158391365D01*
X179950000Y-150530000D02*
X179950000Y-153210000D01*
X179970000Y-150510000D02*
X179950000Y-150530000D01*
X219243180Y-158973180D02*
X219243180Y-163981420D01*
X217410000Y-157140000D02*
X219243180Y-158973180D01*
X226863180Y-156283180D02*
X226863180Y-163981420D01*
X225980000Y-155400000D02*
X226863180Y-156283180D01*
X232190000Y-152880000D02*
X234483180Y-155173180D01*
X234483180Y-155173180D02*
X234483180Y-163981420D01*
X241540000Y-157280000D02*
X242103180Y-157843180D01*
X242103180Y-157843180D02*
X242103180Y-163981420D01*
X217550002Y-138807762D02*
X218307764Y-138050000D01*
X225450000Y-138750000D02*
X230450000Y-138750000D01*
X230450000Y-138750000D02*
X233570002Y-135629998D01*
X218307764Y-138050000D02*
X224750000Y-138050000D01*
X224750000Y-138050000D02*
X225450000Y-138750000D01*
X233570002Y-135629998D02*
X233570002Y-131929998D01*
X233570002Y-131929998D02*
X235725000Y-129775000D01*
X235725000Y-129775000D02*
X235725000Y-125975000D01*
X235855501Y-125844499D02*
X236300000Y-125400000D01*
X235725000Y-125975000D02*
X235855501Y-125844499D01*
X216035000Y-140322764D02*
X217550002Y-138807762D01*
X216035000Y-142430000D02*
X216035000Y-140322764D01*
X209899996Y-124800004D02*
X209899996Y-129271383D01*
X209899996Y-129271383D02*
X209899996Y-129900000D01*
X230050000Y-123550000D02*
X226250000Y-119750000D01*
X226250000Y-119750000D02*
X214950000Y-119750000D01*
X214950000Y-119750000D02*
X209899996Y-124800004D01*
X227309510Y-137909510D02*
X227350000Y-137950000D01*
X227350000Y-137950000D02*
X230550000Y-137950000D01*
X230550000Y-137950000D02*
X233150000Y-135350000D01*
X233150000Y-135350000D02*
X233150000Y-131650000D01*
X233150000Y-131650000D02*
X234950000Y-129850000D01*
X234950000Y-129850000D02*
X234950000Y-122950000D01*
X226450000Y-137909510D02*
X227309510Y-137909510D01*
X174438600Y-155751400D02*
X175590000Y-154600000D01*
X175590000Y-154600000D02*
X175590000Y-149560000D01*
X175590000Y-149560000D02*
X172990000Y-146960000D01*
X174438600Y-156950600D02*
X174438600Y-155751400D01*
X218850000Y-139150000D02*
X219450000Y-138550000D01*
X219450000Y-138550000D02*
X224450000Y-138550000D01*
X224450000Y-138550000D02*
X225150000Y-139250000D01*
X225150000Y-139250000D02*
X230750000Y-139250000D01*
X230750000Y-139250000D02*
X234050000Y-135950000D01*
X234050000Y-135950000D02*
X234050000Y-132250000D01*
X234050000Y-132250000D02*
X236250000Y-130050000D01*
X236250000Y-130050000D02*
X236250000Y-129350000D01*
X236250000Y-129350000D02*
X237750000Y-127850000D01*
X218850000Y-139290490D02*
X218850000Y-139150000D01*
X201219695Y-137504367D02*
X199924062Y-138800000D01*
X201664194Y-136990578D02*
X201219695Y-137435077D01*
X199924062Y-138800000D02*
X197328617Y-138800000D01*
X201219695Y-137435077D02*
X201219695Y-137504367D01*
X197328617Y-138800000D02*
X196700000Y-138800000D01*
X188400000Y-141785000D02*
X188420000Y-141765000D01*
X188400000Y-141700000D02*
X188400000Y-141785000D01*
X207145000Y-142430000D02*
X207145000Y-137585425D01*
X207145000Y-137585425D02*
X206900000Y-137340425D01*
D24*
G36*
X192415000Y-126410000D02*
X192150005Y-126410000D01*
X192150000Y-126409999D01*
X191828546Y-126473941D01*
X191556030Y-126656030D01*
X191556027Y-126656033D01*
X190446991Y-127765069D01*
X190415689Y-127689311D01*
X190271749Y-127545120D01*
X190429313Y-127165668D01*
X190429687Y-126736216D01*
X190265689Y-126339311D01*
X189962286Y-126035378D01*
X189565668Y-125870687D01*
X189136216Y-125870313D01*
X188739311Y-126034311D01*
X188435378Y-126337714D01*
X188270687Y-126734332D01*
X188270621Y-126810000D01*
X187176188Y-126810000D01*
X187176188Y-123082602D01*
X187151352Y-122452539D01*
X186958019Y-121985792D01*
X186696350Y-121893255D01*
X185759605Y-122830000D01*
X186696350Y-123766745D01*
X186958019Y-123674208D01*
X187176188Y-123082602D01*
X187176188Y-126810000D01*
X186245484Y-126810000D01*
X186476657Y-126714481D01*
X186922914Y-126269003D01*
X187164724Y-125686659D01*
X187165275Y-125056107D01*
X186924481Y-124473343D01*
X186485789Y-124033884D01*
X186516745Y-123946350D01*
X185580000Y-123009605D01*
X184643255Y-123946350D01*
X184674407Y-124034439D01*
X184309739Y-124398470D01*
X184011529Y-124099739D01*
X184376115Y-123735789D01*
X184463650Y-123766745D01*
X185400395Y-122830000D01*
X184463650Y-121893255D01*
X184375560Y-121924407D01*
X184091650Y-121640000D01*
X184669300Y-121640000D01*
X184643255Y-121713650D01*
X185580000Y-122650395D01*
X186516745Y-121713650D01*
X186490699Y-121640000D01*
X192415000Y-121640000D01*
X192415000Y-126410000D01*
X192415000Y-126410000D01*
G37*
X192415000Y-126410000D02*
X192150005Y-126410000D01*
X192150000Y-126409999D01*
X191828546Y-126473941D01*
X191556030Y-126656030D01*
X191556027Y-126656033D01*
X190446991Y-127765069D01*
X190415689Y-127689311D01*
X190271749Y-127545120D01*
X190429313Y-127165668D01*
X190429687Y-126736216D01*
X190265689Y-126339311D01*
X189962286Y-126035378D01*
X189565668Y-125870687D01*
X189136216Y-125870313D01*
X188739311Y-126034311D01*
X188435378Y-126337714D01*
X188270687Y-126734332D01*
X188270621Y-126810000D01*
X187176188Y-126810000D01*
X187176188Y-123082602D01*
X187151352Y-122452539D01*
X186958019Y-121985792D01*
X186696350Y-121893255D01*
X185759605Y-122830000D01*
X186696350Y-123766745D01*
X186958019Y-123674208D01*
X187176188Y-123082602D01*
X187176188Y-126810000D01*
X186245484Y-126810000D01*
X186476657Y-126714481D01*
X186922914Y-126269003D01*
X187164724Y-125686659D01*
X187165275Y-125056107D01*
X186924481Y-124473343D01*
X186485789Y-124033884D01*
X186516745Y-123946350D01*
X185580000Y-123009605D01*
X184643255Y-123946350D01*
X184674407Y-124034439D01*
X184309739Y-124398470D01*
X184011529Y-124099739D01*
X184376115Y-123735789D01*
X184463650Y-123766745D01*
X185400395Y-122830000D01*
X184463650Y-121893255D01*
X184375560Y-121924407D01*
X184091650Y-121640000D01*
X184669300Y-121640000D01*
X184643255Y-121713650D01*
X185580000Y-122650395D01*
X186516745Y-121713650D01*
X186490699Y-121640000D01*
X192415000Y-121640000D01*
X192415000Y-126410000D01*
G36*
X200806234Y-136321728D02*
X200749572Y-136378292D01*
X200584881Y-136774910D01*
X200584616Y-137079168D01*
X200556907Y-137120636D01*
X199617543Y-138060000D01*
X197486603Y-138060000D01*
X197312286Y-137885378D01*
X196915668Y-137720687D01*
X196486216Y-137720313D01*
X196089311Y-137884311D01*
X195785378Y-138187714D01*
X195620687Y-138584332D01*
X195620313Y-139013784D01*
X195784311Y-139410689D01*
X196087714Y-139714622D01*
X196484332Y-139879313D01*
X196913784Y-139879687D01*
X197310689Y-139715689D01*
X197486684Y-139540000D01*
X199924062Y-139540000D01*
X200055000Y-139513954D01*
X200055000Y-139706527D01*
X199847234Y-139620255D01*
X199417782Y-139619881D01*
X199020877Y-139783879D01*
X198771413Y-140032907D01*
X198652730Y-139983625D01*
X198223278Y-139983251D01*
X197826373Y-140147249D01*
X197522440Y-140450652D01*
X197357749Y-140847270D01*
X197357532Y-141095949D01*
X197193482Y-141260000D01*
X191786603Y-141260000D01*
X191612286Y-141085378D01*
X191534755Y-141053184D01*
X192093966Y-140493972D01*
X192093970Y-140493970D01*
X192093970Y-140493969D01*
X192276059Y-140221454D01*
X192340000Y-139900000D01*
X192340001Y-139900000D01*
X192340000Y-139899994D01*
X192340000Y-139766649D01*
X192487714Y-139914622D01*
X192884332Y-140079313D01*
X193313784Y-140079687D01*
X193710689Y-139915689D01*
X194014622Y-139612286D01*
X194179313Y-139215668D01*
X194179687Y-138786216D01*
X194015689Y-138389311D01*
X193800734Y-138173980D01*
X193783671Y-138088198D01*
X193783671Y-138088197D01*
X193623259Y-137848124D01*
X193055108Y-137279973D01*
X193210689Y-137215689D01*
X193514622Y-136912286D01*
X193679313Y-136515668D01*
X193679687Y-136086216D01*
X193515689Y-135689311D01*
X193212286Y-135385378D01*
X192932511Y-135269204D01*
X193079313Y-134915668D01*
X193079687Y-134486216D01*
X192915689Y-134089311D01*
X192866463Y-134040000D01*
X194503482Y-134040000D01*
X196875701Y-136412219D01*
X197115774Y-136572631D01*
X197398960Y-136628960D01*
X197977748Y-136628960D01*
X197988470Y-136636197D01*
X198238110Y-136686260D01*
X200038970Y-136686260D01*
X200281093Y-136639283D01*
X200493897Y-136499493D01*
X200636347Y-136288460D01*
X200686410Y-136038820D01*
X200686410Y-135804631D01*
X200720537Y-135855707D01*
X200720313Y-136113784D01*
X200806234Y-136321728D01*
X200806234Y-136321728D01*
G37*
X200806234Y-136321728D02*
X200749572Y-136378292D01*
X200584881Y-136774910D01*
X200584616Y-137079168D01*
X200556907Y-137120636D01*
X199617543Y-138060000D01*
X197486603Y-138060000D01*
X197312286Y-137885378D01*
X196915668Y-137720687D01*
X196486216Y-137720313D01*
X196089311Y-137884311D01*
X195785378Y-138187714D01*
X195620687Y-138584332D01*
X195620313Y-139013784D01*
X195784311Y-139410689D01*
X196087714Y-139714622D01*
X196484332Y-139879313D01*
X196913784Y-139879687D01*
X197310689Y-139715689D01*
X197486684Y-139540000D01*
X199924062Y-139540000D01*
X200055000Y-139513954D01*
X200055000Y-139706527D01*
X199847234Y-139620255D01*
X199417782Y-139619881D01*
X199020877Y-139783879D01*
X198771413Y-140032907D01*
X198652730Y-139983625D01*
X198223278Y-139983251D01*
X197826373Y-140147249D01*
X197522440Y-140450652D01*
X197357749Y-140847270D01*
X197357532Y-141095949D01*
X197193482Y-141260000D01*
X191786603Y-141260000D01*
X191612286Y-141085378D01*
X191534755Y-141053184D01*
X192093966Y-140493972D01*
X192093970Y-140493970D01*
X192093970Y-140493969D01*
X192276059Y-140221454D01*
X192340000Y-139900000D01*
X192340001Y-139900000D01*
X192340000Y-139899994D01*
X192340000Y-139766649D01*
X192487714Y-139914622D01*
X192884332Y-140079313D01*
X193313784Y-140079687D01*
X193710689Y-139915689D01*
X194014622Y-139612286D01*
X194179313Y-139215668D01*
X194179687Y-138786216D01*
X194015689Y-138389311D01*
X193800734Y-138173980D01*
X193783671Y-138088198D01*
X193783671Y-138088197D01*
X193623259Y-137848124D01*
X193055108Y-137279973D01*
X193210689Y-137215689D01*
X193514622Y-136912286D01*
X193679313Y-136515668D01*
X193679687Y-136086216D01*
X193515689Y-135689311D01*
X193212286Y-135385378D01*
X192932511Y-135269204D01*
X193079313Y-134915668D01*
X193079687Y-134486216D01*
X192915689Y-134089311D01*
X192866463Y-134040000D01*
X194503482Y-134040000D01*
X196875701Y-136412219D01*
X197115774Y-136572631D01*
X197398960Y-136628960D01*
X197977748Y-136628960D01*
X197988470Y-136636197D01*
X198238110Y-136686260D01*
X200038970Y-136686260D01*
X200281093Y-136639283D01*
X200493897Y-136499493D01*
X200636347Y-136288460D01*
X200686410Y-136038820D01*
X200686410Y-135804631D01*
X200720537Y-135855707D01*
X200720313Y-136113784D01*
X200806234Y-136321728D01*
G36*
X203612692Y-147216040D02*
X201541741Y-149286992D01*
X201381329Y-149527065D01*
X201325000Y-149810251D01*
X201325000Y-150237949D01*
X201221310Y-150195000D01*
X201080750Y-150195000D01*
X200922000Y-150353750D01*
X200922000Y-151703000D01*
X200942000Y-151703000D01*
X200942000Y-151957000D01*
X200922000Y-151957000D01*
X200922000Y-151977000D01*
X200668000Y-151977000D01*
X200668000Y-151957000D01*
X200668000Y-151703000D01*
X200668000Y-150353750D01*
X200509250Y-150195000D01*
X200368690Y-150195000D01*
X200135301Y-150291673D01*
X199956673Y-150470302D01*
X199860000Y-150703691D01*
X199860000Y-151544250D01*
X200018750Y-151703000D01*
X200668000Y-151703000D01*
X200668000Y-151957000D01*
X200018750Y-151957000D01*
X199860000Y-152115750D01*
X199860000Y-152956309D01*
X199956673Y-153189698D01*
X200126974Y-153360000D01*
X199186603Y-153360000D01*
X199012286Y-153185378D01*
X198615668Y-153020687D01*
X198186216Y-153020313D01*
X197789311Y-153184311D01*
X197735000Y-153238527D01*
X197735000Y-152265868D01*
X199110434Y-150890434D01*
X199291439Y-150619541D01*
X199291439Y-150619540D01*
X199355000Y-150300000D01*
X199355000Y-150230000D01*
X199355000Y-149811518D01*
X202171266Y-146995252D01*
X202324549Y-146995252D01*
X202498867Y-147169874D01*
X202895485Y-147334565D01*
X203324937Y-147334939D01*
X203612692Y-147216040D01*
X203612692Y-147216040D01*
G37*
X203612692Y-147216040D02*
X201541741Y-149286992D01*
X201381329Y-149527065D01*
X201325000Y-149810251D01*
X201325000Y-150237949D01*
X201221310Y-150195000D01*
X201080750Y-150195000D01*
X200922000Y-150353750D01*
X200922000Y-151703000D01*
X200942000Y-151703000D01*
X200942000Y-151957000D01*
X200922000Y-151957000D01*
X200922000Y-151977000D01*
X200668000Y-151977000D01*
X200668000Y-151957000D01*
X200668000Y-151703000D01*
X200668000Y-150353750D01*
X200509250Y-150195000D01*
X200368690Y-150195000D01*
X200135301Y-150291673D01*
X199956673Y-150470302D01*
X199860000Y-150703691D01*
X199860000Y-151544250D01*
X200018750Y-151703000D01*
X200668000Y-151703000D01*
X200668000Y-151957000D01*
X200018750Y-151957000D01*
X199860000Y-152115750D01*
X199860000Y-152956309D01*
X199956673Y-153189698D01*
X200126974Y-153360000D01*
X199186603Y-153360000D01*
X199012286Y-153185378D01*
X198615668Y-153020687D01*
X198186216Y-153020313D01*
X197789311Y-153184311D01*
X197735000Y-153238527D01*
X197735000Y-152265868D01*
X199110434Y-150890434D01*
X199291439Y-150619541D01*
X199291439Y-150619540D01*
X199355000Y-150300000D01*
X199355000Y-150230000D01*
X199355000Y-149811518D01*
X202171266Y-146995252D01*
X202324549Y-146995252D01*
X202498867Y-147169874D01*
X202895485Y-147334565D01*
X203324937Y-147334939D01*
X203612692Y-147216040D01*
G36*
X205000988Y-145827744D02*
X204071633Y-146757099D01*
X204190466Y-146470920D01*
X204190798Y-146088651D01*
X204195633Y-146087690D01*
X204435706Y-145927278D01*
X204622984Y-145740000D01*
X204913396Y-145740000D01*
X205000988Y-145827744D01*
X205000988Y-145827744D01*
G37*
X205000988Y-145827744D02*
X204071633Y-146757099D01*
X204190466Y-146470920D01*
X204190798Y-146088651D01*
X204195633Y-146087690D01*
X204435706Y-145927278D01*
X204622984Y-145740000D01*
X204913396Y-145740000D01*
X205000988Y-145827744D01*
G36*
X207030214Y-148966580D02*
X206912555Y-149084035D01*
X206747864Y-149480653D01*
X206747647Y-149729332D01*
X206621741Y-149855239D01*
X206461329Y-150095312D01*
X206432906Y-150238202D01*
X206424640Y-150232623D01*
X206175000Y-150182560D01*
X205974078Y-150182560D01*
X205580499Y-149788981D01*
X205580499Y-149123222D01*
X206143648Y-148560072D01*
X206333472Y-148750228D01*
X206730090Y-148914919D01*
X206978769Y-148915135D01*
X207030214Y-148966580D01*
X207030214Y-148966580D01*
G37*
X207030214Y-148966580D02*
X206912555Y-149084035D01*
X206747864Y-149480653D01*
X206747647Y-149729332D01*
X206621741Y-149855239D01*
X206461329Y-150095312D01*
X206432906Y-150238202D01*
X206424640Y-150232623D01*
X206175000Y-150182560D01*
X205974078Y-150182560D01*
X205580499Y-149788981D01*
X205580499Y-149123222D01*
X206143648Y-148560072D01*
X206333472Y-148750228D01*
X206730090Y-148914919D01*
X206978769Y-148915135D01*
X207030214Y-148966580D01*
G36*
X233723829Y-130029652D02*
X232626741Y-131126741D01*
X232466329Y-131366814D01*
X232419540Y-131602033D01*
X232341003Y-131569422D01*
X232129396Y-131569237D01*
X232129687Y-131236216D01*
X231965689Y-130839311D01*
X231662286Y-130535378D01*
X231265668Y-130370687D01*
X230836216Y-130370313D01*
X230439311Y-130534311D01*
X230263315Y-130710000D01*
X229356518Y-130710000D01*
X228513119Y-129866601D01*
X228273046Y-129706189D01*
X228191658Y-129690000D01*
X232763396Y-129690000D01*
X232937714Y-129864622D01*
X233334332Y-130029313D01*
X233723829Y-130029652D01*
X233723829Y-130029652D01*
G37*
X233723829Y-130029652D02*
X232626741Y-131126741D01*
X232466329Y-131366814D01*
X232419540Y-131602033D01*
X232341003Y-131569422D01*
X232129396Y-131569237D01*
X232129687Y-131236216D01*
X231965689Y-130839311D01*
X231662286Y-130535378D01*
X231265668Y-130370687D01*
X230836216Y-130370313D01*
X230439311Y-130534311D01*
X230263315Y-130710000D01*
X229356518Y-130710000D01*
X228513119Y-129866601D01*
X228273046Y-129706189D01*
X228191658Y-129690000D01*
X232763396Y-129690000D01*
X232937714Y-129864622D01*
X233334332Y-130029313D01*
X233723829Y-130029652D01*
G36*
X249040000Y-158932684D02*
X245483180Y-158929657D01*
X245483180Y-157418716D01*
X245489622Y-157412286D01*
X245654313Y-157015668D01*
X245654687Y-156586216D01*
X245490689Y-156189311D01*
X245187286Y-155885378D01*
X244790668Y-155720687D01*
X244361216Y-155720313D01*
X243964311Y-155884311D01*
X243660378Y-156187714D01*
X243495687Y-156584332D01*
X243495313Y-157013784D01*
X243659311Y-157410689D01*
X243803180Y-157554809D01*
X243803180Y-158928228D01*
X242843180Y-158927411D01*
X242843180Y-157843180D01*
X242786851Y-157559994D01*
X242626439Y-157319921D01*
X242619472Y-157312954D01*
X242619687Y-157066216D01*
X242455689Y-156669311D01*
X242152286Y-156365378D01*
X241755668Y-156200687D01*
X241326216Y-156200313D01*
X240929311Y-156364311D01*
X240625378Y-156667714D01*
X240460687Y-157064332D01*
X240460313Y-157493784D01*
X240624311Y-157890689D01*
X240927714Y-158194622D01*
X241324332Y-158359313D01*
X241363180Y-158359346D01*
X241363180Y-158926152D01*
X240303180Y-158925250D01*
X240303180Y-154163180D01*
X240246851Y-153879994D01*
X240086439Y-153639921D01*
X237053259Y-150606741D01*
X236813186Y-150446329D01*
X236530000Y-150390000D01*
X231776603Y-150390000D01*
X231602286Y-150215378D01*
X231399687Y-150131251D01*
X231399687Y-145936216D01*
X231235689Y-145539311D01*
X230932286Y-145235378D01*
X230535668Y-145070687D01*
X230106216Y-145070313D01*
X229911706Y-145150682D01*
X229865689Y-145039311D01*
X229562286Y-144735378D01*
X229165668Y-144570687D01*
X228736216Y-144570313D01*
X228339311Y-144734311D01*
X228035378Y-145037714D01*
X227870687Y-145434332D01*
X227870313Y-145863784D01*
X228034311Y-146260689D01*
X228337714Y-146564622D01*
X228606024Y-146676035D01*
X227247060Y-148035000D01*
X225461777Y-148035000D01*
X225387286Y-147960378D01*
X224990668Y-147795687D01*
X224561216Y-147795313D01*
X224164311Y-147959311D01*
X223860378Y-148262714D01*
X223695687Y-148659332D01*
X223695313Y-149088784D01*
X223859311Y-149485689D01*
X224162714Y-149789622D01*
X224559332Y-149954313D01*
X224988784Y-149954687D01*
X225385689Y-149790689D01*
X225461510Y-149715000D01*
X227595000Y-149715000D01*
X227916454Y-149651059D01*
X228188970Y-149468970D01*
X230428344Y-147229595D01*
X230533784Y-147229687D01*
X230930689Y-147065689D01*
X231234622Y-146762286D01*
X231399313Y-146365668D01*
X231399687Y-145936216D01*
X231399687Y-150131251D01*
X231205668Y-150050687D01*
X230776216Y-150050313D01*
X230379311Y-150214311D01*
X230075378Y-150517714D01*
X229910687Y-150914332D01*
X229910313Y-151343784D01*
X230074311Y-151740689D01*
X230377714Y-152044622D01*
X230774332Y-152209313D01*
X231203784Y-152209687D01*
X231425120Y-152118232D01*
X231275378Y-152267714D01*
X231110687Y-152664332D01*
X231110313Y-153093784D01*
X231274311Y-153490689D01*
X231463941Y-153680650D01*
X231076216Y-153680313D01*
X230679311Y-153844311D01*
X230375378Y-154147714D01*
X230210687Y-154544332D01*
X230210313Y-154973784D01*
X230374311Y-155370689D01*
X230677714Y-155674622D01*
X231074332Y-155839313D01*
X231203180Y-155839425D01*
X231203180Y-158917507D01*
X230143180Y-158916605D01*
X230143180Y-155743180D01*
X230086851Y-155459995D01*
X230086851Y-155459994D01*
X229926439Y-155219921D01*
X229859472Y-155152954D01*
X229859687Y-154906216D01*
X229695689Y-154509311D01*
X229392286Y-154205378D01*
X228995668Y-154040687D01*
X228566216Y-154040313D01*
X228169311Y-154204311D01*
X227865378Y-154507714D01*
X227700687Y-154904332D01*
X227700313Y-155333784D01*
X227864311Y-155730689D01*
X228167714Y-156034622D01*
X228564332Y-156199313D01*
X228663180Y-156199399D01*
X228663180Y-158915346D01*
X227603180Y-158914444D01*
X227603180Y-156283180D01*
X227546851Y-155999994D01*
X227386439Y-155759921D01*
X227059472Y-155432954D01*
X227059687Y-155186216D01*
X226895689Y-154789311D01*
X226592286Y-154485378D01*
X226195668Y-154320687D01*
X225766216Y-154320313D01*
X225369311Y-154484311D01*
X225065378Y-154787714D01*
X224900687Y-155184332D01*
X224900313Y-155613784D01*
X225064311Y-156010689D01*
X225367714Y-156314622D01*
X225764332Y-156479313D01*
X226013011Y-156479529D01*
X226123180Y-156589698D01*
X226123180Y-158913185D01*
X225063180Y-158912283D01*
X225063180Y-157533180D01*
X225006851Y-157249995D01*
X225006851Y-157249994D01*
X224846439Y-157009921D01*
X224479472Y-156642954D01*
X224479687Y-156396216D01*
X224315689Y-155999311D01*
X224012286Y-155695378D01*
X223615668Y-155530687D01*
X223186216Y-155530313D01*
X222789311Y-155694311D01*
X222485378Y-155997714D01*
X222320687Y-156394332D01*
X222320313Y-156823784D01*
X222484311Y-157220689D01*
X222787714Y-157524622D01*
X223184332Y-157689313D01*
X223433011Y-157689529D01*
X223583180Y-157839698D01*
X223583180Y-158911024D01*
X222523180Y-158910122D01*
X222523180Y-158383180D01*
X222466851Y-158099994D01*
X222306439Y-157859921D01*
X221879472Y-157432954D01*
X221879687Y-157186216D01*
X221715689Y-156789311D01*
X221412286Y-156485378D01*
X221015668Y-156320687D01*
X220586216Y-156320313D01*
X220189311Y-156484311D01*
X219885378Y-156787714D01*
X219720687Y-157184332D01*
X219720313Y-157613784D01*
X219884311Y-158010689D01*
X220187714Y-158314622D01*
X220584332Y-158479313D01*
X220833011Y-158479529D01*
X221043180Y-158689698D01*
X221043180Y-158908863D01*
X219970205Y-158907950D01*
X219926851Y-158689994D01*
X219766439Y-158449921D01*
X218489472Y-157172954D01*
X218489687Y-156926216D01*
X218325689Y-156529311D01*
X218022286Y-156225378D01*
X217625668Y-156060687D01*
X217196216Y-156060313D01*
X216799311Y-156224311D01*
X216495378Y-156527714D01*
X216471498Y-156585222D01*
X216195668Y-156470687D01*
X215766216Y-156470313D01*
X215369311Y-156634311D01*
X215065378Y-156937714D01*
X214950998Y-157213169D01*
X214895689Y-157079311D01*
X214592286Y-156775378D01*
X214195668Y-156610687D01*
X213766216Y-156610313D01*
X213369311Y-156774311D01*
X213065378Y-157077714D01*
X212900687Y-157474332D01*
X212900313Y-157903784D01*
X213064311Y-158300689D01*
X213367714Y-158604622D01*
X213423180Y-158627653D01*
X213423180Y-158902379D01*
X211098453Y-158900401D01*
X211181476Y-158817524D01*
X211346167Y-158420906D01*
X211346541Y-157991454D01*
X211182543Y-157594549D01*
X210879140Y-157290616D01*
X210482522Y-157125925D01*
X210053070Y-157125551D01*
X209656165Y-157289549D01*
X209352232Y-157592952D01*
X209187541Y-157989570D01*
X209187324Y-158238249D01*
X208559921Y-158865653D01*
X208538158Y-158898223D01*
X207283180Y-158897155D01*
X207283180Y-158391365D01*
X207226851Y-158108179D01*
X207066439Y-157868106D01*
X206883769Y-157685436D01*
X206883984Y-157438698D01*
X206719986Y-157041793D01*
X206416583Y-156737860D01*
X206019965Y-156573169D01*
X205590513Y-156572795D01*
X205193608Y-156736793D01*
X204889675Y-157040196D01*
X204724984Y-157436814D01*
X204724610Y-157866266D01*
X204888608Y-158263171D01*
X205192011Y-158567104D01*
X205588629Y-158731795D01*
X205803180Y-158731981D01*
X205803180Y-158895896D01*
X204743180Y-158894994D01*
X204743180Y-158173180D01*
X204686851Y-157889994D01*
X204526439Y-157649921D01*
X204509472Y-157632954D01*
X204509687Y-157386216D01*
X204345689Y-156989311D01*
X204042286Y-156685378D01*
X203645668Y-156520687D01*
X203216216Y-156520313D01*
X202819311Y-156684311D01*
X202515378Y-156987714D01*
X202460067Y-157120916D01*
X202405689Y-156989311D01*
X202102286Y-156685378D01*
X201705668Y-156520687D01*
X201276216Y-156520313D01*
X200879311Y-156684311D01*
X200575378Y-156987714D01*
X200410687Y-157384332D01*
X200410313Y-157813784D01*
X200574311Y-158210689D01*
X200723180Y-158359818D01*
X200723180Y-158891574D01*
X199663180Y-158890672D01*
X199663180Y-158463516D01*
X199784622Y-158342286D01*
X199949313Y-157945668D01*
X199949687Y-157516216D01*
X199785689Y-157119311D01*
X199482286Y-156815378D01*
X199085668Y-156650687D01*
X198656216Y-156650313D01*
X198259311Y-156814311D01*
X197955378Y-157117714D01*
X197790687Y-157514332D01*
X197790313Y-157943784D01*
X197954311Y-158340689D01*
X198183180Y-158569957D01*
X198183180Y-158889412D01*
X197123180Y-158888511D01*
X197123180Y-158273511D01*
X197259313Y-157945668D01*
X197259687Y-157516216D01*
X197095689Y-157119311D01*
X196792286Y-156815378D01*
X196395668Y-156650687D01*
X195966216Y-156650313D01*
X195569311Y-156814311D01*
X195265378Y-157117714D01*
X195100687Y-157514332D01*
X195100313Y-157943784D01*
X195264311Y-158340689D01*
X195567714Y-158644622D01*
X195643180Y-158675958D01*
X195643180Y-158887251D01*
X194583180Y-158886349D01*
X194583180Y-156178791D01*
X194590689Y-156175689D01*
X194894622Y-155872286D01*
X195059313Y-155475668D01*
X195059687Y-155046216D01*
X194895689Y-154649311D01*
X194592286Y-154345378D01*
X194195668Y-154180687D01*
X193820000Y-154180359D01*
X193820000Y-153800000D01*
X193763671Y-153516814D01*
X193603259Y-153276741D01*
X192983259Y-152656741D01*
X192743186Y-152496329D01*
X192460000Y-152440000D01*
X190160000Y-152440000D01*
X189876814Y-152496329D01*
X189636741Y-152656741D01*
X187876741Y-154416741D01*
X187716329Y-154656814D01*
X187660000Y-154940000D01*
X187660000Y-155630085D01*
X187487639Y-155558696D01*
X187265600Y-155680685D01*
X187265600Y-156823600D01*
X187285600Y-156823600D01*
X187285600Y-157077600D01*
X187265600Y-157077600D01*
X187265600Y-158220515D01*
X187487639Y-158342504D01*
X187660000Y-158271114D01*
X187660000Y-158880459D01*
X186610000Y-158879565D01*
X186610000Y-158268132D01*
X186789561Y-158342504D01*
X187011600Y-158220515D01*
X187011600Y-157077600D01*
X186991600Y-157077600D01*
X186991600Y-156823600D01*
X187011600Y-156823600D01*
X187011600Y-155680685D01*
X186789561Y-155558696D01*
X186553453Y-155656488D01*
X186393259Y-155416741D01*
X186370000Y-155393482D01*
X186370000Y-154670000D01*
X186360000Y-154619726D01*
X186360000Y-151956518D01*
X186577045Y-151739472D01*
X186823784Y-151739687D01*
X187220689Y-151575689D01*
X187524622Y-151272286D01*
X187689313Y-150875668D01*
X187689687Y-150446216D01*
X187525689Y-150049311D01*
X187222286Y-149745378D01*
X187011600Y-149657893D01*
X187011600Y-140220515D01*
X187011600Y-139077600D01*
X186991600Y-139077600D01*
X186991600Y-138823600D01*
X187011600Y-138823600D01*
X187011600Y-137680685D01*
X186789561Y-137558696D01*
X186401177Y-137719559D01*
X185986211Y-138095466D01*
X185883585Y-138312302D01*
X185613298Y-137907789D01*
X185147751Y-137596720D01*
X184598600Y-137487487D01*
X184049449Y-137596720D01*
X183583902Y-137907789D01*
X183328600Y-138289874D01*
X183073298Y-137907789D01*
X182607751Y-137596720D01*
X182058600Y-137487487D01*
X181509449Y-137596720D01*
X181043902Y-137907789D01*
X180788600Y-138289874D01*
X180533298Y-137907789D01*
X180067751Y-137596720D01*
X179518600Y-137487487D01*
X178969449Y-137596720D01*
X178503902Y-137907789D01*
X178248600Y-138289874D01*
X177993298Y-137907789D01*
X177595416Y-137641932D01*
X177595416Y-133600000D01*
X177287477Y-132051886D01*
X176410541Y-130739459D01*
X175098114Y-129862523D01*
X173550000Y-129554584D01*
X172001886Y-129862523D01*
X170689459Y-130739459D01*
X169812523Y-132051886D01*
X169504584Y-133600000D01*
X169812523Y-135148114D01*
X170689459Y-136460541D01*
X172001886Y-137337477D01*
X173550000Y-137645416D01*
X175098114Y-137337477D01*
X176410541Y-136460541D01*
X177287477Y-135148114D01*
X177595416Y-133600000D01*
X177595416Y-137641932D01*
X177527751Y-137596720D01*
X176978600Y-137487487D01*
X176429449Y-137596720D01*
X175963902Y-137907789D01*
X175708600Y-138289874D01*
X175453298Y-137907789D01*
X174987751Y-137596720D01*
X174438600Y-137487487D01*
X173889449Y-137596720D01*
X173423902Y-137907789D01*
X173168600Y-138289874D01*
X172913298Y-137907789D01*
X172447751Y-137596720D01*
X171898600Y-137487487D01*
X171349449Y-137596720D01*
X170883902Y-137907789D01*
X170572833Y-138373336D01*
X170463600Y-138922487D01*
X170463600Y-138978713D01*
X170572833Y-139527864D01*
X170883902Y-139993411D01*
X171349449Y-140304480D01*
X171898600Y-140413713D01*
X172447751Y-140304480D01*
X172913298Y-139993411D01*
X173168600Y-139611325D01*
X173423902Y-139993411D01*
X173889449Y-140304480D01*
X174438600Y-140413713D01*
X174987751Y-140304480D01*
X175453298Y-139993411D01*
X175708600Y-139611325D01*
X175963902Y-139993411D01*
X176429449Y-140304480D01*
X176978600Y-140413713D01*
X177527751Y-140304480D01*
X177993298Y-139993411D01*
X178248600Y-139611325D01*
X178503902Y-139993411D01*
X178969449Y-140304480D01*
X179518600Y-140413713D01*
X180067751Y-140304480D01*
X180533298Y-139993411D01*
X180788600Y-139611325D01*
X181043902Y-139993411D01*
X181509449Y-140304480D01*
X182058600Y-140413713D01*
X182607751Y-140304480D01*
X183073298Y-139993411D01*
X183328600Y-139611325D01*
X183583902Y-139993411D01*
X184049449Y-140304480D01*
X184598600Y-140413713D01*
X185147751Y-140304480D01*
X185613298Y-139993411D01*
X185883585Y-139588897D01*
X185986211Y-139805734D01*
X186401177Y-140181641D01*
X186789561Y-140342504D01*
X187011600Y-140220515D01*
X187011600Y-149657893D01*
X186825668Y-149580687D01*
X186396216Y-149580313D01*
X185999311Y-149744311D01*
X185695378Y-150047714D01*
X185530687Y-150444332D01*
X185530470Y-150693011D01*
X185096741Y-151126741D01*
X184936329Y-151366814D01*
X184880000Y-151650000D01*
X184880000Y-154660000D01*
X184890000Y-154710273D01*
X184890000Y-155545450D01*
X184598600Y-155487487D01*
X184050000Y-155596610D01*
X184050000Y-153155251D01*
X184199313Y-152795668D01*
X184199687Y-152366216D01*
X184035689Y-151969311D01*
X183732286Y-151665378D01*
X183335668Y-151500687D01*
X182906216Y-151500313D01*
X182509311Y-151664311D01*
X182205378Y-151967714D01*
X182040687Y-152364332D01*
X182040313Y-152793784D01*
X182204311Y-153190689D01*
X182507714Y-153494622D01*
X182570000Y-153520485D01*
X182570000Y-155589210D01*
X182058600Y-155487487D01*
X181560000Y-155586664D01*
X181560000Y-152316518D01*
X181633259Y-152243259D01*
X181793671Y-152003186D01*
X181850000Y-151720000D01*
X181850000Y-149936603D01*
X182024622Y-149762286D01*
X182189313Y-149365668D01*
X182189687Y-148936216D01*
X182025689Y-148539311D01*
X181722286Y-148235378D01*
X181325668Y-148070687D01*
X180896216Y-148070313D01*
X180499311Y-148234311D01*
X180195378Y-148537714D01*
X180119666Y-148720047D01*
X180119687Y-148696216D01*
X179955689Y-148299311D01*
X179652286Y-147995378D01*
X179255668Y-147830687D01*
X178826216Y-147830313D01*
X178429311Y-147994311D01*
X178125378Y-148297714D01*
X178003753Y-148590615D01*
X177656216Y-148590313D01*
X177259311Y-148754311D01*
X176955378Y-149057714D01*
X176790687Y-149454332D01*
X176790620Y-149530491D01*
X176586216Y-149530313D01*
X176330000Y-149636179D01*
X176330000Y-149560000D01*
X176273671Y-149276814D01*
X176113259Y-149036741D01*
X174069472Y-146992954D01*
X174069687Y-146746216D01*
X173905689Y-146349311D01*
X173602286Y-146045378D01*
X173205668Y-145880687D01*
X172776216Y-145880313D01*
X172379311Y-146044311D01*
X172075378Y-146347714D01*
X171910687Y-146744332D01*
X171910313Y-147173784D01*
X172074311Y-147570689D01*
X172377714Y-147874622D01*
X172774332Y-148039313D01*
X173023011Y-148039529D01*
X173104071Y-148120589D01*
X172786216Y-148120313D01*
X172389311Y-148284311D01*
X172085378Y-148587714D01*
X171920687Y-148984332D01*
X171920313Y-149413784D01*
X172084311Y-149810689D01*
X172387714Y-150114622D01*
X172390000Y-150115571D01*
X172390000Y-155585232D01*
X171898600Y-155487487D01*
X171349449Y-155596720D01*
X170883902Y-155907789D01*
X170572833Y-156373336D01*
X170463600Y-156922487D01*
X170463600Y-156978713D01*
X170511657Y-157220314D01*
X170424566Y-157307406D01*
X170253315Y-157563700D01*
X170193181Y-157866020D01*
X170243180Y-158117386D01*
X170243180Y-158865640D01*
X167140108Y-158863000D01*
X167140053Y-158863010D01*
X167140000Y-158863000D01*
X166610000Y-158863000D01*
X166610000Y-119994092D01*
X167403580Y-119200511D01*
X167522631Y-119110000D01*
X214601455Y-119110000D01*
X214426741Y-119226741D01*
X209376737Y-124276745D01*
X209216325Y-124516818D01*
X209159996Y-124800004D01*
X209159996Y-127190782D01*
X209044695Y-126911733D01*
X208741292Y-126607800D01*
X208579552Y-126540639D01*
X208579687Y-126386216D01*
X208415689Y-125989311D01*
X208112286Y-125685378D01*
X207715668Y-125520687D01*
X207466988Y-125520470D01*
X205636518Y-123690000D01*
X206705102Y-123690000D01*
X206734311Y-123760689D01*
X207037714Y-124064622D01*
X207434332Y-124229313D01*
X207863784Y-124229687D01*
X208260689Y-124065689D01*
X208564622Y-123762286D01*
X208729313Y-123365668D01*
X208729687Y-122936216D01*
X208565689Y-122539311D01*
X208262286Y-122235378D01*
X207865668Y-122070687D01*
X207436216Y-122070313D01*
X207098148Y-122210000D01*
X198850000Y-122210000D01*
X198566814Y-122266329D01*
X198326741Y-122426741D01*
X198240127Y-122513354D01*
X198162286Y-122435378D01*
X197765668Y-122270687D01*
X197336216Y-122270313D01*
X196939311Y-122434311D01*
X196635378Y-122737714D01*
X196470687Y-123134332D01*
X196470313Y-123563784D01*
X196634311Y-123960689D01*
X196937714Y-124264622D01*
X197334332Y-124429313D01*
X197590670Y-124429536D01*
X197590670Y-124540240D01*
X197610457Y-124642227D01*
X197590670Y-124740900D01*
X197590670Y-125040620D01*
X197604462Y-125111706D01*
X197603110Y-125114971D01*
X197603110Y-125134552D01*
X197529665Y-125061107D01*
X197529687Y-125036216D01*
X197365689Y-124639311D01*
X197062286Y-124335378D01*
X196665668Y-124170687D01*
X196236216Y-124170313D01*
X195839311Y-124334311D01*
X195535378Y-124637714D01*
X195370687Y-125034332D01*
X195370313Y-125463784D01*
X195534311Y-125860689D01*
X195837714Y-126164622D01*
X196234332Y-126329313D01*
X196663784Y-126329687D01*
X196693097Y-126317575D01*
X196787761Y-126412239D01*
X197027834Y-126572651D01*
X197311020Y-126628980D01*
X197608085Y-126628980D01*
X197610457Y-126641207D01*
X197590670Y-126739880D01*
X197590670Y-127039600D01*
X197610457Y-127141587D01*
X197590670Y-127240260D01*
X197590670Y-127539980D01*
X197610457Y-127641967D01*
X197590670Y-127740640D01*
X197590670Y-128040360D01*
X197610457Y-128142347D01*
X197590670Y-128241020D01*
X197590670Y-128540740D01*
X197610457Y-128642727D01*
X197590670Y-128741400D01*
X197590670Y-129041120D01*
X197610207Y-129141816D01*
X197608670Y-129149480D01*
X197110520Y-129149480D01*
X196827334Y-129205809D01*
X196587261Y-129366221D01*
X196226741Y-129726741D01*
X196199357Y-129767723D01*
X195965668Y-129670687D01*
X195536216Y-129670313D01*
X195139311Y-129834311D01*
X194835378Y-130137714D01*
X194670687Y-130534332D01*
X194670313Y-130963784D01*
X194764122Y-131190820D01*
X194760000Y-131190000D01*
X194526603Y-131190000D01*
X194352286Y-131015378D01*
X193955668Y-130850687D01*
X193526216Y-130850313D01*
X193129311Y-131014311D01*
X192825378Y-131317714D01*
X192778560Y-131430462D01*
X192765689Y-131399311D01*
X192462286Y-131095378D01*
X192065668Y-130930687D01*
X191636216Y-130930313D01*
X191540000Y-130970068D01*
X191540000Y-130886603D01*
X191714622Y-130712286D01*
X191879313Y-130315668D01*
X191879687Y-129886216D01*
X191715689Y-129489311D01*
X191412286Y-129185378D01*
X191405414Y-129182524D01*
X192497939Y-128090000D01*
X192563222Y-128090000D01*
X192637714Y-128164622D01*
X193034332Y-128329313D01*
X193463784Y-128329687D01*
X193860689Y-128165689D01*
X194164622Y-127862286D01*
X194329313Y-127465668D01*
X194329687Y-127036216D01*
X194165689Y-126639311D01*
X194085000Y-126558481D01*
X194085000Y-121695868D01*
X194295867Y-121485000D01*
X209658230Y-121485000D01*
X209737714Y-121564622D01*
X210134332Y-121729313D01*
X210563784Y-121729687D01*
X210960689Y-121565689D01*
X211264622Y-121262286D01*
X211429313Y-120865668D01*
X211429687Y-120436216D01*
X211265689Y-120039311D01*
X210962286Y-119735378D01*
X210565668Y-119570687D01*
X210136216Y-119570313D01*
X209739311Y-119734311D01*
X209658481Y-119815000D01*
X193950000Y-119815000D01*
X193630459Y-119878561D01*
X193508576Y-119960000D01*
X179200005Y-119960000D01*
X179200000Y-119959999D01*
X178878546Y-120023941D01*
X178606030Y-120206030D01*
X177511868Y-121300191D01*
X177063343Y-121485519D01*
X176623884Y-121924210D01*
X176536350Y-121893255D01*
X176356745Y-122072860D01*
X176356745Y-121713650D01*
X176264208Y-121451981D01*
X175672602Y-121233812D01*
X175042539Y-121258648D01*
X174575792Y-121451981D01*
X174483255Y-121713650D01*
X175420000Y-122650395D01*
X176356745Y-121713650D01*
X176356745Y-122072860D01*
X175599605Y-122830000D01*
X175613747Y-122844142D01*
X175434142Y-123023747D01*
X175420000Y-123009605D01*
X175405857Y-123023747D01*
X175240395Y-122858285D01*
X175226252Y-122844142D01*
X175240395Y-122830000D01*
X174303650Y-121893255D01*
X174041981Y-121985792D01*
X173823812Y-122577398D01*
X173848648Y-123207461D01*
X174041981Y-123674208D01*
X174303647Y-123766744D01*
X174256386Y-123814005D01*
X174227877Y-123819537D01*
X174015073Y-123959327D01*
X173872623Y-124170360D01*
X173822560Y-124420000D01*
X173822560Y-126320000D01*
X173869537Y-126562123D01*
X174009327Y-126774927D01*
X174220360Y-126917377D01*
X174470000Y-126967440D01*
X176370000Y-126967440D01*
X176612123Y-126920463D01*
X176824927Y-126780673D01*
X176947446Y-126599165D01*
X177060997Y-126712914D01*
X177643341Y-126954724D01*
X178273893Y-126955275D01*
X178856657Y-126714481D01*
X179230260Y-126341529D01*
X179600997Y-126712914D01*
X180183341Y-126954724D01*
X180813893Y-126955275D01*
X181396657Y-126714481D01*
X181770260Y-126341529D01*
X182026548Y-126598265D01*
X181939311Y-126634311D01*
X181635378Y-126937714D01*
X181470687Y-127334332D01*
X181470313Y-127763784D01*
X181489409Y-127810000D01*
X180736603Y-127810000D01*
X180562286Y-127635378D01*
X180165668Y-127470687D01*
X179736216Y-127470313D01*
X179339311Y-127634311D01*
X179035378Y-127937714D01*
X178870687Y-128334332D01*
X178870313Y-128763784D01*
X178893781Y-128820580D01*
X178586216Y-128820313D01*
X178189311Y-128984311D01*
X177885378Y-129287714D01*
X177720687Y-129684332D01*
X177720313Y-130113784D01*
X177884311Y-130510689D01*
X178187714Y-130814622D01*
X178584332Y-130979313D01*
X179013784Y-130979687D01*
X179410689Y-130815689D01*
X179586684Y-130640000D01*
X184900000Y-130640000D01*
X187900000Y-130640000D01*
X188160000Y-130588282D01*
X188160000Y-135460000D01*
X186510343Y-135460000D01*
X186415668Y-135420687D01*
X185986216Y-135420313D01*
X185589311Y-135584311D01*
X185285378Y-135887714D01*
X185120687Y-136284332D01*
X185120313Y-136713784D01*
X185284311Y-137110689D01*
X185587714Y-137414622D01*
X185984332Y-137579313D01*
X186413784Y-137579687D01*
X186810689Y-137415689D01*
X187086859Y-137140000D01*
X189452060Y-137140000D01*
X189829578Y-137517518D01*
X189678600Y-137487487D01*
X189129449Y-137596720D01*
X188663902Y-137907789D01*
X188393614Y-138312302D01*
X188290989Y-138095466D01*
X187876023Y-137719559D01*
X187487639Y-137558696D01*
X187265600Y-137680685D01*
X187265600Y-138823600D01*
X187285600Y-138823600D01*
X187285600Y-139077600D01*
X187265600Y-139077600D01*
X187265600Y-140220515D01*
X187487639Y-140342504D01*
X187876023Y-140181641D01*
X188290989Y-139805734D01*
X188393614Y-139588897D01*
X188663902Y-139993411D01*
X189129449Y-140304480D01*
X189678600Y-140413713D01*
X189828080Y-140383979D01*
X189306030Y-140906030D01*
X189218544Y-141036961D01*
X189032286Y-140850378D01*
X188635668Y-140685687D01*
X188206216Y-140685313D01*
X187809311Y-140849311D01*
X187505378Y-141152714D01*
X187340687Y-141549332D01*
X187340313Y-141978784D01*
X187504311Y-142375689D01*
X187807714Y-142679622D01*
X188204332Y-142844313D01*
X188633784Y-142844687D01*
X189030689Y-142680689D01*
X189060000Y-142651429D01*
X189060000Y-143200000D01*
X189123941Y-143521454D01*
X189306030Y-143793970D01*
X191790000Y-146277940D01*
X191790000Y-146843222D01*
X191715378Y-146917714D01*
X191550687Y-147314332D01*
X191550313Y-147743784D01*
X191714311Y-148140689D01*
X192017714Y-148444622D01*
X192414332Y-148609313D01*
X192843784Y-148609687D01*
X193240689Y-148445689D01*
X193544622Y-148142286D01*
X193709313Y-147745668D01*
X193709412Y-147631455D01*
X195195868Y-146145000D01*
X195684132Y-146145000D01*
X195749429Y-146210297D01*
X195769566Y-146240434D01*
X197685000Y-148155868D01*
X197685000Y-148194132D01*
X196430434Y-146939566D01*
X196159540Y-146758561D01*
X195840000Y-146695000D01*
X195520460Y-146758561D01*
X195249566Y-146939566D01*
X195068561Y-147210460D01*
X195005000Y-147530000D01*
X195068561Y-147849540D01*
X195249566Y-148120434D01*
X196749292Y-149620160D01*
X196789566Y-149680434D01*
X197060459Y-149861439D01*
X197380000Y-149925000D01*
X197685000Y-149864331D01*
X197685000Y-149954132D01*
X196309566Y-151329566D01*
X196128561Y-151600459D01*
X196065000Y-151920000D01*
X196065000Y-154200000D01*
X196128561Y-154519541D01*
X196309566Y-154790434D01*
X197099566Y-155580434D01*
X197370459Y-155761439D01*
X197370460Y-155761440D01*
X197690000Y-155825000D01*
X205228230Y-155825000D01*
X205307714Y-155904622D01*
X205704332Y-156069313D01*
X206133784Y-156069687D01*
X206530689Y-155905689D01*
X206606510Y-155830000D01*
X210350000Y-155830000D01*
X210671454Y-155766059D01*
X210943970Y-155583970D01*
X211663839Y-154864100D01*
X211970000Y-154925000D01*
X218180000Y-154925000D01*
X218499540Y-154861439D01*
X218499541Y-154861439D01*
X218770434Y-154680434D01*
X219835868Y-153615000D01*
X220490000Y-153615000D01*
X220809540Y-153551439D01*
X220809541Y-153551439D01*
X221080434Y-153370434D01*
X222790434Y-151660434D01*
X222971439Y-151389541D01*
X222971439Y-151389540D01*
X223035000Y-151070000D01*
X223035000Y-149511769D01*
X223114622Y-149432286D01*
X223279313Y-149035668D01*
X223279687Y-148606216D01*
X223115689Y-148209311D01*
X222973000Y-148066372D01*
X222973000Y-145331250D01*
X222973000Y-144357000D01*
X222123750Y-144357000D01*
X221965000Y-144515750D01*
X221965000Y-144728691D01*
X221965000Y-144981310D01*
X222061673Y-145214699D01*
X222240302Y-145393327D01*
X222473691Y-145490000D01*
X222814250Y-145490000D01*
X222973000Y-145331250D01*
X222973000Y-148066372D01*
X222812286Y-147905378D01*
X222415668Y-147740687D01*
X221986216Y-147740313D01*
X221589311Y-147904311D01*
X221285378Y-148207714D01*
X221120687Y-148604332D01*
X221120313Y-149033784D01*
X221284311Y-149430689D01*
X221365000Y-149511518D01*
X221365000Y-150724132D01*
X220144132Y-151945000D01*
X219490000Y-151945000D01*
X219170460Y-152008560D01*
X218899566Y-152189566D01*
X218250761Y-152838370D01*
X218252440Y-152830000D01*
X218252440Y-150830000D01*
X218205463Y-150587877D01*
X218065673Y-150375073D01*
X218045000Y-150361118D01*
X218045000Y-149604984D01*
X217988671Y-149321798D01*
X217828259Y-149081725D01*
X214479472Y-145732938D01*
X214479687Y-145486200D01*
X214476910Y-145479480D01*
X214713784Y-145479687D01*
X215110689Y-145315689D01*
X215414622Y-145012286D01*
X215579313Y-144615668D01*
X215579687Y-144186216D01*
X215516648Y-144033651D01*
X215735000Y-144077440D01*
X216335000Y-144077440D01*
X216577123Y-144030463D01*
X216669770Y-143969603D01*
X216755360Y-144027377D01*
X217005000Y-144077440D01*
X217605000Y-144077440D01*
X217847123Y-144030463D01*
X218059927Y-143890673D01*
X218202377Y-143679640D01*
X218252440Y-143430000D01*
X218252440Y-143265000D01*
X222053513Y-143265000D01*
X221965000Y-143478690D01*
X221965000Y-143731309D01*
X221965000Y-143944250D01*
X222123750Y-144103000D01*
X222973000Y-144103000D01*
X222973000Y-144083000D01*
X223227000Y-144083000D01*
X223227000Y-144103000D01*
X223247000Y-144103000D01*
X223247000Y-144357000D01*
X223227000Y-144357000D01*
X223227000Y-145331250D01*
X223385750Y-145490000D01*
X223726309Y-145490000D01*
X223959698Y-145393327D01*
X224101176Y-145251849D01*
X224139327Y-145309927D01*
X224350360Y-145452377D01*
X224600000Y-145502440D01*
X225600000Y-145502440D01*
X225842123Y-145455463D01*
X226054927Y-145315673D01*
X226197377Y-145104640D01*
X226204323Y-145070000D01*
X226895000Y-145070000D01*
X227216454Y-145006059D01*
X227488970Y-144823970D01*
X227643970Y-144668970D01*
X227700076Y-144585000D01*
X228050000Y-144585000D01*
X228369540Y-144521439D01*
X228369541Y-144521439D01*
X228640434Y-144340434D01*
X232195868Y-140785000D01*
X235950000Y-140785000D01*
X236269540Y-140721439D01*
X236269541Y-140721439D01*
X236540434Y-140540434D01*
X239751278Y-137329589D01*
X239863784Y-137329687D01*
X240260689Y-137165689D01*
X240564622Y-136862286D01*
X240702017Y-136531401D01*
X241864136Y-137307905D01*
X243400000Y-137613407D01*
X244935864Y-137307905D01*
X246237907Y-136437907D01*
X247107905Y-135135864D01*
X247413407Y-133600000D01*
X247107905Y-132064136D01*
X246237907Y-130762093D01*
X244935864Y-129892095D01*
X243400000Y-129586593D01*
X241864136Y-129892095D01*
X240562093Y-130762093D01*
X239692095Y-132064136D01*
X239386593Y-133600000D01*
X239692095Y-135135864D01*
X239715275Y-135170556D01*
X239436216Y-135170313D01*
X239039311Y-135334311D01*
X238735378Y-135637714D01*
X238570687Y-136034332D01*
X238570587Y-136148544D01*
X235604132Y-139115000D01*
X231931518Y-139115000D01*
X234573259Y-136473259D01*
X234733671Y-136233186D01*
X234733671Y-136233185D01*
X234790000Y-135950000D01*
X234790000Y-132556518D01*
X236773259Y-130573259D01*
X236933671Y-130333186D01*
X236990000Y-130050000D01*
X236990000Y-129656518D01*
X237717045Y-128929472D01*
X237963784Y-128929687D01*
X238360689Y-128765689D01*
X238664622Y-128462286D01*
X238829313Y-128065668D01*
X238829687Y-127636216D01*
X238665689Y-127239311D01*
X238362286Y-126935378D01*
X237965668Y-126770687D01*
X237536216Y-126770313D01*
X237139311Y-126934311D01*
X236835378Y-127237714D01*
X236670687Y-127634332D01*
X236670470Y-127883011D01*
X236465000Y-128088482D01*
X236465000Y-126479644D01*
X236513784Y-126479687D01*
X236910689Y-126315689D01*
X237214622Y-126012286D01*
X237379313Y-125615668D01*
X237379687Y-125186216D01*
X237215689Y-124789311D01*
X236912286Y-124485378D01*
X236515668Y-124320687D01*
X236086216Y-124320313D01*
X235690000Y-124484026D01*
X235690000Y-123736603D01*
X235864622Y-123562286D01*
X236029313Y-123165668D01*
X236029687Y-122736216D01*
X235865689Y-122339311D01*
X235562286Y-122035378D01*
X235165668Y-121870687D01*
X234736216Y-121870313D01*
X234339311Y-122034311D01*
X234035378Y-122337714D01*
X233870687Y-122734332D01*
X233870313Y-123163784D01*
X234034311Y-123560689D01*
X234210000Y-123736684D01*
X234210000Y-128083175D01*
X234162286Y-128035378D01*
X233765668Y-127870687D01*
X233336216Y-127870313D01*
X232939311Y-128034311D01*
X232763315Y-128210000D01*
X228516475Y-128210000D01*
X228764622Y-127962286D01*
X228929313Y-127565668D01*
X228929519Y-127328407D01*
X229017438Y-127292079D01*
X229138024Y-127412876D01*
X229534642Y-127577567D01*
X229964094Y-127577941D01*
X230360999Y-127413943D01*
X230664932Y-127110540D01*
X230829623Y-126713922D01*
X230829997Y-126284470D01*
X230665999Y-125887565D01*
X230451044Y-125672234D01*
X230433981Y-125586451D01*
X230273569Y-125346378D01*
X229506512Y-124579321D01*
X229266439Y-124418909D01*
X228983253Y-124362580D01*
X227051847Y-124362580D01*
X226962383Y-124380375D01*
X226771242Y-124188900D01*
X226771611Y-123765890D01*
X226607613Y-123368985D01*
X226304210Y-123065052D01*
X226029325Y-122950909D01*
X226029687Y-122536216D01*
X225865689Y-122139311D01*
X225562286Y-121835378D01*
X225165668Y-121670687D01*
X224736216Y-121670313D01*
X224339311Y-121834311D01*
X224035378Y-122137714D01*
X223905861Y-122449623D01*
X222705105Y-123650380D01*
X220502491Y-123650380D01*
X220491770Y-123643143D01*
X220242130Y-123593080D01*
X218441270Y-123593080D01*
X218337540Y-123613205D01*
X218265689Y-123439311D01*
X217962286Y-123135378D01*
X217565668Y-122970687D01*
X217136216Y-122970313D01*
X216739311Y-123134311D01*
X216435378Y-123437714D01*
X216270687Y-123834332D01*
X216270472Y-124080115D01*
X216139311Y-124134311D01*
X215835378Y-124437714D01*
X215670687Y-124834332D01*
X215670313Y-125263784D01*
X215834311Y-125660689D01*
X216049265Y-125876019D01*
X216066329Y-125961803D01*
X216226741Y-126201876D01*
X216674985Y-126650120D01*
X215109880Y-126650120D01*
X214826694Y-126706449D01*
X214586621Y-126866861D01*
X209793482Y-131660000D01*
X209686603Y-131660000D01*
X209512286Y-131485378D01*
X209115668Y-131320687D01*
X208869006Y-131320472D01*
X208869006Y-130231639D01*
X208984307Y-130510689D01*
X209287710Y-130814622D01*
X209684328Y-130979313D01*
X210113780Y-130979687D01*
X210510685Y-130815689D01*
X210814618Y-130512286D01*
X210979309Y-130115668D01*
X210979683Y-129686216D01*
X210815685Y-129289311D01*
X210639996Y-129113315D01*
X210639996Y-125106522D01*
X215256518Y-120490000D01*
X225943482Y-120490000D01*
X228970527Y-123517045D01*
X228970313Y-123763784D01*
X229134311Y-124160689D01*
X229437714Y-124464622D01*
X229834332Y-124629313D01*
X230263784Y-124629687D01*
X230660689Y-124465689D01*
X230964622Y-124162286D01*
X231129313Y-123765668D01*
X231129687Y-123336216D01*
X230965689Y-122939311D01*
X230662286Y-122635378D01*
X230265668Y-122470687D01*
X230016988Y-122470470D01*
X226773259Y-119226741D01*
X226598544Y-119110000D01*
X248155907Y-119110000D01*
X249040000Y-119994092D01*
X249040000Y-158932684D01*
X249040000Y-158932684D01*
G37*
X249040000Y-158932684D02*
X245483180Y-158929657D01*
X245483180Y-157418716D01*
X245489622Y-157412286D01*
X245654313Y-157015668D01*
X245654687Y-156586216D01*
X245490689Y-156189311D01*
X245187286Y-155885378D01*
X244790668Y-155720687D01*
X244361216Y-155720313D01*
X243964311Y-155884311D01*
X243660378Y-156187714D01*
X243495687Y-156584332D01*
X243495313Y-157013784D01*
X243659311Y-157410689D01*
X243803180Y-157554809D01*
X243803180Y-158928228D01*
X242843180Y-158927411D01*
X242843180Y-157843180D01*
X242786851Y-157559994D01*
X242626439Y-157319921D01*
X242619472Y-157312954D01*
X242619687Y-157066216D01*
X242455689Y-156669311D01*
X242152286Y-156365378D01*
X241755668Y-156200687D01*
X241326216Y-156200313D01*
X240929311Y-156364311D01*
X240625378Y-156667714D01*
X240460687Y-157064332D01*
X240460313Y-157493784D01*
X240624311Y-157890689D01*
X240927714Y-158194622D01*
X241324332Y-158359313D01*
X241363180Y-158359346D01*
X241363180Y-158926152D01*
X240303180Y-158925250D01*
X240303180Y-154163180D01*
X240246851Y-153879994D01*
X240086439Y-153639921D01*
X237053259Y-150606741D01*
X236813186Y-150446329D01*
X236530000Y-150390000D01*
X231776603Y-150390000D01*
X231602286Y-150215378D01*
X231399687Y-150131251D01*
X231399687Y-145936216D01*
X231235689Y-145539311D01*
X230932286Y-145235378D01*
X230535668Y-145070687D01*
X230106216Y-145070313D01*
X229911706Y-145150682D01*
X229865689Y-145039311D01*
X229562286Y-144735378D01*
X229165668Y-144570687D01*
X228736216Y-144570313D01*
X228339311Y-144734311D01*
X228035378Y-145037714D01*
X227870687Y-145434332D01*
X227870313Y-145863784D01*
X228034311Y-146260689D01*
X228337714Y-146564622D01*
X228606024Y-146676035D01*
X227247060Y-148035000D01*
X225461777Y-148035000D01*
X225387286Y-147960378D01*
X224990668Y-147795687D01*
X224561216Y-147795313D01*
X224164311Y-147959311D01*
X223860378Y-148262714D01*
X223695687Y-148659332D01*
X223695313Y-149088784D01*
X223859311Y-149485689D01*
X224162714Y-149789622D01*
X224559332Y-149954313D01*
X224988784Y-149954687D01*
X225385689Y-149790689D01*
X225461510Y-149715000D01*
X227595000Y-149715000D01*
X227916454Y-149651059D01*
X228188970Y-149468970D01*
X230428344Y-147229595D01*
X230533784Y-147229687D01*
X230930689Y-147065689D01*
X231234622Y-146762286D01*
X231399313Y-146365668D01*
X231399687Y-145936216D01*
X231399687Y-150131251D01*
X231205668Y-150050687D01*
X230776216Y-150050313D01*
X230379311Y-150214311D01*
X230075378Y-150517714D01*
X229910687Y-150914332D01*
X229910313Y-151343784D01*
X230074311Y-151740689D01*
X230377714Y-152044622D01*
X230774332Y-152209313D01*
X231203784Y-152209687D01*
X231425120Y-152118232D01*
X231275378Y-152267714D01*
X231110687Y-152664332D01*
X231110313Y-153093784D01*
X231274311Y-153490689D01*
X231463941Y-153680650D01*
X231076216Y-153680313D01*
X230679311Y-153844311D01*
X230375378Y-154147714D01*
X230210687Y-154544332D01*
X230210313Y-154973784D01*
X230374311Y-155370689D01*
X230677714Y-155674622D01*
X231074332Y-155839313D01*
X231203180Y-155839425D01*
X231203180Y-158917507D01*
X230143180Y-158916605D01*
X230143180Y-155743180D01*
X230086851Y-155459995D01*
X230086851Y-155459994D01*
X229926439Y-155219921D01*
X229859472Y-155152954D01*
X229859687Y-154906216D01*
X229695689Y-154509311D01*
X229392286Y-154205378D01*
X228995668Y-154040687D01*
X228566216Y-154040313D01*
X228169311Y-154204311D01*
X227865378Y-154507714D01*
X227700687Y-154904332D01*
X227700313Y-155333784D01*
X227864311Y-155730689D01*
X228167714Y-156034622D01*
X228564332Y-156199313D01*
X228663180Y-156199399D01*
X228663180Y-158915346D01*
X227603180Y-158914444D01*
X227603180Y-156283180D01*
X227546851Y-155999994D01*
X227386439Y-155759921D01*
X227059472Y-155432954D01*
X227059687Y-155186216D01*
X226895689Y-154789311D01*
X226592286Y-154485378D01*
X226195668Y-154320687D01*
X225766216Y-154320313D01*
X225369311Y-154484311D01*
X225065378Y-154787714D01*
X224900687Y-155184332D01*
X224900313Y-155613784D01*
X225064311Y-156010689D01*
X225367714Y-156314622D01*
X225764332Y-156479313D01*
X226013011Y-156479529D01*
X226123180Y-156589698D01*
X226123180Y-158913185D01*
X225063180Y-158912283D01*
X225063180Y-157533180D01*
X225006851Y-157249995D01*
X225006851Y-157249994D01*
X224846439Y-157009921D01*
X224479472Y-156642954D01*
X224479687Y-156396216D01*
X224315689Y-155999311D01*
X224012286Y-155695378D01*
X223615668Y-155530687D01*
X223186216Y-155530313D01*
X222789311Y-155694311D01*
X222485378Y-155997714D01*
X222320687Y-156394332D01*
X222320313Y-156823784D01*
X222484311Y-157220689D01*
X222787714Y-157524622D01*
X223184332Y-157689313D01*
X223433011Y-157689529D01*
X223583180Y-157839698D01*
X223583180Y-158911024D01*
X222523180Y-158910122D01*
X222523180Y-158383180D01*
X222466851Y-158099994D01*
X222306439Y-157859921D01*
X221879472Y-157432954D01*
X221879687Y-157186216D01*
X221715689Y-156789311D01*
X221412286Y-156485378D01*
X221015668Y-156320687D01*
X220586216Y-156320313D01*
X220189311Y-156484311D01*
X219885378Y-156787714D01*
X219720687Y-157184332D01*
X219720313Y-157613784D01*
X219884311Y-158010689D01*
X220187714Y-158314622D01*
X220584332Y-158479313D01*
X220833011Y-158479529D01*
X221043180Y-158689698D01*
X221043180Y-158908863D01*
X219970205Y-158907950D01*
X219926851Y-158689994D01*
X219766439Y-158449921D01*
X218489472Y-157172954D01*
X218489687Y-156926216D01*
X218325689Y-156529311D01*
X218022286Y-156225378D01*
X217625668Y-156060687D01*
X217196216Y-156060313D01*
X216799311Y-156224311D01*
X216495378Y-156527714D01*
X216471498Y-156585222D01*
X216195668Y-156470687D01*
X215766216Y-156470313D01*
X215369311Y-156634311D01*
X215065378Y-156937714D01*
X214950998Y-157213169D01*
X214895689Y-157079311D01*
X214592286Y-156775378D01*
X214195668Y-156610687D01*
X213766216Y-156610313D01*
X213369311Y-156774311D01*
X213065378Y-157077714D01*
X212900687Y-157474332D01*
X212900313Y-157903784D01*
X213064311Y-158300689D01*
X213367714Y-158604622D01*
X213423180Y-158627653D01*
X213423180Y-158902379D01*
X211098453Y-158900401D01*
X211181476Y-158817524D01*
X211346167Y-158420906D01*
X211346541Y-157991454D01*
X211182543Y-157594549D01*
X210879140Y-157290616D01*
X210482522Y-157125925D01*
X210053070Y-157125551D01*
X209656165Y-157289549D01*
X209352232Y-157592952D01*
X209187541Y-157989570D01*
X209187324Y-158238249D01*
X208559921Y-158865653D01*
X208538158Y-158898223D01*
X207283180Y-158897155D01*
X207283180Y-158391365D01*
X207226851Y-158108179D01*
X207066439Y-157868106D01*
X206883769Y-157685436D01*
X206883984Y-157438698D01*
X206719986Y-157041793D01*
X206416583Y-156737860D01*
X206019965Y-156573169D01*
X205590513Y-156572795D01*
X205193608Y-156736793D01*
X204889675Y-157040196D01*
X204724984Y-157436814D01*
X204724610Y-157866266D01*
X204888608Y-158263171D01*
X205192011Y-158567104D01*
X205588629Y-158731795D01*
X205803180Y-158731981D01*
X205803180Y-158895896D01*
X204743180Y-158894994D01*
X204743180Y-158173180D01*
X204686851Y-157889994D01*
X204526439Y-157649921D01*
X204509472Y-157632954D01*
X204509687Y-157386216D01*
X204345689Y-156989311D01*
X204042286Y-156685378D01*
X203645668Y-156520687D01*
X203216216Y-156520313D01*
X202819311Y-156684311D01*
X202515378Y-156987714D01*
X202460067Y-157120916D01*
X202405689Y-156989311D01*
X202102286Y-156685378D01*
X201705668Y-156520687D01*
X201276216Y-156520313D01*
X200879311Y-156684311D01*
X200575378Y-156987714D01*
X200410687Y-157384332D01*
X200410313Y-157813784D01*
X200574311Y-158210689D01*
X200723180Y-158359818D01*
X200723180Y-158891574D01*
X199663180Y-158890672D01*
X199663180Y-158463516D01*
X199784622Y-158342286D01*
X199949313Y-157945668D01*
X199949687Y-157516216D01*
X199785689Y-157119311D01*
X199482286Y-156815378D01*
X199085668Y-156650687D01*
X198656216Y-156650313D01*
X198259311Y-156814311D01*
X197955378Y-157117714D01*
X197790687Y-157514332D01*
X197790313Y-157943784D01*
X197954311Y-158340689D01*
X198183180Y-158569957D01*
X198183180Y-158889412D01*
X197123180Y-158888511D01*
X197123180Y-158273511D01*
X197259313Y-157945668D01*
X197259687Y-157516216D01*
X197095689Y-157119311D01*
X196792286Y-156815378D01*
X196395668Y-156650687D01*
X195966216Y-156650313D01*
X195569311Y-156814311D01*
X195265378Y-157117714D01*
X195100687Y-157514332D01*
X195100313Y-157943784D01*
X195264311Y-158340689D01*
X195567714Y-158644622D01*
X195643180Y-158675958D01*
X195643180Y-158887251D01*
X194583180Y-158886349D01*
X194583180Y-156178791D01*
X194590689Y-156175689D01*
X194894622Y-155872286D01*
X195059313Y-155475668D01*
X195059687Y-155046216D01*
X194895689Y-154649311D01*
X194592286Y-154345378D01*
X194195668Y-154180687D01*
X193820000Y-154180359D01*
X193820000Y-153800000D01*
X193763671Y-153516814D01*
X193603259Y-153276741D01*
X192983259Y-152656741D01*
X192743186Y-152496329D01*
X192460000Y-152440000D01*
X190160000Y-152440000D01*
X189876814Y-152496329D01*
X189636741Y-152656741D01*
X187876741Y-154416741D01*
X187716329Y-154656814D01*
X187660000Y-154940000D01*
X187660000Y-155630085D01*
X187487639Y-155558696D01*
X187265600Y-155680685D01*
X187265600Y-156823600D01*
X187285600Y-156823600D01*
X187285600Y-157077600D01*
X187265600Y-157077600D01*
X187265600Y-158220515D01*
X187487639Y-158342504D01*
X187660000Y-158271114D01*
X187660000Y-158880459D01*
X186610000Y-158879565D01*
X186610000Y-158268132D01*
X186789561Y-158342504D01*
X187011600Y-158220515D01*
X187011600Y-157077600D01*
X186991600Y-157077600D01*
X186991600Y-156823600D01*
X187011600Y-156823600D01*
X187011600Y-155680685D01*
X186789561Y-155558696D01*
X186553453Y-155656488D01*
X186393259Y-155416741D01*
X186370000Y-155393482D01*
X186370000Y-154670000D01*
X186360000Y-154619726D01*
X186360000Y-151956518D01*
X186577045Y-151739472D01*
X186823784Y-151739687D01*
X187220689Y-151575689D01*
X187524622Y-151272286D01*
X187689313Y-150875668D01*
X187689687Y-150446216D01*
X187525689Y-150049311D01*
X187222286Y-149745378D01*
X187011600Y-149657893D01*
X187011600Y-140220515D01*
X187011600Y-139077600D01*
X186991600Y-139077600D01*
X186991600Y-138823600D01*
X187011600Y-138823600D01*
X187011600Y-137680685D01*
X186789561Y-137558696D01*
X186401177Y-137719559D01*
X185986211Y-138095466D01*
X185883585Y-138312302D01*
X185613298Y-137907789D01*
X185147751Y-137596720D01*
X184598600Y-137487487D01*
X184049449Y-137596720D01*
X183583902Y-137907789D01*
X183328600Y-138289874D01*
X183073298Y-137907789D01*
X182607751Y-137596720D01*
X182058600Y-137487487D01*
X181509449Y-137596720D01*
X181043902Y-137907789D01*
X180788600Y-138289874D01*
X180533298Y-137907789D01*
X180067751Y-137596720D01*
X179518600Y-137487487D01*
X178969449Y-137596720D01*
X178503902Y-137907789D01*
X178248600Y-138289874D01*
X177993298Y-137907789D01*
X177595416Y-137641932D01*
X177595416Y-133600000D01*
X177287477Y-132051886D01*
X176410541Y-130739459D01*
X175098114Y-129862523D01*
X173550000Y-129554584D01*
X172001886Y-129862523D01*
X170689459Y-130739459D01*
X169812523Y-132051886D01*
X169504584Y-133600000D01*
X169812523Y-135148114D01*
X170689459Y-136460541D01*
X172001886Y-137337477D01*
X173550000Y-137645416D01*
X175098114Y-137337477D01*
X176410541Y-136460541D01*
X177287477Y-135148114D01*
X177595416Y-133600000D01*
X177595416Y-137641932D01*
X177527751Y-137596720D01*
X176978600Y-137487487D01*
X176429449Y-137596720D01*
X175963902Y-137907789D01*
X175708600Y-138289874D01*
X175453298Y-137907789D01*
X174987751Y-137596720D01*
X174438600Y-137487487D01*
X173889449Y-137596720D01*
X173423902Y-137907789D01*
X173168600Y-138289874D01*
X172913298Y-137907789D01*
X172447751Y-137596720D01*
X171898600Y-137487487D01*
X171349449Y-137596720D01*
X170883902Y-137907789D01*
X170572833Y-138373336D01*
X170463600Y-138922487D01*
X170463600Y-138978713D01*
X170572833Y-139527864D01*
X170883902Y-139993411D01*
X171349449Y-140304480D01*
X171898600Y-140413713D01*
X172447751Y-140304480D01*
X172913298Y-139993411D01*
X173168600Y-139611325D01*
X173423902Y-139993411D01*
X173889449Y-140304480D01*
X174438600Y-140413713D01*
X174987751Y-140304480D01*
X175453298Y-139993411D01*
X175708600Y-139611325D01*
X175963902Y-139993411D01*
X176429449Y-140304480D01*
X176978600Y-140413713D01*
X177527751Y-140304480D01*
X177993298Y-139993411D01*
X178248600Y-139611325D01*
X178503902Y-139993411D01*
X178969449Y-140304480D01*
X179518600Y-140413713D01*
X180067751Y-140304480D01*
X180533298Y-139993411D01*
X180788600Y-139611325D01*
X181043902Y-139993411D01*
X181509449Y-140304480D01*
X182058600Y-140413713D01*
X182607751Y-140304480D01*
X183073298Y-139993411D01*
X183328600Y-139611325D01*
X183583902Y-139993411D01*
X184049449Y-140304480D01*
X184598600Y-140413713D01*
X185147751Y-140304480D01*
X185613298Y-139993411D01*
X185883585Y-139588897D01*
X185986211Y-139805734D01*
X186401177Y-140181641D01*
X186789561Y-140342504D01*
X187011600Y-140220515D01*
X187011600Y-149657893D01*
X186825668Y-149580687D01*
X186396216Y-149580313D01*
X185999311Y-149744311D01*
X185695378Y-150047714D01*
X185530687Y-150444332D01*
X185530470Y-150693011D01*
X185096741Y-151126741D01*
X184936329Y-151366814D01*
X184880000Y-151650000D01*
X184880000Y-154660000D01*
X184890000Y-154710273D01*
X184890000Y-155545450D01*
X184598600Y-155487487D01*
X184050000Y-155596610D01*
X184050000Y-153155251D01*
X184199313Y-152795668D01*
X184199687Y-152366216D01*
X184035689Y-151969311D01*
X183732286Y-151665378D01*
X183335668Y-151500687D01*
X182906216Y-151500313D01*
X182509311Y-151664311D01*
X182205378Y-151967714D01*
X182040687Y-152364332D01*
X182040313Y-152793784D01*
X182204311Y-153190689D01*
X182507714Y-153494622D01*
X182570000Y-153520485D01*
X182570000Y-155589210D01*
X182058600Y-155487487D01*
X181560000Y-155586664D01*
X181560000Y-152316518D01*
X181633259Y-152243259D01*
X181793671Y-152003186D01*
X181850000Y-151720000D01*
X181850000Y-149936603D01*
X182024622Y-149762286D01*
X182189313Y-149365668D01*
X182189687Y-148936216D01*
X182025689Y-148539311D01*
X181722286Y-148235378D01*
X181325668Y-148070687D01*
X180896216Y-148070313D01*
X180499311Y-148234311D01*
X180195378Y-148537714D01*
X180119666Y-148720047D01*
X180119687Y-148696216D01*
X179955689Y-148299311D01*
X179652286Y-147995378D01*
X179255668Y-147830687D01*
X178826216Y-147830313D01*
X178429311Y-147994311D01*
X178125378Y-148297714D01*
X178003753Y-148590615D01*
X177656216Y-148590313D01*
X177259311Y-148754311D01*
X176955378Y-149057714D01*
X176790687Y-149454332D01*
X176790620Y-149530491D01*
X176586216Y-149530313D01*
X176330000Y-149636179D01*
X176330000Y-149560000D01*
X176273671Y-149276814D01*
X176113259Y-149036741D01*
X174069472Y-146992954D01*
X174069687Y-146746216D01*
X173905689Y-146349311D01*
X173602286Y-146045378D01*
X173205668Y-145880687D01*
X172776216Y-145880313D01*
X172379311Y-146044311D01*
X172075378Y-146347714D01*
X171910687Y-146744332D01*
X171910313Y-147173784D01*
X172074311Y-147570689D01*
X172377714Y-147874622D01*
X172774332Y-148039313D01*
X173023011Y-148039529D01*
X173104071Y-148120589D01*
X172786216Y-148120313D01*
X172389311Y-148284311D01*
X172085378Y-148587714D01*
X171920687Y-148984332D01*
X171920313Y-149413784D01*
X172084311Y-149810689D01*
X172387714Y-150114622D01*
X172390000Y-150115571D01*
X172390000Y-155585232D01*
X171898600Y-155487487D01*
X171349449Y-155596720D01*
X170883902Y-155907789D01*
X170572833Y-156373336D01*
X170463600Y-156922487D01*
X170463600Y-156978713D01*
X170511657Y-157220314D01*
X170424566Y-157307406D01*
X170253315Y-157563700D01*
X170193181Y-157866020D01*
X170243180Y-158117386D01*
X170243180Y-158865640D01*
X167140108Y-158863000D01*
X167140053Y-158863010D01*
X167140000Y-158863000D01*
X166610000Y-158863000D01*
X166610000Y-119994092D01*
X167403580Y-119200511D01*
X167522631Y-119110000D01*
X214601455Y-119110000D01*
X214426741Y-119226741D01*
X209376737Y-124276745D01*
X209216325Y-124516818D01*
X209159996Y-124800004D01*
X209159996Y-127190782D01*
X209044695Y-126911733D01*
X208741292Y-126607800D01*
X208579552Y-126540639D01*
X208579687Y-126386216D01*
X208415689Y-125989311D01*
X208112286Y-125685378D01*
X207715668Y-125520687D01*
X207466988Y-125520470D01*
X205636518Y-123690000D01*
X206705102Y-123690000D01*
X206734311Y-123760689D01*
X207037714Y-124064622D01*
X207434332Y-124229313D01*
X207863784Y-124229687D01*
X208260689Y-124065689D01*
X208564622Y-123762286D01*
X208729313Y-123365668D01*
X208729687Y-122936216D01*
X208565689Y-122539311D01*
X208262286Y-122235378D01*
X207865668Y-122070687D01*
X207436216Y-122070313D01*
X207098148Y-122210000D01*
X198850000Y-122210000D01*
X198566814Y-122266329D01*
X198326741Y-122426741D01*
X198240127Y-122513354D01*
X198162286Y-122435378D01*
X197765668Y-122270687D01*
X197336216Y-122270313D01*
X196939311Y-122434311D01*
X196635378Y-122737714D01*
X196470687Y-123134332D01*
X196470313Y-123563784D01*
X196634311Y-123960689D01*
X196937714Y-124264622D01*
X197334332Y-124429313D01*
X197590670Y-124429536D01*
X197590670Y-124540240D01*
X197610457Y-124642227D01*
X197590670Y-124740900D01*
X197590670Y-125040620D01*
X197604462Y-125111706D01*
X197603110Y-125114971D01*
X197603110Y-125134552D01*
X197529665Y-125061107D01*
X197529687Y-125036216D01*
X197365689Y-124639311D01*
X197062286Y-124335378D01*
X196665668Y-124170687D01*
X196236216Y-124170313D01*
X195839311Y-124334311D01*
X195535378Y-124637714D01*
X195370687Y-125034332D01*
X195370313Y-125463784D01*
X195534311Y-125860689D01*
X195837714Y-126164622D01*
X196234332Y-126329313D01*
X196663784Y-126329687D01*
X196693097Y-126317575D01*
X196787761Y-126412239D01*
X197027834Y-126572651D01*
X197311020Y-126628980D01*
X197608085Y-126628980D01*
X197610457Y-126641207D01*
X197590670Y-126739880D01*
X197590670Y-127039600D01*
X197610457Y-127141587D01*
X197590670Y-127240260D01*
X197590670Y-127539980D01*
X197610457Y-127641967D01*
X197590670Y-127740640D01*
X197590670Y-128040360D01*
X197610457Y-128142347D01*
X197590670Y-128241020D01*
X197590670Y-128540740D01*
X197610457Y-128642727D01*
X197590670Y-128741400D01*
X197590670Y-129041120D01*
X197610207Y-129141816D01*
X197608670Y-129149480D01*
X197110520Y-129149480D01*
X196827334Y-129205809D01*
X196587261Y-129366221D01*
X196226741Y-129726741D01*
X196199357Y-129767723D01*
X195965668Y-129670687D01*
X195536216Y-129670313D01*
X195139311Y-129834311D01*
X194835378Y-130137714D01*
X194670687Y-130534332D01*
X194670313Y-130963784D01*
X194764122Y-131190820D01*
X194760000Y-131190000D01*
X194526603Y-131190000D01*
X194352286Y-131015378D01*
X193955668Y-130850687D01*
X193526216Y-130850313D01*
X193129311Y-131014311D01*
X192825378Y-131317714D01*
X192778560Y-131430462D01*
X192765689Y-131399311D01*
X192462286Y-131095378D01*
X192065668Y-130930687D01*
X191636216Y-130930313D01*
X191540000Y-130970068D01*
X191540000Y-130886603D01*
X191714622Y-130712286D01*
X191879313Y-130315668D01*
X191879687Y-129886216D01*
X191715689Y-129489311D01*
X191412286Y-129185378D01*
X191405414Y-129182524D01*
X192497939Y-128090000D01*
X192563222Y-128090000D01*
X192637714Y-128164622D01*
X193034332Y-128329313D01*
X193463784Y-128329687D01*
X193860689Y-128165689D01*
X194164622Y-127862286D01*
X194329313Y-127465668D01*
X194329687Y-127036216D01*
X194165689Y-126639311D01*
X194085000Y-126558481D01*
X194085000Y-121695868D01*
X194295867Y-121485000D01*
X209658230Y-121485000D01*
X209737714Y-121564622D01*
X210134332Y-121729313D01*
X210563784Y-121729687D01*
X210960689Y-121565689D01*
X211264622Y-121262286D01*
X211429313Y-120865668D01*
X211429687Y-120436216D01*
X211265689Y-120039311D01*
X210962286Y-119735378D01*
X210565668Y-119570687D01*
X210136216Y-119570313D01*
X209739311Y-119734311D01*
X209658481Y-119815000D01*
X193950000Y-119815000D01*
X193630459Y-119878561D01*
X193508576Y-119960000D01*
X179200005Y-119960000D01*
X179200000Y-119959999D01*
X178878546Y-120023941D01*
X178606030Y-120206030D01*
X177511868Y-121300191D01*
X177063343Y-121485519D01*
X176623884Y-121924210D01*
X176536350Y-121893255D01*
X176356745Y-122072860D01*
X176356745Y-121713650D01*
X176264208Y-121451981D01*
X175672602Y-121233812D01*
X175042539Y-121258648D01*
X174575792Y-121451981D01*
X174483255Y-121713650D01*
X175420000Y-122650395D01*
X176356745Y-121713650D01*
X176356745Y-122072860D01*
X175599605Y-122830000D01*
X175613747Y-122844142D01*
X175434142Y-123023747D01*
X175420000Y-123009605D01*
X175405857Y-123023747D01*
X175240395Y-122858285D01*
X175226252Y-122844142D01*
X175240395Y-122830000D01*
X174303650Y-121893255D01*
X174041981Y-121985792D01*
X173823812Y-122577398D01*
X173848648Y-123207461D01*
X174041981Y-123674208D01*
X174303647Y-123766744D01*
X174256386Y-123814005D01*
X174227877Y-123819537D01*
X174015073Y-123959327D01*
X173872623Y-124170360D01*
X173822560Y-124420000D01*
X173822560Y-126320000D01*
X173869537Y-126562123D01*
X174009327Y-126774927D01*
X174220360Y-126917377D01*
X174470000Y-126967440D01*
X176370000Y-126967440D01*
X176612123Y-126920463D01*
X176824927Y-126780673D01*
X176947446Y-126599165D01*
X177060997Y-126712914D01*
X177643341Y-126954724D01*
X178273893Y-126955275D01*
X178856657Y-126714481D01*
X179230260Y-126341529D01*
X179600997Y-126712914D01*
X180183341Y-126954724D01*
X180813893Y-126955275D01*
X181396657Y-126714481D01*
X181770260Y-126341529D01*
X182026548Y-126598265D01*
X181939311Y-126634311D01*
X181635378Y-126937714D01*
X181470687Y-127334332D01*
X181470313Y-127763784D01*
X181489409Y-127810000D01*
X180736603Y-127810000D01*
X180562286Y-127635378D01*
X180165668Y-127470687D01*
X179736216Y-127470313D01*
X179339311Y-127634311D01*
X179035378Y-127937714D01*
X178870687Y-128334332D01*
X178870313Y-128763784D01*
X178893781Y-128820580D01*
X178586216Y-128820313D01*
X178189311Y-128984311D01*
X177885378Y-129287714D01*
X177720687Y-129684332D01*
X177720313Y-130113784D01*
X177884311Y-130510689D01*
X178187714Y-130814622D01*
X178584332Y-130979313D01*
X179013784Y-130979687D01*
X179410689Y-130815689D01*
X179586684Y-130640000D01*
X184900000Y-130640000D01*
X187900000Y-130640000D01*
X188160000Y-130588282D01*
X188160000Y-135460000D01*
X186510343Y-135460000D01*
X186415668Y-135420687D01*
X185986216Y-135420313D01*
X185589311Y-135584311D01*
X185285378Y-135887714D01*
X185120687Y-136284332D01*
X185120313Y-136713784D01*
X185284311Y-137110689D01*
X185587714Y-137414622D01*
X185984332Y-137579313D01*
X186413784Y-137579687D01*
X186810689Y-137415689D01*
X187086859Y-137140000D01*
X189452060Y-137140000D01*
X189829578Y-137517518D01*
X189678600Y-137487487D01*
X189129449Y-137596720D01*
X188663902Y-137907789D01*
X188393614Y-138312302D01*
X188290989Y-138095466D01*
X187876023Y-137719559D01*
X187487639Y-137558696D01*
X187265600Y-137680685D01*
X187265600Y-138823600D01*
X187285600Y-138823600D01*
X187285600Y-139077600D01*
X187265600Y-139077600D01*
X187265600Y-140220515D01*
X187487639Y-140342504D01*
X187876023Y-140181641D01*
X188290989Y-139805734D01*
X188393614Y-139588897D01*
X188663902Y-139993411D01*
X189129449Y-140304480D01*
X189678600Y-140413713D01*
X189828080Y-140383979D01*
X189306030Y-140906030D01*
X189218544Y-141036961D01*
X189032286Y-140850378D01*
X188635668Y-140685687D01*
X188206216Y-140685313D01*
X187809311Y-140849311D01*
X187505378Y-141152714D01*
X187340687Y-141549332D01*
X187340313Y-141978784D01*
X187504311Y-142375689D01*
X187807714Y-142679622D01*
X188204332Y-142844313D01*
X188633784Y-142844687D01*
X189030689Y-142680689D01*
X189060000Y-142651429D01*
X189060000Y-143200000D01*
X189123941Y-143521454D01*
X189306030Y-143793970D01*
X191790000Y-146277940D01*
X191790000Y-146843222D01*
X191715378Y-146917714D01*
X191550687Y-147314332D01*
X191550313Y-147743784D01*
X191714311Y-148140689D01*
X192017714Y-148444622D01*
X192414332Y-148609313D01*
X192843784Y-148609687D01*
X193240689Y-148445689D01*
X193544622Y-148142286D01*
X193709313Y-147745668D01*
X193709412Y-147631455D01*
X195195868Y-146145000D01*
X195684132Y-146145000D01*
X195749429Y-146210297D01*
X195769566Y-146240434D01*
X197685000Y-148155868D01*
X197685000Y-148194132D01*
X196430434Y-146939566D01*
X196159540Y-146758561D01*
X195840000Y-146695000D01*
X195520460Y-146758561D01*
X195249566Y-146939566D01*
X195068561Y-147210460D01*
X195005000Y-147530000D01*
X195068561Y-147849540D01*
X195249566Y-148120434D01*
X196749292Y-149620160D01*
X196789566Y-149680434D01*
X197060459Y-149861439D01*
X197380000Y-149925000D01*
X197685000Y-149864331D01*
X197685000Y-149954132D01*
X196309566Y-151329566D01*
X196128561Y-151600459D01*
X196065000Y-151920000D01*
X196065000Y-154200000D01*
X196128561Y-154519541D01*
X196309566Y-154790434D01*
X197099566Y-155580434D01*
X197370459Y-155761439D01*
X197370460Y-155761440D01*
X197690000Y-155825000D01*
X205228230Y-155825000D01*
X205307714Y-155904622D01*
X205704332Y-156069313D01*
X206133784Y-156069687D01*
X206530689Y-155905689D01*
X206606510Y-155830000D01*
X210350000Y-155830000D01*
X210671454Y-155766059D01*
X210943970Y-155583970D01*
X211663839Y-154864100D01*
X211970000Y-154925000D01*
X218180000Y-154925000D01*
X218499540Y-154861439D01*
X218499541Y-154861439D01*
X218770434Y-154680434D01*
X219835868Y-153615000D01*
X220490000Y-153615000D01*
X220809540Y-153551439D01*
X220809541Y-153551439D01*
X221080434Y-153370434D01*
X222790434Y-151660434D01*
X222971439Y-151389541D01*
X222971439Y-151389540D01*
X223035000Y-151070000D01*
X223035000Y-149511769D01*
X223114622Y-149432286D01*
X223279313Y-149035668D01*
X223279687Y-148606216D01*
X223115689Y-148209311D01*
X222973000Y-148066372D01*
X222973000Y-145331250D01*
X222973000Y-144357000D01*
X222123750Y-144357000D01*
X221965000Y-144515750D01*
X221965000Y-144728691D01*
X221965000Y-144981310D01*
X222061673Y-145214699D01*
X222240302Y-145393327D01*
X222473691Y-145490000D01*
X222814250Y-145490000D01*
X222973000Y-145331250D01*
X222973000Y-148066372D01*
X222812286Y-147905378D01*
X222415668Y-147740687D01*
X221986216Y-147740313D01*
X221589311Y-147904311D01*
X221285378Y-148207714D01*
X221120687Y-148604332D01*
X221120313Y-149033784D01*
X221284311Y-149430689D01*
X221365000Y-149511518D01*
X221365000Y-150724132D01*
X220144132Y-151945000D01*
X219490000Y-151945000D01*
X219170460Y-152008560D01*
X218899566Y-152189566D01*
X218250761Y-152838370D01*
X218252440Y-152830000D01*
X218252440Y-150830000D01*
X218205463Y-150587877D01*
X218065673Y-150375073D01*
X218045000Y-150361118D01*
X218045000Y-149604984D01*
X217988671Y-149321798D01*
X217828259Y-149081725D01*
X214479472Y-145732938D01*
X214479687Y-145486200D01*
X214476910Y-145479480D01*
X214713784Y-145479687D01*
X215110689Y-145315689D01*
X215414622Y-145012286D01*
X215579313Y-144615668D01*
X215579687Y-144186216D01*
X215516648Y-144033651D01*
X215735000Y-144077440D01*
X216335000Y-144077440D01*
X216577123Y-144030463D01*
X216669770Y-143969603D01*
X216755360Y-144027377D01*
X217005000Y-144077440D01*
X217605000Y-144077440D01*
X217847123Y-144030463D01*
X218059927Y-143890673D01*
X218202377Y-143679640D01*
X218252440Y-143430000D01*
X218252440Y-143265000D01*
X222053513Y-143265000D01*
X221965000Y-143478690D01*
X221965000Y-143731309D01*
X221965000Y-143944250D01*
X222123750Y-144103000D01*
X222973000Y-144103000D01*
X222973000Y-144083000D01*
X223227000Y-144083000D01*
X223227000Y-144103000D01*
X223247000Y-144103000D01*
X223247000Y-144357000D01*
X223227000Y-144357000D01*
X223227000Y-145331250D01*
X223385750Y-145490000D01*
X223726309Y-145490000D01*
X223959698Y-145393327D01*
X224101176Y-145251849D01*
X224139327Y-145309927D01*
X224350360Y-145452377D01*
X224600000Y-145502440D01*
X225600000Y-145502440D01*
X225842123Y-145455463D01*
X226054927Y-145315673D01*
X226197377Y-145104640D01*
X226204323Y-145070000D01*
X226895000Y-145070000D01*
X227216454Y-145006059D01*
X227488970Y-144823970D01*
X227643970Y-144668970D01*
X227700076Y-144585000D01*
X228050000Y-144585000D01*
X228369540Y-144521439D01*
X228369541Y-144521439D01*
X228640434Y-144340434D01*
X232195868Y-140785000D01*
X235950000Y-140785000D01*
X236269540Y-140721439D01*
X236269541Y-140721439D01*
X236540434Y-140540434D01*
X239751278Y-137329589D01*
X239863784Y-137329687D01*
X240260689Y-137165689D01*
X240564622Y-136862286D01*
X240702017Y-136531401D01*
X241864136Y-137307905D01*
X243400000Y-137613407D01*
X244935864Y-137307905D01*
X246237907Y-136437907D01*
X247107905Y-135135864D01*
X247413407Y-133600000D01*
X247107905Y-132064136D01*
X246237907Y-130762093D01*
X244935864Y-129892095D01*
X243400000Y-129586593D01*
X241864136Y-129892095D01*
X240562093Y-130762093D01*
X239692095Y-132064136D01*
X239386593Y-133600000D01*
X239692095Y-135135864D01*
X239715275Y-135170556D01*
X239436216Y-135170313D01*
X239039311Y-135334311D01*
X238735378Y-135637714D01*
X238570687Y-136034332D01*
X238570587Y-136148544D01*
X235604132Y-139115000D01*
X231931518Y-139115000D01*
X234573259Y-136473259D01*
X234733671Y-136233186D01*
X234733671Y-136233185D01*
X234790000Y-135950000D01*
X234790000Y-132556518D01*
X236773259Y-130573259D01*
X236933671Y-130333186D01*
X236990000Y-130050000D01*
X236990000Y-129656518D01*
X237717045Y-128929472D01*
X237963784Y-128929687D01*
X238360689Y-128765689D01*
X238664622Y-128462286D01*
X238829313Y-128065668D01*
X238829687Y-127636216D01*
X238665689Y-127239311D01*
X238362286Y-126935378D01*
X237965668Y-126770687D01*
X237536216Y-126770313D01*
X237139311Y-126934311D01*
X236835378Y-127237714D01*
X236670687Y-127634332D01*
X236670470Y-127883011D01*
X236465000Y-128088482D01*
X236465000Y-126479644D01*
X236513784Y-126479687D01*
X236910689Y-126315689D01*
X237214622Y-126012286D01*
X237379313Y-125615668D01*
X237379687Y-125186216D01*
X237215689Y-124789311D01*
X236912286Y-124485378D01*
X236515668Y-124320687D01*
X236086216Y-124320313D01*
X235690000Y-124484026D01*
X235690000Y-123736603D01*
X235864622Y-123562286D01*
X236029313Y-123165668D01*
X236029687Y-122736216D01*
X235865689Y-122339311D01*
X235562286Y-122035378D01*
X235165668Y-121870687D01*
X234736216Y-121870313D01*
X234339311Y-122034311D01*
X234035378Y-122337714D01*
X233870687Y-122734332D01*
X233870313Y-123163784D01*
X234034311Y-123560689D01*
X234210000Y-123736684D01*
X234210000Y-128083175D01*
X234162286Y-128035378D01*
X233765668Y-127870687D01*
X233336216Y-127870313D01*
X232939311Y-128034311D01*
X232763315Y-128210000D01*
X228516475Y-128210000D01*
X228764622Y-127962286D01*
X228929313Y-127565668D01*
X228929519Y-127328407D01*
X229017438Y-127292079D01*
X229138024Y-127412876D01*
X229534642Y-127577567D01*
X229964094Y-127577941D01*
X230360999Y-127413943D01*
X230664932Y-127110540D01*
X230829623Y-126713922D01*
X230829997Y-126284470D01*
X230665999Y-125887565D01*
X230451044Y-125672234D01*
X230433981Y-125586451D01*
X230273569Y-125346378D01*
X229506512Y-124579321D01*
X229266439Y-124418909D01*
X228983253Y-124362580D01*
X227051847Y-124362580D01*
X226962383Y-124380375D01*
X226771242Y-124188900D01*
X226771611Y-123765890D01*
X226607613Y-123368985D01*
X226304210Y-123065052D01*
X226029325Y-122950909D01*
X226029687Y-122536216D01*
X225865689Y-122139311D01*
X225562286Y-121835378D01*
X225165668Y-121670687D01*
X224736216Y-121670313D01*
X224339311Y-121834311D01*
X224035378Y-122137714D01*
X223905861Y-122449623D01*
X222705105Y-123650380D01*
X220502491Y-123650380D01*
X220491770Y-123643143D01*
X220242130Y-123593080D01*
X218441270Y-123593080D01*
X218337540Y-123613205D01*
X218265689Y-123439311D01*
X217962286Y-123135378D01*
X217565668Y-122970687D01*
X217136216Y-122970313D01*
X216739311Y-123134311D01*
X216435378Y-123437714D01*
X216270687Y-123834332D01*
X216270472Y-124080115D01*
X216139311Y-124134311D01*
X215835378Y-124437714D01*
X215670687Y-124834332D01*
X215670313Y-125263784D01*
X215834311Y-125660689D01*
X216049265Y-125876019D01*
X216066329Y-125961803D01*
X216226741Y-126201876D01*
X216674985Y-126650120D01*
X215109880Y-126650120D01*
X214826694Y-126706449D01*
X214586621Y-126866861D01*
X209793482Y-131660000D01*
X209686603Y-131660000D01*
X209512286Y-131485378D01*
X209115668Y-131320687D01*
X208869006Y-131320472D01*
X208869006Y-130231639D01*
X208984307Y-130510689D01*
X209287710Y-130814622D01*
X209684328Y-130979313D01*
X210113780Y-130979687D01*
X210510685Y-130815689D01*
X210814618Y-130512286D01*
X210979309Y-130115668D01*
X210979683Y-129686216D01*
X210815685Y-129289311D01*
X210639996Y-129113315D01*
X210639996Y-125106522D01*
X215256518Y-120490000D01*
X225943482Y-120490000D01*
X228970527Y-123517045D01*
X228970313Y-123763784D01*
X229134311Y-124160689D01*
X229437714Y-124464622D01*
X229834332Y-124629313D01*
X230263784Y-124629687D01*
X230660689Y-124465689D01*
X230964622Y-124162286D01*
X231129313Y-123765668D01*
X231129687Y-123336216D01*
X230965689Y-122939311D01*
X230662286Y-122635378D01*
X230265668Y-122470687D01*
X230016988Y-122470470D01*
X226773259Y-119226741D01*
X226598544Y-119110000D01*
X248155907Y-119110000D01*
X249040000Y-119994092D01*
X249040000Y-158932684D01*
M02*
