G04 #@! TF.FileFunction,Paste,Bot*
%FSLAX46Y46*%
G04 Gerber Fmt 4.6, Leading zero omitted, Abs format (unit mm)*
G04 Created by KiCad (PCBNEW (after 2015-may-25 BZR unknown)-product) date 17/09/2017 09:43:34*
%MOMM*%
G01*
G04 APERTURE LIST*
%ADD10C,0.100000*%
%ADD11R,1.000000X1.250000*%
%ADD12R,0.600000X2.000000*%
%ADD13R,1.800860X0.299720*%
%ADD14R,1.800860X0.200660*%
%ADD15R,1.600200X6.299200*%
G04 APERTURE END LIST*
D10*
D11*
X223100000Y-144230000D03*
X225100000Y-144230000D03*
D12*
X217305000Y-151830000D03*
X216035000Y-151830000D03*
X214765000Y-151830000D03*
X213495000Y-151830000D03*
X212225000Y-151830000D03*
X210955000Y-151830000D03*
X209685000Y-151830000D03*
X208415000Y-151830000D03*
X207145000Y-151830000D03*
X205875000Y-151830000D03*
X204605000Y-151830000D03*
X203335000Y-151830000D03*
X202065000Y-151830000D03*
X200795000Y-151830000D03*
X200795000Y-142430000D03*
X202065000Y-142430000D03*
X203335000Y-142430000D03*
X204605000Y-142430000D03*
X205875000Y-142430000D03*
X207145000Y-142430000D03*
X208415000Y-142430000D03*
X209685000Y-142430000D03*
X210955000Y-142430000D03*
X212225000Y-142430000D03*
X213495000Y-142430000D03*
X214765000Y-142430000D03*
X216035000Y-142430000D03*
X217305000Y-142430000D03*
D13*
X219341700Y-124390380D03*
X219336620Y-124890760D03*
X219336620Y-125391140D03*
X219336620Y-125888980D03*
D14*
X219336620Y-126389360D03*
D13*
X219336620Y-126889740D03*
X219336620Y-127390120D03*
X219336620Y-127890500D03*
X219336620Y-128390880D03*
X219336620Y-128891260D03*
X219336620Y-129389100D03*
X219336620Y-129889480D03*
X219336620Y-130389860D03*
X219336620Y-130890240D03*
X219336620Y-131390620D03*
X219336620Y-131891000D03*
X219336620Y-132388840D03*
X219336620Y-132889220D03*
X219336620Y-133389600D03*
X219336620Y-133889980D03*
X219336620Y-134390360D03*
X219336620Y-134890740D03*
X219336620Y-135391120D03*
X219336620Y-135888960D03*
X199138540Y-135888960D03*
X199138540Y-135391120D03*
X199138540Y-134890740D03*
X199138540Y-134390360D03*
X199138540Y-133889980D03*
X199138540Y-133389600D03*
X199138540Y-132889220D03*
X199138540Y-132388840D03*
X199138540Y-131891000D03*
X199138540Y-131390620D03*
X199138540Y-130890240D03*
X199138540Y-130389860D03*
X199138540Y-129889480D03*
X199138540Y-129389100D03*
X199138540Y-128891260D03*
X199138540Y-128390880D03*
X199138540Y-127890500D03*
X199138540Y-127390120D03*
X199138540Y-126889740D03*
X199138540Y-126389360D03*
X199138540Y-125888980D03*
X199138540Y-125391140D03*
X199138540Y-124890760D03*
X199138540Y-124390380D03*
D15*
X168443180Y-163981420D03*
X170983180Y-163981420D03*
X173523180Y-163981420D03*
X176063180Y-163981420D03*
X178603180Y-163981420D03*
X181143180Y-163981420D03*
X183683180Y-163981420D03*
X186223180Y-163981420D03*
X188763180Y-163981420D03*
X191303180Y-163981420D03*
X193843180Y-163981420D03*
X196383180Y-163981420D03*
X198923180Y-163981420D03*
X201463180Y-163981420D03*
X204003180Y-163981420D03*
X206543180Y-163981420D03*
X209083180Y-163981420D03*
X211623180Y-163981420D03*
X214163180Y-163981420D03*
X216703180Y-163981420D03*
X219243180Y-163981420D03*
X221783180Y-163981420D03*
X224323180Y-163981420D03*
X226863180Y-163981420D03*
X229403180Y-163981420D03*
X231943180Y-163981420D03*
X234483180Y-163981420D03*
X237023180Y-163981420D03*
X239563180Y-163981420D03*
X242103180Y-163981420D03*
X244643180Y-163981420D03*
X247183180Y-163981420D03*
M02*
