G04 #@! TF.FileFunction,Paste,Top*
%FSLAX46Y46*%
G04 Gerber Fmt 4.6, Leading zero omitted, Abs format (unit mm)*
G04 Created by KiCad (PCBNEW (after 2015-may-25 BZR unknown)-product) date 17/09/2017 09:43:34*
%MOMM*%
G01*
G04 APERTURE LIST*
%ADD10C,0.100000*%
%ADD11R,2.550160X2.499360*%
%ADD12R,1.300000X0.700000*%
%ADD13R,3.800000X2.000000*%
%ADD14R,1.500000X2.000000*%
%ADD15R,1.000000X1.250000*%
%ADD16R,1.600200X6.299200*%
%ADD17R,2.499360X2.550160*%
%ADD18R,1.550000X0.600000*%
G04 APERTURE END LIST*
D10*
D11*
X242250240Y-152750000D03*
X247299760Y-152750000D03*
D12*
X179890000Y-133040000D03*
X179890000Y-134940000D03*
X182560000Y-133040000D03*
X182560000Y-134940000D03*
X185160000Y-133040000D03*
X185160000Y-134940000D03*
D10*
G36*
X214992924Y-121829231D02*
X214156511Y-122758162D01*
X213413366Y-122089031D01*
X214249779Y-121160100D01*
X214992924Y-121829231D01*
X214992924Y-121829231D01*
G37*
G36*
X213506635Y-120490969D02*
X212670222Y-121419900D01*
X211927077Y-120750769D01*
X212763490Y-119821838D01*
X213506635Y-120490969D01*
X213506635Y-120490969D01*
G37*
G36*
X225672102Y-131102395D02*
X224852028Y-132045782D01*
X224097318Y-131389723D01*
X224917392Y-130446336D01*
X225672102Y-131102395D01*
X225672102Y-131102395D01*
G37*
G36*
X224162683Y-129790276D02*
X223342609Y-130733663D01*
X222587899Y-130077604D01*
X223407973Y-129134217D01*
X224162683Y-129790276D01*
X224162683Y-129790276D01*
G37*
G36*
X197592602Y-148398719D02*
X196708719Y-149282602D01*
X196001612Y-148575495D01*
X196885495Y-147691612D01*
X197592602Y-148398719D01*
X197592602Y-148398719D01*
G37*
G36*
X196178389Y-146984505D02*
X195294506Y-147868388D01*
X194587399Y-147161281D01*
X195471282Y-146277398D01*
X196178389Y-146984505D01*
X196178389Y-146984505D01*
G37*
D13*
X240140000Y-140380000D03*
D14*
X240140000Y-146680000D03*
X242440000Y-146680000D03*
X237840000Y-146680000D03*
D10*
G36*
X205586223Y-124552542D02*
X205756722Y-124369704D01*
X206817185Y-125358602D01*
X206646686Y-125541440D01*
X205586223Y-124552542D01*
X205586223Y-124552542D01*
G37*
G36*
X205245224Y-124918219D02*
X205415723Y-124735381D01*
X206476186Y-125724279D01*
X206305687Y-125907117D01*
X205245224Y-124918219D01*
X205245224Y-124918219D01*
G37*
G36*
X204904225Y-125283896D02*
X205074724Y-125101058D01*
X206135187Y-126089956D01*
X205964688Y-126272794D01*
X204904225Y-125283896D01*
X204904225Y-125283896D01*
G37*
G36*
X204563226Y-125649573D02*
X204733725Y-125466735D01*
X205794188Y-126455633D01*
X205623689Y-126638471D01*
X204563226Y-125649573D01*
X204563226Y-125649573D01*
G37*
G36*
X204222226Y-126015250D02*
X204392725Y-125832412D01*
X205453188Y-126821310D01*
X205282689Y-127004148D01*
X204222226Y-126015250D01*
X204222226Y-126015250D01*
G37*
G36*
X203881227Y-126380927D02*
X204051726Y-126198089D01*
X205112189Y-127186987D01*
X204941690Y-127369825D01*
X203881227Y-126380927D01*
X203881227Y-126380927D01*
G37*
G36*
X203540228Y-126746604D02*
X203710727Y-126563766D01*
X204771190Y-127552664D01*
X204600691Y-127735502D01*
X203540228Y-126746604D01*
X203540228Y-126746604D01*
G37*
G36*
X203199229Y-127112280D02*
X203369728Y-126929442D01*
X204430191Y-127918340D01*
X204259692Y-128101178D01*
X203199229Y-127112280D01*
X203199229Y-127112280D01*
G37*
G36*
X202858230Y-127477957D02*
X203028729Y-127295119D01*
X204089192Y-128284017D01*
X203918693Y-128466855D01*
X202858230Y-127477957D01*
X202858230Y-127477957D01*
G37*
G36*
X202517230Y-127843634D02*
X202687729Y-127660796D01*
X203748192Y-128649694D01*
X203577693Y-128832532D01*
X202517230Y-127843634D01*
X202517230Y-127843634D01*
G37*
G36*
X202176231Y-128209311D02*
X202346730Y-128026473D01*
X203407193Y-129015371D01*
X203236694Y-129198209D01*
X202176231Y-128209311D01*
X202176231Y-128209311D01*
G37*
G36*
X201835232Y-128574988D02*
X202005731Y-128392150D01*
X203066194Y-129381048D01*
X202895695Y-129563886D01*
X201835232Y-128574988D01*
X201835232Y-128574988D01*
G37*
G36*
X201494233Y-128940665D02*
X201664732Y-128757827D01*
X202725195Y-129746725D01*
X202554696Y-129929563D01*
X201494233Y-128940665D01*
X201494233Y-128940665D01*
G37*
G36*
X201153234Y-129306341D02*
X201323733Y-129123503D01*
X202384196Y-130112401D01*
X202213697Y-130295239D01*
X201153234Y-129306341D01*
X201153234Y-129306341D01*
G37*
G36*
X200812235Y-129672018D02*
X200982734Y-129489180D01*
X202043197Y-130478078D01*
X201872698Y-130660916D01*
X200812235Y-129672018D01*
X200812235Y-129672018D01*
G37*
G36*
X200471235Y-130037695D02*
X200641734Y-129854857D01*
X201702197Y-130843755D01*
X201531698Y-131026593D01*
X200471235Y-130037695D01*
X200471235Y-130037695D01*
G37*
G36*
X200130236Y-130403372D02*
X200300735Y-130220534D01*
X201361198Y-131209432D01*
X201190699Y-131392270D01*
X200130236Y-130403372D01*
X200130236Y-130403372D01*
G37*
G36*
X199789237Y-130769049D02*
X199959736Y-130586211D01*
X201020199Y-131575109D01*
X200849700Y-131757947D01*
X199789237Y-130769049D01*
X199789237Y-130769049D01*
G37*
G36*
X199448238Y-131134726D02*
X199618737Y-130951888D01*
X200679200Y-131940786D01*
X200508701Y-132123624D01*
X199448238Y-131134726D01*
X199448238Y-131134726D01*
G37*
G36*
X199107239Y-131500403D02*
X199277738Y-131317565D01*
X200338201Y-132306463D01*
X200167702Y-132489301D01*
X199107239Y-131500403D01*
X199107239Y-131500403D01*
G37*
G36*
X198766239Y-131866079D02*
X198936738Y-131683241D01*
X199997201Y-132672139D01*
X199826702Y-132854977D01*
X198766239Y-131866079D01*
X198766239Y-131866079D01*
G37*
G36*
X198425240Y-132231756D02*
X198595739Y-132048918D01*
X199656202Y-133037816D01*
X199485703Y-133220654D01*
X198425240Y-132231756D01*
X198425240Y-132231756D01*
G37*
G36*
X198084241Y-132597433D02*
X198254740Y-132414595D01*
X199315203Y-133403493D01*
X199144704Y-133586331D01*
X198084241Y-132597433D01*
X198084241Y-132597433D01*
G37*
G36*
X197743242Y-132963110D02*
X197913741Y-132780272D01*
X198974204Y-133769170D01*
X198803705Y-133952008D01*
X197743242Y-132963110D01*
X197743242Y-132963110D01*
G37*
G36*
X197402243Y-133328787D02*
X197572742Y-133145949D01*
X198633205Y-134134847D01*
X198462706Y-134317685D01*
X197402243Y-133328787D01*
X197402243Y-133328787D01*
G37*
G36*
X197061244Y-133694464D02*
X197231743Y-133511626D01*
X198292206Y-134500524D01*
X198121707Y-134683362D01*
X197061244Y-133694464D01*
X197061244Y-133694464D01*
G37*
G36*
X196720244Y-134060141D02*
X196890743Y-133877303D01*
X197951206Y-134866201D01*
X197780707Y-135049039D01*
X196720244Y-134060141D01*
X196720244Y-134060141D01*
G37*
G36*
X196379245Y-134425817D02*
X196549744Y-134242979D01*
X197610207Y-135231877D01*
X197439708Y-135414715D01*
X196379245Y-134425817D01*
X196379245Y-134425817D01*
G37*
G36*
X196038246Y-134791494D02*
X196208745Y-134608656D01*
X197269208Y-135597554D01*
X197098709Y-135780392D01*
X196038246Y-134791494D01*
X196038246Y-134791494D01*
G37*
G36*
X195697247Y-135157171D02*
X195867746Y-134974333D01*
X196928209Y-135963231D01*
X196757710Y-136146069D01*
X195697247Y-135157171D01*
X195697247Y-135157171D01*
G37*
G36*
X195356248Y-135522848D02*
X195526747Y-135340010D01*
X196587210Y-136328908D01*
X196416711Y-136511746D01*
X195356248Y-135522848D01*
X195356248Y-135522848D01*
G37*
G36*
X195015249Y-135888525D02*
X195185748Y-135705687D01*
X196246211Y-136694585D01*
X196075712Y-136877423D01*
X195015249Y-135888525D01*
X195015249Y-135888525D01*
G37*
G36*
X194674249Y-136254202D02*
X194844748Y-136071364D01*
X195905211Y-137060262D01*
X195734712Y-137243100D01*
X194674249Y-136254202D01*
X194674249Y-136254202D01*
G37*
G36*
X194333250Y-136619878D02*
X194503749Y-136437040D01*
X195564212Y-137425938D01*
X195393713Y-137608776D01*
X194333250Y-136619878D01*
X194333250Y-136619878D01*
G37*
G36*
X193992251Y-136985555D02*
X194162750Y-136802717D01*
X195223213Y-137791615D01*
X195052714Y-137974453D01*
X193992251Y-136985555D01*
X193992251Y-136985555D01*
G37*
G36*
X193651252Y-137351232D02*
X193821751Y-137168394D01*
X194882214Y-138157292D01*
X194711715Y-138340130D01*
X193651252Y-137351232D01*
X193651252Y-137351232D01*
G37*
G36*
X193952542Y-140913777D02*
X193769704Y-140743278D01*
X194758602Y-139682815D01*
X194941440Y-139853314D01*
X193952542Y-140913777D01*
X193952542Y-140913777D01*
G37*
G36*
X194318219Y-141254776D02*
X194135381Y-141084277D01*
X195124279Y-140023814D01*
X195307117Y-140194313D01*
X194318219Y-141254776D01*
X194318219Y-141254776D01*
G37*
G36*
X194683896Y-141595775D02*
X194501058Y-141425276D01*
X195489956Y-140364813D01*
X195672794Y-140535312D01*
X194683896Y-141595775D01*
X194683896Y-141595775D01*
G37*
G36*
X195049573Y-141936774D02*
X194866735Y-141766275D01*
X195855633Y-140705812D01*
X196038471Y-140876311D01*
X195049573Y-141936774D01*
X195049573Y-141936774D01*
G37*
G36*
X195415250Y-142277774D02*
X195232412Y-142107275D01*
X196221310Y-141046812D01*
X196404148Y-141217311D01*
X195415250Y-142277774D01*
X195415250Y-142277774D01*
G37*
G36*
X195780927Y-142618773D02*
X195598089Y-142448274D01*
X196586987Y-141387811D01*
X196769825Y-141558310D01*
X195780927Y-142618773D01*
X195780927Y-142618773D01*
G37*
G36*
X196146604Y-142959772D02*
X195963766Y-142789273D01*
X196952664Y-141728810D01*
X197135502Y-141899309D01*
X196146604Y-142959772D01*
X196146604Y-142959772D01*
G37*
G36*
X196512280Y-143300771D02*
X196329442Y-143130272D01*
X197318340Y-142069809D01*
X197501178Y-142240308D01*
X196512280Y-143300771D01*
X196512280Y-143300771D01*
G37*
G36*
X196877957Y-143641770D02*
X196695119Y-143471271D01*
X197684017Y-142410808D01*
X197866855Y-142581307D01*
X196877957Y-143641770D01*
X196877957Y-143641770D01*
G37*
G36*
X197243634Y-143982770D02*
X197060796Y-143812271D01*
X198049694Y-142751808D01*
X198232532Y-142922307D01*
X197243634Y-143982770D01*
X197243634Y-143982770D01*
G37*
G36*
X197609311Y-144323769D02*
X197426473Y-144153270D01*
X198415371Y-143092807D01*
X198598209Y-143263306D01*
X197609311Y-144323769D01*
X197609311Y-144323769D01*
G37*
G36*
X197974988Y-144664768D02*
X197792150Y-144494269D01*
X198781048Y-143433806D01*
X198963886Y-143604305D01*
X197974988Y-144664768D01*
X197974988Y-144664768D01*
G37*
G36*
X198340665Y-145005767D02*
X198157827Y-144835268D01*
X199146725Y-143774805D01*
X199329563Y-143945304D01*
X198340665Y-145005767D01*
X198340665Y-145005767D01*
G37*
G36*
X198706341Y-145346766D02*
X198523503Y-145176267D01*
X199512401Y-144115804D01*
X199695239Y-144286303D01*
X198706341Y-145346766D01*
X198706341Y-145346766D01*
G37*
G36*
X199072018Y-145687765D02*
X198889180Y-145517266D01*
X199878078Y-144456803D01*
X200060916Y-144627302D01*
X199072018Y-145687765D01*
X199072018Y-145687765D01*
G37*
G36*
X199437695Y-146028765D02*
X199254857Y-145858266D01*
X200243755Y-144797803D01*
X200426593Y-144968302D01*
X199437695Y-146028765D01*
X199437695Y-146028765D01*
G37*
G36*
X199803372Y-146369764D02*
X199620534Y-146199265D01*
X200609432Y-145138802D01*
X200792270Y-145309301D01*
X199803372Y-146369764D01*
X199803372Y-146369764D01*
G37*
G36*
X200169049Y-146710763D02*
X199986211Y-146540264D01*
X200975109Y-145479801D01*
X201157947Y-145650300D01*
X200169049Y-146710763D01*
X200169049Y-146710763D01*
G37*
G36*
X200534726Y-147051762D02*
X200351888Y-146881263D01*
X201340786Y-145820800D01*
X201523624Y-145991299D01*
X200534726Y-147051762D01*
X200534726Y-147051762D01*
G37*
G36*
X200900403Y-147392761D02*
X200717565Y-147222262D01*
X201706463Y-146161799D01*
X201889301Y-146332298D01*
X200900403Y-147392761D01*
X200900403Y-147392761D01*
G37*
G36*
X201266079Y-147733761D02*
X201083241Y-147563262D01*
X202072139Y-146502799D01*
X202254977Y-146673298D01*
X201266079Y-147733761D01*
X201266079Y-147733761D01*
G37*
G36*
X201631756Y-148074760D02*
X201448918Y-147904261D01*
X202437816Y-146843798D01*
X202620654Y-147014297D01*
X201631756Y-148074760D01*
X201631756Y-148074760D01*
G37*
G36*
X201997433Y-148415759D02*
X201814595Y-148245260D01*
X202803493Y-147184797D01*
X202986331Y-147355296D01*
X201997433Y-148415759D01*
X201997433Y-148415759D01*
G37*
G36*
X202363110Y-148756758D02*
X202180272Y-148586259D01*
X203169170Y-147525796D01*
X203352008Y-147696295D01*
X202363110Y-148756758D01*
X202363110Y-148756758D01*
G37*
G36*
X202728787Y-149097757D02*
X202545949Y-148927258D01*
X203534847Y-147866795D01*
X203717685Y-148037294D01*
X202728787Y-149097757D01*
X202728787Y-149097757D01*
G37*
G36*
X203094464Y-149438756D02*
X202911626Y-149268257D01*
X203900524Y-148207794D01*
X204083362Y-148378293D01*
X203094464Y-149438756D01*
X203094464Y-149438756D01*
G37*
G36*
X203460141Y-149779756D02*
X203277303Y-149609257D01*
X204266201Y-148548794D01*
X204449039Y-148719293D01*
X203460141Y-149779756D01*
X203460141Y-149779756D01*
G37*
G36*
X203825817Y-150120755D02*
X203642979Y-149950256D01*
X204631877Y-148889793D01*
X204814715Y-149060292D01*
X203825817Y-150120755D01*
X203825817Y-150120755D01*
G37*
G36*
X204191494Y-150461754D02*
X204008656Y-150291255D01*
X204997554Y-149230792D01*
X205180392Y-149401291D01*
X204191494Y-150461754D01*
X204191494Y-150461754D01*
G37*
G36*
X204557171Y-150802753D02*
X204374333Y-150632254D01*
X205363231Y-149571791D01*
X205546069Y-149742290D01*
X204557171Y-150802753D01*
X204557171Y-150802753D01*
G37*
G36*
X204922848Y-151143752D02*
X204740010Y-150973253D01*
X205728908Y-149912790D01*
X205911746Y-150083289D01*
X204922848Y-151143752D01*
X204922848Y-151143752D01*
G37*
G36*
X205288525Y-151484751D02*
X205105687Y-151314252D01*
X206094585Y-150253789D01*
X206277423Y-150424288D01*
X205288525Y-151484751D01*
X205288525Y-151484751D01*
G37*
G36*
X205654202Y-151825751D02*
X205471364Y-151655252D01*
X206460262Y-150594789D01*
X206643100Y-150765288D01*
X205654202Y-151825751D01*
X205654202Y-151825751D01*
G37*
G36*
X206019878Y-152166750D02*
X205837040Y-151996251D01*
X206825938Y-150935788D01*
X207008776Y-151106287D01*
X206019878Y-152166750D01*
X206019878Y-152166750D01*
G37*
G36*
X206385555Y-152507749D02*
X206202717Y-152337250D01*
X207191615Y-151276787D01*
X207374453Y-151447286D01*
X206385555Y-152507749D01*
X206385555Y-152507749D01*
G37*
G36*
X206751232Y-152848748D02*
X206568394Y-152678249D01*
X207557292Y-151617786D01*
X207740130Y-151788285D01*
X206751232Y-152848748D01*
X206751232Y-152848748D01*
G37*
G36*
X209082815Y-151741398D02*
X209253314Y-151558560D01*
X210313777Y-152547458D01*
X210143278Y-152730296D01*
X209082815Y-151741398D01*
X209082815Y-151741398D01*
G37*
G36*
X209423814Y-151375721D02*
X209594313Y-151192883D01*
X210654776Y-152181781D01*
X210484277Y-152364619D01*
X209423814Y-151375721D01*
X209423814Y-151375721D01*
G37*
G36*
X209764813Y-151010044D02*
X209935312Y-150827206D01*
X210995775Y-151816104D01*
X210825276Y-151998942D01*
X209764813Y-151010044D01*
X209764813Y-151010044D01*
G37*
G36*
X210105812Y-150644367D02*
X210276311Y-150461529D01*
X211336774Y-151450427D01*
X211166275Y-151633265D01*
X210105812Y-150644367D01*
X210105812Y-150644367D01*
G37*
G36*
X210446812Y-150278690D02*
X210617311Y-150095852D01*
X211677774Y-151084750D01*
X211507275Y-151267588D01*
X210446812Y-150278690D01*
X210446812Y-150278690D01*
G37*
G36*
X210787811Y-149913013D02*
X210958310Y-149730175D01*
X212018773Y-150719073D01*
X211848274Y-150901911D01*
X210787811Y-149913013D01*
X210787811Y-149913013D01*
G37*
G36*
X211128810Y-149547336D02*
X211299309Y-149364498D01*
X212359772Y-150353396D01*
X212189273Y-150536234D01*
X211128810Y-149547336D01*
X211128810Y-149547336D01*
G37*
G36*
X211469809Y-149181660D02*
X211640308Y-148998822D01*
X212700771Y-149987720D01*
X212530272Y-150170558D01*
X211469809Y-149181660D01*
X211469809Y-149181660D01*
G37*
G36*
X211810808Y-148815983D02*
X211981307Y-148633145D01*
X213041770Y-149622043D01*
X212871271Y-149804881D01*
X211810808Y-148815983D01*
X211810808Y-148815983D01*
G37*
G36*
X212151808Y-148450306D02*
X212322307Y-148267468D01*
X213382770Y-149256366D01*
X213212271Y-149439204D01*
X212151808Y-148450306D01*
X212151808Y-148450306D01*
G37*
G36*
X212492807Y-148084629D02*
X212663306Y-147901791D01*
X213723769Y-148890689D01*
X213553270Y-149073527D01*
X212492807Y-148084629D01*
X212492807Y-148084629D01*
G37*
G36*
X212833806Y-147718952D02*
X213004305Y-147536114D01*
X214064768Y-148525012D01*
X213894269Y-148707850D01*
X212833806Y-147718952D01*
X212833806Y-147718952D01*
G37*
G36*
X213174805Y-147353275D02*
X213345304Y-147170437D01*
X214405767Y-148159335D01*
X214235268Y-148342173D01*
X213174805Y-147353275D01*
X213174805Y-147353275D01*
G37*
G36*
X213515804Y-146987599D02*
X213686303Y-146804761D01*
X214746766Y-147793659D01*
X214576267Y-147976497D01*
X213515804Y-146987599D01*
X213515804Y-146987599D01*
G37*
G36*
X213856803Y-146621922D02*
X214027302Y-146439084D01*
X215087765Y-147427982D01*
X214917266Y-147610820D01*
X213856803Y-146621922D01*
X213856803Y-146621922D01*
G37*
G36*
X214197803Y-146256245D02*
X214368302Y-146073407D01*
X215428765Y-147062305D01*
X215258266Y-147245143D01*
X214197803Y-146256245D01*
X214197803Y-146256245D01*
G37*
G36*
X214538802Y-145890568D02*
X214709301Y-145707730D01*
X215769764Y-146696628D01*
X215599265Y-146879466D01*
X214538802Y-145890568D01*
X214538802Y-145890568D01*
G37*
G36*
X214879801Y-145524891D02*
X215050300Y-145342053D01*
X216110763Y-146330951D01*
X215940264Y-146513789D01*
X214879801Y-145524891D01*
X214879801Y-145524891D01*
G37*
G36*
X215220800Y-145159214D02*
X215391299Y-144976376D01*
X216451762Y-145965274D01*
X216281263Y-146148112D01*
X215220800Y-145159214D01*
X215220800Y-145159214D01*
G37*
G36*
X215561799Y-144793537D02*
X215732298Y-144610699D01*
X216792761Y-145599597D01*
X216622262Y-145782435D01*
X215561799Y-144793537D01*
X215561799Y-144793537D01*
G37*
G36*
X215902799Y-144427861D02*
X216073298Y-144245023D01*
X217133761Y-145233921D01*
X216963262Y-145416759D01*
X215902799Y-144427861D01*
X215902799Y-144427861D01*
G37*
G36*
X216243798Y-144062184D02*
X216414297Y-143879346D01*
X217474760Y-144868244D01*
X217304261Y-145051082D01*
X216243798Y-144062184D01*
X216243798Y-144062184D01*
G37*
G36*
X216584797Y-143696507D02*
X216755296Y-143513669D01*
X217815759Y-144502567D01*
X217645260Y-144685405D01*
X216584797Y-143696507D01*
X216584797Y-143696507D01*
G37*
G36*
X216925796Y-143330830D02*
X217096295Y-143147992D01*
X218156758Y-144136890D01*
X217986259Y-144319728D01*
X216925796Y-143330830D01*
X216925796Y-143330830D01*
G37*
G36*
X217266795Y-142965153D02*
X217437294Y-142782315D01*
X218497757Y-143771213D01*
X218327258Y-143954051D01*
X217266795Y-142965153D01*
X217266795Y-142965153D01*
G37*
G36*
X217607794Y-142599476D02*
X217778293Y-142416638D01*
X218838756Y-143405536D01*
X218668257Y-143588374D01*
X217607794Y-142599476D01*
X217607794Y-142599476D01*
G37*
G36*
X217948794Y-142233799D02*
X218119293Y-142050961D01*
X219179756Y-143039859D01*
X219009257Y-143222697D01*
X217948794Y-142233799D01*
X217948794Y-142233799D01*
G37*
G36*
X218289793Y-141868123D02*
X218460292Y-141685285D01*
X219520755Y-142674183D01*
X219350256Y-142857021D01*
X218289793Y-141868123D01*
X218289793Y-141868123D01*
G37*
G36*
X218630792Y-141502446D02*
X218801291Y-141319608D01*
X219861754Y-142308506D01*
X219691255Y-142491344D01*
X218630792Y-141502446D01*
X218630792Y-141502446D01*
G37*
G36*
X218971791Y-141136769D02*
X219142290Y-140953931D01*
X220202753Y-141942829D01*
X220032254Y-142125667D01*
X218971791Y-141136769D01*
X218971791Y-141136769D01*
G37*
G36*
X219312790Y-140771092D02*
X219483289Y-140588254D01*
X220543752Y-141577152D01*
X220373253Y-141759990D01*
X219312790Y-140771092D01*
X219312790Y-140771092D01*
G37*
G36*
X219653789Y-140405415D02*
X219824288Y-140222577D01*
X220884751Y-141211475D01*
X220714252Y-141394313D01*
X219653789Y-140405415D01*
X219653789Y-140405415D01*
G37*
G36*
X219994789Y-140039738D02*
X220165288Y-139856900D01*
X221225751Y-140845798D01*
X221055252Y-141028636D01*
X219994789Y-140039738D01*
X219994789Y-140039738D01*
G37*
G36*
X220335788Y-139674062D02*
X220506287Y-139491224D01*
X221566750Y-140480122D01*
X221396251Y-140662960D01*
X220335788Y-139674062D01*
X220335788Y-139674062D01*
G37*
G36*
X220676787Y-139308385D02*
X220847286Y-139125547D01*
X221907749Y-140114445D01*
X221737250Y-140297283D01*
X220676787Y-139308385D01*
X220676787Y-139308385D01*
G37*
G36*
X221017786Y-138942708D02*
X221188285Y-138759870D01*
X222248748Y-139748768D01*
X222078249Y-139931606D01*
X221017786Y-138942708D01*
X221017786Y-138942708D01*
G37*
G36*
X221141398Y-137417185D02*
X220958560Y-137246686D01*
X221947458Y-136186223D01*
X222130296Y-136356722D01*
X221141398Y-137417185D01*
X221141398Y-137417185D01*
G37*
G36*
X220775721Y-137076186D02*
X220592883Y-136905687D01*
X221581781Y-135845224D01*
X221764619Y-136015723D01*
X220775721Y-137076186D01*
X220775721Y-137076186D01*
G37*
G36*
X220410044Y-136735187D02*
X220227206Y-136564688D01*
X221216104Y-135504225D01*
X221398942Y-135674724D01*
X220410044Y-136735187D01*
X220410044Y-136735187D01*
G37*
G36*
X220044367Y-136394188D02*
X219861529Y-136223689D01*
X220850427Y-135163226D01*
X221033265Y-135333725D01*
X220044367Y-136394188D01*
X220044367Y-136394188D01*
G37*
G36*
X219678690Y-136053188D02*
X219495852Y-135882689D01*
X220484750Y-134822226D01*
X220667588Y-134992725D01*
X219678690Y-136053188D01*
X219678690Y-136053188D01*
G37*
G36*
X219313013Y-135712189D02*
X219130175Y-135541690D01*
X220119073Y-134481227D01*
X220301911Y-134651726D01*
X219313013Y-135712189D01*
X219313013Y-135712189D01*
G37*
G36*
X218947336Y-135371190D02*
X218764498Y-135200691D01*
X219753396Y-134140228D01*
X219936234Y-134310727D01*
X218947336Y-135371190D01*
X218947336Y-135371190D01*
G37*
G36*
X218581660Y-135030191D02*
X218398822Y-134859692D01*
X219387720Y-133799229D01*
X219570558Y-133969728D01*
X218581660Y-135030191D01*
X218581660Y-135030191D01*
G37*
G36*
X218215983Y-134689192D02*
X218033145Y-134518693D01*
X219022043Y-133458230D01*
X219204881Y-133628729D01*
X218215983Y-134689192D01*
X218215983Y-134689192D01*
G37*
G36*
X217850306Y-134348192D02*
X217667468Y-134177693D01*
X218656366Y-133117230D01*
X218839204Y-133287729D01*
X217850306Y-134348192D01*
X217850306Y-134348192D01*
G37*
G36*
X217484629Y-134007193D02*
X217301791Y-133836694D01*
X218290689Y-132776231D01*
X218473527Y-132946730D01*
X217484629Y-134007193D01*
X217484629Y-134007193D01*
G37*
G36*
X217118952Y-133666194D02*
X216936114Y-133495695D01*
X217925012Y-132435232D01*
X218107850Y-132605731D01*
X217118952Y-133666194D01*
X217118952Y-133666194D01*
G37*
G36*
X216753275Y-133325195D02*
X216570437Y-133154696D01*
X217559335Y-132094233D01*
X217742173Y-132264732D01*
X216753275Y-133325195D01*
X216753275Y-133325195D01*
G37*
G36*
X216387599Y-132984196D02*
X216204761Y-132813697D01*
X217193659Y-131753234D01*
X217376497Y-131923733D01*
X216387599Y-132984196D01*
X216387599Y-132984196D01*
G37*
G36*
X216021922Y-132643197D02*
X215839084Y-132472698D01*
X216827982Y-131412235D01*
X217010820Y-131582734D01*
X216021922Y-132643197D01*
X216021922Y-132643197D01*
G37*
G36*
X215656245Y-132302197D02*
X215473407Y-132131698D01*
X216462305Y-131071235D01*
X216645143Y-131241734D01*
X215656245Y-132302197D01*
X215656245Y-132302197D01*
G37*
G36*
X215290568Y-131961198D02*
X215107730Y-131790699D01*
X216096628Y-130730236D01*
X216279466Y-130900735D01*
X215290568Y-131961198D01*
X215290568Y-131961198D01*
G37*
G36*
X214924891Y-131620199D02*
X214742053Y-131449700D01*
X215730951Y-130389237D01*
X215913789Y-130559736D01*
X214924891Y-131620199D01*
X214924891Y-131620199D01*
G37*
G36*
X214559214Y-131279200D02*
X214376376Y-131108701D01*
X215365274Y-130048238D01*
X215548112Y-130218737D01*
X214559214Y-131279200D01*
X214559214Y-131279200D01*
G37*
G36*
X214193537Y-130938201D02*
X214010699Y-130767702D01*
X214999597Y-129707239D01*
X215182435Y-129877738D01*
X214193537Y-130938201D01*
X214193537Y-130938201D01*
G37*
G36*
X213827861Y-130597201D02*
X213645023Y-130426702D01*
X214633921Y-129366239D01*
X214816759Y-129536738D01*
X213827861Y-130597201D01*
X213827861Y-130597201D01*
G37*
G36*
X213462184Y-130256202D02*
X213279346Y-130085703D01*
X214268244Y-129025240D01*
X214451082Y-129195739D01*
X213462184Y-130256202D01*
X213462184Y-130256202D01*
G37*
G36*
X213096507Y-129915203D02*
X212913669Y-129744704D01*
X213902567Y-128684241D01*
X214085405Y-128854740D01*
X213096507Y-129915203D01*
X213096507Y-129915203D01*
G37*
G36*
X212730830Y-129574204D02*
X212547992Y-129403705D01*
X213536890Y-128343242D01*
X213719728Y-128513741D01*
X212730830Y-129574204D01*
X212730830Y-129574204D01*
G37*
G36*
X212365153Y-129233205D02*
X212182315Y-129062706D01*
X213171213Y-128002243D01*
X213354051Y-128172742D01*
X212365153Y-129233205D01*
X212365153Y-129233205D01*
G37*
G36*
X211999476Y-128892206D02*
X211816638Y-128721707D01*
X212805536Y-127661244D01*
X212988374Y-127831743D01*
X211999476Y-128892206D01*
X211999476Y-128892206D01*
G37*
G36*
X211633799Y-128551206D02*
X211450961Y-128380707D01*
X212439859Y-127320244D01*
X212622697Y-127490743D01*
X211633799Y-128551206D01*
X211633799Y-128551206D01*
G37*
G36*
X211268123Y-128210207D02*
X211085285Y-128039708D01*
X212074183Y-126979245D01*
X212257021Y-127149744D01*
X211268123Y-128210207D01*
X211268123Y-128210207D01*
G37*
G36*
X210902446Y-127869208D02*
X210719608Y-127698709D01*
X211708506Y-126638246D01*
X211891344Y-126808745D01*
X210902446Y-127869208D01*
X210902446Y-127869208D01*
G37*
G36*
X210536769Y-127528209D02*
X210353931Y-127357710D01*
X211342829Y-126297247D01*
X211525667Y-126467746D01*
X210536769Y-127528209D01*
X210536769Y-127528209D01*
G37*
G36*
X210171092Y-127187210D02*
X209988254Y-127016711D01*
X210977152Y-125956248D01*
X211159990Y-126126747D01*
X210171092Y-127187210D01*
X210171092Y-127187210D01*
G37*
G36*
X209805415Y-126846211D02*
X209622577Y-126675712D01*
X210611475Y-125615249D01*
X210794313Y-125785748D01*
X209805415Y-126846211D01*
X209805415Y-126846211D01*
G37*
G36*
X209439738Y-126505211D02*
X209256900Y-126334712D01*
X210245798Y-125274249D01*
X210428636Y-125444748D01*
X209439738Y-126505211D01*
X209439738Y-126505211D01*
G37*
G36*
X209074062Y-126164212D02*
X208891224Y-125993713D01*
X209880122Y-124933250D01*
X210062960Y-125103749D01*
X209074062Y-126164212D01*
X209074062Y-126164212D01*
G37*
G36*
X208708385Y-125823213D02*
X208525547Y-125652714D01*
X209514445Y-124592251D01*
X209697283Y-124762750D01*
X208708385Y-125823213D01*
X208708385Y-125823213D01*
G37*
G36*
X208342708Y-125482214D02*
X208159870Y-125311715D01*
X209148768Y-124251252D01*
X209331606Y-124421751D01*
X208342708Y-125482214D01*
X208342708Y-125482214D01*
G37*
D15*
X209520000Y-155440000D03*
X207520000Y-155439999D03*
D16*
X168443180Y-164118580D03*
X170983180Y-164118580D03*
X173523180Y-164118580D03*
X176063180Y-164118580D03*
X178603180Y-164118580D03*
X181143180Y-164118580D03*
X183683180Y-164118580D03*
X186223180Y-164118580D03*
X188763180Y-164118580D03*
X191303180Y-164118580D03*
X193843180Y-164118580D03*
X196383180Y-164118580D03*
X198923180Y-164118580D03*
X201463180Y-164118580D03*
X204003180Y-164118580D03*
X206543180Y-164118580D03*
X209083180Y-164118580D03*
X211623180Y-164118580D03*
X214163180Y-164118580D03*
X216703180Y-164118580D03*
X219243180Y-164118580D03*
X221783180Y-164118580D03*
X224323180Y-164118580D03*
X226863180Y-164118580D03*
X229403180Y-164118580D03*
X231943180Y-164118580D03*
X234483180Y-164118580D03*
X237023180Y-164118580D03*
X239563180Y-164118580D03*
X242103180Y-164118580D03*
X244643180Y-164118580D03*
X247183180Y-164118580D03*
D10*
G36*
X195748719Y-127137398D02*
X196632602Y-128021281D01*
X195925495Y-128728388D01*
X195041612Y-127844505D01*
X195748719Y-127137398D01*
X195748719Y-127137398D01*
G37*
G36*
X194334505Y-128551612D02*
X195218388Y-129435495D01*
X194511281Y-130142602D01*
X193627398Y-129258719D01*
X194334505Y-128551612D01*
X194334505Y-128551612D01*
G37*
D15*
X220100000Y-147180000D03*
X222100000Y-147180000D03*
D17*
X233860000Y-146724760D03*
X233860000Y-141675240D03*
X245930000Y-146244760D03*
X245930000Y-141195240D03*
D15*
X242920000Y-124380000D03*
X240920000Y-124380000D03*
D12*
X187680000Y-133040000D03*
X187680000Y-134940000D03*
D18*
X232620000Y-122375000D03*
X232620000Y-123645000D03*
X232620000Y-124915000D03*
X232620000Y-126185000D03*
X238020000Y-126185000D03*
X238020000Y-124915000D03*
X238020000Y-123645000D03*
X238020000Y-122375000D03*
M02*
