G04 #@! TF.FileFunction,Legend,Top*
%FSLAX46Y46*%
G04 Gerber Fmt 4.6, Leading zero omitted, Abs format (unit mm)*
G04 Created by KiCad (PCBNEW (after 2015-may-25 BZR unknown)-product) date 17/09/2017 09:43:34*
%MOMM*%
G01*
G04 APERTURE LIST*
%ADD10C,0.100000*%
%ADD11C,0.150000*%
%ADD12C,0.120000*%
%ADD13C,0.304800*%
G04 APERTURE END LIST*
D10*
D11*
X242679500Y-154337500D02*
X242679500Y-151162500D01*
X247823000Y-154337500D02*
X247823000Y-151162500D01*
X247823000Y-151162500D02*
X241727000Y-151162500D01*
X241727000Y-151162500D02*
X241727000Y-154337500D01*
X241727000Y-154337500D02*
X247823000Y-154337500D01*
X169612600Y-149584600D02*
X171289000Y-148009800D01*
X171289000Y-148009800D02*
X169612600Y-146638200D01*
X169603600Y-138899200D02*
X170873600Y-138899200D01*
X169603600Y-156815600D02*
X170873600Y-156815600D01*
X169603600Y-156815600D02*
X169603600Y-138950600D01*
X179015000Y-134590000D02*
X179015000Y-133390000D01*
X180765000Y-133390000D02*
X180765000Y-134590000D01*
X181685000Y-134590000D02*
X181685000Y-133390000D01*
X183435000Y-133390000D02*
X183435000Y-134590000D01*
X184285000Y-134590000D02*
X184285000Y-133390000D01*
X186035000Y-133390000D02*
X186035000Y-134590000D01*
X212519667Y-121587108D02*
X213262811Y-122256238D01*
X214400333Y-120992892D02*
X213657189Y-120323762D01*
X223194995Y-130903474D02*
X223949705Y-131559533D01*
X225065005Y-130276526D02*
X224310295Y-129620467D01*
X195135406Y-148027487D02*
X195842513Y-148734594D01*
X197044594Y-147532513D02*
X196337487Y-146825406D01*
D12*
X243550000Y-141620000D02*
X242290000Y-141620000D01*
X236730000Y-141620000D02*
X237990000Y-141620000D01*
X243550000Y-145380000D02*
X243550000Y-141620000D01*
X236730000Y-147630000D02*
X236730000Y-141620000D01*
D11*
X207447809Y-124169143D02*
X206765811Y-124900496D01*
X222330857Y-138047809D02*
X221597709Y-138834015D01*
X208452191Y-152930857D02*
X209185339Y-152144652D01*
X193569143Y-139052191D02*
X194302291Y-138265985D01*
X207447809Y-124169143D02*
X208234015Y-124902291D01*
X193569143Y-139052191D02*
X194355348Y-139785339D01*
X208452191Y-152930857D02*
X207665985Y-152197709D01*
X222330857Y-138047809D02*
X221544652Y-137314661D01*
X206765811Y-124900496D02*
X205961322Y-124150298D01*
X208020000Y-156290000D02*
X209020000Y-156290000D01*
X209020000Y-154590000D02*
X208020000Y-154590000D01*
X190650000Y-128550000D02*
X182500000Y-128550000D01*
X170350000Y-128550000D02*
X178500000Y-128550000D01*
X190650000Y-119650000D02*
X170350000Y-119650000D01*
X170350000Y-119650000D02*
X170350000Y-128550000D01*
X190650000Y-119650000D02*
X190650000Y-128550000D01*
X195377487Y-129594594D02*
X196084594Y-128887487D01*
X194882513Y-127685406D02*
X194175406Y-128392513D01*
X221600000Y-146330000D02*
X220600000Y-146330000D01*
X220600000Y-148030000D02*
X221600000Y-148030000D01*
X235447500Y-146295500D02*
X232272500Y-146295500D01*
X235447500Y-141152000D02*
X232272500Y-141152000D01*
X232272500Y-141152000D02*
X232272500Y-147248000D01*
X232272500Y-147248000D02*
X235447500Y-147248000D01*
X235447500Y-147248000D02*
X235447500Y-141152000D01*
X247517500Y-145815500D02*
X244342500Y-145815500D01*
X247517500Y-140672000D02*
X244342500Y-140672000D01*
X244342500Y-140672000D02*
X244342500Y-146768000D01*
X244342500Y-146768000D02*
X247517500Y-146768000D01*
X247517500Y-146768000D02*
X247517500Y-140672000D01*
X241420000Y-125230000D02*
X242420000Y-125230000D01*
X242420000Y-123530000D02*
X241420000Y-123530000D01*
X186805000Y-134590000D02*
X186805000Y-133390000D01*
X188555000Y-133390000D02*
X188555000Y-134590000D01*
X233245000Y-121705000D02*
X233245000Y-121755000D01*
X237395000Y-121705000D02*
X237395000Y-121850000D01*
X237395000Y-126855000D02*
X237395000Y-126710000D01*
X233245000Y-126855000D02*
X233245000Y-126710000D01*
X233245000Y-121705000D02*
X237395000Y-121705000D01*
X233245000Y-126855000D02*
X237395000Y-126855000D01*
X233245000Y-121755000D02*
X231845000Y-121755000D01*
X244308334Y-150107143D02*
X244260715Y-150154762D01*
X244117858Y-150202381D01*
X244022620Y-150202381D01*
X243879762Y-150154762D01*
X243784524Y-150059524D01*
X243736905Y-149964286D01*
X243689286Y-149773810D01*
X243689286Y-149630952D01*
X243736905Y-149440476D01*
X243784524Y-149345238D01*
X243879762Y-149250000D01*
X244022620Y-149202381D01*
X244117858Y-149202381D01*
X244260715Y-149250000D01*
X244308334Y-149297619D01*
X244736905Y-150202381D02*
X244736905Y-149202381D01*
X245117858Y-149202381D01*
X245213096Y-149250000D01*
X245260715Y-149297619D01*
X245308334Y-149392857D01*
X245308334Y-149535714D01*
X245260715Y-149630952D01*
X245213096Y-149678571D01*
X245117858Y-149726190D01*
X244736905Y-149726190D01*
X246260715Y-150202381D02*
X245689286Y-150202381D01*
X245975000Y-150202381D02*
X245975000Y-149202381D01*
X245879762Y-149345238D01*
X245784524Y-149440476D01*
X245689286Y-149488095D01*
X168502381Y-152350000D02*
X167502381Y-152350000D01*
X168216667Y-152016666D01*
X167502381Y-151683333D01*
X168502381Y-151683333D01*
X168502381Y-151207143D02*
X167502381Y-151207143D01*
X167502381Y-150826190D01*
X167550000Y-150730952D01*
X167597619Y-150683333D01*
X167692857Y-150635714D01*
X167835714Y-150635714D01*
X167930952Y-150683333D01*
X167978571Y-150730952D01*
X168026190Y-150826190D01*
X168026190Y-151207143D01*
X167502381Y-150302381D02*
X167502381Y-149683333D01*
X167883333Y-150016667D01*
X167883333Y-149873809D01*
X167930952Y-149778571D01*
X167978571Y-149730952D01*
X168073810Y-149683333D01*
X168311905Y-149683333D01*
X168407143Y-149730952D01*
X168454762Y-149778571D01*
X168502381Y-149873809D01*
X168502381Y-150159524D01*
X168454762Y-150254762D01*
X168407143Y-150302381D01*
X168454762Y-148540476D02*
X168502381Y-148397619D01*
X168502381Y-148159523D01*
X168454762Y-148064285D01*
X168407143Y-148016666D01*
X168311905Y-147969047D01*
X168216667Y-147969047D01*
X168121429Y-148016666D01*
X168073810Y-148064285D01*
X168026190Y-148159523D01*
X167978571Y-148350000D01*
X167930952Y-148445238D01*
X167883333Y-148492857D01*
X167788095Y-148540476D01*
X167692857Y-148540476D01*
X167597619Y-148492857D01*
X167550000Y-148445238D01*
X167502381Y-148350000D01*
X167502381Y-148111904D01*
X167550000Y-147969047D01*
X168502381Y-147540476D02*
X167502381Y-147540476D01*
X168502381Y-147111904D02*
X167978571Y-147111904D01*
X167883333Y-147159523D01*
X167835714Y-147254761D01*
X167835714Y-147397619D01*
X167883333Y-147492857D01*
X167930952Y-147540476D01*
X168502381Y-146635714D02*
X167835714Y-146635714D01*
X167502381Y-146635714D02*
X167550000Y-146683333D01*
X167597619Y-146635714D01*
X167550000Y-146588095D01*
X167502381Y-146635714D01*
X167597619Y-146635714D01*
X168454762Y-145778571D02*
X168502381Y-145873809D01*
X168502381Y-146064286D01*
X168454762Y-146159524D01*
X168359524Y-146207143D01*
X167978571Y-146207143D01*
X167883333Y-146159524D01*
X167835714Y-146064286D01*
X167835714Y-145873809D01*
X167883333Y-145778571D01*
X167978571Y-145730952D01*
X168073810Y-145730952D01*
X168169048Y-146207143D01*
X168502381Y-145159524D02*
X168454762Y-145254762D01*
X168359524Y-145302381D01*
X167502381Y-145302381D01*
X168502381Y-144349999D02*
X167502381Y-144349999D01*
X168454762Y-144349999D02*
X168502381Y-144445237D01*
X168502381Y-144635714D01*
X168454762Y-144730952D01*
X168407143Y-144778571D01*
X168311905Y-144826190D01*
X168026190Y-144826190D01*
X167930952Y-144778571D01*
X167883333Y-144730952D01*
X167835714Y-144635714D01*
X167835714Y-144445237D01*
X167883333Y-144349999D01*
X179783334Y-132022381D02*
X179450000Y-131546190D01*
X179211905Y-132022381D02*
X179211905Y-131022381D01*
X179592858Y-131022381D01*
X179688096Y-131070000D01*
X179735715Y-131117619D01*
X179783334Y-131212857D01*
X179783334Y-131355714D01*
X179735715Y-131450952D01*
X179688096Y-131498571D01*
X179592858Y-131546190D01*
X179211905Y-131546190D01*
X180735715Y-132022381D02*
X180164286Y-132022381D01*
X180450000Y-132022381D02*
X180450000Y-131022381D01*
X180354762Y-131165238D01*
X180259524Y-131260476D01*
X180164286Y-131308095D01*
X182313334Y-131992381D02*
X181980000Y-131516190D01*
X181741905Y-131992381D02*
X181741905Y-130992381D01*
X182122858Y-130992381D01*
X182218096Y-131040000D01*
X182265715Y-131087619D01*
X182313334Y-131182857D01*
X182313334Y-131325714D01*
X182265715Y-131420952D01*
X182218096Y-131468571D01*
X182122858Y-131516190D01*
X181741905Y-131516190D01*
X182694286Y-131087619D02*
X182741905Y-131040000D01*
X182837143Y-130992381D01*
X183075239Y-130992381D01*
X183170477Y-131040000D01*
X183218096Y-131087619D01*
X183265715Y-131182857D01*
X183265715Y-131278095D01*
X183218096Y-131420952D01*
X182646667Y-131992381D01*
X183265715Y-131992381D01*
X184983334Y-131992381D02*
X184650000Y-131516190D01*
X184411905Y-131992381D02*
X184411905Y-130992381D01*
X184792858Y-130992381D01*
X184888096Y-131040000D01*
X184935715Y-131087619D01*
X184983334Y-131182857D01*
X184983334Y-131325714D01*
X184935715Y-131420952D01*
X184888096Y-131468571D01*
X184792858Y-131516190D01*
X184411905Y-131516190D01*
X185316667Y-130992381D02*
X185935715Y-130992381D01*
X185602381Y-131373333D01*
X185745239Y-131373333D01*
X185840477Y-131420952D01*
X185888096Y-131468571D01*
X185935715Y-131563810D01*
X185935715Y-131801905D01*
X185888096Y-131897143D01*
X185840477Y-131944762D01*
X185745239Y-131992381D01*
X185459524Y-131992381D01*
X185364286Y-131944762D01*
X185316667Y-131897143D01*
X211691994Y-123004492D02*
X211624743Y-123008016D01*
X211486716Y-122947814D01*
X211415940Y-122884087D01*
X211341639Y-122753109D01*
X211334590Y-122618607D01*
X211362929Y-122515968D01*
X211454995Y-122342553D01*
X211550585Y-122236389D01*
X211713427Y-122126701D01*
X211812541Y-122087789D01*
X211947043Y-122080740D01*
X212085071Y-122140942D01*
X212155846Y-122204669D01*
X212230147Y-122335647D01*
X212233671Y-122402898D01*
X212545112Y-122555166D02*
X213005155Y-122969390D01*
X212502533Y-123029448D01*
X212608697Y-123125039D01*
X212647609Y-123224153D01*
X212651134Y-123291405D01*
X212622794Y-123394044D01*
X212463477Y-123570983D01*
X212364363Y-123609896D01*
X212297112Y-123613420D01*
X212194473Y-123585081D01*
X211982145Y-123393901D01*
X211943233Y-123294786D01*
X211939708Y-123227535D01*
X222392185Y-132335087D02*
X222325005Y-132339784D01*
X222185949Y-132282000D01*
X222114072Y-132219518D01*
X222037496Y-132089856D01*
X222028101Y-131955498D01*
X222054644Y-131852380D01*
X222143669Y-131677385D01*
X222237393Y-131569569D01*
X222398295Y-131457055D01*
X222496715Y-131416419D01*
X222631074Y-131407024D01*
X222770131Y-131464809D01*
X222842008Y-131527290D01*
X222918583Y-131656952D01*
X222923280Y-131724131D01*
X223210788Y-131974058D02*
X223277968Y-131969360D01*
X223381086Y-131995904D01*
X223560779Y-132152109D01*
X223601415Y-132250529D01*
X223606113Y-132317708D01*
X223579570Y-132420826D01*
X223517088Y-132492703D01*
X223387427Y-132569278D01*
X222581273Y-132625650D01*
X223048474Y-133031782D01*
X194234687Y-149399612D02*
X194167344Y-149399612D01*
X194032657Y-149332268D01*
X193965313Y-149264925D01*
X193897969Y-149130237D01*
X193897969Y-148995550D01*
X193931641Y-148894535D01*
X194032656Y-148726177D01*
X194133672Y-148625161D01*
X194302031Y-148524146D01*
X194403046Y-148490474D01*
X194537733Y-148490474D01*
X194672420Y-148557818D01*
X194739764Y-148625161D01*
X194807107Y-148759848D01*
X194807107Y-148827192D01*
X195514214Y-149399612D02*
X195177496Y-149062894D01*
X194807107Y-149365939D01*
X194874450Y-149365939D01*
X194975466Y-149399611D01*
X195143825Y-149567970D01*
X195177497Y-149668985D01*
X195177497Y-149736329D01*
X195143824Y-149837345D01*
X194975466Y-150005703D01*
X194874450Y-150039375D01*
X194807107Y-150039375D01*
X194706092Y-150005703D01*
X194537733Y-149837344D01*
X194504061Y-149736329D01*
X194504061Y-149668985D01*
X239508572Y-138022381D02*
X239175238Y-137546190D01*
X238937143Y-138022381D02*
X238937143Y-137022381D01*
X239318096Y-137022381D01*
X239413334Y-137070000D01*
X239460953Y-137117619D01*
X239508572Y-137212857D01*
X239508572Y-137355714D01*
X239460953Y-137450952D01*
X239413334Y-137498571D01*
X239318096Y-137546190D01*
X238937143Y-137546190D01*
X240318096Y-137974762D02*
X240222858Y-138022381D01*
X240032381Y-138022381D01*
X239937143Y-137974762D01*
X239889524Y-137879524D01*
X239889524Y-137498571D01*
X239937143Y-137403333D01*
X240032381Y-137355714D01*
X240222858Y-137355714D01*
X240318096Y-137403333D01*
X240365715Y-137498571D01*
X240365715Y-137593810D01*
X239889524Y-137689048D01*
X241222858Y-137355714D02*
X241222858Y-138165238D01*
X241175239Y-138260476D01*
X241127620Y-138308095D01*
X241032381Y-138355714D01*
X240889524Y-138355714D01*
X240794286Y-138308095D01*
X241222858Y-137974762D02*
X241127620Y-138022381D01*
X240937143Y-138022381D01*
X240841905Y-137974762D01*
X240794286Y-137927143D01*
X240746667Y-137831905D01*
X240746667Y-137546190D01*
X240794286Y-137450952D01*
X240841905Y-137403333D01*
X240937143Y-137355714D01*
X241127620Y-137355714D01*
X241222858Y-137403333D01*
X216137783Y-128652512D02*
X215585689Y-129244560D01*
X215555563Y-129346689D01*
X215557914Y-129413991D01*
X215595090Y-129513770D01*
X215734396Y-129643675D01*
X215836525Y-129673801D01*
X215903827Y-129671450D01*
X216003606Y-129634274D01*
X216555700Y-129042225D01*
X216804185Y-129404163D02*
X216871487Y-129401813D01*
X216973616Y-129431938D01*
X217147748Y-129594320D01*
X217184925Y-129694098D01*
X217187275Y-129761400D01*
X217157149Y-129863529D01*
X217092197Y-129933182D01*
X216959943Y-130005185D01*
X216152312Y-130033388D01*
X216605055Y-130455578D01*
X208353334Y-157897143D02*
X208305715Y-157944762D01*
X208162858Y-157992381D01*
X208067620Y-157992381D01*
X207924762Y-157944762D01*
X207829524Y-157849524D01*
X207781905Y-157754286D01*
X207734286Y-157563810D01*
X207734286Y-157420952D01*
X207781905Y-157230476D01*
X207829524Y-157135238D01*
X207924762Y-157040000D01*
X208067620Y-156992381D01*
X208162858Y-156992381D01*
X208305715Y-157040000D01*
X208353334Y-157087619D01*
X209210477Y-156992381D02*
X209020000Y-156992381D01*
X208924762Y-157040000D01*
X208877143Y-157087619D01*
X208781905Y-157230476D01*
X208734286Y-157420952D01*
X208734286Y-157801905D01*
X208781905Y-157897143D01*
X208829524Y-157944762D01*
X208924762Y-157992381D01*
X209115239Y-157992381D01*
X209210477Y-157944762D01*
X209258096Y-157897143D01*
X209305715Y-157801905D01*
X209305715Y-157563810D01*
X209258096Y-157468571D01*
X209210477Y-157420952D01*
X209115239Y-157373333D01*
X208924762Y-157373333D01*
X208829524Y-157420952D01*
X208781905Y-157468571D01*
X208734286Y-157563810D01*
D13*
D11*
X196749612Y-130495313D02*
X196749612Y-130562656D01*
X196682268Y-130697343D01*
X196614925Y-130764687D01*
X196480237Y-130832031D01*
X196345550Y-130832031D01*
X196244535Y-130798359D01*
X196076177Y-130697344D01*
X195975161Y-130596328D01*
X195874146Y-130427969D01*
X195840474Y-130326954D01*
X195840474Y-130192267D01*
X195907818Y-130057580D01*
X195975161Y-129990236D01*
X196109848Y-129922893D01*
X196177192Y-129922893D01*
X196951642Y-129485160D02*
X197423047Y-129956565D01*
X196513909Y-129384146D02*
X196850627Y-130057581D01*
X197288360Y-129619848D01*
X194116481Y-127188748D02*
X194116481Y-127256091D01*
X194049137Y-127390778D01*
X193981794Y-127458121D01*
X193847106Y-127525466D01*
X193712419Y-127525466D01*
X193611404Y-127491794D01*
X193443046Y-127390779D01*
X193342030Y-127289763D01*
X193241015Y-127121404D01*
X193207343Y-127020389D01*
X193207343Y-126885702D01*
X193274687Y-126751015D01*
X193342031Y-126683671D01*
X193476717Y-126616328D01*
X193544061Y-126616328D01*
X220933334Y-145437143D02*
X220885715Y-145484762D01*
X220742858Y-145532381D01*
X220647620Y-145532381D01*
X220504762Y-145484762D01*
X220409524Y-145389524D01*
X220361905Y-145294286D01*
X220314286Y-145103810D01*
X220314286Y-144960952D01*
X220361905Y-144770476D01*
X220409524Y-144675238D01*
X220504762Y-144580000D01*
X220647620Y-144532381D01*
X220742858Y-144532381D01*
X220885715Y-144580000D01*
X220933334Y-144627619D01*
X221885715Y-145532381D02*
X221314286Y-145532381D01*
X221600000Y-145532381D02*
X221600000Y-144532381D01*
X221504762Y-144675238D01*
X221409524Y-144770476D01*
X221314286Y-144818095D01*
X231217143Y-144666666D02*
X231264762Y-144714285D01*
X231312381Y-144857142D01*
X231312381Y-144952380D01*
X231264762Y-145095238D01*
X231169524Y-145190476D01*
X231074286Y-145238095D01*
X230883810Y-145285714D01*
X230740952Y-145285714D01*
X230550476Y-145238095D01*
X230455238Y-145190476D01*
X230360000Y-145095238D01*
X230312381Y-144952380D01*
X230312381Y-144857142D01*
X230360000Y-144714285D01*
X230407619Y-144666666D01*
X231312381Y-144238095D02*
X230312381Y-144238095D01*
X230312381Y-143857142D01*
X230360000Y-143761904D01*
X230407619Y-143714285D01*
X230502857Y-143666666D01*
X230645714Y-143666666D01*
X230740952Y-143714285D01*
X230788571Y-143761904D01*
X230836190Y-143857142D01*
X230836190Y-144238095D01*
X230407619Y-143285714D02*
X230360000Y-143238095D01*
X230312381Y-143142857D01*
X230312381Y-142904761D01*
X230360000Y-142809523D01*
X230407619Y-142761904D01*
X230502857Y-142714285D01*
X230598095Y-142714285D01*
X230740952Y-142761904D01*
X231312381Y-143333333D01*
X231312381Y-142714285D01*
X248782143Y-144041666D02*
X248829762Y-144089285D01*
X248877381Y-144232142D01*
X248877381Y-144327380D01*
X248829762Y-144470238D01*
X248734524Y-144565476D01*
X248639286Y-144613095D01*
X248448810Y-144660714D01*
X248305952Y-144660714D01*
X248115476Y-144613095D01*
X248020238Y-144565476D01*
X247925000Y-144470238D01*
X247877381Y-144327380D01*
X247877381Y-144232142D01*
X247925000Y-144089285D01*
X247972619Y-144041666D01*
X248877381Y-143613095D02*
X247877381Y-143613095D01*
X247877381Y-143232142D01*
X247925000Y-143136904D01*
X247972619Y-143089285D01*
X248067857Y-143041666D01*
X248210714Y-143041666D01*
X248305952Y-143089285D01*
X248353571Y-143136904D01*
X248401190Y-143232142D01*
X248401190Y-143613095D01*
X247877381Y-142708333D02*
X247877381Y-142089285D01*
X248258333Y-142422619D01*
X248258333Y-142279761D01*
X248305952Y-142184523D01*
X248353571Y-142136904D01*
X248448810Y-142089285D01*
X248686905Y-142089285D01*
X248782143Y-142136904D01*
X248829762Y-142184523D01*
X248877381Y-142279761D01*
X248877381Y-142565476D01*
X248829762Y-142660714D01*
X248782143Y-142708333D01*
X241753334Y-126837143D02*
X241705715Y-126884762D01*
X241562858Y-126932381D01*
X241467620Y-126932381D01*
X241324762Y-126884762D01*
X241229524Y-126789524D01*
X241181905Y-126694286D01*
X241134286Y-126503810D01*
X241134286Y-126360952D01*
X241181905Y-126170476D01*
X241229524Y-126075238D01*
X241324762Y-125980000D01*
X241467620Y-125932381D01*
X241562858Y-125932381D01*
X241705715Y-125980000D01*
X241753334Y-126027619D01*
X242324762Y-126360952D02*
X242229524Y-126313333D01*
X242181905Y-126265714D01*
X242134286Y-126170476D01*
X242134286Y-126122857D01*
X242181905Y-126027619D01*
X242229524Y-125980000D01*
X242324762Y-125932381D01*
X242515239Y-125932381D01*
X242610477Y-125980000D01*
X242658096Y-126027619D01*
X242705715Y-126122857D01*
X242705715Y-126170476D01*
X242658096Y-126265714D01*
X242610477Y-126313333D01*
X242515239Y-126360952D01*
X242324762Y-126360952D01*
X242229524Y-126408571D01*
X242181905Y-126456190D01*
X242134286Y-126551429D01*
X242134286Y-126741905D01*
X242181905Y-126837143D01*
X242229524Y-126884762D01*
X242324762Y-126932381D01*
X242515239Y-126932381D01*
X242610477Y-126884762D01*
X242658096Y-126837143D01*
X242705715Y-126741905D01*
X242705715Y-126551429D01*
X242658096Y-126456190D01*
X242610477Y-126408571D01*
X242515239Y-126360952D01*
X187563334Y-132022381D02*
X187230000Y-131546190D01*
X186991905Y-132022381D02*
X186991905Y-131022381D01*
X187372858Y-131022381D01*
X187468096Y-131070000D01*
X187515715Y-131117619D01*
X187563334Y-131212857D01*
X187563334Y-131355714D01*
X187515715Y-131450952D01*
X187468096Y-131498571D01*
X187372858Y-131546190D01*
X186991905Y-131546190D01*
X188420477Y-131355714D02*
X188420477Y-132022381D01*
X188182381Y-130974762D02*
X187944286Y-131689048D01*
X188563334Y-131689048D01*
X232177143Y-121184762D02*
X232320000Y-121232381D01*
X232558096Y-121232381D01*
X232653334Y-121184762D01*
X232700953Y-121137143D01*
X232748572Y-121041905D01*
X232748572Y-120946667D01*
X232700953Y-120851429D01*
X232653334Y-120803810D01*
X232558096Y-120756190D01*
X232367619Y-120708571D01*
X232272381Y-120660952D01*
X232224762Y-120613333D01*
X232177143Y-120518095D01*
X232177143Y-120422857D01*
X232224762Y-120327619D01*
X232272381Y-120280000D01*
X232367619Y-120232381D01*
X232605715Y-120232381D01*
X232748572Y-120280000D01*
X233177143Y-121232381D02*
X233177143Y-120232381D01*
X233558096Y-120232381D01*
X233653334Y-120280000D01*
X233700953Y-120327619D01*
X233748572Y-120422857D01*
X233748572Y-120565714D01*
X233700953Y-120660952D01*
X233653334Y-120708571D01*
X233558096Y-120756190D01*
X233177143Y-120756190D01*
X234177143Y-121232381D02*
X234177143Y-120232381D01*
X235367619Y-121184762D02*
X235510476Y-121232381D01*
X235748572Y-121232381D01*
X235843810Y-121184762D01*
X235891429Y-121137143D01*
X235939048Y-121041905D01*
X235939048Y-120946667D01*
X235891429Y-120851429D01*
X235843810Y-120803810D01*
X235748572Y-120756190D01*
X235558095Y-120708571D01*
X235462857Y-120660952D01*
X235415238Y-120613333D01*
X235367619Y-120518095D01*
X235367619Y-120422857D01*
X235415238Y-120327619D01*
X235462857Y-120280000D01*
X235558095Y-120232381D01*
X235796191Y-120232381D01*
X235939048Y-120280000D01*
X236796191Y-121232381D02*
X236796191Y-120708571D01*
X236748572Y-120613333D01*
X236653334Y-120565714D01*
X236462857Y-120565714D01*
X236367619Y-120613333D01*
X236796191Y-121184762D02*
X236700953Y-121232381D01*
X236462857Y-121232381D01*
X236367619Y-121184762D01*
X236320000Y-121089524D01*
X236320000Y-120994286D01*
X236367619Y-120899048D01*
X236462857Y-120851429D01*
X236700953Y-120851429D01*
X236796191Y-120803810D01*
X237177143Y-120565714D02*
X237415238Y-121232381D01*
X237653334Y-120565714D01*
X238415239Y-121184762D02*
X238320001Y-121232381D01*
X238129524Y-121232381D01*
X238034286Y-121184762D01*
X237986667Y-121089524D01*
X237986667Y-120708571D01*
X238034286Y-120613333D01*
X238129524Y-120565714D01*
X238320001Y-120565714D01*
X238415239Y-120613333D01*
X238462858Y-120708571D01*
X238462858Y-120803810D01*
X237986667Y-120899048D01*
M02*
