G04 #@! TF.FileFunction,Copper,L1,Top,Signal*
%FSLAX46Y46*%
G04 Gerber Fmt 4.6, Leading zero omitted, Abs format (unit mm)*
G04 Created by KiCad (PCBNEW (after 2015-may-25 BZR unknown)-product) date 17/09/2017 09:43:34*
%MOMM*%
G01*
G04 APERTURE LIST*
%ADD10C,0.100000*%
%ADD11R,2.550160X2.499360*%
%ADD12O,1.600000X1.600000*%
%ADD13R,1.300000X0.700000*%
%ADD14R,3.800000X2.000000*%
%ADD15R,1.500000X2.000000*%
%ADD16R,1.000000X1.250000*%
%ADD17R,1.900000X1.900000*%
%ADD18C,1.900000*%
%ADD19R,1.600200X6.299200*%
%ADD20R,2.499360X2.550160*%
%ADD21R,1.550000X0.600000*%
%ADD22C,0.889000*%
%ADD23C,0.210000*%
%ADD24C,0.410000*%
%ADD25C,0.400000*%
%ADD26C,0.250000*%
G04 APERTURE END LIST*
D10*
D11*
X242250240Y-152750000D03*
X247299760Y-152750000D03*
D12*
X189678600Y-156950600D03*
X187138600Y-156950600D03*
X184598600Y-156950600D03*
X182058600Y-156950600D03*
X179518600Y-156950600D03*
X176978600Y-156950600D03*
X174438600Y-156950600D03*
X171898600Y-156950600D03*
X171898600Y-138950600D03*
X174438600Y-138950600D03*
X176978600Y-138950600D03*
X179518600Y-138950600D03*
X182058600Y-138950600D03*
X184598600Y-138950600D03*
X187138600Y-138950600D03*
X189678600Y-138950600D03*
D13*
X179890000Y-133040000D03*
X179890000Y-134940000D03*
X182560000Y-133040000D03*
X182560000Y-134940000D03*
X185160000Y-133040000D03*
X185160000Y-134940000D03*
D10*
G36*
X214992924Y-121829231D02*
X214156511Y-122758162D01*
X213413366Y-122089031D01*
X214249779Y-121160100D01*
X214992924Y-121829231D01*
X214992924Y-121829231D01*
G37*
G36*
X213506635Y-120490969D02*
X212670222Y-121419900D01*
X211927077Y-120750769D01*
X212763490Y-119821838D01*
X213506635Y-120490969D01*
X213506635Y-120490969D01*
G37*
G36*
X225672102Y-131102395D02*
X224852028Y-132045782D01*
X224097318Y-131389723D01*
X224917392Y-130446336D01*
X225672102Y-131102395D01*
X225672102Y-131102395D01*
G37*
G36*
X224162683Y-129790276D02*
X223342609Y-130733663D01*
X222587899Y-130077604D01*
X223407973Y-129134217D01*
X224162683Y-129790276D01*
X224162683Y-129790276D01*
G37*
G36*
X197592602Y-148398719D02*
X196708719Y-149282602D01*
X196001612Y-148575495D01*
X196885495Y-147691612D01*
X197592602Y-148398719D01*
X197592602Y-148398719D01*
G37*
G36*
X196178389Y-146984505D02*
X195294506Y-147868388D01*
X194587399Y-147161281D01*
X195471282Y-146277398D01*
X196178389Y-146984505D01*
X196178389Y-146984505D01*
G37*
D14*
X240140000Y-140380000D03*
D15*
X240140000Y-146680000D03*
X242440000Y-146680000D03*
X237840000Y-146680000D03*
D10*
G36*
X205586223Y-124552542D02*
X205756722Y-124369704D01*
X206817185Y-125358602D01*
X206646686Y-125541440D01*
X205586223Y-124552542D01*
X205586223Y-124552542D01*
G37*
G36*
X205245224Y-124918219D02*
X205415723Y-124735381D01*
X206476186Y-125724279D01*
X206305687Y-125907117D01*
X205245224Y-124918219D01*
X205245224Y-124918219D01*
G37*
G36*
X204904225Y-125283896D02*
X205074724Y-125101058D01*
X206135187Y-126089956D01*
X205964688Y-126272794D01*
X204904225Y-125283896D01*
X204904225Y-125283896D01*
G37*
G36*
X204563226Y-125649573D02*
X204733725Y-125466735D01*
X205794188Y-126455633D01*
X205623689Y-126638471D01*
X204563226Y-125649573D01*
X204563226Y-125649573D01*
G37*
G36*
X204222226Y-126015250D02*
X204392725Y-125832412D01*
X205453188Y-126821310D01*
X205282689Y-127004148D01*
X204222226Y-126015250D01*
X204222226Y-126015250D01*
G37*
G36*
X203881227Y-126380927D02*
X204051726Y-126198089D01*
X205112189Y-127186987D01*
X204941690Y-127369825D01*
X203881227Y-126380927D01*
X203881227Y-126380927D01*
G37*
G36*
X203540228Y-126746604D02*
X203710727Y-126563766D01*
X204771190Y-127552664D01*
X204600691Y-127735502D01*
X203540228Y-126746604D01*
X203540228Y-126746604D01*
G37*
G36*
X203199229Y-127112280D02*
X203369728Y-126929442D01*
X204430191Y-127918340D01*
X204259692Y-128101178D01*
X203199229Y-127112280D01*
X203199229Y-127112280D01*
G37*
G36*
X202858230Y-127477957D02*
X203028729Y-127295119D01*
X204089192Y-128284017D01*
X203918693Y-128466855D01*
X202858230Y-127477957D01*
X202858230Y-127477957D01*
G37*
G36*
X202517230Y-127843634D02*
X202687729Y-127660796D01*
X203748192Y-128649694D01*
X203577693Y-128832532D01*
X202517230Y-127843634D01*
X202517230Y-127843634D01*
G37*
G36*
X202176231Y-128209311D02*
X202346730Y-128026473D01*
X203407193Y-129015371D01*
X203236694Y-129198209D01*
X202176231Y-128209311D01*
X202176231Y-128209311D01*
G37*
G36*
X201835232Y-128574988D02*
X202005731Y-128392150D01*
X203066194Y-129381048D01*
X202895695Y-129563886D01*
X201835232Y-128574988D01*
X201835232Y-128574988D01*
G37*
G36*
X201494233Y-128940665D02*
X201664732Y-128757827D01*
X202725195Y-129746725D01*
X202554696Y-129929563D01*
X201494233Y-128940665D01*
X201494233Y-128940665D01*
G37*
G36*
X201153234Y-129306341D02*
X201323733Y-129123503D01*
X202384196Y-130112401D01*
X202213697Y-130295239D01*
X201153234Y-129306341D01*
X201153234Y-129306341D01*
G37*
G36*
X200812235Y-129672018D02*
X200982734Y-129489180D01*
X202043197Y-130478078D01*
X201872698Y-130660916D01*
X200812235Y-129672018D01*
X200812235Y-129672018D01*
G37*
G36*
X200471235Y-130037695D02*
X200641734Y-129854857D01*
X201702197Y-130843755D01*
X201531698Y-131026593D01*
X200471235Y-130037695D01*
X200471235Y-130037695D01*
G37*
G36*
X200130236Y-130403372D02*
X200300735Y-130220534D01*
X201361198Y-131209432D01*
X201190699Y-131392270D01*
X200130236Y-130403372D01*
X200130236Y-130403372D01*
G37*
G36*
X199789237Y-130769049D02*
X199959736Y-130586211D01*
X201020199Y-131575109D01*
X200849700Y-131757947D01*
X199789237Y-130769049D01*
X199789237Y-130769049D01*
G37*
G36*
X199448238Y-131134726D02*
X199618737Y-130951888D01*
X200679200Y-131940786D01*
X200508701Y-132123624D01*
X199448238Y-131134726D01*
X199448238Y-131134726D01*
G37*
G36*
X199107239Y-131500403D02*
X199277738Y-131317565D01*
X200338201Y-132306463D01*
X200167702Y-132489301D01*
X199107239Y-131500403D01*
X199107239Y-131500403D01*
G37*
G36*
X198766239Y-131866079D02*
X198936738Y-131683241D01*
X199997201Y-132672139D01*
X199826702Y-132854977D01*
X198766239Y-131866079D01*
X198766239Y-131866079D01*
G37*
G36*
X198425240Y-132231756D02*
X198595739Y-132048918D01*
X199656202Y-133037816D01*
X199485703Y-133220654D01*
X198425240Y-132231756D01*
X198425240Y-132231756D01*
G37*
G36*
X198084241Y-132597433D02*
X198254740Y-132414595D01*
X199315203Y-133403493D01*
X199144704Y-133586331D01*
X198084241Y-132597433D01*
X198084241Y-132597433D01*
G37*
G36*
X197743242Y-132963110D02*
X197913741Y-132780272D01*
X198974204Y-133769170D01*
X198803705Y-133952008D01*
X197743242Y-132963110D01*
X197743242Y-132963110D01*
G37*
G36*
X197402243Y-133328787D02*
X197572742Y-133145949D01*
X198633205Y-134134847D01*
X198462706Y-134317685D01*
X197402243Y-133328787D01*
X197402243Y-133328787D01*
G37*
G36*
X197061244Y-133694464D02*
X197231743Y-133511626D01*
X198292206Y-134500524D01*
X198121707Y-134683362D01*
X197061244Y-133694464D01*
X197061244Y-133694464D01*
G37*
G36*
X196720244Y-134060141D02*
X196890743Y-133877303D01*
X197951206Y-134866201D01*
X197780707Y-135049039D01*
X196720244Y-134060141D01*
X196720244Y-134060141D01*
G37*
G36*
X196379245Y-134425817D02*
X196549744Y-134242979D01*
X197610207Y-135231877D01*
X197439708Y-135414715D01*
X196379245Y-134425817D01*
X196379245Y-134425817D01*
G37*
G36*
X196038246Y-134791494D02*
X196208745Y-134608656D01*
X197269208Y-135597554D01*
X197098709Y-135780392D01*
X196038246Y-134791494D01*
X196038246Y-134791494D01*
G37*
G36*
X195697247Y-135157171D02*
X195867746Y-134974333D01*
X196928209Y-135963231D01*
X196757710Y-136146069D01*
X195697247Y-135157171D01*
X195697247Y-135157171D01*
G37*
G36*
X195356248Y-135522848D02*
X195526747Y-135340010D01*
X196587210Y-136328908D01*
X196416711Y-136511746D01*
X195356248Y-135522848D01*
X195356248Y-135522848D01*
G37*
G36*
X195015249Y-135888525D02*
X195185748Y-135705687D01*
X196246211Y-136694585D01*
X196075712Y-136877423D01*
X195015249Y-135888525D01*
X195015249Y-135888525D01*
G37*
G36*
X194674249Y-136254202D02*
X194844748Y-136071364D01*
X195905211Y-137060262D01*
X195734712Y-137243100D01*
X194674249Y-136254202D01*
X194674249Y-136254202D01*
G37*
G36*
X194333250Y-136619878D02*
X194503749Y-136437040D01*
X195564212Y-137425938D01*
X195393713Y-137608776D01*
X194333250Y-136619878D01*
X194333250Y-136619878D01*
G37*
G36*
X193992251Y-136985555D02*
X194162750Y-136802717D01*
X195223213Y-137791615D01*
X195052714Y-137974453D01*
X193992251Y-136985555D01*
X193992251Y-136985555D01*
G37*
G36*
X193651252Y-137351232D02*
X193821751Y-137168394D01*
X194882214Y-138157292D01*
X194711715Y-138340130D01*
X193651252Y-137351232D01*
X193651252Y-137351232D01*
G37*
G36*
X193952542Y-140913777D02*
X193769704Y-140743278D01*
X194758602Y-139682815D01*
X194941440Y-139853314D01*
X193952542Y-140913777D01*
X193952542Y-140913777D01*
G37*
G36*
X194318219Y-141254776D02*
X194135381Y-141084277D01*
X195124279Y-140023814D01*
X195307117Y-140194313D01*
X194318219Y-141254776D01*
X194318219Y-141254776D01*
G37*
G36*
X194683896Y-141595775D02*
X194501058Y-141425276D01*
X195489956Y-140364813D01*
X195672794Y-140535312D01*
X194683896Y-141595775D01*
X194683896Y-141595775D01*
G37*
G36*
X195049573Y-141936774D02*
X194866735Y-141766275D01*
X195855633Y-140705812D01*
X196038471Y-140876311D01*
X195049573Y-141936774D01*
X195049573Y-141936774D01*
G37*
G36*
X195415250Y-142277774D02*
X195232412Y-142107275D01*
X196221310Y-141046812D01*
X196404148Y-141217311D01*
X195415250Y-142277774D01*
X195415250Y-142277774D01*
G37*
G36*
X195780927Y-142618773D02*
X195598089Y-142448274D01*
X196586987Y-141387811D01*
X196769825Y-141558310D01*
X195780927Y-142618773D01*
X195780927Y-142618773D01*
G37*
G36*
X196146604Y-142959772D02*
X195963766Y-142789273D01*
X196952664Y-141728810D01*
X197135502Y-141899309D01*
X196146604Y-142959772D01*
X196146604Y-142959772D01*
G37*
G36*
X196512280Y-143300771D02*
X196329442Y-143130272D01*
X197318340Y-142069809D01*
X197501178Y-142240308D01*
X196512280Y-143300771D01*
X196512280Y-143300771D01*
G37*
G36*
X196877957Y-143641770D02*
X196695119Y-143471271D01*
X197684017Y-142410808D01*
X197866855Y-142581307D01*
X196877957Y-143641770D01*
X196877957Y-143641770D01*
G37*
G36*
X197243634Y-143982770D02*
X197060796Y-143812271D01*
X198049694Y-142751808D01*
X198232532Y-142922307D01*
X197243634Y-143982770D01*
X197243634Y-143982770D01*
G37*
G36*
X197609311Y-144323769D02*
X197426473Y-144153270D01*
X198415371Y-143092807D01*
X198598209Y-143263306D01*
X197609311Y-144323769D01*
X197609311Y-144323769D01*
G37*
G36*
X197974988Y-144664768D02*
X197792150Y-144494269D01*
X198781048Y-143433806D01*
X198963886Y-143604305D01*
X197974988Y-144664768D01*
X197974988Y-144664768D01*
G37*
G36*
X198340665Y-145005767D02*
X198157827Y-144835268D01*
X199146725Y-143774805D01*
X199329563Y-143945304D01*
X198340665Y-145005767D01*
X198340665Y-145005767D01*
G37*
G36*
X198706341Y-145346766D02*
X198523503Y-145176267D01*
X199512401Y-144115804D01*
X199695239Y-144286303D01*
X198706341Y-145346766D01*
X198706341Y-145346766D01*
G37*
G36*
X199072018Y-145687765D02*
X198889180Y-145517266D01*
X199878078Y-144456803D01*
X200060916Y-144627302D01*
X199072018Y-145687765D01*
X199072018Y-145687765D01*
G37*
G36*
X199437695Y-146028765D02*
X199254857Y-145858266D01*
X200243755Y-144797803D01*
X200426593Y-144968302D01*
X199437695Y-146028765D01*
X199437695Y-146028765D01*
G37*
G36*
X199803372Y-146369764D02*
X199620534Y-146199265D01*
X200609432Y-145138802D01*
X200792270Y-145309301D01*
X199803372Y-146369764D01*
X199803372Y-146369764D01*
G37*
G36*
X200169049Y-146710763D02*
X199986211Y-146540264D01*
X200975109Y-145479801D01*
X201157947Y-145650300D01*
X200169049Y-146710763D01*
X200169049Y-146710763D01*
G37*
G36*
X200534726Y-147051762D02*
X200351888Y-146881263D01*
X201340786Y-145820800D01*
X201523624Y-145991299D01*
X200534726Y-147051762D01*
X200534726Y-147051762D01*
G37*
G36*
X200900403Y-147392761D02*
X200717565Y-147222262D01*
X201706463Y-146161799D01*
X201889301Y-146332298D01*
X200900403Y-147392761D01*
X200900403Y-147392761D01*
G37*
G36*
X201266079Y-147733761D02*
X201083241Y-147563262D01*
X202072139Y-146502799D01*
X202254977Y-146673298D01*
X201266079Y-147733761D01*
X201266079Y-147733761D01*
G37*
G36*
X201631756Y-148074760D02*
X201448918Y-147904261D01*
X202437816Y-146843798D01*
X202620654Y-147014297D01*
X201631756Y-148074760D01*
X201631756Y-148074760D01*
G37*
G36*
X201997433Y-148415759D02*
X201814595Y-148245260D01*
X202803493Y-147184797D01*
X202986331Y-147355296D01*
X201997433Y-148415759D01*
X201997433Y-148415759D01*
G37*
G36*
X202363110Y-148756758D02*
X202180272Y-148586259D01*
X203169170Y-147525796D01*
X203352008Y-147696295D01*
X202363110Y-148756758D01*
X202363110Y-148756758D01*
G37*
G36*
X202728787Y-149097757D02*
X202545949Y-148927258D01*
X203534847Y-147866795D01*
X203717685Y-148037294D01*
X202728787Y-149097757D01*
X202728787Y-149097757D01*
G37*
G36*
X203094464Y-149438756D02*
X202911626Y-149268257D01*
X203900524Y-148207794D01*
X204083362Y-148378293D01*
X203094464Y-149438756D01*
X203094464Y-149438756D01*
G37*
G36*
X203460141Y-149779756D02*
X203277303Y-149609257D01*
X204266201Y-148548794D01*
X204449039Y-148719293D01*
X203460141Y-149779756D01*
X203460141Y-149779756D01*
G37*
G36*
X203825817Y-150120755D02*
X203642979Y-149950256D01*
X204631877Y-148889793D01*
X204814715Y-149060292D01*
X203825817Y-150120755D01*
X203825817Y-150120755D01*
G37*
G36*
X204191494Y-150461754D02*
X204008656Y-150291255D01*
X204997554Y-149230792D01*
X205180392Y-149401291D01*
X204191494Y-150461754D01*
X204191494Y-150461754D01*
G37*
G36*
X204557171Y-150802753D02*
X204374333Y-150632254D01*
X205363231Y-149571791D01*
X205546069Y-149742290D01*
X204557171Y-150802753D01*
X204557171Y-150802753D01*
G37*
G36*
X204922848Y-151143752D02*
X204740010Y-150973253D01*
X205728908Y-149912790D01*
X205911746Y-150083289D01*
X204922848Y-151143752D01*
X204922848Y-151143752D01*
G37*
G36*
X205288525Y-151484751D02*
X205105687Y-151314252D01*
X206094585Y-150253789D01*
X206277423Y-150424288D01*
X205288525Y-151484751D01*
X205288525Y-151484751D01*
G37*
G36*
X205654202Y-151825751D02*
X205471364Y-151655252D01*
X206460262Y-150594789D01*
X206643100Y-150765288D01*
X205654202Y-151825751D01*
X205654202Y-151825751D01*
G37*
G36*
X206019878Y-152166750D02*
X205837040Y-151996251D01*
X206825938Y-150935788D01*
X207008776Y-151106287D01*
X206019878Y-152166750D01*
X206019878Y-152166750D01*
G37*
G36*
X206385555Y-152507749D02*
X206202717Y-152337250D01*
X207191615Y-151276787D01*
X207374453Y-151447286D01*
X206385555Y-152507749D01*
X206385555Y-152507749D01*
G37*
G36*
X206751232Y-152848748D02*
X206568394Y-152678249D01*
X207557292Y-151617786D01*
X207740130Y-151788285D01*
X206751232Y-152848748D01*
X206751232Y-152848748D01*
G37*
G36*
X209082815Y-151741398D02*
X209253314Y-151558560D01*
X210313777Y-152547458D01*
X210143278Y-152730296D01*
X209082815Y-151741398D01*
X209082815Y-151741398D01*
G37*
G36*
X209423814Y-151375721D02*
X209594313Y-151192883D01*
X210654776Y-152181781D01*
X210484277Y-152364619D01*
X209423814Y-151375721D01*
X209423814Y-151375721D01*
G37*
G36*
X209764813Y-151010044D02*
X209935312Y-150827206D01*
X210995775Y-151816104D01*
X210825276Y-151998942D01*
X209764813Y-151010044D01*
X209764813Y-151010044D01*
G37*
G36*
X210105812Y-150644367D02*
X210276311Y-150461529D01*
X211336774Y-151450427D01*
X211166275Y-151633265D01*
X210105812Y-150644367D01*
X210105812Y-150644367D01*
G37*
G36*
X210446812Y-150278690D02*
X210617311Y-150095852D01*
X211677774Y-151084750D01*
X211507275Y-151267588D01*
X210446812Y-150278690D01*
X210446812Y-150278690D01*
G37*
G36*
X210787811Y-149913013D02*
X210958310Y-149730175D01*
X212018773Y-150719073D01*
X211848274Y-150901911D01*
X210787811Y-149913013D01*
X210787811Y-149913013D01*
G37*
G36*
X211128810Y-149547336D02*
X211299309Y-149364498D01*
X212359772Y-150353396D01*
X212189273Y-150536234D01*
X211128810Y-149547336D01*
X211128810Y-149547336D01*
G37*
G36*
X211469809Y-149181660D02*
X211640308Y-148998822D01*
X212700771Y-149987720D01*
X212530272Y-150170558D01*
X211469809Y-149181660D01*
X211469809Y-149181660D01*
G37*
G36*
X211810808Y-148815983D02*
X211981307Y-148633145D01*
X213041770Y-149622043D01*
X212871271Y-149804881D01*
X211810808Y-148815983D01*
X211810808Y-148815983D01*
G37*
G36*
X212151808Y-148450306D02*
X212322307Y-148267468D01*
X213382770Y-149256366D01*
X213212271Y-149439204D01*
X212151808Y-148450306D01*
X212151808Y-148450306D01*
G37*
G36*
X212492807Y-148084629D02*
X212663306Y-147901791D01*
X213723769Y-148890689D01*
X213553270Y-149073527D01*
X212492807Y-148084629D01*
X212492807Y-148084629D01*
G37*
G36*
X212833806Y-147718952D02*
X213004305Y-147536114D01*
X214064768Y-148525012D01*
X213894269Y-148707850D01*
X212833806Y-147718952D01*
X212833806Y-147718952D01*
G37*
G36*
X213174805Y-147353275D02*
X213345304Y-147170437D01*
X214405767Y-148159335D01*
X214235268Y-148342173D01*
X213174805Y-147353275D01*
X213174805Y-147353275D01*
G37*
G36*
X213515804Y-146987599D02*
X213686303Y-146804761D01*
X214746766Y-147793659D01*
X214576267Y-147976497D01*
X213515804Y-146987599D01*
X213515804Y-146987599D01*
G37*
G36*
X213856803Y-146621922D02*
X214027302Y-146439084D01*
X215087765Y-147427982D01*
X214917266Y-147610820D01*
X213856803Y-146621922D01*
X213856803Y-146621922D01*
G37*
G36*
X214197803Y-146256245D02*
X214368302Y-146073407D01*
X215428765Y-147062305D01*
X215258266Y-147245143D01*
X214197803Y-146256245D01*
X214197803Y-146256245D01*
G37*
G36*
X214538802Y-145890568D02*
X214709301Y-145707730D01*
X215769764Y-146696628D01*
X215599265Y-146879466D01*
X214538802Y-145890568D01*
X214538802Y-145890568D01*
G37*
G36*
X214879801Y-145524891D02*
X215050300Y-145342053D01*
X216110763Y-146330951D01*
X215940264Y-146513789D01*
X214879801Y-145524891D01*
X214879801Y-145524891D01*
G37*
G36*
X215220800Y-145159214D02*
X215391299Y-144976376D01*
X216451762Y-145965274D01*
X216281263Y-146148112D01*
X215220800Y-145159214D01*
X215220800Y-145159214D01*
G37*
G36*
X215561799Y-144793537D02*
X215732298Y-144610699D01*
X216792761Y-145599597D01*
X216622262Y-145782435D01*
X215561799Y-144793537D01*
X215561799Y-144793537D01*
G37*
G36*
X215902799Y-144427861D02*
X216073298Y-144245023D01*
X217133761Y-145233921D01*
X216963262Y-145416759D01*
X215902799Y-144427861D01*
X215902799Y-144427861D01*
G37*
G36*
X216243798Y-144062184D02*
X216414297Y-143879346D01*
X217474760Y-144868244D01*
X217304261Y-145051082D01*
X216243798Y-144062184D01*
X216243798Y-144062184D01*
G37*
G36*
X216584797Y-143696507D02*
X216755296Y-143513669D01*
X217815759Y-144502567D01*
X217645260Y-144685405D01*
X216584797Y-143696507D01*
X216584797Y-143696507D01*
G37*
G36*
X216925796Y-143330830D02*
X217096295Y-143147992D01*
X218156758Y-144136890D01*
X217986259Y-144319728D01*
X216925796Y-143330830D01*
X216925796Y-143330830D01*
G37*
G36*
X217266795Y-142965153D02*
X217437294Y-142782315D01*
X218497757Y-143771213D01*
X218327258Y-143954051D01*
X217266795Y-142965153D01*
X217266795Y-142965153D01*
G37*
G36*
X217607794Y-142599476D02*
X217778293Y-142416638D01*
X218838756Y-143405536D01*
X218668257Y-143588374D01*
X217607794Y-142599476D01*
X217607794Y-142599476D01*
G37*
G36*
X217948794Y-142233799D02*
X218119293Y-142050961D01*
X219179756Y-143039859D01*
X219009257Y-143222697D01*
X217948794Y-142233799D01*
X217948794Y-142233799D01*
G37*
G36*
X218289793Y-141868123D02*
X218460292Y-141685285D01*
X219520755Y-142674183D01*
X219350256Y-142857021D01*
X218289793Y-141868123D01*
X218289793Y-141868123D01*
G37*
G36*
X218630792Y-141502446D02*
X218801291Y-141319608D01*
X219861754Y-142308506D01*
X219691255Y-142491344D01*
X218630792Y-141502446D01*
X218630792Y-141502446D01*
G37*
G36*
X218971791Y-141136769D02*
X219142290Y-140953931D01*
X220202753Y-141942829D01*
X220032254Y-142125667D01*
X218971791Y-141136769D01*
X218971791Y-141136769D01*
G37*
G36*
X219312790Y-140771092D02*
X219483289Y-140588254D01*
X220543752Y-141577152D01*
X220373253Y-141759990D01*
X219312790Y-140771092D01*
X219312790Y-140771092D01*
G37*
G36*
X219653789Y-140405415D02*
X219824288Y-140222577D01*
X220884751Y-141211475D01*
X220714252Y-141394313D01*
X219653789Y-140405415D01*
X219653789Y-140405415D01*
G37*
G36*
X219994789Y-140039738D02*
X220165288Y-139856900D01*
X221225751Y-140845798D01*
X221055252Y-141028636D01*
X219994789Y-140039738D01*
X219994789Y-140039738D01*
G37*
G36*
X220335788Y-139674062D02*
X220506287Y-139491224D01*
X221566750Y-140480122D01*
X221396251Y-140662960D01*
X220335788Y-139674062D01*
X220335788Y-139674062D01*
G37*
G36*
X220676787Y-139308385D02*
X220847286Y-139125547D01*
X221907749Y-140114445D01*
X221737250Y-140297283D01*
X220676787Y-139308385D01*
X220676787Y-139308385D01*
G37*
G36*
X221017786Y-138942708D02*
X221188285Y-138759870D01*
X222248748Y-139748768D01*
X222078249Y-139931606D01*
X221017786Y-138942708D01*
X221017786Y-138942708D01*
G37*
G36*
X221141398Y-137417185D02*
X220958560Y-137246686D01*
X221947458Y-136186223D01*
X222130296Y-136356722D01*
X221141398Y-137417185D01*
X221141398Y-137417185D01*
G37*
G36*
X220775721Y-137076186D02*
X220592883Y-136905687D01*
X221581781Y-135845224D01*
X221764619Y-136015723D01*
X220775721Y-137076186D01*
X220775721Y-137076186D01*
G37*
G36*
X220410044Y-136735187D02*
X220227206Y-136564688D01*
X221216104Y-135504225D01*
X221398942Y-135674724D01*
X220410044Y-136735187D01*
X220410044Y-136735187D01*
G37*
G36*
X220044367Y-136394188D02*
X219861529Y-136223689D01*
X220850427Y-135163226D01*
X221033265Y-135333725D01*
X220044367Y-136394188D01*
X220044367Y-136394188D01*
G37*
G36*
X219678690Y-136053188D02*
X219495852Y-135882689D01*
X220484750Y-134822226D01*
X220667588Y-134992725D01*
X219678690Y-136053188D01*
X219678690Y-136053188D01*
G37*
G36*
X219313013Y-135712189D02*
X219130175Y-135541690D01*
X220119073Y-134481227D01*
X220301911Y-134651726D01*
X219313013Y-135712189D01*
X219313013Y-135712189D01*
G37*
G36*
X218947336Y-135371190D02*
X218764498Y-135200691D01*
X219753396Y-134140228D01*
X219936234Y-134310727D01*
X218947336Y-135371190D01*
X218947336Y-135371190D01*
G37*
G36*
X218581660Y-135030191D02*
X218398822Y-134859692D01*
X219387720Y-133799229D01*
X219570558Y-133969728D01*
X218581660Y-135030191D01*
X218581660Y-135030191D01*
G37*
G36*
X218215983Y-134689192D02*
X218033145Y-134518693D01*
X219022043Y-133458230D01*
X219204881Y-133628729D01*
X218215983Y-134689192D01*
X218215983Y-134689192D01*
G37*
G36*
X217850306Y-134348192D02*
X217667468Y-134177693D01*
X218656366Y-133117230D01*
X218839204Y-133287729D01*
X217850306Y-134348192D01*
X217850306Y-134348192D01*
G37*
G36*
X217484629Y-134007193D02*
X217301791Y-133836694D01*
X218290689Y-132776231D01*
X218473527Y-132946730D01*
X217484629Y-134007193D01*
X217484629Y-134007193D01*
G37*
G36*
X217118952Y-133666194D02*
X216936114Y-133495695D01*
X217925012Y-132435232D01*
X218107850Y-132605731D01*
X217118952Y-133666194D01*
X217118952Y-133666194D01*
G37*
G36*
X216753275Y-133325195D02*
X216570437Y-133154696D01*
X217559335Y-132094233D01*
X217742173Y-132264732D01*
X216753275Y-133325195D01*
X216753275Y-133325195D01*
G37*
G36*
X216387599Y-132984196D02*
X216204761Y-132813697D01*
X217193659Y-131753234D01*
X217376497Y-131923733D01*
X216387599Y-132984196D01*
X216387599Y-132984196D01*
G37*
G36*
X216021922Y-132643197D02*
X215839084Y-132472698D01*
X216827982Y-131412235D01*
X217010820Y-131582734D01*
X216021922Y-132643197D01*
X216021922Y-132643197D01*
G37*
G36*
X215656245Y-132302197D02*
X215473407Y-132131698D01*
X216462305Y-131071235D01*
X216645143Y-131241734D01*
X215656245Y-132302197D01*
X215656245Y-132302197D01*
G37*
G36*
X215290568Y-131961198D02*
X215107730Y-131790699D01*
X216096628Y-130730236D01*
X216279466Y-130900735D01*
X215290568Y-131961198D01*
X215290568Y-131961198D01*
G37*
G36*
X214924891Y-131620199D02*
X214742053Y-131449700D01*
X215730951Y-130389237D01*
X215913789Y-130559736D01*
X214924891Y-131620199D01*
X214924891Y-131620199D01*
G37*
G36*
X214559214Y-131279200D02*
X214376376Y-131108701D01*
X215365274Y-130048238D01*
X215548112Y-130218737D01*
X214559214Y-131279200D01*
X214559214Y-131279200D01*
G37*
G36*
X214193537Y-130938201D02*
X214010699Y-130767702D01*
X214999597Y-129707239D01*
X215182435Y-129877738D01*
X214193537Y-130938201D01*
X214193537Y-130938201D01*
G37*
G36*
X213827861Y-130597201D02*
X213645023Y-130426702D01*
X214633921Y-129366239D01*
X214816759Y-129536738D01*
X213827861Y-130597201D01*
X213827861Y-130597201D01*
G37*
G36*
X213462184Y-130256202D02*
X213279346Y-130085703D01*
X214268244Y-129025240D01*
X214451082Y-129195739D01*
X213462184Y-130256202D01*
X213462184Y-130256202D01*
G37*
G36*
X213096507Y-129915203D02*
X212913669Y-129744704D01*
X213902567Y-128684241D01*
X214085405Y-128854740D01*
X213096507Y-129915203D01*
X213096507Y-129915203D01*
G37*
G36*
X212730830Y-129574204D02*
X212547992Y-129403705D01*
X213536890Y-128343242D01*
X213719728Y-128513741D01*
X212730830Y-129574204D01*
X212730830Y-129574204D01*
G37*
G36*
X212365153Y-129233205D02*
X212182315Y-129062706D01*
X213171213Y-128002243D01*
X213354051Y-128172742D01*
X212365153Y-129233205D01*
X212365153Y-129233205D01*
G37*
G36*
X211999476Y-128892206D02*
X211816638Y-128721707D01*
X212805536Y-127661244D01*
X212988374Y-127831743D01*
X211999476Y-128892206D01*
X211999476Y-128892206D01*
G37*
G36*
X211633799Y-128551206D02*
X211450961Y-128380707D01*
X212439859Y-127320244D01*
X212622697Y-127490743D01*
X211633799Y-128551206D01*
X211633799Y-128551206D01*
G37*
G36*
X211268123Y-128210207D02*
X211085285Y-128039708D01*
X212074183Y-126979245D01*
X212257021Y-127149744D01*
X211268123Y-128210207D01*
X211268123Y-128210207D01*
G37*
G36*
X210902446Y-127869208D02*
X210719608Y-127698709D01*
X211708506Y-126638246D01*
X211891344Y-126808745D01*
X210902446Y-127869208D01*
X210902446Y-127869208D01*
G37*
G36*
X210536769Y-127528209D02*
X210353931Y-127357710D01*
X211342829Y-126297247D01*
X211525667Y-126467746D01*
X210536769Y-127528209D01*
X210536769Y-127528209D01*
G37*
G36*
X210171092Y-127187210D02*
X209988254Y-127016711D01*
X210977152Y-125956248D01*
X211159990Y-126126747D01*
X210171092Y-127187210D01*
X210171092Y-127187210D01*
G37*
G36*
X209805415Y-126846211D02*
X209622577Y-126675712D01*
X210611475Y-125615249D01*
X210794313Y-125785748D01*
X209805415Y-126846211D01*
X209805415Y-126846211D01*
G37*
G36*
X209439738Y-126505211D02*
X209256900Y-126334712D01*
X210245798Y-125274249D01*
X210428636Y-125444748D01*
X209439738Y-126505211D01*
X209439738Y-126505211D01*
G37*
G36*
X209074062Y-126164212D02*
X208891224Y-125993713D01*
X209880122Y-124933250D01*
X210062960Y-125103749D01*
X209074062Y-126164212D01*
X209074062Y-126164212D01*
G37*
G36*
X208708385Y-125823213D02*
X208525547Y-125652714D01*
X209514445Y-124592251D01*
X209697283Y-124762750D01*
X208708385Y-125823213D01*
X208708385Y-125823213D01*
G37*
G36*
X208342708Y-125482214D02*
X208159870Y-125311715D01*
X209148768Y-124251252D01*
X209331606Y-124421751D01*
X208342708Y-125482214D01*
X208342708Y-125482214D01*
G37*
D16*
X209520000Y-155440000D03*
X207520000Y-155439999D03*
D17*
X175420000Y-125370000D03*
D18*
X175420000Y-122830000D03*
X177960000Y-125370000D03*
X177960000Y-122830000D03*
X180500000Y-125370000D03*
X180500000Y-122830000D03*
X183040000Y-125370000D03*
X183040000Y-122830000D03*
X185580000Y-125370000D03*
X185580000Y-122830000D03*
D19*
X168443180Y-164118580D03*
X170983180Y-164118580D03*
X173523180Y-164118580D03*
X176063180Y-164118580D03*
X178603180Y-164118580D03*
X181143180Y-164118580D03*
X183683180Y-164118580D03*
X186223180Y-164118580D03*
X188763180Y-164118580D03*
X191303180Y-164118580D03*
X193843180Y-164118580D03*
X196383180Y-164118580D03*
X198923180Y-164118580D03*
X201463180Y-164118580D03*
X204003180Y-164118580D03*
X206543180Y-164118580D03*
X209083180Y-164118580D03*
X211623180Y-164118580D03*
X214163180Y-164118580D03*
X216703180Y-164118580D03*
X219243180Y-164118580D03*
X221783180Y-164118580D03*
X224323180Y-164118580D03*
X226863180Y-164118580D03*
X229403180Y-164118580D03*
X231943180Y-164118580D03*
X234483180Y-164118580D03*
X237023180Y-164118580D03*
X239563180Y-164118580D03*
X242103180Y-164118580D03*
X244643180Y-164118580D03*
X247183180Y-164118580D03*
D10*
G36*
X195748719Y-127137398D02*
X196632602Y-128021281D01*
X195925495Y-128728388D01*
X195041612Y-127844505D01*
X195748719Y-127137398D01*
X195748719Y-127137398D01*
G37*
G36*
X194334505Y-128551612D02*
X195218388Y-129435495D01*
X194511281Y-130142602D01*
X193627398Y-129258719D01*
X194334505Y-128551612D01*
X194334505Y-128551612D01*
G37*
D16*
X220100000Y-147180000D03*
X222100000Y-147180000D03*
D20*
X233860000Y-146724760D03*
X233860000Y-141675240D03*
X245930000Y-146244760D03*
X245930000Y-141195240D03*
D16*
X242920000Y-124380000D03*
X240920000Y-124380000D03*
D13*
X187680000Y-133040000D03*
X187680000Y-134940000D03*
D21*
X232620000Y-122375000D03*
X232620000Y-123645000D03*
X232620000Y-124915000D03*
X232620000Y-126185000D03*
X238020000Y-126185000D03*
X238020000Y-124915000D03*
X238020000Y-123645000D03*
X238020000Y-122375000D03*
D22*
X210025000Y-122725000D03*
X235100000Y-138275000D03*
X221540000Y-154990000D03*
X225310000Y-150190000D03*
X208860000Y-157470000D03*
X212020000Y-157000000D03*
X194640000Y-149150000D03*
X194150014Y-123850000D03*
X195450000Y-121690480D03*
X215647463Y-125990480D03*
X237767061Y-151292939D03*
X246370000Y-124420000D03*
X209650000Y-131450000D03*
X235550000Y-135650000D03*
X235350000Y-133050000D03*
X229160000Y-130480000D03*
X210992138Y-129777254D03*
X198649223Y-136850777D03*
X193070472Y-135306781D03*
X178000000Y-135200000D03*
X200500018Y-137080497D03*
X195800000Y-155700000D03*
X231900000Y-127300000D03*
X204599990Y-145900000D03*
X206138216Y-148593110D03*
X248400000Y-158100000D03*
X222200000Y-148820000D03*
X211610000Y-153730000D03*
X205920000Y-154990000D03*
X192630000Y-147530000D03*
X197150000Y-131250000D03*
X193250000Y-127250000D03*
X210350000Y-120650000D03*
X233550000Y-128950000D03*
X186200000Y-136500000D03*
X203111153Y-146255252D03*
X224775000Y-148875000D03*
X230320000Y-146150000D03*
X239650000Y-136250000D03*
X244575000Y-156800000D03*
X196180000Y-157730000D03*
X213400000Y-145699984D03*
X186610000Y-150660000D03*
X212300000Y-144800000D03*
X199631566Y-140699568D03*
X203500002Y-144400000D03*
X173000000Y-149200000D03*
X191000000Y-142000000D03*
X210800000Y-144800000D03*
X198437062Y-141062938D03*
X179040000Y-148910000D03*
X209500000Y-144800000D03*
X198900000Y-142200000D03*
X183120000Y-152580000D03*
X202100000Y-144959520D03*
X205700000Y-145000000D03*
X208061194Y-146158873D03*
X192440000Y-157840000D03*
X206945758Y-147835606D03*
X198400000Y-154100000D03*
X193980000Y-155260000D03*
X198870000Y-157730000D03*
X208926181Y-149700362D03*
X203430000Y-157600000D03*
X207827177Y-149696321D03*
X210266854Y-158205238D03*
X208850997Y-147547902D03*
X215980000Y-157550000D03*
X209676329Y-148273610D03*
X223400000Y-156610000D03*
X210800374Y-147199626D03*
X231290000Y-154760000D03*
X214500000Y-144400000D03*
X230990000Y-151130000D03*
X234523954Y-153886046D03*
X228780000Y-155120000D03*
X220800000Y-157400000D03*
X213980000Y-157690000D03*
X176800000Y-150610000D03*
X181110000Y-149150000D03*
X177870000Y-149670000D03*
X177610000Y-154050000D03*
X174330000Y-154610000D03*
X174470000Y-150630000D03*
X192160000Y-155460000D03*
X224950000Y-122750000D03*
X224596536Y-123890492D03*
X225691924Y-123979674D03*
X208129006Y-127522422D03*
X226067949Y-125012356D03*
X217350000Y-124050000D03*
X208600000Y-136400000D03*
X216750000Y-125050000D03*
X208100000Y-134800000D03*
X229750310Y-126498254D03*
X208900000Y-132400000D03*
X209600000Y-135300000D03*
X228710903Y-126250717D03*
X210000000Y-133200000D03*
X210558164Y-134761716D03*
X227590383Y-126282093D03*
X227850000Y-127350000D03*
X212749998Y-133850000D03*
X231050000Y-131450000D03*
X232125335Y-132648735D03*
X232050000Y-133750000D03*
X231450000Y-135850000D03*
X214118685Y-134821064D03*
X213746856Y-135855264D03*
X213550000Y-136950000D03*
X214582132Y-137732193D03*
X229750000Y-136250000D03*
X228250000Y-137150000D03*
X191890000Y-133300000D03*
X191850000Y-132010000D03*
X193740000Y-131930000D03*
X208900000Y-137760436D03*
X195750000Y-130750000D03*
X201800000Y-135900000D03*
X202886503Y-135734653D03*
X202613012Y-134527505D03*
X203499648Y-133878117D03*
X204578875Y-133670518D03*
X205525000Y-133050000D03*
X204405860Y-132013669D03*
X205504782Y-131760518D03*
X206057406Y-130810553D03*
X205855722Y-129730205D03*
X206109127Y-128660806D03*
X201826296Y-126877091D03*
X202550000Y-125650000D03*
X201188170Y-125391568D03*
X206100000Y-136500000D03*
X207650000Y-123150000D03*
X196450000Y-125250000D03*
X197550000Y-123350000D03*
X201250000Y-123850000D03*
X207500000Y-126600000D03*
X224650000Y-137150000D03*
X212850000Y-131550000D03*
X224150000Y-139650000D03*
X238050000Y-157750000D03*
X237850000Y-153650000D03*
X228950000Y-145650000D03*
X227850000Y-142550000D03*
X189350000Y-126950000D03*
X182550000Y-127550000D03*
X193100000Y-139000000D03*
X188600000Y-129200000D03*
X178800000Y-129900000D03*
X189859520Y-132100000D03*
X192600000Y-136300000D03*
X189500000Y-128300000D03*
X179950000Y-128550000D03*
X190800000Y-130100000D03*
X201490000Y-157600000D03*
X205804297Y-157652482D03*
X179950000Y-153210000D03*
X179970000Y-150510000D03*
X217410000Y-157140000D03*
X225980000Y-155400000D03*
X232190000Y-152880000D03*
X241540000Y-157280000D03*
X236300000Y-125400000D03*
X217550002Y-138807762D03*
X230050000Y-123550000D03*
X209899996Y-129900000D03*
X234950000Y-122950000D03*
X226450000Y-137909510D03*
X172990000Y-146960000D03*
X237750000Y-127850000D03*
X218850000Y-139290490D03*
X201664194Y-136990578D03*
X196700000Y-138800000D03*
X188420000Y-141765000D03*
X192000000Y-134700000D03*
X206900000Y-137340425D03*
D23*
X194642893Y-128607107D02*
X194849690Y-128607107D01*
X202400463Y-147800278D02*
X202400463Y-147789537D01*
X202400463Y-147789537D02*
X203110000Y-147080000D01*
X203110000Y-147080000D02*
X203419990Y-147080000D01*
X203419990Y-147080000D02*
X204599990Y-145900000D01*
D24*
X195450000Y-121690480D02*
X186719520Y-121690480D01*
X214203145Y-121959131D02*
X213053365Y-121959131D01*
X210450000Y-122300000D02*
X210025000Y-122725000D01*
X212712496Y-122300000D02*
X210450000Y-122300000D01*
X213053365Y-121959131D02*
X212712496Y-122300000D01*
D25*
X234655501Y-138719499D02*
X235100000Y-138275000D01*
X233860000Y-141675240D02*
X233860000Y-139515000D01*
X233860000Y-139515000D02*
X234655501Y-138719499D01*
D23*
X196797107Y-148442893D02*
X196797107Y-148487107D01*
X199826716Y-145413284D02*
X196797107Y-148442893D01*
X199840725Y-145413284D02*
X199826716Y-145413284D01*
X211062293Y-150681720D02*
X211121720Y-150681720D01*
X211062293Y-150681720D02*
X211111720Y-150681720D01*
X220260000Y-154990000D02*
X221540000Y-154990000D01*
X217170000Y-151900000D02*
X220260000Y-154990000D01*
X217170000Y-151090000D02*
X217170000Y-151900000D01*
X213836305Y-147756305D02*
X217170000Y-151090000D01*
X213790286Y-147756305D02*
X213836305Y-147756305D01*
X219620000Y-147180000D02*
X220100000Y-147180000D01*
X216905214Y-144465214D02*
X219620000Y-147180000D01*
X216859279Y-144465214D02*
X216905214Y-144465214D01*
D25*
X237840000Y-143570000D02*
X237840000Y-146680000D01*
X235945240Y-141675240D02*
X237840000Y-143570000D01*
X233860000Y-141675240D02*
X235945240Y-141675240D01*
X238100000Y-146940000D02*
X237840000Y-146680000D01*
X220100000Y-148470000D02*
X221820000Y-150190000D01*
X221820000Y-150190000D02*
X225310000Y-150190000D01*
X220100000Y-148470000D02*
X220100000Y-147180000D01*
X209520000Y-156810000D02*
X208860000Y-157470000D01*
X209520000Y-155440000D02*
X209520000Y-156810000D01*
D23*
X212230000Y-151810000D02*
X212230000Y-153080000D01*
X212230000Y-153080000D02*
X212430000Y-153280000D01*
X212430000Y-153280000D02*
X212430000Y-156590000D01*
X212430000Y-156590000D02*
X212020000Y-157000000D01*
X211101720Y-150681720D02*
X212230000Y-151810000D01*
X211062293Y-150681720D02*
X211101720Y-150681720D01*
D25*
X196797107Y-148487107D02*
X196302893Y-148487107D01*
X195302893Y-148487107D02*
X196797107Y-148487107D01*
X195302893Y-148487107D02*
X194640000Y-149150000D01*
X232620000Y-126185000D02*
X230925000Y-126185000D01*
X215250869Y-121959131D02*
X215780000Y-121430000D01*
X215780000Y-121430000D02*
X216050000Y-121430000D01*
X214203145Y-121959131D02*
X215250869Y-121959131D01*
D23*
X194422893Y-130872893D02*
X194422893Y-129347107D01*
X197647494Y-134097494D02*
X194422893Y-130872893D01*
X197676725Y-134097494D02*
X197647494Y-134097494D01*
X200745717Y-130806402D02*
X200706402Y-130806402D01*
X197950000Y-128050000D02*
X200706402Y-130806402D01*
X197950000Y-128050000D02*
X197950000Y-127650000D01*
X200350000Y-127650000D02*
X197950000Y-127650000D01*
X202043695Y-129343695D02*
X200350000Y-127650000D01*
X202109714Y-129343695D02*
X202043695Y-129343695D01*
X194594513Y-124294499D02*
X194150014Y-123850000D01*
X197550000Y-127650000D02*
X194594513Y-124694513D01*
X197950000Y-127650000D02*
X197550000Y-127650000D01*
X194594513Y-124694513D02*
X194594513Y-124294499D01*
X201523260Y-121690480D02*
X196078617Y-121690480D01*
X196078617Y-121690480D02*
X195450000Y-121690480D01*
X205519706Y-125686926D02*
X201523260Y-121690480D01*
X212036829Y-127935725D02*
X213982074Y-125990480D01*
X213982074Y-125990480D02*
X215018846Y-125990480D01*
X215018846Y-125990480D02*
X215647463Y-125990480D01*
X213462611Y-130750000D02*
X214230891Y-129981720D01*
X212550000Y-130750000D02*
X213462611Y-130750000D01*
X211150000Y-129350000D02*
X212550000Y-130750000D01*
X211150000Y-128850000D02*
X211150000Y-129350000D01*
X212036829Y-127963171D02*
X211150000Y-128850000D01*
X212036829Y-127935725D02*
X212036829Y-127963171D01*
D25*
X237840000Y-146680000D02*
X237840000Y-151220000D01*
X237840000Y-151220000D02*
X237767061Y-151292939D01*
X242920000Y-124380000D02*
X246330000Y-124380000D01*
X246370000Y-124420000D02*
X246330000Y-124380000D01*
X216050000Y-121430000D02*
X225905882Y-121430000D01*
X225905882Y-121430000D02*
X230715000Y-126239118D01*
D23*
X223629998Y-134950000D02*
X223650000Y-134950000D01*
X223350000Y-134950000D02*
X223629998Y-134950000D01*
X221950000Y-133550000D02*
X223350000Y-134950000D01*
X221250000Y-133550000D02*
X221950000Y-133550000D01*
X219716043Y-135083957D02*
X221250000Y-133550000D01*
X219716043Y-135096708D02*
X219716043Y-135083957D01*
X211150000Y-132950000D02*
X209650000Y-131450000D01*
X214850000Y-132950000D02*
X211150000Y-132950000D01*
X216059275Y-131740725D02*
X214850000Y-132950000D01*
X216059275Y-131686716D02*
X216059275Y-131740725D01*
X223629998Y-134950000D02*
X232721383Y-134950000D01*
X232721383Y-134950000D02*
X233321383Y-135550000D01*
X233421383Y-135650000D02*
X234921383Y-135650000D01*
X233321383Y-135550000D02*
X233421383Y-135650000D01*
X234921383Y-135650000D02*
X235550000Y-135650000D01*
X220610270Y-140442768D02*
X221817502Y-141650000D01*
X233321383Y-135778617D02*
X233321383Y-135550000D01*
X227609501Y-141490499D02*
X233321383Y-135778617D01*
X221817502Y-141650000D02*
X227125938Y-141650000D01*
X227285439Y-141490499D02*
X227609501Y-141490499D01*
X227125938Y-141650000D02*
X227285439Y-141490499D01*
D24*
X229320000Y-130480000D02*
X229650000Y-130150000D01*
X229650000Y-130150000D02*
X232450000Y-130150000D01*
X232450000Y-130150000D02*
X235350000Y-133050000D01*
D25*
X224884710Y-131246059D02*
X228393941Y-131246059D01*
X229160000Y-130480000D02*
X228393941Y-131246059D01*
D24*
X229160000Y-130480000D02*
X229320000Y-130480000D01*
D23*
X211150000Y-129350000D02*
X210992138Y-129507862D01*
X210992138Y-129507862D02*
X210992138Y-129777254D01*
X204228847Y-149505274D02*
X205012938Y-148721183D01*
D24*
X186719520Y-121690480D02*
X185580000Y-122830000D01*
X175420000Y-122830000D02*
X175420000Y-122180000D01*
D23*
X193939279Y-135306781D02*
X193699089Y-135306781D01*
X193699089Y-135306781D02*
X193070472Y-135306781D01*
X195289730Y-136657232D02*
X193939279Y-135306781D01*
D24*
X178260000Y-134940000D02*
X178000000Y-135200000D01*
X179890000Y-134940000D02*
X178260000Y-134940000D01*
D23*
X197676725Y-134097494D02*
X200500018Y-136920787D01*
X200500018Y-136920787D02*
X200500018Y-137080497D01*
D25*
X193252893Y-129347107D02*
X193615786Y-129347107D01*
X193615786Y-129347107D02*
X194422893Y-129347107D01*
X187138600Y-138950600D02*
X187138600Y-137819230D01*
X187138600Y-137819230D02*
X190714021Y-134243809D01*
X190714021Y-134243809D02*
X190714021Y-131885979D01*
X190714021Y-131885979D02*
X193252893Y-129347107D01*
D23*
X199659501Y-154264561D02*
X198224062Y-155700000D01*
X204228847Y-149505274D02*
X199659501Y-154074620D01*
X196428617Y-155700000D02*
X195800000Y-155700000D01*
X199659501Y-154074620D02*
X199659501Y-154264561D01*
X198224062Y-155700000D02*
X196428617Y-155700000D01*
X232620000Y-126580000D02*
X231900000Y-127300000D01*
X232620000Y-126185000D02*
X232620000Y-126580000D01*
X201854009Y-143400000D02*
X204300000Y-143400000D01*
X204300000Y-143400000D02*
X204599990Y-143699990D01*
X204599990Y-143699990D02*
X204599990Y-145271383D01*
X199840725Y-145413284D02*
X201854009Y-143400000D01*
X204599990Y-145271383D02*
X204599990Y-145900000D01*
X205141011Y-148593110D02*
X205509599Y-148593110D01*
X204228847Y-149505274D02*
X205141011Y-148593110D01*
X205509599Y-148593110D02*
X206138216Y-148593110D01*
D24*
X248400000Y-157375000D02*
X247299760Y-156274760D01*
X247299760Y-156274760D02*
X247299760Y-152750000D01*
X248400000Y-158100000D02*
X248400000Y-157375000D01*
X247299760Y-149475240D02*
X248375000Y-148400000D01*
X248375000Y-148400000D02*
X248375000Y-143640240D01*
X248375000Y-143640240D02*
X245930000Y-141195240D01*
X247299760Y-152750000D02*
X247299760Y-149475240D01*
X247183180Y-156391340D02*
X247299760Y-156274760D01*
X247183180Y-164118580D02*
X247183180Y-156391340D01*
D26*
X199475048Y-145072284D02*
X199467716Y-145072284D01*
D23*
X199109371Y-144731285D02*
X199109371Y-144740629D01*
X199475048Y-145072284D02*
X199457716Y-145072284D01*
X199450370Y-145072284D02*
X199109371Y-144731285D01*
X199475048Y-145072284D02*
X199450370Y-145072284D01*
X196395787Y-146060000D02*
X195382894Y-147072893D01*
X197770000Y-146060000D02*
X196395787Y-146060000D01*
X199098715Y-144731285D02*
X197770000Y-146060000D01*
X199109371Y-144731285D02*
X199098715Y-144731285D01*
X217200278Y-144099537D02*
X219100751Y-146000010D01*
X219100751Y-146000010D02*
X221045010Y-146000010D01*
X221045010Y-146000010D02*
X222100000Y-147055000D01*
X222100000Y-147055000D02*
X222100000Y-147180000D01*
X222100000Y-148720000D02*
X222100000Y-147180000D01*
X222100000Y-148720000D02*
X222200000Y-148820000D01*
D25*
X230894760Y-146724760D02*
X230320000Y-146150000D01*
X233860000Y-146724760D02*
X230894760Y-146724760D01*
X240140000Y-146680000D02*
X240140000Y-140380000D01*
D23*
X211610000Y-151910000D02*
X211610000Y-153730000D01*
X210747397Y-151047397D02*
X211610000Y-151910000D01*
X210721293Y-151047397D02*
X210747397Y-151047397D01*
X208765572Y-152144428D02*
X206800000Y-154110000D01*
X209698296Y-152144428D02*
X208765572Y-152144428D01*
X207520000Y-154360000D02*
X207520000Y-155439999D01*
X207270000Y-154110000D02*
X207520000Y-154360000D01*
X206800000Y-154110000D02*
X207270000Y-154110000D01*
X205920000Y-154990000D02*
X206800000Y-154110000D01*
X193087107Y-147072893D02*
X195382894Y-147072893D01*
X193087107Y-147072893D02*
X193074499Y-147085501D01*
X193074499Y-147085501D02*
X192630000Y-147530000D01*
D25*
X240140000Y-139930000D02*
X237080000Y-136870000D01*
X240140000Y-140380000D02*
X240140000Y-139930000D01*
X223375291Y-129933940D02*
X223375291Y-129984709D01*
D23*
X196730000Y-131737417D02*
X198358723Y-133366140D01*
X196730000Y-131470000D02*
X196730000Y-131737417D01*
X196730000Y-128890000D02*
X196730000Y-131470000D01*
X195837107Y-127997107D02*
X196730000Y-128890000D01*
X195837107Y-127932893D02*
X195837107Y-127997107D01*
X196950000Y-131250000D02*
X196730000Y-131470000D01*
X197150000Y-131250000D02*
X196950000Y-131250000D01*
X211950000Y-121550000D02*
X211950000Y-121387725D01*
X211950000Y-121387725D02*
X212716856Y-120620869D01*
X208745738Y-124866733D02*
X208745738Y-124754262D01*
X213865214Y-129640721D02*
X213879281Y-129640721D01*
X223375291Y-129933940D02*
X223375291Y-129924709D01*
X216424952Y-132027716D02*
X216424952Y-131975048D01*
X216424952Y-131975048D02*
X218466060Y-129933940D01*
X218466060Y-129933940D02*
X223375291Y-129933940D01*
D25*
X195837107Y-127932893D02*
X195832893Y-127932893D01*
X195150000Y-127250000D02*
X193250000Y-127250000D01*
X195832893Y-127932893D02*
X195150000Y-127250000D01*
D23*
X208745738Y-122254262D02*
X209905501Y-121094499D01*
X209905501Y-121094499D02*
X210350000Y-120650000D01*
X208745738Y-124866733D02*
X208745738Y-122254262D01*
D25*
X212716856Y-120620869D02*
X210379131Y-120620869D01*
X210379131Y-120620869D02*
X210350000Y-120650000D01*
X224550000Y-128950000D02*
X233550000Y-128950000D01*
X233550000Y-128950000D02*
X237080000Y-132480000D01*
X237080000Y-135050000D02*
X237080000Y-136870000D01*
X237080000Y-132480000D02*
X237080000Y-135050000D01*
X223566060Y-129933940D02*
X224550000Y-128950000D01*
X223375291Y-129933940D02*
X223566060Y-129933940D01*
D23*
X222211353Y-128770002D02*
X223375291Y-129933940D01*
X213879281Y-129640721D02*
X214750000Y-128770002D01*
X214750000Y-128770002D02*
X222211353Y-128770002D01*
D25*
X230320000Y-139508334D02*
X230320000Y-145521383D01*
X232958334Y-136870000D02*
X230320000Y-139508334D01*
X237080000Y-136870000D02*
X232958334Y-136870000D01*
X230320000Y-145521383D02*
X230320000Y-146150000D01*
D23*
X222250000Y-133050000D02*
X223650000Y-134450000D01*
X231685439Y-134509501D02*
X232885439Y-134509501D01*
X223650000Y-134450000D02*
X231625938Y-134450000D01*
X221056075Y-133050000D02*
X222250000Y-133050000D01*
X233166436Y-134790498D02*
X236820498Y-134790498D01*
X232885439Y-134509501D02*
X233166436Y-134790498D01*
X231625938Y-134450000D02*
X231685439Y-134509501D01*
X219350366Y-134755709D02*
X221056075Y-133050000D01*
X236820498Y-134790498D02*
X237080000Y-135050000D01*
D24*
X187680000Y-135120000D02*
X187680000Y-134940000D01*
X186300000Y-136500000D02*
X187680000Y-135120000D01*
X186200000Y-136500000D02*
X186300000Y-136500000D01*
X182560000Y-134940000D02*
X185160000Y-134940000D01*
X185160000Y-134940000D02*
X187680000Y-134940000D01*
D23*
X202034786Y-147459279D02*
X203111153Y-146382912D01*
X203111153Y-146382912D02*
X203111153Y-146255252D01*
D24*
X222200000Y-148820000D02*
X224720000Y-148820000D01*
X224720000Y-148820000D02*
X224775000Y-148875000D01*
X234475000Y-124915000D02*
X235035000Y-124915000D01*
X236305000Y-123645000D02*
X238020000Y-123645000D01*
X235035000Y-124915000D02*
X236305000Y-123645000D01*
D25*
X242640360Y-146880360D02*
X242440000Y-146680000D01*
X242440000Y-145050000D02*
X243270000Y-144220000D01*
X243270000Y-144220000D02*
X243270000Y-139190000D01*
X243270000Y-139190000D02*
X241610000Y-137530000D01*
X241610000Y-137530000D02*
X240960000Y-137530000D01*
X239650000Y-136220000D02*
X237950000Y-134520000D01*
X240960000Y-137530000D02*
X239650000Y-136220000D01*
X237950000Y-134520000D02*
X237950000Y-131810000D01*
X239670000Y-130090000D02*
X240920000Y-128840000D01*
X237950000Y-131810000D02*
X239670000Y-130090000D01*
X240920000Y-128840000D02*
X240920000Y-124380000D01*
X242440000Y-146680000D02*
X242440000Y-145050000D01*
X239925000Y-122375000D02*
X240920000Y-123370000D01*
X240920000Y-123370000D02*
X240920000Y-124380000D01*
X238020000Y-122375000D02*
X239925000Y-122375000D01*
X232620000Y-124915000D02*
X234475000Y-124915000D01*
X234475000Y-124915000D02*
X234315000Y-124915000D01*
X239650000Y-136250000D02*
X239650000Y-136220000D01*
X239665000Y-136235000D02*
X239650000Y-136250000D01*
X239650000Y-136250000D02*
X239665000Y-136235000D01*
D24*
X238020000Y-122375000D02*
X238020000Y-123645000D01*
X242250240Y-146869760D02*
X242440000Y-146680000D01*
X242250240Y-152750000D02*
X242250240Y-146869760D01*
X245930000Y-147895000D02*
X245930000Y-146244760D01*
X242250240Y-151574760D02*
X245930000Y-147895000D01*
X242250240Y-152750000D02*
X242250240Y-151574760D01*
X244575000Y-156500000D02*
X242250240Y-154175240D01*
X242250240Y-154175240D02*
X242250240Y-152750000D01*
X244575000Y-156800000D02*
X244575000Y-156500000D01*
D23*
X196808617Y-157730000D02*
X196180000Y-157730000D01*
X200079512Y-154459105D02*
X196808617Y-157730000D01*
X200079512Y-154361285D02*
X200079512Y-154459105D01*
X204594524Y-149846273D02*
X200079512Y-154361285D01*
X212771383Y-145699984D02*
X213400000Y-145699984D01*
X207705260Y-147604049D02*
X209609325Y-145699984D01*
X205189537Y-149251260D02*
X205672302Y-149251260D01*
X207705260Y-148200168D02*
X207705260Y-147604049D01*
X207310320Y-148595108D02*
X207705260Y-148200168D01*
X205672302Y-149251260D02*
X205773654Y-149352612D01*
X204594524Y-149846273D02*
X205189537Y-149251260D01*
X205773654Y-149352612D02*
X206502242Y-149352612D01*
X206502242Y-149352612D02*
X207259746Y-148595108D01*
X209609325Y-145699984D02*
X212771383Y-145699984D01*
X207259746Y-148595108D02*
X207310320Y-148595108D01*
X189050000Y-148220000D02*
X187054499Y-150215501D01*
X187054499Y-150215501D02*
X186610000Y-150660000D01*
X199310000Y-148064037D02*
X199310000Y-148777966D01*
X197098026Y-150989940D02*
X193671974Y-150989940D01*
X200937756Y-146436281D02*
X199310000Y-148064037D01*
X193671974Y-150989940D02*
X190902036Y-148220000D01*
X190902036Y-148220000D02*
X189050000Y-148220000D01*
X199310000Y-148777966D02*
X197098026Y-150989940D01*
X208199568Y-140699568D02*
X200260183Y-140699568D01*
X212300000Y-144800000D02*
X208199568Y-140699568D01*
X200260183Y-140699568D02*
X199631566Y-140699568D01*
X200937756Y-146436281D02*
X201655015Y-145719022D01*
X201655015Y-145719022D02*
X202480978Y-145719022D01*
X202480978Y-145719022D02*
X203055503Y-145144497D01*
X203055503Y-145144497D02*
X203055503Y-144844499D01*
X203055503Y-144844499D02*
X203500002Y-144400000D01*
X179040000Y-143160000D02*
X173000000Y-149200000D01*
X189600000Y-143160000D02*
X179040000Y-143160000D01*
X191510000Y-143160000D02*
X189600000Y-143160000D01*
X193135000Y-141535000D02*
X191510000Y-143160000D01*
X194355572Y-140314428D02*
X193135000Y-141535000D01*
X194355572Y-140298296D02*
X194355572Y-140314428D01*
X189600000Y-143160000D02*
X189600000Y-143000000D01*
X190600000Y-142000000D02*
X191000000Y-142000000D01*
X189600000Y-143000000D02*
X190600000Y-142000000D01*
X199464561Y-141440499D02*
X198814623Y-141440499D01*
X210800000Y-144800000D02*
X207800000Y-141800000D01*
X199824062Y-141800000D02*
X199464561Y-141440499D01*
X198814623Y-141440499D02*
X198437062Y-141062938D01*
X207800000Y-141800000D02*
X199824062Y-141800000D01*
X179040000Y-146610000D02*
X179040000Y-148910000D01*
X180520000Y-145130000D02*
X179040000Y-146610000D01*
X192370000Y-145130000D02*
X180520000Y-145130000D01*
X195818280Y-141681720D02*
X192370000Y-145130000D01*
X195818280Y-141662293D02*
X195818280Y-141681720D01*
X209500000Y-144800000D02*
X207000000Y-142300000D01*
X199628617Y-142300000D02*
X199528617Y-142200000D01*
X207000000Y-142300000D02*
X199628617Y-142300000D01*
X199528617Y-142200000D02*
X198900000Y-142200000D01*
X198271383Y-142200000D02*
X198900000Y-142200000D01*
X198271383Y-142171383D02*
X198271383Y-142200000D01*
X196990013Y-140890013D02*
X198271383Y-142171383D01*
X196590560Y-140890013D02*
X196990013Y-140890013D01*
X195818280Y-141662293D02*
X196590560Y-140890013D01*
X183120000Y-151951383D02*
X183120000Y-152580000D01*
X183120000Y-148900000D02*
X183120000Y-151951383D01*
X191000000Y-147130000D02*
X184890000Y-147130000D01*
X194019920Y-150149920D02*
X191000000Y-147130000D01*
X198280000Y-148620000D02*
X196750080Y-150149920D01*
X198280000Y-147680685D02*
X198280000Y-148620000D01*
X200206402Y-145754283D02*
X198280000Y-147680685D01*
X196750080Y-150149920D02*
X194019920Y-150149920D01*
X184890000Y-147130000D02*
X183120000Y-148900000D01*
X200206402Y-145754283D02*
X201001165Y-144959520D01*
X201001165Y-144959520D02*
X201471383Y-144959520D01*
X201471383Y-144959520D02*
X202100000Y-144959520D01*
X207432577Y-146158873D02*
X208061194Y-146158873D01*
X206858873Y-146158873D02*
X207432577Y-146158873D01*
X205700000Y-145000000D02*
X206858873Y-146158873D01*
X199260018Y-153079982D02*
X194680018Y-153079982D01*
X194680018Y-153079982D02*
X193070000Y-154690000D01*
X193070000Y-154690000D02*
X193070000Y-157210000D01*
X193070000Y-157210000D02*
X192440000Y-157840000D01*
X203497494Y-148842506D02*
X199260018Y-153079982D01*
X203497494Y-148823275D02*
X203497494Y-148842506D01*
X203497494Y-148823275D02*
X203497494Y-148772506D01*
X203497494Y-148772506D02*
X205062208Y-147207792D01*
X206317944Y-147207792D02*
X206501259Y-147391107D01*
X206501259Y-147391107D02*
X206945758Y-147835606D01*
X205062208Y-147207792D02*
X206317944Y-147207792D01*
X203372495Y-148948274D02*
X203497494Y-148823275D01*
X198400000Y-154100000D02*
X198725000Y-154100000D01*
X198725000Y-154100000D02*
X199315000Y-153510000D01*
X199315000Y-153510000D02*
X198800000Y-153510000D01*
X198800000Y-153510000D02*
X196358617Y-153510000D01*
X196358617Y-153510000D02*
X194608617Y-155260000D01*
X194608617Y-155260000D02*
X193980000Y-155260000D01*
X199517446Y-153510000D02*
X199315000Y-153510000D01*
X203863171Y-149164275D02*
X199517446Y-153510000D01*
X198870000Y-157030000D02*
X198870000Y-157730000D01*
X205325878Y-150574122D02*
X198870000Y-157030000D01*
X205325878Y-150528271D02*
X205325878Y-150574122D01*
X206676752Y-149772623D02*
X207434256Y-149015119D01*
X207434256Y-149015119D02*
X207484294Y-149015119D01*
X205325878Y-150528271D02*
X206081526Y-149772623D01*
X206081526Y-149772623D02*
X206676752Y-149772623D01*
X207484294Y-149015119D02*
X207799412Y-148700000D01*
X207925819Y-148700000D02*
X208481682Y-149255863D01*
X207799412Y-148700000D02*
X207925819Y-148700000D01*
X208481682Y-149255863D02*
X208926181Y-149700362D01*
X202985501Y-157155501D02*
X203430000Y-157600000D01*
X202985501Y-154282001D02*
X202985501Y-157155501D01*
X206057232Y-151210270D02*
X202985501Y-154282001D01*
X207571181Y-149696321D02*
X207827177Y-149696321D01*
X206057232Y-151210270D02*
X207571181Y-149696321D01*
X210039295Y-151778751D02*
X210711353Y-152450809D01*
X210711353Y-152450809D02*
X210711353Y-157760739D01*
X210711353Y-157760739D02*
X210266854Y-158205238D01*
X209685683Y-149354146D02*
X209272297Y-148940760D01*
X209685683Y-150064924D02*
X209685683Y-149354146D01*
X209300000Y-151039456D02*
X209300000Y-150450607D01*
X209272297Y-148940760D02*
X209218511Y-148940760D01*
X209218511Y-148940760D02*
X208850997Y-148573246D01*
X208850997Y-148573246D02*
X208850997Y-148176519D01*
X209300000Y-150450607D02*
X209685683Y-150064924D01*
X210039295Y-151778751D02*
X209300000Y-151039456D01*
X208850997Y-148176519D02*
X208850997Y-147547902D01*
X215980000Y-157170000D02*
X215980000Y-157550000D01*
X213790000Y-154980000D02*
X215980000Y-157170000D01*
X213790000Y-151940000D02*
X213790000Y-154980000D01*
X211800366Y-149950366D02*
X213790000Y-151940000D01*
X211744291Y-149950366D02*
X211800366Y-149950366D01*
X210067535Y-148273610D02*
X209676329Y-148273610D01*
X211744291Y-149950366D02*
X210067535Y-148273610D01*
X222660000Y-155870000D02*
X223400000Y-156610000D01*
X220170000Y-155870000D02*
X222660000Y-155870000D01*
X216540000Y-152240000D02*
X220170000Y-155870000D01*
X216540000Y-151190000D02*
X216540000Y-152240000D01*
X213471982Y-148121982D02*
X216540000Y-151190000D01*
X213449287Y-148121982D02*
X213471982Y-148121982D01*
X211428991Y-147199626D02*
X210800374Y-147199626D01*
X213449287Y-148121982D02*
X212526931Y-147199626D01*
X212526931Y-147199626D02*
X211428991Y-147199626D01*
X227640000Y-151110000D02*
X231290000Y-154760000D01*
X221060000Y-151110000D02*
X227640000Y-151110000D01*
X220570000Y-150620000D02*
X221060000Y-151110000D01*
X220570000Y-150150000D02*
X220570000Y-150620000D01*
X218970000Y-148550000D02*
X220570000Y-150150000D01*
X218970000Y-147250000D02*
X218970000Y-148550000D01*
X216550891Y-144830891D02*
X218970000Y-147250000D01*
X216518280Y-144830891D02*
X216550891Y-144830891D01*
X214500000Y-144400000D02*
X214800000Y-144100000D01*
X214800000Y-144100000D02*
X215787389Y-144100000D01*
X215787389Y-144100000D02*
X216518280Y-144830891D01*
X218564275Y-142636829D02*
X220147446Y-144220000D01*
X223451383Y-144220000D02*
X230361383Y-151130000D01*
X220147446Y-144220000D02*
X223451383Y-144220000D01*
X230361383Y-151130000D02*
X230990000Y-151130000D01*
X218223275Y-143002506D02*
X219920769Y-144700000D01*
X234079455Y-153441547D02*
X234523954Y-153886046D01*
X219920769Y-144700000D02*
X223237944Y-144700000D01*
X232527409Y-151889501D02*
X234079455Y-153441547D01*
X223237944Y-144700000D02*
X230427445Y-151889501D01*
X230427445Y-151889501D02*
X232527409Y-151889501D01*
X225820000Y-152160000D02*
X228780000Y-155120000D01*
X220520000Y-152160000D02*
X225820000Y-152160000D01*
X219430000Y-151070000D02*
X220520000Y-152160000D01*
X219430000Y-150490000D02*
X219430000Y-151070000D01*
X217930000Y-148990000D02*
X219430000Y-150490000D01*
X217930000Y-147610000D02*
X217930000Y-148990000D01*
X215882244Y-145562244D02*
X217930000Y-147610000D01*
X215836281Y-145562244D02*
X215882244Y-145562244D01*
X220280000Y-157400000D02*
X220800000Y-157400000D01*
X215470000Y-152590000D02*
X220280000Y-157400000D01*
X215470000Y-151520000D02*
X215470000Y-152590000D01*
X212803336Y-148853336D02*
X215470000Y-151520000D01*
X212767289Y-148853336D02*
X212803336Y-148853336D01*
X213980000Y-156240000D02*
X213980000Y-157690000D01*
X213200000Y-155460000D02*
X213980000Y-156240000D01*
X213200000Y-152050000D02*
X213200000Y-155460000D01*
X211466043Y-150316043D02*
X213200000Y-152050000D01*
X211403292Y-150316043D02*
X211466043Y-150316043D01*
X176800000Y-146820000D02*
X176800000Y-150610000D01*
X179470000Y-144150000D02*
X176800000Y-146820000D01*
X191930000Y-144150000D02*
X179470000Y-144150000D01*
X195086926Y-140993074D02*
X191930000Y-144150000D01*
X195086926Y-140980294D02*
X195086926Y-140993074D01*
X181110000Y-147190000D02*
X181110000Y-149150000D01*
X182200000Y-146100000D02*
X181110000Y-147190000D01*
X193520000Y-146100000D02*
X182200000Y-146100000D01*
X196915310Y-142704690D02*
X193520000Y-146100000D01*
X196915310Y-142685290D02*
X196915310Y-142704690D01*
X195452603Y-141321293D02*
X195452603Y-141397397D01*
X178250000Y-163765400D02*
X178603180Y-164118580D01*
X177610000Y-155000000D02*
X178250000Y-155640000D01*
X178250000Y-155640000D02*
X178250000Y-163765400D01*
X177870000Y-146600000D02*
X177870000Y-149670000D01*
X179810000Y-144660000D02*
X177870000Y-146600000D01*
X192190000Y-144660000D02*
X179810000Y-144660000D01*
X195452603Y-141397397D02*
X192190000Y-144660000D01*
X177610000Y-154050000D02*
X177610000Y-155000000D01*
X175750000Y-163805400D02*
X176063180Y-164118580D01*
X175750000Y-156090000D02*
X175750000Y-163805400D01*
X174910000Y-155250000D02*
X175750000Y-156090000D01*
X174910000Y-155190000D02*
X174910000Y-155250000D01*
X174330000Y-154610000D02*
X174910000Y-155190000D01*
X174470000Y-148440000D02*
X174470000Y-150630000D01*
X179240000Y-143670000D02*
X174470000Y-148440000D01*
X191710000Y-143670000D02*
X179240000Y-143670000D01*
X191830000Y-143550000D02*
X191710000Y-143670000D01*
X191830000Y-143540000D02*
X191830000Y-143550000D01*
X194721249Y-140648751D02*
X191830000Y-143540000D01*
X194721249Y-140639295D02*
X194721249Y-140648751D01*
X198944113Y-152669980D02*
X194406037Y-152669980D01*
X203131817Y-148482276D02*
X198944113Y-152669980D01*
X194406037Y-152669980D02*
X192160000Y-154916017D01*
X192160000Y-154916017D02*
X192160000Y-155460000D01*
X209842768Y-125889730D02*
X212601575Y-123130923D01*
X212601575Y-123130923D02*
X215169073Y-123130923D01*
X215169073Y-123130923D02*
X216269531Y-122030465D01*
X216269531Y-122030465D02*
X224230465Y-122030465D01*
X224230465Y-122030465D02*
X224505501Y-122305501D01*
X224505501Y-122305501D02*
X224950000Y-122750000D01*
X212888241Y-123550934D02*
X215343047Y-123550934D01*
X216443505Y-122450476D02*
X223156520Y-122450476D01*
X224152037Y-123445993D02*
X224596536Y-123890492D01*
X223156520Y-122450476D02*
X224152037Y-123445993D01*
X210208445Y-126230730D02*
X212888241Y-123550934D01*
X215343047Y-123550934D02*
X216443505Y-122450476D01*
X215517021Y-123970945D02*
X216617479Y-122870487D01*
X225247425Y-124424173D02*
X225691924Y-123979674D01*
X224982994Y-124688604D02*
X225247425Y-124424173D01*
X216617479Y-122870487D02*
X217888536Y-122870487D01*
X217888536Y-122870487D02*
X219706653Y-124688604D01*
X219706653Y-124688604D02*
X224982994Y-124688604D01*
X213174906Y-123970945D02*
X215517021Y-123970945D01*
X210574122Y-126571729D02*
X213174906Y-123970945D01*
X210574122Y-126571729D02*
X209623429Y-127522422D01*
X208757623Y-127522422D02*
X208129006Y-127522422D01*
X209623429Y-127522422D02*
X208757623Y-127522422D01*
X213461571Y-124390956D02*
X215690995Y-124390956D01*
X217714562Y-123290498D02*
X219880919Y-125456855D01*
X216791453Y-123290498D02*
X217714562Y-123290498D01*
X210939799Y-126912728D02*
X213461571Y-124390956D01*
X225623450Y-125456855D02*
X226067949Y-125012356D01*
X215690995Y-124390956D02*
X216791453Y-123290498D01*
X219880919Y-125456855D02*
X225623450Y-125456855D01*
X216625936Y-124050000D02*
X216721383Y-124050000D01*
X216721383Y-124050000D02*
X217350000Y-124050000D01*
X211305476Y-127253727D02*
X213748236Y-124810967D01*
X213748236Y-124810967D02*
X215864969Y-124810967D01*
X215864969Y-124810967D02*
X216625936Y-124050000D01*
X207300000Y-129500000D02*
X207300000Y-135100000D01*
X208700000Y-128100000D02*
X207300000Y-129500000D01*
X210500000Y-128100000D02*
X208700000Y-128100000D01*
X211305476Y-127294524D02*
X210500000Y-128100000D01*
X211305476Y-127253727D02*
X211305476Y-127294524D01*
X207300000Y-135100000D02*
X208600000Y-136400000D01*
X211671153Y-127594726D02*
X214034901Y-125230978D01*
X216569022Y-125230978D02*
X216750000Y-125050000D01*
X214034901Y-125230978D02*
X216569022Y-125230978D01*
X211671153Y-127594726D02*
X211671153Y-127628847D01*
X208100000Y-134800000D02*
X208100000Y-134400000D01*
X208600000Y-131100000D02*
X208100000Y-131600000D01*
X208100000Y-131600000D02*
X208100000Y-134400000D01*
X211671153Y-127628847D02*
X210600000Y-128700000D01*
X208600000Y-129300000D02*
X208600000Y-130900000D01*
X209200000Y-128700000D02*
X208600000Y-129300000D01*
X210600000Y-128700000D02*
X209200000Y-128700000D01*
X208600000Y-130900000D02*
X208600000Y-131100000D01*
X229750310Y-126191809D02*
X229750310Y-126498254D01*
X228661082Y-125102581D02*
X229750310Y-126191809D01*
X212402506Y-128276725D02*
X213929231Y-126750000D01*
X227051848Y-125102581D02*
X228661082Y-125102581D01*
X225404429Y-126750000D02*
X227051848Y-125102581D01*
X213929231Y-126750000D02*
X225404429Y-126750000D01*
X208900000Y-132400000D02*
X208900000Y-134600000D01*
X208900000Y-134600000D02*
X209155501Y-134855501D01*
X209155501Y-134855501D02*
X209600000Y-135300000D01*
X227225822Y-125522592D02*
X227982778Y-125522592D01*
X212768183Y-128617724D02*
X214134920Y-127250987D01*
X214134920Y-127250987D02*
X225497427Y-127250987D01*
X225497427Y-127250987D02*
X227225822Y-125522592D01*
X228266404Y-125806218D02*
X228710903Y-126250717D01*
X227982778Y-125522592D02*
X228266404Y-125806218D01*
X210000000Y-134203552D02*
X210113665Y-134317217D01*
X210000000Y-133200000D02*
X210000000Y-134203552D01*
X210113665Y-134317217D02*
X210558164Y-134761716D01*
X226080673Y-127791803D02*
X227145884Y-126726592D01*
X213133860Y-128958723D02*
X214300780Y-127791803D01*
X227145884Y-126726592D02*
X227590383Y-126282093D01*
X214300780Y-127791803D02*
X226080673Y-127791803D01*
X227405501Y-127794499D02*
X227850000Y-127350000D01*
X213499537Y-129299722D02*
X214549259Y-128250000D01*
X226950000Y-128250000D02*
X227405501Y-127794499D01*
X214549259Y-128250000D02*
X226950000Y-128250000D01*
X217887659Y-133391712D02*
X217284872Y-133994499D01*
X213523114Y-133994499D02*
X213378615Y-133850000D01*
X213378615Y-133850000D02*
X212749998Y-133850000D01*
X217284872Y-133994499D02*
X213523114Y-133994499D01*
X230605501Y-131894499D02*
X231050000Y-131450000D01*
X229650000Y-132850000D02*
X230605501Y-131894499D01*
X224250000Y-132850000D02*
X229650000Y-132850000D01*
X220736047Y-131250000D02*
X222650000Y-131250000D01*
X218253336Y-133732711D02*
X220736047Y-131250000D01*
X222650000Y-131250000D02*
X224250000Y-132850000D01*
X230721383Y-133350000D02*
X231422648Y-132648735D01*
X223950000Y-133350000D02*
X230721383Y-133350000D01*
X222350000Y-131750000D02*
X223950000Y-133350000D01*
X218619013Y-134073711D02*
X220942724Y-131750000D01*
X231422648Y-132648735D02*
X231496718Y-132648735D01*
X231496718Y-132648735D02*
X232125335Y-132648735D01*
X220942724Y-131750000D02*
X222350000Y-131750000D01*
X218984690Y-134414710D02*
X220849400Y-132550000D01*
X231321383Y-133850000D02*
X231421383Y-133750000D01*
X220849400Y-132550000D02*
X222556028Y-132550000D01*
X222556028Y-132550000D02*
X223856028Y-133850000D01*
X223856028Y-133850000D02*
X231321383Y-133850000D01*
X231421383Y-133750000D02*
X232050000Y-133750000D01*
X220081720Y-135437707D02*
X220081720Y-135418280D01*
X221450000Y-134050000D02*
X220081720Y-135418280D01*
X230970002Y-135370002D02*
X231450000Y-135850000D01*
X223176030Y-135370002D02*
X230970002Y-135370002D01*
X221856028Y-134050000D02*
X223176030Y-135370002D01*
X221450000Y-134050000D02*
X221856028Y-134050000D01*
X220447397Y-135778707D02*
X219857906Y-136368198D01*
X214747302Y-134821064D02*
X214118685Y-134821064D01*
X217321068Y-134821064D02*
X214747302Y-134821064D01*
X219857906Y-136368198D02*
X218868202Y-136368198D01*
X218868202Y-136368198D02*
X217321068Y-134821064D01*
X214375473Y-135855264D02*
X213746856Y-135855264D01*
X215308418Y-136788209D02*
X214375473Y-135855264D01*
X220144571Y-136788209D02*
X215308418Y-136788209D01*
X220813074Y-136119706D02*
X220144571Y-136788209D01*
X214876224Y-136950000D02*
X214178617Y-136950000D01*
X214178617Y-136950000D02*
X213550000Y-136950000D01*
X221178751Y-136460705D02*
X220431236Y-137208220D01*
X220431236Y-137208220D02*
X215134444Y-137208220D01*
X215134444Y-137208220D02*
X214876224Y-136950000D01*
X215314711Y-137628231D02*
X215210749Y-137732193D01*
X221544428Y-136801704D02*
X220717901Y-137628231D01*
X215210749Y-137732193D02*
X214582132Y-137732193D01*
X220717901Y-137628231D02*
X215314711Y-137628231D01*
X229150000Y-136850000D02*
X229750000Y-136250000D01*
X229150000Y-138650000D02*
X229150000Y-136850000D01*
X226650000Y-141150000D02*
X229150000Y-138650000D01*
X222050000Y-141150000D02*
X226650000Y-141150000D01*
X220977092Y-140077092D02*
X222050000Y-141150000D01*
X220951269Y-140077092D02*
X220977092Y-140077092D01*
X228250000Y-138550000D02*
X226150000Y-140650000D01*
X226150000Y-140650000D02*
X222230853Y-140650000D01*
X222230853Y-140650000D02*
X221292268Y-139711415D01*
X228250000Y-137150000D02*
X228250000Y-138550000D01*
X194759203Y-133300000D02*
X196653727Y-135194524D01*
X191890000Y-133300000D02*
X194759203Y-133300000D01*
X196994726Y-134824726D02*
X196994726Y-134828847D01*
X195040000Y-132870000D02*
X196994726Y-134824726D01*
X192700000Y-132870000D02*
X195040000Y-132870000D01*
X191850000Y-132020000D02*
X192700000Y-132870000D01*
X191850000Y-132010000D02*
X191850000Y-132020000D01*
X197335725Y-134463171D02*
X197323171Y-134463171D01*
X194790000Y-131930000D02*
X193740000Y-131930000D01*
X197323171Y-134463171D02*
X194790000Y-131930000D01*
X208700000Y-138000000D02*
X208800000Y-138000000D01*
X208800000Y-138000000D02*
X208800000Y-137860436D01*
X208800000Y-137860436D02*
X208900000Y-137760436D01*
X199740498Y-136867944D02*
X197919400Y-135046846D01*
X197919400Y-135046846D02*
X197335725Y-134463171D01*
X208800000Y-138000000D02*
X208700055Y-138099945D01*
X200866004Y-137840018D02*
X199740502Y-137840018D01*
X199740502Y-137840018D02*
X199740498Y-137840014D01*
X208700055Y-138099945D02*
X201125928Y-138099945D01*
X201125928Y-138099945D02*
X200866004Y-137840018D01*
X199740498Y-137840014D02*
X199740498Y-136867944D01*
X195750000Y-130750000D02*
X195750000Y-131464093D01*
X195750000Y-131464093D02*
X198017724Y-133731817D01*
X201599259Y-135900000D02*
X201800000Y-135900000D01*
X198699722Y-133000463D02*
X201599259Y-135900000D01*
X202442004Y-135290154D02*
X202886503Y-135734653D01*
X199040721Y-132634786D02*
X201546434Y-135140499D01*
X201546434Y-135140499D02*
X202164561Y-135140499D01*
X202164561Y-135140499D02*
X202314216Y-135290154D01*
X202314216Y-135290154D02*
X202442004Y-135290154D01*
X199381720Y-132269109D02*
X201640116Y-134527505D01*
X201640116Y-134527505D02*
X201984395Y-134527505D01*
X201984395Y-134527505D02*
X202613012Y-134527505D01*
X203110756Y-133878117D02*
X203499648Y-133878117D01*
X200404718Y-131172079D02*
X203110756Y-133878117D01*
X204416113Y-133670518D02*
X204578875Y-133670518D01*
X201086716Y-130440725D02*
X203764606Y-133118615D01*
X203864210Y-133118615D02*
X204416113Y-133670518D01*
X203764606Y-133118615D02*
X203864210Y-133118615D01*
X204239580Y-132900000D02*
X205375000Y-132900000D01*
X203966733Y-132698604D02*
X204038184Y-132698604D01*
X201427716Y-130075048D02*
X201552715Y-130200047D01*
X205375000Y-132900000D02*
X205525000Y-133050000D01*
X204038184Y-132698604D02*
X204239580Y-132900000D01*
X201552715Y-130284586D02*
X203966733Y-132698604D01*
X201552715Y-130200047D02*
X201552715Y-130284586D01*
X201768715Y-129709371D02*
X204073013Y-132013669D01*
X204073013Y-132013669D02*
X204405860Y-132013669D01*
X205255647Y-131076276D02*
X205255647Y-131511383D01*
X202791712Y-128612341D02*
X205255647Y-131076276D01*
X205255647Y-131511383D02*
X205504782Y-131760518D01*
X203132711Y-128246664D02*
X205696600Y-130810553D01*
X205696600Y-130810553D02*
X206057406Y-130810553D01*
X203473711Y-127880987D02*
X205322929Y-129730205D01*
X205322929Y-129730205D02*
X205855722Y-129730205D01*
X203814710Y-127515310D02*
X204960206Y-128660806D01*
X204960206Y-128660806D02*
X205480510Y-128660806D01*
X205480510Y-128660806D02*
X206109127Y-128660806D01*
X202622909Y-126877091D02*
X201826296Y-126877091D01*
X203050000Y-126450000D02*
X202622909Y-126877091D01*
X203450000Y-126450000D02*
X203050000Y-126450000D01*
X204149634Y-127149634D02*
X203450000Y-126450000D01*
X204155709Y-127149634D02*
X204149634Y-127149634D01*
X204496708Y-126783957D02*
X204483957Y-126783957D01*
X204483957Y-126783957D02*
X204496708Y-126783957D01*
X203150000Y-125650000D02*
X203350000Y-125650000D01*
X203350000Y-125650000D02*
X204483957Y-126783957D01*
X202550000Y-125650000D02*
X203150000Y-125650000D01*
X204837707Y-126418280D02*
X204818280Y-126418280D01*
X201608432Y-125391568D02*
X201188170Y-125391568D01*
X202150000Y-124850000D02*
X201608432Y-125391568D01*
X203250000Y-124850000D02*
X202150000Y-124850000D01*
X204818280Y-126418280D02*
X203250000Y-124850000D01*
X204837707Y-126418280D02*
X204818280Y-126418280D01*
X204837707Y-126418280D02*
X206320731Y-127901304D01*
X206473689Y-127901304D02*
X206868629Y-128296244D01*
X206868629Y-135731371D02*
X206544499Y-136055501D01*
X206544499Y-136055501D02*
X206100000Y-136500000D01*
X206868629Y-128296244D02*
X206868629Y-135731371D01*
X206320731Y-127901304D02*
X206473689Y-127901304D01*
X196450000Y-125250000D02*
X196450000Y-124450000D01*
X196450000Y-124450000D02*
X197550000Y-123350000D01*
X207450000Y-125350000D02*
X207450000Y-123350000D01*
X208050000Y-125950000D02*
X207450000Y-125350000D01*
X208350000Y-125950000D02*
X208050000Y-125950000D01*
X207450000Y-123350000D02*
X207650000Y-123150000D01*
X209092268Y-125207732D02*
X208350000Y-125950000D01*
X209111415Y-125207732D02*
X209092268Y-125207732D01*
X208425823Y-126600000D02*
X208128617Y-126600000D01*
X209477092Y-125548731D02*
X208425823Y-126600000D01*
X208128617Y-126600000D02*
X207500000Y-126600000D01*
X231970000Y-149070000D02*
X239060000Y-156160000D01*
X220870000Y-142790000D02*
X224110000Y-142790000D01*
X230390000Y-149070000D02*
X231970000Y-149070000D01*
X219619799Y-141539799D02*
X220870000Y-142790000D01*
X242010000Y-156160000D02*
X244643180Y-158793180D01*
X224110000Y-142790000D02*
X230390000Y-149070000D01*
X244643180Y-158793180D02*
X244643180Y-164118580D01*
X219587272Y-141539799D02*
X219619799Y-141539799D01*
X239060000Y-156160000D02*
X242010000Y-156160000D01*
X218905274Y-142271153D02*
X220314130Y-143680009D01*
X220314130Y-143680009D02*
X223650009Y-143680009D01*
X231902032Y-150190000D02*
X238712052Y-157000022D01*
X230160000Y-150190000D02*
X231902032Y-150190000D01*
X238712052Y-157000022D02*
X239712054Y-157000022D01*
X242103180Y-159391148D02*
X242103180Y-160758980D01*
X223650009Y-143680009D02*
X230160000Y-150190000D01*
X242103180Y-160758980D02*
X242103180Y-164118580D01*
X239712054Y-157000022D02*
X242103180Y-159391148D01*
X214962244Y-130663719D02*
X214936281Y-130663719D01*
X224650000Y-137150000D02*
X226050000Y-137150000D01*
X214050000Y-131550000D02*
X212850000Y-131550000D01*
X214050000Y-131550000D02*
X214936281Y-130663719D01*
X225950000Y-139650000D02*
X224150000Y-139650000D01*
X227450000Y-138150000D02*
X225950000Y-139650000D01*
X227450000Y-137650000D02*
X227450000Y-138150000D01*
X226750000Y-136950000D02*
X227450000Y-137650000D01*
X226250000Y-136950000D02*
X226750000Y-136950000D01*
X226050000Y-137150000D02*
X226250000Y-136950000D01*
X232250000Y-148550000D02*
X230650000Y-148550000D01*
X230650000Y-148550000D02*
X228500000Y-146400000D01*
X237023180Y-158776820D02*
X238050000Y-157750000D01*
X237023180Y-164118580D02*
X237023180Y-158776820D01*
X237850000Y-153650000D02*
X237350000Y-153650000D01*
X228500000Y-146100000D02*
X228950000Y-145650000D01*
X228500000Y-146400000D02*
X228500000Y-146100000D01*
X237350000Y-153650000D02*
X232250000Y-148550000D01*
X228950000Y-143650000D02*
X228294499Y-142994499D01*
X228950000Y-145650000D02*
X228950000Y-143650000D01*
X228294499Y-142994499D02*
X227850000Y-142550000D01*
X219387425Y-145580008D02*
X222929988Y-145580008D01*
X217541277Y-143733860D02*
X219387425Y-145580008D01*
X230079501Y-152729521D02*
X230339521Y-152729521D01*
X222929988Y-145580008D02*
X230079501Y-152729521D01*
X230339521Y-152729521D02*
X234483180Y-156873180D01*
X234483180Y-156873180D02*
X234483180Y-160758980D01*
X234483180Y-160758980D02*
X234483180Y-164118580D01*
X231943180Y-156723180D02*
X231943180Y-164118580D01*
X226830000Y-151610000D02*
X231943180Y-156723180D01*
X220760000Y-151610000D02*
X226830000Y-151610000D01*
X219960000Y-150810000D02*
X220760000Y-151610000D01*
X219960000Y-150260000D02*
X219960000Y-150810000D01*
X218470000Y-148770000D02*
X219960000Y-150260000D01*
X218470000Y-147440000D02*
X218470000Y-148770000D01*
X216226567Y-145196567D02*
X218470000Y-147440000D01*
X216177280Y-145196567D02*
X216226567Y-145196567D01*
X180500000Y-125500000D02*
X182550000Y-127550000D01*
X180500000Y-125370000D02*
X180500000Y-125500000D01*
X185050000Y-132930000D02*
X185160000Y-133040000D01*
X185050000Y-130050000D02*
X185050000Y-132930000D01*
X182550000Y-127550000D02*
X182950000Y-127950000D01*
X182950000Y-127950000D02*
X185050000Y-130050000D01*
X195556016Y-126250000D02*
X190050000Y-126250000D01*
X199722720Y-131903433D02*
X197376026Y-129556739D01*
X189794499Y-126505501D02*
X189350000Y-126950000D01*
X197376026Y-129556739D02*
X197376026Y-128070011D01*
X197376026Y-128070011D02*
X195556016Y-126250000D01*
X190050000Y-126250000D02*
X189794499Y-126505501D01*
X187680000Y-127880000D02*
X187680000Y-133040000D01*
X186750000Y-126950000D02*
X187680000Y-127880000D01*
X185580000Y-125780000D02*
X186750000Y-126950000D01*
X185580000Y-125370000D02*
X185580000Y-125780000D01*
X191250000Y-122450000D02*
X186750000Y-126950000D01*
X205178707Y-126052603D02*
X201576104Y-122450000D01*
X201576104Y-122450000D02*
X191250000Y-122450000D01*
X178800000Y-129900000D02*
X179890000Y-130990000D01*
X175420000Y-126520000D02*
X178800000Y-129900000D01*
X179890000Y-130990000D02*
X179890000Y-133040000D01*
X175420000Y-125370000D02*
X175420000Y-126520000D01*
X209060685Y-140200000D02*
X200256060Y-140200000D01*
X199996127Y-139940067D02*
X198435869Y-139940067D01*
X195006015Y-139200000D02*
X193928617Y-139200000D01*
X193928617Y-139200000D02*
X193728617Y-139000000D01*
X196146513Y-140340498D02*
X195006015Y-139200000D01*
X214570608Y-145709923D02*
X214570608Y-145646544D01*
X198035438Y-140340498D02*
X196146513Y-140340498D01*
X198435869Y-139940067D02*
X198035438Y-140340498D01*
X214570608Y-145646544D02*
X213264562Y-144340498D01*
X214570608Y-145709923D02*
X215154283Y-146293598D01*
X213264562Y-144340498D02*
X213201183Y-144340498D01*
X193728617Y-139000000D02*
X193100000Y-139000000D01*
X200256060Y-140200000D02*
X199996127Y-139940067D01*
X213201183Y-144340498D02*
X209060685Y-140200000D01*
X188600000Y-129200000D02*
X188600000Y-130840480D01*
X188600000Y-130840480D02*
X189415021Y-131655501D01*
X189415021Y-131655501D02*
X189859520Y-132100000D01*
X179950000Y-128550000D02*
X182560000Y-131160000D01*
X182560000Y-131160000D02*
X182560000Y-133040000D01*
X177960000Y-126560000D02*
X179950000Y-128550000D01*
X177960000Y-125370000D02*
X177960000Y-126560000D01*
X197861464Y-139920487D02*
X196320487Y-139920487D01*
X200416138Y-139766093D02*
X200170101Y-139520056D01*
X220269270Y-140808445D02*
X219510825Y-140050000D01*
X209234659Y-139779989D02*
X200430033Y-139779989D01*
X219510825Y-140050000D02*
X209504670Y-140050000D01*
X209504670Y-140050000D02*
X209234659Y-139779989D01*
X200170101Y-139520056D02*
X198261895Y-139520056D01*
X198261895Y-139520056D02*
X197861464Y-139920487D01*
X196320487Y-139920487D02*
X195140498Y-138740498D01*
X192600000Y-136928617D02*
X192600000Y-136300000D01*
X200430033Y-139779989D02*
X200416138Y-139766093D01*
X195140498Y-138740498D02*
X194411881Y-138740498D01*
X194411881Y-138740498D02*
X192600000Y-136928617D01*
X189500000Y-128500000D02*
X190800000Y-129800000D01*
X190800000Y-129800000D02*
X190800000Y-130100000D01*
X189500000Y-128300000D02*
X189500000Y-128500000D01*
X201490000Y-155090000D02*
X201490000Y-157600000D01*
X205691555Y-150888445D02*
X201490000Y-155090000D01*
X205691555Y-150869270D02*
X205691555Y-150888445D01*
X205359798Y-157207983D02*
X205804297Y-157652482D01*
X206788585Y-151892268D02*
X204390010Y-154290843D01*
X204390010Y-156238195D02*
X205359798Y-157207983D01*
X204390010Y-154290843D02*
X204390010Y-156238195D01*
X180820000Y-163795400D02*
X181143180Y-164118580D01*
X180820000Y-154080000D02*
X180820000Y-163795400D01*
X179950000Y-153210000D02*
X180820000Y-154080000D01*
X179970000Y-146790000D02*
X179970000Y-150510000D01*
X181130000Y-145630000D02*
X179970000Y-146790000D01*
X192570000Y-145630000D02*
X181130000Y-145630000D01*
X196183957Y-142016043D02*
X192570000Y-145630000D01*
X196183957Y-142003292D02*
X196183957Y-142016043D01*
X183310000Y-163745400D02*
X183683180Y-164118580D01*
X183310000Y-154130000D02*
X183310000Y-163745400D01*
X182140000Y-152960000D02*
X183310000Y-154130000D01*
X182140000Y-148330000D02*
X182140000Y-152960000D01*
X183910000Y-146560000D02*
X182140000Y-148330000D01*
X193770000Y-146560000D02*
X183910000Y-146560000D01*
X197280987Y-143049013D02*
X193770000Y-146560000D01*
X197280987Y-143026289D02*
X197280987Y-143049013D01*
X196924053Y-150569930D02*
X193845947Y-150569930D01*
X185640000Y-150310000D02*
X185640000Y-155720000D01*
X198810000Y-148683983D02*
X196924053Y-150569930D01*
X200572079Y-146095282D02*
X198810000Y-147857361D01*
X198810000Y-147857361D02*
X198810000Y-148683983D01*
X185860000Y-155940000D02*
X185860000Y-160395800D01*
X190926018Y-147650000D02*
X188300000Y-147650000D01*
X188300000Y-147650000D02*
X185640000Y-150310000D01*
X185640000Y-155720000D02*
X185860000Y-155940000D01*
X185860000Y-160395800D02*
X186223180Y-160758980D01*
X193845947Y-150569930D02*
X190926018Y-147650000D01*
X186223180Y-160758980D02*
X186223180Y-164118580D01*
X201303433Y-146777280D02*
X199780000Y-148300713D01*
X199780000Y-148300713D02*
X199780000Y-148901949D01*
X199780000Y-148901949D02*
X197271999Y-151409950D01*
X197271999Y-151409950D02*
X193498001Y-151409950D01*
X193498001Y-151409950D02*
X192063051Y-149975000D01*
X188240000Y-155630000D02*
X188390000Y-155780000D01*
X188390000Y-155780000D02*
X188390000Y-156255798D01*
X188453601Y-157581801D02*
X188390000Y-157645402D01*
X188390000Y-160385800D02*
X188763180Y-160758980D01*
X192063051Y-149975000D02*
X189225000Y-149975000D01*
X188763180Y-160758980D02*
X188763180Y-164118580D01*
X189225000Y-149975000D02*
X188240000Y-150960000D01*
X188453601Y-156319399D02*
X188453601Y-157581801D01*
X188240000Y-150960000D02*
X188240000Y-155630000D01*
X188390000Y-156255798D02*
X188453601Y-156319399D01*
X188390000Y-157645402D02*
X188390000Y-160385800D01*
X202766140Y-148141277D02*
X198657447Y-152249970D01*
X198657447Y-152249970D02*
X194232064Y-152249970D01*
X194232064Y-152249970D02*
X191303180Y-155178854D01*
X191303180Y-160758980D02*
X191303180Y-164118580D01*
X191303180Y-155178854D02*
X191303180Y-160758980D01*
X216980000Y-157140000D02*
X217410000Y-157140000D01*
X214290000Y-154450000D02*
X216980000Y-157140000D01*
X214290000Y-151770000D02*
X214290000Y-154450000D01*
X212104690Y-149584690D02*
X214290000Y-151770000D01*
X212085290Y-149584690D02*
X212104690Y-149584690D01*
X223980000Y-153400000D02*
X225980000Y-155400000D01*
X220370000Y-153400000D02*
X223980000Y-153400000D01*
X218320000Y-151350000D02*
X220370000Y-153400000D01*
X218320000Y-150830000D02*
X218320000Y-151350000D01*
X214514952Y-147024952D02*
X218320000Y-150830000D01*
X214472284Y-147024952D02*
X214514952Y-147024952D01*
X217882276Y-143368183D02*
X219674091Y-145159998D01*
X231619511Y-152309511D02*
X231745501Y-152435501D01*
X230253473Y-152309511D02*
X231619511Y-152309511D01*
X223103960Y-145159998D02*
X230253473Y-152309511D01*
X231745501Y-152435501D02*
X232190000Y-152880000D01*
X219674091Y-145159998D02*
X223103960Y-145159998D01*
X219246273Y-141905476D02*
X219285476Y-141905476D01*
X219246273Y-141905476D02*
X220600795Y-143259998D01*
X220600795Y-143259998D02*
X223829998Y-143259998D01*
X231956016Y-149650000D02*
X238886026Y-156580011D01*
X238886026Y-156580011D02*
X240840011Y-156580011D01*
X240840011Y-156580011D02*
X241095501Y-156835501D01*
X241095501Y-156835501D02*
X241540000Y-157280000D01*
X230220000Y-149650000D02*
X231956016Y-149650000D01*
X223829998Y-143259998D02*
X230220000Y-149650000D01*
X229403180Y-157263180D02*
X229403180Y-164118580D01*
X224970000Y-152830000D02*
X229403180Y-157263180D01*
X220393972Y-152830000D02*
X224970000Y-152830000D01*
X218920000Y-151356028D02*
X220393972Y-152830000D01*
X218920000Y-150760000D02*
X218920000Y-151356028D01*
X214819275Y-146659275D02*
X218920000Y-150760000D01*
X214813284Y-146659275D02*
X214819275Y-146659275D01*
X226863180Y-157883180D02*
X226863180Y-164118580D01*
X223020000Y-154040000D02*
X226863180Y-157883180D01*
X220220000Y-154040000D02*
X223020000Y-154040000D01*
X217730000Y-151550000D02*
X220220000Y-154040000D01*
X217730000Y-150960000D02*
X217730000Y-151550000D01*
X214160629Y-147390629D02*
X217730000Y-150960000D01*
X214131285Y-147390629D02*
X214160629Y-147390629D01*
X224323180Y-158783180D02*
X224323180Y-164118580D01*
X221960000Y-156420000D02*
X224323180Y-158783180D01*
X220010000Y-156420000D02*
X221960000Y-156420000D01*
X216030000Y-152440000D02*
X220010000Y-156420000D01*
X216030000Y-151380000D02*
X216030000Y-152440000D01*
X213137659Y-148487659D02*
X216030000Y-151380000D01*
X213108288Y-148487659D02*
X213137659Y-148487659D01*
X221783180Y-159743180D02*
X221783180Y-164118580D01*
X214880000Y-152840000D02*
X221783180Y-159743180D01*
X214880000Y-151630000D02*
X214880000Y-152840000D01*
X212469013Y-149219013D02*
X214880000Y-151630000D01*
X212426289Y-149219013D02*
X212469013Y-149219013D01*
X236785000Y-124915000D02*
X236744499Y-124955501D01*
X238020000Y-124915000D02*
X236785000Y-124915000D01*
X236744499Y-124955501D02*
X236300000Y-125400000D01*
X195971729Y-135925878D02*
X195915878Y-135925878D01*
X209762651Y-139120011D02*
X216609136Y-139120011D01*
X216921385Y-138807762D02*
X217550002Y-138807762D01*
X216609136Y-139120011D02*
X216921385Y-138807762D01*
X195971729Y-135925878D02*
X198725886Y-138680035D01*
X209582607Y-138939967D02*
X209762651Y-139120011D01*
X198725886Y-138680035D02*
X200518051Y-138680035D01*
X200518051Y-138680035D02*
X200777981Y-138939967D01*
X200777981Y-138939967D02*
X209582607Y-138939967D01*
X230050000Y-123550000D02*
X230145000Y-123645000D01*
X230145000Y-123645000D02*
X232620000Y-123645000D01*
X215693598Y-131345717D02*
X214689315Y-132350000D01*
X212349996Y-132350000D02*
X210344495Y-130344499D01*
X214689315Y-132350000D02*
X212349996Y-132350000D01*
X210344495Y-130344499D02*
X209899996Y-129900000D01*
X234950000Y-122950000D02*
X234375000Y-122375000D01*
X234375000Y-122375000D02*
X232620000Y-122375000D01*
X200692027Y-138260026D02*
X200951954Y-138519956D01*
X200951954Y-138519956D02*
X209756581Y-138519956D01*
X225682651Y-138048242D02*
X225821383Y-137909510D01*
X209756581Y-138519956D02*
X209936625Y-138700000D01*
X209936625Y-138700000D02*
X216075936Y-138700000D01*
X216727694Y-138048242D02*
X225682651Y-138048242D01*
X196312728Y-135560201D02*
X196896403Y-136143876D01*
X225821383Y-137909510D02*
X226450000Y-137909510D01*
X216075936Y-138700000D02*
X216727694Y-138048242D01*
X196896403Y-136143876D02*
X196896403Y-136192607D01*
X198963820Y-138260024D02*
X200692027Y-138260026D01*
X196896403Y-136192607D02*
X198963820Y-138260024D01*
X187420000Y-142710000D02*
X178670000Y-142710000D01*
X188420000Y-141710000D02*
X187420000Y-142710000D01*
X174420000Y-146960000D02*
X172990000Y-146960000D01*
X188420000Y-141765000D02*
X188420000Y-141710000D01*
X192450000Y-134250000D02*
X192000000Y-134700000D01*
X193580000Y-134250000D02*
X192450000Y-134250000D01*
X178670000Y-142710000D02*
X174420000Y-146960000D01*
X195621555Y-136291555D02*
X193580000Y-134250000D01*
X195630730Y-136291555D02*
X195621555Y-136291555D01*
X237750000Y-127850000D02*
X238020000Y-127580000D01*
X238020000Y-127580000D02*
X238020000Y-126185000D01*
X195630730Y-136291555D02*
X197539175Y-138200000D01*
X197539175Y-138200000D02*
X197300000Y-138200000D01*
X197144499Y-138355501D02*
X196700000Y-138800000D01*
X197300000Y-138200000D02*
X197144499Y-138355501D01*
X206271383Y-137340425D02*
X206900000Y-137340425D01*
X202292811Y-136990578D02*
X202642658Y-137340425D01*
X201664194Y-136990578D02*
X202292811Y-136990578D01*
X202642658Y-137340425D02*
X206271383Y-137340425D01*
X217944609Y-139567264D02*
X218221383Y-139290490D01*
X209615919Y-139567264D02*
X217944609Y-139567264D01*
X209408633Y-139359978D02*
X209615919Y-139567264D01*
X200604007Y-139359978D02*
X209408633Y-139359978D01*
X200344075Y-139100045D02*
X200604007Y-139359978D01*
X198439220Y-139100045D02*
X200344075Y-139100045D01*
X218221383Y-139290490D02*
X218850000Y-139290490D01*
X197539175Y-138200000D02*
X198439220Y-139100045D01*
X188864499Y-141320501D02*
X189979499Y-141320501D01*
X188420000Y-141765000D02*
X188864499Y-141320501D01*
X189979499Y-141320501D02*
X191400000Y-139900000D01*
X191400000Y-135300000D02*
X192000000Y-134700000D01*
X191400000Y-139900000D02*
X191400000Y-135300000D01*
X173523180Y-158633180D02*
X173110000Y-158220000D01*
X173110000Y-158220000D02*
X173110000Y-153930000D01*
X173110000Y-153930000D02*
X173970000Y-153070000D01*
X173970000Y-153070000D02*
X178110000Y-153070000D01*
X178110000Y-153070000D02*
X179518600Y-154478600D01*
X179518600Y-154478600D02*
X179518600Y-156950600D01*
X173523180Y-164118580D02*
X173523180Y-158633180D01*
X168443180Y-154926820D02*
X171690000Y-151680000D01*
X171690000Y-151680000D02*
X179840000Y-151680000D01*
X179840000Y-151680000D02*
X182058600Y-153898600D01*
X182058600Y-153898600D02*
X182058600Y-156950600D01*
X168443180Y-164118580D02*
X168443180Y-154926820D01*
X206543180Y-160758980D02*
X206543180Y-164118580D01*
X206543180Y-159497141D02*
X206543180Y-160758980D01*
X203970000Y-154004177D02*
X203970000Y-156923961D01*
X206422908Y-151551269D02*
X203970000Y-154004177D01*
X203970000Y-156923961D02*
X206543180Y-159497141D01*
X204810020Y-154577509D02*
X204810020Y-155584082D01*
X209083180Y-159857242D02*
X209083180Y-160758980D01*
X207154262Y-152233267D02*
X204810020Y-154577509D01*
X204810020Y-155584082D02*
X209083180Y-159857242D01*
X209083180Y-160758980D02*
X209083180Y-164118580D01*
M02*
