M48
;DRILL file {KiCad (after 2015-may-25 BZR unknown)-product} date 17/09/2017 09:43:38
;FORMAT={-:-/ absolute / inch / decimal}
FMAT,2
INCH,TZ
T1C0.025
T2C0.031
T3C0.043
%
G90
G05
M72
T1
X6.8106Y-5.7858
X6.811Y-5.874
X6.8634Y-6.087
X6.8689Y-5.9303
X6.9606Y-5.9295
X6.9925Y-6.065
X7.0028Y-5.8925
X7.0079Y-5.3228
X7.0394Y-5.1142
X7.0488Y-5.8626
X7.0846Y-5.061
X7.0846Y-6.0319
X7.0854Y-5.9256
X7.1303Y-5.872
X7.187Y-5.0217
X7.2094Y-6.0071
X7.3307Y-5.374
X7.3469Y-5.9315
X7.4181Y-5.5813
X7.4252Y-5.0866
X7.4547Y-4.998
X7.4606Y-5.0512
X7.4748Y-5.2008
X7.5118Y-5.122
X7.5197Y-5.5906
X7.5531Y-5.1972
X7.5547Y-5.248
X7.5591Y-5.3031
X7.5654Y-6.1205
X7.5764Y-6.2142
X7.5827Y-5.3661
X7.5839Y-5.8083
X7.6012Y-5.327
X7.6024Y-5.4724
X7.6083Y-5.0098
X7.6276Y-5.1941
X7.637Y-6.1126
X7.6437Y-4.876
X7.663Y-5.872
X7.6949Y-4.791
X7.7067Y-5.1476
X7.7087Y-6.1299
X7.7236Y-6.2098
X7.7343Y-4.9311
X7.7441Y-5.4646
X7.7618Y-5.1673
X7.7776Y-4.8563
X7.811Y-6.0669
X7.8125Y-5.5537
X7.8208Y-5.3878
X7.8295Y-6.2098
X7.8307Y-5.5984
X7.8595Y-5.5394
X7.8937Y-5.3969
X7.9208Y-4.9367
X7.9232Y-4.876
X7.9327Y-6.2047
X7.9395Y-5.3933
X7.9449Y-5.3504
X7.9459Y-4.9952
X7.9567Y-5.7071
X7.9744Y-4.9469
X7.9769Y-5.2964
X7.9877Y-5.3439
X7.9965Y-5.7581
X8.0091Y-6.2047
X8.0118Y-5.2708
X8.0118Y-5.685
X8.0475Y-5.1974
X8.0543Y-5.2626
X8.0551Y-5.7441
X8.0907Y-5.1874
X8.0915Y-5.2382
X8.0984Y-5.7087
X8.1025Y-6.2068
X8.1046Y-5.1075
X8.1071Y-6.102
X8.1125Y-5.15
X8.1142Y-5.374
X8.1145Y-5.0654
X8.1157Y-5.8501
X8.1457Y-5.4071
X8.1475Y-5.8203
X8.1693Y-4.9843
X8.1752Y-4.8484
X8.1822Y-5.8936
X8.1914Y-5.7543
X8.1929Y-5.3071
X8.1941Y-5.0206
X8.2126Y-5.3701
X8.2225Y-5.809
X8.2228Y-6.1996
X8.2244Y-5.2126
X8.2244Y-5.4236
X8.2254Y-5.8937
X8.248Y-5.7008
X8.252Y-5.3268
X8.2539Y-5.1752
X8.255Y-5.8375
X8.2638Y-5.1142
X8.2677Y-5.2441
X8.2687Y-4.8317
X8.2782Y-6.2286
X8.2815Y-4.75
X8.2897Y-5.3056
X8.2992Y-5.7008
X8.2992Y-5.7953
X8.3068Y-5.1093
X8.3311Y-6.0524
X8.3472Y-6.1811
X8.3583Y-5.7008
X8.376Y-5.2697
X8.3799Y-5.1791
X8.4016Y-5.7362
X8.4075Y-5.3917
X8.4152Y-5.3486
X8.4244Y-6.2083
X8.4299Y-5.3079
X8.4449Y-5.685
X8.4481Y-5.4225
X8.4901Y-4.9603
X8.5031Y-6.2028
X8.5335Y-4.9232
X8.5571Y-4.8839
X8.5594Y-6.1866
X8.565Y-5.4649
X8.6161Y-5.4839
X8.6929Y-6.1969
X8.722Y-6.102
X8.748Y-5.8591
X8.7953Y-6.1657
X8.8248Y-5.498
X8.8424Y-4.8776
X8.8445Y-5.3996
X8.8494Y-5.8612
X8.8563Y-4.8327
X8.8705Y-5.913
X8.8855Y-4.8811
X8.8969Y-6.1181
X8.9003Y-4.9217
X8.9154Y-5.4295
X8.9603Y-4.9717
X8.9705Y-5.0138
X8.9705Y-5.6122
X8.9862Y-5.3996
X9.0044Y-4.9705
X9.0071Y-6.1071
X9.0138Y-5.7343
X9.022Y-5.137
X9.0453Y-5.3642
X9.0453Y-4.9802
X9.0571Y-4.8642
X9.0677Y-5.7539
X9.0941Y-5.95
X9.0965Y-5.1752
X9.1059Y-6.0929
X9.1122Y-5.3484
X9.1299Y-5.0118
X9.1358Y-5.2657
X9.1388Y-5.2224
X9.1413Y-6.0189
X9.1949Y-5.0768
X9.2332Y-6.0585
X9.25Y-4.8406
X9.2559Y-5.4439
X9.2657Y-5.2382
X9.2736Y-5.3406
X9.3031Y-4.937
X9.3602Y-5.0335
X9.3609Y-5.9564
X9.3642Y-6.0492
X9.372Y-6.2106
X9.435Y-5.3642
X9.5094Y-6.1921
X9.6289Y-6.1732
X9.6996Y-4.8984
X9.7795Y-6.2244
T2
X6.7677Y-5.4705
X6.7677Y-6.1792
X6.8677Y-5.4705
X6.8677Y-6.1792
X6.9677Y-5.4705
X6.9677Y-6.1792
X7.0677Y-5.4705
X7.0677Y-6.1792
X7.1677Y-5.4705
X7.1677Y-6.1792
X7.2677Y-5.4705
X7.2677Y-6.1792
X7.3677Y-5.4705
X7.3677Y-6.1792
X7.4677Y-5.4705
X7.4677Y-6.1792
T3
X6.9063Y-4.8358
X6.9063Y-4.9358
X7.0063Y-4.8358
X7.0063Y-4.9358
X7.1063Y-4.8358
X7.1063Y-4.9358
X7.2063Y-4.8358
X7.2063Y-4.9358
X7.3063Y-4.8358
X7.3063Y-4.9358
T0
M30
