G04 #@! TF.FileFunction,Legend,Top*
%FSLAX46Y46*%
G04 Gerber Fmt 4.6, Leading zero omitted, Abs format (unit mm)*
G04 Created by KiCad (PCBNEW (after 2015-may-25 BZR unknown)-product) date 17/02/2017 21:19:06*
%MOMM*%
G01*
G04 APERTURE LIST*
%ADD10C,0.100000*%
%ADD11C,0.200000*%
%ADD12C,0.150000*%
%ADD13C,0.152400*%
%ADD14C,0.115824*%
%ADD15C,0.120650*%
%ADD16C,0.304800*%
G04 APERTURE END LIST*
D10*
D11*
X169121428Y-141397619D02*
X169169047Y-141350000D01*
X169264285Y-141302381D01*
X169502381Y-141302381D01*
X169597619Y-141350000D01*
X169645238Y-141397619D01*
X169692857Y-141492857D01*
X169692857Y-141588095D01*
X169645238Y-141730952D01*
X169073809Y-142302381D01*
X169692857Y-142302381D01*
X170311904Y-141302381D02*
X170407143Y-141302381D01*
X170502381Y-141350000D01*
X170550000Y-141397619D01*
X170597619Y-141492857D01*
X170645238Y-141683333D01*
X170645238Y-141921429D01*
X170597619Y-142111905D01*
X170550000Y-142207143D01*
X170502381Y-142254762D01*
X170407143Y-142302381D01*
X170311904Y-142302381D01*
X170216666Y-142254762D01*
X170169047Y-142207143D01*
X170121428Y-142111905D01*
X170073809Y-141921429D01*
X170073809Y-141683333D01*
X170121428Y-141492857D01*
X170169047Y-141397619D01*
X170216666Y-141350000D01*
X170311904Y-141302381D01*
X171597619Y-142302381D02*
X171026190Y-142302381D01*
X171311904Y-142302381D02*
X171311904Y-141302381D01*
X171216666Y-141445238D01*
X171121428Y-141540476D01*
X171026190Y-141588095D01*
X171930952Y-141302381D02*
X172597619Y-141302381D01*
X172169047Y-142302381D01*
X173692857Y-142254762D02*
X173835714Y-142302381D01*
X174073810Y-142302381D01*
X174169048Y-142254762D01*
X174216667Y-142207143D01*
X174264286Y-142111905D01*
X174264286Y-142016667D01*
X174216667Y-141921429D01*
X174169048Y-141873810D01*
X174073810Y-141826190D01*
X173883333Y-141778571D01*
X173788095Y-141730952D01*
X173740476Y-141683333D01*
X173692857Y-141588095D01*
X173692857Y-141492857D01*
X173740476Y-141397619D01*
X173788095Y-141350000D01*
X173883333Y-141302381D01*
X174121429Y-141302381D01*
X174264286Y-141350000D01*
X175073810Y-142254762D02*
X174978572Y-142302381D01*
X174788095Y-142302381D01*
X174692857Y-142254762D01*
X174645238Y-142159524D01*
X174645238Y-141778571D01*
X174692857Y-141683333D01*
X174788095Y-141635714D01*
X174978572Y-141635714D01*
X175073810Y-141683333D01*
X175121429Y-141778571D01*
X175121429Y-141873810D01*
X174645238Y-141969048D01*
X175978572Y-141635714D02*
X175978572Y-142445238D01*
X175930953Y-142540476D01*
X175883334Y-142588095D01*
X175788095Y-142635714D01*
X175645238Y-142635714D01*
X175550000Y-142588095D01*
X175978572Y-142254762D02*
X175883334Y-142302381D01*
X175692857Y-142302381D01*
X175597619Y-142254762D01*
X175550000Y-142207143D01*
X175502381Y-142111905D01*
X175502381Y-141826190D01*
X175550000Y-141730952D01*
X175597619Y-141683333D01*
X175692857Y-141635714D01*
X175883334Y-141635714D01*
X175978572Y-141683333D01*
X176883334Y-142302381D02*
X176883334Y-141778571D01*
X176835715Y-141683333D01*
X176740477Y-141635714D01*
X176550000Y-141635714D01*
X176454762Y-141683333D01*
X176883334Y-142254762D02*
X176788096Y-142302381D01*
X176550000Y-142302381D01*
X176454762Y-142254762D01*
X176407143Y-142159524D01*
X176407143Y-142064286D01*
X176454762Y-141969048D01*
X176550000Y-141921429D01*
X176788096Y-141921429D01*
X176883334Y-141873810D01*
X177788096Y-141635714D02*
X177788096Y-142302381D01*
X177550000Y-141254762D02*
X177311905Y-141969048D01*
X177930953Y-141969048D01*
X178692858Y-142254762D02*
X178597620Y-142302381D01*
X178407143Y-142302381D01*
X178311905Y-142254762D01*
X178264286Y-142159524D01*
X178264286Y-141778571D01*
X178311905Y-141683333D01*
X178407143Y-141635714D01*
X178597620Y-141635714D01*
X178692858Y-141683333D01*
X178740477Y-141778571D01*
X178740477Y-141873810D01*
X178264286Y-141969048D01*
X179073810Y-141635714D02*
X179311905Y-142302381D01*
X179550001Y-141635714D01*
X180311906Y-142254762D02*
X180216668Y-142302381D01*
X180026191Y-142302381D01*
X179930953Y-142254762D01*
X179883334Y-142159524D01*
X179883334Y-141778571D01*
X179930953Y-141683333D01*
X180026191Y-141635714D01*
X180216668Y-141635714D01*
X180311906Y-141683333D01*
X180359525Y-141778571D01*
X180359525Y-141873810D01*
X179883334Y-141969048D01*
X180788096Y-142302381D02*
X180788096Y-141635714D01*
X180788096Y-141826190D02*
X180835715Y-141730952D01*
X180883334Y-141683333D01*
X180978572Y-141635714D01*
X181073811Y-141635714D01*
X172240476Y-138302381D02*
X172907143Y-139302381D01*
X172907143Y-138302381D02*
X172240476Y-139302381D01*
X173288095Y-138921429D02*
X174050000Y-138921429D01*
X174383333Y-138635714D02*
X174764285Y-138635714D01*
X174526190Y-139302381D02*
X174526190Y-138445238D01*
X174573809Y-138350000D01*
X174669047Y-138302381D01*
X174764285Y-138302381D01*
X175240476Y-139302381D02*
X175145238Y-139254762D01*
X175097619Y-139159524D01*
X175097619Y-138302381D01*
X176050001Y-139302381D02*
X176050001Y-138778571D01*
X176002382Y-138683333D01*
X175907144Y-138635714D01*
X175716667Y-138635714D01*
X175621429Y-138683333D01*
X176050001Y-139254762D02*
X175954763Y-139302381D01*
X175716667Y-139302381D01*
X175621429Y-139254762D01*
X175573810Y-139159524D01*
X175573810Y-139064286D01*
X175621429Y-138969048D01*
X175716667Y-138921429D01*
X175954763Y-138921429D01*
X176050001Y-138873810D01*
X176478572Y-139254762D02*
X176573810Y-139302381D01*
X176764286Y-139302381D01*
X176859525Y-139254762D01*
X176907144Y-139159524D01*
X176907144Y-139111905D01*
X176859525Y-139016667D01*
X176764286Y-138969048D01*
X176621429Y-138969048D01*
X176526191Y-138921429D01*
X176478572Y-138826190D01*
X176478572Y-138778571D01*
X176526191Y-138683333D01*
X176621429Y-138635714D01*
X176764286Y-138635714D01*
X176859525Y-138683333D01*
X177335715Y-139302381D02*
X177335715Y-138302381D01*
X177764287Y-139302381D02*
X177764287Y-138778571D01*
X177716668Y-138683333D01*
X177621430Y-138635714D01*
X177478572Y-138635714D01*
X177383334Y-138683333D01*
X177335715Y-138730952D01*
D12*
D10*
G36*
X187535541Y-144563686D02*
X187514649Y-144658240D01*
X187418870Y-144686013D01*
X187196226Y-144727231D01*
X186887907Y-144774589D01*
X186756425Y-144792731D01*
X186354799Y-144837335D01*
X186026507Y-144844864D01*
X185692045Y-144812457D01*
X185284729Y-144739807D01*
X184916006Y-144658098D01*
X184584427Y-144569640D01*
X184344916Y-144489593D01*
X184291687Y-144465692D01*
X184120737Y-144387601D01*
X184032083Y-144366809D01*
X184030411Y-144368257D01*
X183988780Y-144457678D01*
X183913950Y-144638822D01*
X183905776Y-144659319D01*
X183873754Y-144711770D01*
X183873754Y-144401783D01*
X183855523Y-144023431D01*
X183854139Y-144013253D01*
X183793120Y-143569592D01*
X183358060Y-143613545D01*
X182817813Y-143616528D01*
X182246561Y-143534540D01*
X181977749Y-143463682D01*
X181814642Y-143459295D01*
X181696015Y-143593738D01*
X181690263Y-143604521D01*
X181623283Y-143739525D01*
X181647471Y-143745001D01*
X181767680Y-143641711D01*
X181905008Y-143539395D01*
X181942368Y-143555228D01*
X181882065Y-143672399D01*
X181737667Y-143860774D01*
X181598710Y-144072501D01*
X181529918Y-144268908D01*
X181528253Y-144296329D01*
X181536362Y-144415234D01*
X181575931Y-144400862D01*
X181663091Y-144268667D01*
X181893883Y-143990410D01*
X182152345Y-143823619D01*
X182400220Y-143792243D01*
X182417840Y-143796147D01*
X182576771Y-143892339D01*
X182763924Y-144078424D01*
X182932764Y-144298026D01*
X183036754Y-144494770D01*
X183050000Y-144561975D01*
X183009024Y-144551422D01*
X182904976Y-144428746D01*
X182836717Y-144332768D01*
X182598677Y-144036350D01*
X182382294Y-143896975D01*
X182170889Y-143916184D01*
X181947781Y-144095516D01*
X181696288Y-144436512D01*
X181695245Y-144438138D01*
X181543224Y-144689813D01*
X181468259Y-144883623D01*
X181453111Y-145095448D01*
X181479176Y-145389148D01*
X181539164Y-145770987D01*
X181617307Y-146049792D01*
X181704911Y-146198613D01*
X181745888Y-146216000D01*
X181840632Y-146182442D01*
X182039273Y-146095691D01*
X182229743Y-146007136D01*
X182536187Y-145833253D01*
X182876724Y-145598404D01*
X183110657Y-145410391D01*
X183552314Y-145022509D01*
X183385977Y-144600511D01*
X183262091Y-144308302D01*
X183135911Y-144044283D01*
X183083631Y-143948422D01*
X183004947Y-143811182D01*
X183008929Y-143794422D01*
X183107365Y-143901425D01*
X183169467Y-143972333D01*
X183347768Y-144232885D01*
X183481426Y-144523032D01*
X183488058Y-144543833D01*
X183573871Y-144775325D01*
X183652999Y-144846589D01*
X183744978Y-144764687D01*
X183806939Y-144659124D01*
X183873754Y-144401783D01*
X183873754Y-144711770D01*
X183738087Y-144933992D01*
X183450910Y-145251629D01*
X183077873Y-145582885D01*
X182652606Y-145898411D01*
X182208738Y-146168862D01*
X182126628Y-146211938D01*
X181891273Y-146329074D01*
X181757670Y-146370253D01*
X181675452Y-146333901D01*
X181594248Y-146218442D01*
X181579438Y-146194833D01*
X181437678Y-145852809D01*
X181355322Y-145400234D01*
X181337023Y-144886794D01*
X181387433Y-144362176D01*
X181400848Y-144287469D01*
X181470305Y-143968956D01*
X181541699Y-143713520D01*
X181601349Y-143568922D01*
X181609628Y-143558505D01*
X181667040Y-143421913D01*
X181694848Y-143200233D01*
X181695333Y-143167249D01*
X181729391Y-142912637D01*
X181812129Y-142707835D01*
X181819640Y-142697349D01*
X181913422Y-142490457D01*
X181947937Y-142279000D01*
X181980140Y-142023451D01*
X182091446Y-141857879D01*
X182318718Y-141740434D01*
X182463562Y-141693633D01*
X182700499Y-141607878D01*
X182830394Y-141493342D01*
X182912504Y-141289337D01*
X182933943Y-141211886D01*
X182995255Y-141011798D01*
X183030123Y-140974006D01*
X183040771Y-141051333D01*
X183020619Y-141257141D01*
X182961086Y-141538134D01*
X182921932Y-141679126D01*
X182854277Y-141918109D01*
X182818162Y-142078047D01*
X182817015Y-142115347D01*
X182906911Y-142140969D01*
X183047921Y-142164888D01*
X183174384Y-142166954D01*
X183248032Y-142101370D01*
X183296317Y-141928751D01*
X183322456Y-141771000D01*
X183388522Y-141422673D01*
X183474901Y-141065362D01*
X183502954Y-140967548D01*
X183587366Y-140731525D01*
X183690813Y-140606961D01*
X183870907Y-140540436D01*
X183990418Y-140515567D01*
X184269983Y-140446641D01*
X184422575Y-140378741D01*
X184437161Y-140323458D01*
X184302710Y-140292387D01*
X184205729Y-140289333D01*
X183991503Y-140264308D01*
X183758495Y-140201644D01*
X183554367Y-140119964D01*
X183426779Y-140037887D01*
X183415264Y-139980514D01*
X183510601Y-139986743D01*
X183688176Y-140057766D01*
X183715261Y-140071423D01*
X184116237Y-140197341D01*
X184519000Y-140182998D01*
X184884230Y-140040593D01*
X185172610Y-139782327D01*
X185289734Y-139582950D01*
X185368005Y-139440072D01*
X185410614Y-139435797D01*
X185413760Y-139458836D01*
X185469555Y-139615834D01*
X185514404Y-139659939D01*
X185570774Y-139652998D01*
X185546221Y-139516769D01*
X185484300Y-139315667D01*
X185707605Y-139521979D01*
X185875555Y-139651904D01*
X185986718Y-139660709D01*
X186033718Y-139625482D01*
X186092040Y-139492044D01*
X186044353Y-139376836D01*
X185950843Y-139290762D01*
X185921099Y-139284293D01*
X185921099Y-138521041D01*
X185844000Y-138384333D01*
X185771217Y-138403161D01*
X185759333Y-138462051D01*
X185687483Y-138610548D01*
X185518129Y-138744728D01*
X185320561Y-138821076D01*
X185197409Y-138814934D01*
X185027834Y-138827037D01*
X184891079Y-138911458D01*
X184783811Y-139020008D01*
X184809021Y-139073721D01*
X184966823Y-139115149D01*
X185325252Y-139174123D01*
X185567153Y-139157295D01*
X185730362Y-139058465D01*
X185791929Y-138979979D01*
X185902202Y-138738193D01*
X185921099Y-138521041D01*
X185921099Y-139284293D01*
X185784155Y-139254512D01*
X185498566Y-139258530D01*
X185482828Y-139259465D01*
X185187460Y-139259322D01*
X184939622Y-139228081D01*
X184841210Y-139195737D01*
X184672484Y-139150119D01*
X184616475Y-139188438D01*
X184507544Y-139235865D01*
X184291529Y-139258959D01*
X184166836Y-139258541D01*
X183769667Y-139243749D01*
X184121102Y-139211750D01*
X184388887Y-139141608D01*
X184641824Y-138998717D01*
X184856750Y-138811311D01*
X185010505Y-138607627D01*
X185079928Y-138415900D01*
X185041859Y-138264365D01*
X184949926Y-138201337D01*
X184799533Y-138231246D01*
X184588773Y-138402750D01*
X184536340Y-138457994D01*
X184317661Y-138667287D01*
X184157709Y-138760836D01*
X184074112Y-138730295D01*
X184066000Y-138680667D01*
X184133570Y-138603360D01*
X184179878Y-138596000D01*
X184333670Y-138540028D01*
X184457942Y-138411432D01*
X184508220Y-138269191D01*
X184480334Y-138197534D01*
X184433829Y-138064936D01*
X184484468Y-137927756D01*
X184601652Y-137802173D01*
X184806474Y-137752796D01*
X184918624Y-137749333D01*
X185268032Y-137794054D01*
X185510828Y-137917702D01*
X185624696Y-138104510D01*
X185620688Y-138245436D01*
X185571911Y-138402407D01*
X185571911Y-138043965D01*
X185561778Y-138031555D01*
X185511443Y-138043178D01*
X185505333Y-138088000D01*
X185536311Y-138157690D01*
X185561778Y-138144444D01*
X185571911Y-138043965D01*
X185571911Y-138402407D01*
X185552382Y-138465255D01*
X185494223Y-138525055D01*
X185455453Y-138422556D01*
X185445514Y-138288629D01*
X185400541Y-138026067D01*
X185265914Y-137887231D01*
X185013837Y-137849432D01*
X184913371Y-137854236D01*
X184690427Y-137901717D01*
X184593188Y-138014177D01*
X184586105Y-138042971D01*
X184582898Y-138154918D01*
X184658304Y-138125544D01*
X184670068Y-138116222D01*
X184855464Y-138052733D01*
X185030480Y-138123193D01*
X185146112Y-138296680D01*
X185166667Y-138429562D01*
X185183646Y-138610645D01*
X185265861Y-138670851D01*
X185399500Y-138665124D01*
X185589683Y-138596162D01*
X185660037Y-138442884D01*
X185730645Y-138291391D01*
X185829370Y-138275784D01*
X185916932Y-138333193D01*
X185960248Y-138485381D01*
X185971000Y-138741047D01*
X185990468Y-139012483D01*
X186040130Y-139220570D01*
X186076833Y-139284913D01*
X186181771Y-139467607D01*
X186142796Y-139625939D01*
X185985320Y-139737265D01*
X185734753Y-139778942D01*
X185543818Y-139759875D01*
X185360299Y-139769713D01*
X185203008Y-139902769D01*
X185160315Y-139959587D01*
X184967732Y-140173065D01*
X184758719Y-140336046D01*
X184623864Y-140430749D01*
X184562797Y-140542832D01*
X184556766Y-140729698D01*
X184572287Y-140906758D01*
X184605976Y-141163994D01*
X184661254Y-141301331D01*
X184770860Y-141367836D01*
X184900865Y-141399217D01*
X185128546Y-141471650D01*
X185288717Y-141567410D01*
X185292921Y-141571722D01*
X185368301Y-141720829D01*
X185427810Y-141956711D01*
X185464181Y-142220881D01*
X185470143Y-142454848D01*
X185438428Y-142600124D01*
X185422749Y-142616379D01*
X185357467Y-142588669D01*
X185336000Y-142455987D01*
X185307794Y-142302715D01*
X185212200Y-142289511D01*
X185209000Y-142290715D01*
X185100069Y-142305667D01*
X185105796Y-142215914D01*
X185208543Y-142037579D01*
X185287959Y-141868624D01*
X185249311Y-141736920D01*
X185229710Y-141710440D01*
X185059753Y-141567626D01*
X184873037Y-141509015D01*
X184727431Y-141546509D01*
X184690123Y-141599480D01*
X184673219Y-141747735D01*
X184733642Y-141803862D01*
X184829002Y-141729810D01*
X184831307Y-141726215D01*
X184894821Y-141648924D01*
X184911200Y-141727680D01*
X184911370Y-141740411D01*
X184837876Y-141846911D01*
X184654829Y-141925920D01*
X184421601Y-141961659D01*
X184197568Y-141938350D01*
X184183199Y-141933915D01*
X183985956Y-141870579D01*
X183904837Y-141845214D01*
X183835149Y-141798456D01*
X183908326Y-141716115D01*
X183922581Y-141705170D01*
X184023597Y-141534651D01*
X184082761Y-141217842D01*
X184089248Y-141136000D01*
X184105309Y-140898205D01*
X184115599Y-140806091D01*
X184123071Y-140866481D01*
X184130674Y-141086199D01*
X184135005Y-141241833D01*
X184148837Y-141547538D01*
X184176975Y-141720383D01*
X184230974Y-141796818D01*
X184316178Y-141813333D01*
X184400512Y-141798488D01*
X184448298Y-141730525D01*
X184467779Y-141574303D01*
X184467197Y-141294680D01*
X184464345Y-141181576D01*
X184447000Y-140549818D01*
X184108333Y-140600691D01*
X183889327Y-140637679D01*
X183756614Y-140667819D01*
X183742609Y-140673895D01*
X183708612Y-140761072D01*
X183647686Y-140964920D01*
X183586505Y-141190397D01*
X183518723Y-141467614D01*
X183499463Y-141627450D01*
X183529900Y-141715104D01*
X183601568Y-141770117D01*
X183896303Y-141960752D01*
X184062046Y-142120086D01*
X184124991Y-142284575D01*
X184112911Y-142481802D01*
X184061296Y-142789464D01*
X184037124Y-142942523D01*
X184037124Y-142451252D01*
X184034513Y-142282973D01*
X183879152Y-142119987D01*
X183833167Y-142086981D01*
X183593579Y-141925646D01*
X183460470Y-141858882D01*
X183402637Y-141882682D01*
X183388878Y-141993037D01*
X183388667Y-142029878D01*
X183411653Y-142190343D01*
X183504334Y-142223213D01*
X183558117Y-142212104D01*
X183672703Y-142206528D01*
X183680120Y-142244562D01*
X183561837Y-142300355D01*
X183341440Y-142311090D01*
X183070211Y-142285144D01*
X182799436Y-142230892D01*
X182580399Y-142156708D01*
X182464385Y-142070969D01*
X182457333Y-142044873D01*
X182518793Y-141998148D01*
X182575990Y-142010083D01*
X182692300Y-141981619D01*
X182736376Y-141896047D01*
X182742811Y-141790468D01*
X182655655Y-141765599D01*
X182511885Y-141786820D01*
X182290288Y-141847686D01*
X182139833Y-141920281D01*
X182057033Y-142077271D01*
X182039300Y-142320553D01*
X182087302Y-142579806D01*
X182132528Y-142686733D01*
X182191949Y-142811438D01*
X182156747Y-142808207D01*
X182096099Y-142760367D01*
X181981314Y-142699393D01*
X181894964Y-142775838D01*
X181865881Y-142827065D01*
X181806837Y-143072602D01*
X181906427Y-143271207D01*
X182141833Y-143401682D01*
X182368125Y-143447216D01*
X182688666Y-143479561D01*
X183047289Y-143496860D01*
X183387826Y-143497257D01*
X183654109Y-143478894D01*
X183762742Y-143455275D01*
X183854040Y-143348756D01*
X183895007Y-143168584D01*
X183879574Y-142992093D01*
X183806475Y-142898047D01*
X183790649Y-142822778D01*
X183882061Y-142677004D01*
X183891142Y-142666370D01*
X184037124Y-142451252D01*
X184037124Y-142942523D01*
X184011780Y-143103004D01*
X184011474Y-143105031D01*
X183965655Y-143320285D01*
X183913114Y-143450175D01*
X183902311Y-143460845D01*
X183883335Y-143558061D01*
X183905364Y-143760943D01*
X183929254Y-143878258D01*
X184032511Y-144170739D01*
X184185525Y-144332293D01*
X184221940Y-144351114D01*
X184384957Y-144408679D01*
X184461352Y-144409537D01*
X184494482Y-144312768D01*
X184540165Y-144104898D01*
X184566163Y-143961867D01*
X184632691Y-143645351D01*
X184712955Y-143371108D01*
X184793424Y-143176371D01*
X184860564Y-143098375D01*
X184877662Y-143104773D01*
X184876432Y-143203412D01*
X184818578Y-143394875D01*
X184790626Y-143465522D01*
X184703985Y-143764550D01*
X184660028Y-144095617D01*
X184658667Y-144152006D01*
X184668021Y-144383058D01*
X184713561Y-144490975D01*
X184821500Y-144521659D01*
X184870333Y-144522667D01*
X185005144Y-144504948D01*
X185066141Y-144420444D01*
X185081799Y-144222136D01*
X185082000Y-144173139D01*
X185152815Y-143778666D01*
X185345088Y-143363783D01*
X185513347Y-143084896D01*
X185609234Y-142956347D01*
X185629546Y-142973911D01*
X185571075Y-143133361D01*
X185430618Y-143430474D01*
X185416694Y-143458181D01*
X185260166Y-143833528D01*
X185178596Y-144172734D01*
X185175200Y-144443018D01*
X185253198Y-144611596D01*
X185300591Y-144640608D01*
X185464460Y-144668461D01*
X185747119Y-144684724D01*
X186098427Y-144689480D01*
X186468244Y-144682814D01*
X186806429Y-144664811D01*
X187050500Y-144637657D01*
X187258881Y-144576797D01*
X187364070Y-144492763D01*
X187368000Y-144474081D01*
X187305106Y-144329506D01*
X187136572Y-144111750D01*
X186892619Y-143848701D01*
X186603468Y-143568251D01*
X186299340Y-143298288D01*
X186010457Y-143066702D01*
X185767041Y-142901383D01*
X185599311Y-142830221D01*
X185585755Y-142829333D01*
X185508016Y-142764441D01*
X185505333Y-142742138D01*
X185562826Y-142704976D01*
X185718785Y-142766786D01*
X185948432Y-142910417D01*
X186226988Y-143118719D01*
X186529674Y-143374540D01*
X186830032Y-143659038D01*
X187202763Y-144055956D01*
X187438093Y-144357738D01*
X187535541Y-144563686D01*
X187535541Y-144563686D01*
X187535541Y-144563686D01*
G37*
X187535541Y-144563686D02*
X187514649Y-144658240D01*
X187418870Y-144686013D01*
X187196226Y-144727231D01*
X186887907Y-144774589D01*
X186756425Y-144792731D01*
X186354799Y-144837335D01*
X186026507Y-144844864D01*
X185692045Y-144812457D01*
X185284729Y-144739807D01*
X184916006Y-144658098D01*
X184584427Y-144569640D01*
X184344916Y-144489593D01*
X184291687Y-144465692D01*
X184120737Y-144387601D01*
X184032083Y-144366809D01*
X184030411Y-144368257D01*
X183988780Y-144457678D01*
X183913950Y-144638822D01*
X183905776Y-144659319D01*
X183873754Y-144711770D01*
X183873754Y-144401783D01*
X183855523Y-144023431D01*
X183854139Y-144013253D01*
X183793120Y-143569592D01*
X183358060Y-143613545D01*
X182817813Y-143616528D01*
X182246561Y-143534540D01*
X181977749Y-143463682D01*
X181814642Y-143459295D01*
X181696015Y-143593738D01*
X181690263Y-143604521D01*
X181623283Y-143739525D01*
X181647471Y-143745001D01*
X181767680Y-143641711D01*
X181905008Y-143539395D01*
X181942368Y-143555228D01*
X181882065Y-143672399D01*
X181737667Y-143860774D01*
X181598710Y-144072501D01*
X181529918Y-144268908D01*
X181528253Y-144296329D01*
X181536362Y-144415234D01*
X181575931Y-144400862D01*
X181663091Y-144268667D01*
X181893883Y-143990410D01*
X182152345Y-143823619D01*
X182400220Y-143792243D01*
X182417840Y-143796147D01*
X182576771Y-143892339D01*
X182763924Y-144078424D01*
X182932764Y-144298026D01*
X183036754Y-144494770D01*
X183050000Y-144561975D01*
X183009024Y-144551422D01*
X182904976Y-144428746D01*
X182836717Y-144332768D01*
X182598677Y-144036350D01*
X182382294Y-143896975D01*
X182170889Y-143916184D01*
X181947781Y-144095516D01*
X181696288Y-144436512D01*
X181695245Y-144438138D01*
X181543224Y-144689813D01*
X181468259Y-144883623D01*
X181453111Y-145095448D01*
X181479176Y-145389148D01*
X181539164Y-145770987D01*
X181617307Y-146049792D01*
X181704911Y-146198613D01*
X181745888Y-146216000D01*
X181840632Y-146182442D01*
X182039273Y-146095691D01*
X182229743Y-146007136D01*
X182536187Y-145833253D01*
X182876724Y-145598404D01*
X183110657Y-145410391D01*
X183552314Y-145022509D01*
X183385977Y-144600511D01*
X183262091Y-144308302D01*
X183135911Y-144044283D01*
X183083631Y-143948422D01*
X183004947Y-143811182D01*
X183008929Y-143794422D01*
X183107365Y-143901425D01*
X183169467Y-143972333D01*
X183347768Y-144232885D01*
X183481426Y-144523032D01*
X183488058Y-144543833D01*
X183573871Y-144775325D01*
X183652999Y-144846589D01*
X183744978Y-144764687D01*
X183806939Y-144659124D01*
X183873754Y-144401783D01*
X183873754Y-144711770D01*
X183738087Y-144933992D01*
X183450910Y-145251629D01*
X183077873Y-145582885D01*
X182652606Y-145898411D01*
X182208738Y-146168862D01*
X182126628Y-146211938D01*
X181891273Y-146329074D01*
X181757670Y-146370253D01*
X181675452Y-146333901D01*
X181594248Y-146218442D01*
X181579438Y-146194833D01*
X181437678Y-145852809D01*
X181355322Y-145400234D01*
X181337023Y-144886794D01*
X181387433Y-144362176D01*
X181400848Y-144287469D01*
X181470305Y-143968956D01*
X181541699Y-143713520D01*
X181601349Y-143568922D01*
X181609628Y-143558505D01*
X181667040Y-143421913D01*
X181694848Y-143200233D01*
X181695333Y-143167249D01*
X181729391Y-142912637D01*
X181812129Y-142707835D01*
X181819640Y-142697349D01*
X181913422Y-142490457D01*
X181947937Y-142279000D01*
X181980140Y-142023451D01*
X182091446Y-141857879D01*
X182318718Y-141740434D01*
X182463562Y-141693633D01*
X182700499Y-141607878D01*
X182830394Y-141493342D01*
X182912504Y-141289337D01*
X182933943Y-141211886D01*
X182995255Y-141011798D01*
X183030123Y-140974006D01*
X183040771Y-141051333D01*
X183020619Y-141257141D01*
X182961086Y-141538134D01*
X182921932Y-141679126D01*
X182854277Y-141918109D01*
X182818162Y-142078047D01*
X182817015Y-142115347D01*
X182906911Y-142140969D01*
X183047921Y-142164888D01*
X183174384Y-142166954D01*
X183248032Y-142101370D01*
X183296317Y-141928751D01*
X183322456Y-141771000D01*
X183388522Y-141422673D01*
X183474901Y-141065362D01*
X183502954Y-140967548D01*
X183587366Y-140731525D01*
X183690813Y-140606961D01*
X183870907Y-140540436D01*
X183990418Y-140515567D01*
X184269983Y-140446641D01*
X184422575Y-140378741D01*
X184437161Y-140323458D01*
X184302710Y-140292387D01*
X184205729Y-140289333D01*
X183991503Y-140264308D01*
X183758495Y-140201644D01*
X183554367Y-140119964D01*
X183426779Y-140037887D01*
X183415264Y-139980514D01*
X183510601Y-139986743D01*
X183688176Y-140057766D01*
X183715261Y-140071423D01*
X184116237Y-140197341D01*
X184519000Y-140182998D01*
X184884230Y-140040593D01*
X185172610Y-139782327D01*
X185289734Y-139582950D01*
X185368005Y-139440072D01*
X185410614Y-139435797D01*
X185413760Y-139458836D01*
X185469555Y-139615834D01*
X185514404Y-139659939D01*
X185570774Y-139652998D01*
X185546221Y-139516769D01*
X185484300Y-139315667D01*
X185707605Y-139521979D01*
X185875555Y-139651904D01*
X185986718Y-139660709D01*
X186033718Y-139625482D01*
X186092040Y-139492044D01*
X186044353Y-139376836D01*
X185950843Y-139290762D01*
X185921099Y-139284293D01*
X185921099Y-138521041D01*
X185844000Y-138384333D01*
X185771217Y-138403161D01*
X185759333Y-138462051D01*
X185687483Y-138610548D01*
X185518129Y-138744728D01*
X185320561Y-138821076D01*
X185197409Y-138814934D01*
X185027834Y-138827037D01*
X184891079Y-138911458D01*
X184783811Y-139020008D01*
X184809021Y-139073721D01*
X184966823Y-139115149D01*
X185325252Y-139174123D01*
X185567153Y-139157295D01*
X185730362Y-139058465D01*
X185791929Y-138979979D01*
X185902202Y-138738193D01*
X185921099Y-138521041D01*
X185921099Y-139284293D01*
X185784155Y-139254512D01*
X185498566Y-139258530D01*
X185482828Y-139259465D01*
X185187460Y-139259322D01*
X184939622Y-139228081D01*
X184841210Y-139195737D01*
X184672484Y-139150119D01*
X184616475Y-139188438D01*
X184507544Y-139235865D01*
X184291529Y-139258959D01*
X184166836Y-139258541D01*
X183769667Y-139243749D01*
X184121102Y-139211750D01*
X184388887Y-139141608D01*
X184641824Y-138998717D01*
X184856750Y-138811311D01*
X185010505Y-138607627D01*
X185079928Y-138415900D01*
X185041859Y-138264365D01*
X184949926Y-138201337D01*
X184799533Y-138231246D01*
X184588773Y-138402750D01*
X184536340Y-138457994D01*
X184317661Y-138667287D01*
X184157709Y-138760836D01*
X184074112Y-138730295D01*
X184066000Y-138680667D01*
X184133570Y-138603360D01*
X184179878Y-138596000D01*
X184333670Y-138540028D01*
X184457942Y-138411432D01*
X184508220Y-138269191D01*
X184480334Y-138197534D01*
X184433829Y-138064936D01*
X184484468Y-137927756D01*
X184601652Y-137802173D01*
X184806474Y-137752796D01*
X184918624Y-137749333D01*
X185268032Y-137794054D01*
X185510828Y-137917702D01*
X185624696Y-138104510D01*
X185620688Y-138245436D01*
X185571911Y-138402407D01*
X185571911Y-138043965D01*
X185561778Y-138031555D01*
X185511443Y-138043178D01*
X185505333Y-138088000D01*
X185536311Y-138157690D01*
X185561778Y-138144444D01*
X185571911Y-138043965D01*
X185571911Y-138402407D01*
X185552382Y-138465255D01*
X185494223Y-138525055D01*
X185455453Y-138422556D01*
X185445514Y-138288629D01*
X185400541Y-138026067D01*
X185265914Y-137887231D01*
X185013837Y-137849432D01*
X184913371Y-137854236D01*
X184690427Y-137901717D01*
X184593188Y-138014177D01*
X184586105Y-138042971D01*
X184582898Y-138154918D01*
X184658304Y-138125544D01*
X184670068Y-138116222D01*
X184855464Y-138052733D01*
X185030480Y-138123193D01*
X185146112Y-138296680D01*
X185166667Y-138429562D01*
X185183646Y-138610645D01*
X185265861Y-138670851D01*
X185399500Y-138665124D01*
X185589683Y-138596162D01*
X185660037Y-138442884D01*
X185730645Y-138291391D01*
X185829370Y-138275784D01*
X185916932Y-138333193D01*
X185960248Y-138485381D01*
X185971000Y-138741047D01*
X185990468Y-139012483D01*
X186040130Y-139220570D01*
X186076833Y-139284913D01*
X186181771Y-139467607D01*
X186142796Y-139625939D01*
X185985320Y-139737265D01*
X185734753Y-139778942D01*
X185543818Y-139759875D01*
X185360299Y-139769713D01*
X185203008Y-139902769D01*
X185160315Y-139959587D01*
X184967732Y-140173065D01*
X184758719Y-140336046D01*
X184623864Y-140430749D01*
X184562797Y-140542832D01*
X184556766Y-140729698D01*
X184572287Y-140906758D01*
X184605976Y-141163994D01*
X184661254Y-141301331D01*
X184770860Y-141367836D01*
X184900865Y-141399217D01*
X185128546Y-141471650D01*
X185288717Y-141567410D01*
X185292921Y-141571722D01*
X185368301Y-141720829D01*
X185427810Y-141956711D01*
X185464181Y-142220881D01*
X185470143Y-142454848D01*
X185438428Y-142600124D01*
X185422749Y-142616379D01*
X185357467Y-142588669D01*
X185336000Y-142455987D01*
X185307794Y-142302715D01*
X185212200Y-142289511D01*
X185209000Y-142290715D01*
X185100069Y-142305667D01*
X185105796Y-142215914D01*
X185208543Y-142037579D01*
X185287959Y-141868624D01*
X185249311Y-141736920D01*
X185229710Y-141710440D01*
X185059753Y-141567626D01*
X184873037Y-141509015D01*
X184727431Y-141546509D01*
X184690123Y-141599480D01*
X184673219Y-141747735D01*
X184733642Y-141803862D01*
X184829002Y-141729810D01*
X184831307Y-141726215D01*
X184894821Y-141648924D01*
X184911200Y-141727680D01*
X184911370Y-141740411D01*
X184837876Y-141846911D01*
X184654829Y-141925920D01*
X184421601Y-141961659D01*
X184197568Y-141938350D01*
X184183199Y-141933915D01*
X183985956Y-141870579D01*
X183904837Y-141845214D01*
X183835149Y-141798456D01*
X183908326Y-141716115D01*
X183922581Y-141705170D01*
X184023597Y-141534651D01*
X184082761Y-141217842D01*
X184089248Y-141136000D01*
X184105309Y-140898205D01*
X184115599Y-140806091D01*
X184123071Y-140866481D01*
X184130674Y-141086199D01*
X184135005Y-141241833D01*
X184148837Y-141547538D01*
X184176975Y-141720383D01*
X184230974Y-141796818D01*
X184316178Y-141813333D01*
X184400512Y-141798488D01*
X184448298Y-141730525D01*
X184467779Y-141574303D01*
X184467197Y-141294680D01*
X184464345Y-141181576D01*
X184447000Y-140549818D01*
X184108333Y-140600691D01*
X183889327Y-140637679D01*
X183756614Y-140667819D01*
X183742609Y-140673895D01*
X183708612Y-140761072D01*
X183647686Y-140964920D01*
X183586505Y-141190397D01*
X183518723Y-141467614D01*
X183499463Y-141627450D01*
X183529900Y-141715104D01*
X183601568Y-141770117D01*
X183896303Y-141960752D01*
X184062046Y-142120086D01*
X184124991Y-142284575D01*
X184112911Y-142481802D01*
X184061296Y-142789464D01*
X184037124Y-142942523D01*
X184037124Y-142451252D01*
X184034513Y-142282973D01*
X183879152Y-142119987D01*
X183833167Y-142086981D01*
X183593579Y-141925646D01*
X183460470Y-141858882D01*
X183402637Y-141882682D01*
X183388878Y-141993037D01*
X183388667Y-142029878D01*
X183411653Y-142190343D01*
X183504334Y-142223213D01*
X183558117Y-142212104D01*
X183672703Y-142206528D01*
X183680120Y-142244562D01*
X183561837Y-142300355D01*
X183341440Y-142311090D01*
X183070211Y-142285144D01*
X182799436Y-142230892D01*
X182580399Y-142156708D01*
X182464385Y-142070969D01*
X182457333Y-142044873D01*
X182518793Y-141998148D01*
X182575990Y-142010083D01*
X182692300Y-141981619D01*
X182736376Y-141896047D01*
X182742811Y-141790468D01*
X182655655Y-141765599D01*
X182511885Y-141786820D01*
X182290288Y-141847686D01*
X182139833Y-141920281D01*
X182057033Y-142077271D01*
X182039300Y-142320553D01*
X182087302Y-142579806D01*
X182132528Y-142686733D01*
X182191949Y-142811438D01*
X182156747Y-142808207D01*
X182096099Y-142760367D01*
X181981314Y-142699393D01*
X181894964Y-142775838D01*
X181865881Y-142827065D01*
X181806837Y-143072602D01*
X181906427Y-143271207D01*
X182141833Y-143401682D01*
X182368125Y-143447216D01*
X182688666Y-143479561D01*
X183047289Y-143496860D01*
X183387826Y-143497257D01*
X183654109Y-143478894D01*
X183762742Y-143455275D01*
X183854040Y-143348756D01*
X183895007Y-143168584D01*
X183879574Y-142992093D01*
X183806475Y-142898047D01*
X183790649Y-142822778D01*
X183882061Y-142677004D01*
X183891142Y-142666370D01*
X184037124Y-142451252D01*
X184037124Y-142942523D01*
X184011780Y-143103004D01*
X184011474Y-143105031D01*
X183965655Y-143320285D01*
X183913114Y-143450175D01*
X183902311Y-143460845D01*
X183883335Y-143558061D01*
X183905364Y-143760943D01*
X183929254Y-143878258D01*
X184032511Y-144170739D01*
X184185525Y-144332293D01*
X184221940Y-144351114D01*
X184384957Y-144408679D01*
X184461352Y-144409537D01*
X184494482Y-144312768D01*
X184540165Y-144104898D01*
X184566163Y-143961867D01*
X184632691Y-143645351D01*
X184712955Y-143371108D01*
X184793424Y-143176371D01*
X184860564Y-143098375D01*
X184877662Y-143104773D01*
X184876432Y-143203412D01*
X184818578Y-143394875D01*
X184790626Y-143465522D01*
X184703985Y-143764550D01*
X184660028Y-144095617D01*
X184658667Y-144152006D01*
X184668021Y-144383058D01*
X184713561Y-144490975D01*
X184821500Y-144521659D01*
X184870333Y-144522667D01*
X185005144Y-144504948D01*
X185066141Y-144420444D01*
X185081799Y-144222136D01*
X185082000Y-144173139D01*
X185152815Y-143778666D01*
X185345088Y-143363783D01*
X185513347Y-143084896D01*
X185609234Y-142956347D01*
X185629546Y-142973911D01*
X185571075Y-143133361D01*
X185430618Y-143430474D01*
X185416694Y-143458181D01*
X185260166Y-143833528D01*
X185178596Y-144172734D01*
X185175200Y-144443018D01*
X185253198Y-144611596D01*
X185300591Y-144640608D01*
X185464460Y-144668461D01*
X185747119Y-144684724D01*
X186098427Y-144689480D01*
X186468244Y-144682814D01*
X186806429Y-144664811D01*
X187050500Y-144637657D01*
X187258881Y-144576797D01*
X187364070Y-144492763D01*
X187368000Y-144474081D01*
X187305106Y-144329506D01*
X187136572Y-144111750D01*
X186892619Y-143848701D01*
X186603468Y-143568251D01*
X186299340Y-143298288D01*
X186010457Y-143066702D01*
X185767041Y-142901383D01*
X185599311Y-142830221D01*
X185585755Y-142829333D01*
X185508016Y-142764441D01*
X185505333Y-142742138D01*
X185562826Y-142704976D01*
X185718785Y-142766786D01*
X185948432Y-142910417D01*
X186226988Y-143118719D01*
X186529674Y-143374540D01*
X186830032Y-143659038D01*
X187202763Y-144055956D01*
X187438093Y-144357738D01*
X187535541Y-144563686D01*
X187535541Y-144563686D01*
G36*
X185273398Y-142766132D02*
X185271237Y-142809856D01*
X185145408Y-142881990D01*
X184935756Y-142966929D01*
X184682125Y-143049070D01*
X184424361Y-143112812D01*
X184355993Y-143125383D01*
X184157637Y-143149967D01*
X184108771Y-143129639D01*
X184150667Y-143090965D01*
X184337231Y-143017116D01*
X184472371Y-142999963D01*
X184685423Y-142960089D01*
X184922611Y-142866524D01*
X185123251Y-142784801D01*
X185266490Y-142764310D01*
X185273398Y-142766132D01*
X185273398Y-142766132D01*
X185273398Y-142766132D01*
G37*
X185273398Y-142766132D02*
X185271237Y-142809856D01*
X185145408Y-142881990D01*
X184935756Y-142966929D01*
X184682125Y-143049070D01*
X184424361Y-143112812D01*
X184355993Y-143125383D01*
X184157637Y-143149967D01*
X184108771Y-143129639D01*
X184150667Y-143090965D01*
X184337231Y-143017116D01*
X184472371Y-142999963D01*
X184685423Y-142960089D01*
X184922611Y-142866524D01*
X185123251Y-142784801D01*
X185266490Y-142764310D01*
X185273398Y-142766132D01*
X185273398Y-142766132D01*
G36*
X183939212Y-141488990D02*
X183895675Y-141541510D01*
X183763499Y-141615755D01*
X183614558Y-141663838D01*
X183558000Y-141641739D01*
X183626503Y-141568752D01*
X183772531Y-141502045D01*
X183906856Y-141477370D01*
X183939212Y-141488990D01*
X183939212Y-141488990D01*
X183939212Y-141488990D01*
G37*
X183939212Y-141488990D02*
X183895675Y-141541510D01*
X183763499Y-141615755D01*
X183614558Y-141663838D01*
X183558000Y-141641739D01*
X183626503Y-141568752D01*
X183772531Y-141502045D01*
X183906856Y-141477370D01*
X183939212Y-141488990D01*
X183939212Y-141488990D01*
G36*
X183132092Y-140644125D02*
X183100290Y-140680374D01*
X183041833Y-140604359D01*
X182968001Y-140505059D01*
X182892606Y-140531796D01*
X182827099Y-140604094D01*
X182827099Y-140420619D01*
X182824222Y-140345778D01*
X182731897Y-140353230D01*
X182598551Y-140442843D01*
X182487652Y-140563526D01*
X182457333Y-140641122D01*
X182505973Y-140710428D01*
X182627642Y-140661205D01*
X182740729Y-140557629D01*
X182827099Y-140420619D01*
X182827099Y-140604094D01*
X182811575Y-140621228D01*
X182633314Y-140748319D01*
X182385484Y-140838054D01*
X182352848Y-140844539D01*
X182036697Y-140900339D01*
X182331682Y-140578291D01*
X182533962Y-140335121D01*
X182614045Y-140164944D01*
X182581190Y-140034017D01*
X182503134Y-139953545D01*
X182300565Y-139889140D01*
X182011631Y-139936851D01*
X181668882Y-140088241D01*
X181448948Y-140226731D01*
X181075563Y-140488652D01*
X181131919Y-139882289D01*
X181193512Y-139480677D01*
X181292840Y-139101060D01*
X181374008Y-138893629D01*
X181517063Y-138629608D01*
X181604260Y-138522810D01*
X181624941Y-138567265D01*
X181568449Y-138757008D01*
X181485110Y-138955833D01*
X181384120Y-139217590D01*
X181295316Y-139513936D01*
X181227928Y-139801993D01*
X181191186Y-140038882D01*
X181194319Y-140181725D01*
X181216293Y-140204667D01*
X181309520Y-140161195D01*
X181488118Y-140051618D01*
X181576388Y-139993000D01*
X181915984Y-139829039D01*
X182197219Y-139781333D01*
X182397203Y-139802367D01*
X182561824Y-139887616D01*
X182746152Y-140070303D01*
X182820404Y-140157292D01*
X182991185Y-140380119D01*
X183104246Y-140563199D01*
X183132092Y-140644125D01*
X183132092Y-140644125D01*
X183132092Y-140644125D01*
G37*
X183132092Y-140644125D02*
X183100290Y-140680374D01*
X183041833Y-140604359D01*
X182968001Y-140505059D01*
X182892606Y-140531796D01*
X182827099Y-140604094D01*
X182827099Y-140420619D01*
X182824222Y-140345778D01*
X182731897Y-140353230D01*
X182598551Y-140442843D01*
X182487652Y-140563526D01*
X182457333Y-140641122D01*
X182505973Y-140710428D01*
X182627642Y-140661205D01*
X182740729Y-140557629D01*
X182827099Y-140420619D01*
X182827099Y-140604094D01*
X182811575Y-140621228D01*
X182633314Y-140748319D01*
X182385484Y-140838054D01*
X182352848Y-140844539D01*
X182036697Y-140900339D01*
X182331682Y-140578291D01*
X182533962Y-140335121D01*
X182614045Y-140164944D01*
X182581190Y-140034017D01*
X182503134Y-139953545D01*
X182300565Y-139889140D01*
X182011631Y-139936851D01*
X181668882Y-140088241D01*
X181448948Y-140226731D01*
X181075563Y-140488652D01*
X181131919Y-139882289D01*
X181193512Y-139480677D01*
X181292840Y-139101060D01*
X181374008Y-138893629D01*
X181517063Y-138629608D01*
X181604260Y-138522810D01*
X181624941Y-138567265D01*
X181568449Y-138757008D01*
X181485110Y-138955833D01*
X181384120Y-139217590D01*
X181295316Y-139513936D01*
X181227928Y-139801993D01*
X181191186Y-140038882D01*
X181194319Y-140181725D01*
X181216293Y-140204667D01*
X181309520Y-140161195D01*
X181488118Y-140051618D01*
X181576388Y-139993000D01*
X181915984Y-139829039D01*
X182197219Y-139781333D01*
X182397203Y-139802367D01*
X182561824Y-139887616D01*
X182746152Y-140070303D01*
X182820404Y-140157292D01*
X182991185Y-140380119D01*
X183104246Y-140563199D01*
X183132092Y-140644125D01*
X183132092Y-140644125D01*
G36*
X186434625Y-132924659D02*
X186421640Y-133215008D01*
X186420430Y-133234124D01*
X186387650Y-133525930D01*
X186352000Y-133680312D01*
X186352000Y-132754000D01*
X185756354Y-132754000D01*
X185456835Y-132759518D01*
X185281736Y-132789429D01*
X185230058Y-132863762D01*
X185300802Y-133002551D01*
X185492968Y-133225826D01*
X185720846Y-133465633D01*
X186120318Y-133880933D01*
X186233159Y-133677300D01*
X186306667Y-133460493D01*
X186346746Y-133179713D01*
X186349000Y-133113833D01*
X186352000Y-132754000D01*
X186352000Y-133680312D01*
X186336485Y-133747501D01*
X186283335Y-133844777D01*
X186228854Y-133931412D01*
X186228154Y-134114084D01*
X186267333Y-134362666D01*
X186307353Y-134658525D01*
X186295782Y-134834367D01*
X186273951Y-134866577D01*
X186218967Y-134974121D01*
X186173411Y-135187750D01*
X186160959Y-135295391D01*
X186142485Y-135484310D01*
X186130232Y-135529336D01*
X186120906Y-135421891D01*
X186111636Y-135167000D01*
X186084664Y-134744214D01*
X186036199Y-134447861D01*
X185969684Y-134295211D01*
X185934372Y-134278000D01*
X185867692Y-134350735D01*
X185772610Y-134535393D01*
X185669197Y-134781647D01*
X185577527Y-135039175D01*
X185517673Y-135257650D01*
X185505333Y-135353624D01*
X185477448Y-135576228D01*
X185409004Y-135779534D01*
X185322815Y-135911819D01*
X185251492Y-135929098D01*
X185180954Y-135809933D01*
X185166667Y-135707340D01*
X185135772Y-135591622D01*
X185088780Y-135586143D01*
X184984485Y-135563468D01*
X184851517Y-135426919D01*
X184721929Y-135220691D01*
X184627771Y-134988982D01*
X184613085Y-134930191D01*
X184542204Y-134708548D01*
X184417427Y-134412895D01*
X184300425Y-134174650D01*
X184037014Y-133792096D01*
X183729741Y-133531715D01*
X183403844Y-133398288D01*
X183084565Y-133396597D01*
X182797142Y-133531422D01*
X182566815Y-133807545D01*
X182548105Y-133842699D01*
X182362601Y-134362833D01*
X182323798Y-134886624D01*
X182404679Y-135291577D01*
X182481601Y-135546676D01*
X182500370Y-135683446D01*
X182462912Y-135687681D01*
X182371153Y-135545171D01*
X182370467Y-135543891D01*
X182264916Y-135222647D01*
X182220975Y-134813032D01*
X182240348Y-134385059D01*
X182324739Y-134008740D01*
X182332574Y-133987582D01*
X182549938Y-133591274D01*
X182836748Y-133348745D01*
X183186252Y-133262556D01*
X183591701Y-133335266D01*
X183806841Y-133428701D01*
X184060517Y-133599272D01*
X184272218Y-133844270D01*
X184462604Y-134194535D01*
X184652336Y-134680908D01*
X184659411Y-134701333D01*
X184814106Y-135112223D01*
X184946499Y-135362724D01*
X185069451Y-135458090D01*
X185195825Y-135403577D01*
X185338483Y-135204436D01*
X185436690Y-135018833D01*
X185568649Y-134740194D01*
X185673429Y-134495987D01*
X185714083Y-134383833D01*
X185817904Y-134220860D01*
X185971759Y-134216166D01*
X186087058Y-134299167D01*
X186154218Y-134343340D01*
X186157284Y-134261410D01*
X186133288Y-134151000D01*
X186036170Y-133904802D01*
X185904740Y-133821337D01*
X185767487Y-133880676D01*
X185679266Y-133935429D01*
X185689573Y-133857609D01*
X185696473Y-133838757D01*
X185678342Y-133711962D01*
X185549155Y-133507129D01*
X185300196Y-133211230D01*
X185213091Y-133115955D01*
X184721034Y-132652681D01*
X184192364Y-132298499D01*
X183601518Y-132044173D01*
X182922933Y-131880469D01*
X182131044Y-131798150D01*
X181526000Y-131783927D01*
X180545409Y-131830196D01*
X179696625Y-131967282D01*
X178967155Y-132197396D01*
X178816667Y-132262918D01*
X178435667Y-132438216D01*
X178905514Y-132587509D01*
X179193495Y-132701630D01*
X179511072Y-132863512D01*
X179832205Y-133054562D01*
X180130851Y-133256191D01*
X180380970Y-133449809D01*
X180556520Y-133616824D01*
X180631462Y-133738648D01*
X180594667Y-133793373D01*
X179921655Y-134034351D01*
X179383542Y-134333282D01*
X178948721Y-134717314D01*
X178585585Y-135213591D01*
X178300791Y-135763466D01*
X178180164Y-136039597D01*
X178097906Y-136247660D01*
X178069626Y-136347776D01*
X178070851Y-136350897D01*
X178157981Y-136337613D01*
X178356872Y-136279963D01*
X178562667Y-136211594D01*
X179090687Y-136088069D01*
X179665042Y-136052196D01*
X180208085Y-136106317D01*
X180406590Y-136155967D01*
X180768848Y-136267667D01*
X180430338Y-136717233D01*
X180236520Y-137005171D01*
X180078870Y-137293746D01*
X180005053Y-137479233D01*
X179953554Y-137739854D01*
X179926983Y-138032888D01*
X179923390Y-138323005D01*
X179940825Y-138574877D01*
X179977340Y-138753173D01*
X180030983Y-138822565D01*
X180077282Y-138788011D01*
X180196384Y-138676087D01*
X180414417Y-138517446D01*
X180680703Y-138344688D01*
X180944563Y-138190410D01*
X181155321Y-138087213D01*
X181182739Y-138076915D01*
X181410345Y-137945319D01*
X181564698Y-137785331D01*
X181745589Y-137613220D01*
X181952150Y-137608215D01*
X182182781Y-137770301D01*
X182203333Y-137791667D01*
X182470430Y-137968130D01*
X182787204Y-137983190D01*
X183080844Y-137875812D01*
X183336026Y-137788881D01*
X183626320Y-137749533D01*
X183644818Y-137749333D01*
X183901782Y-137783802D01*
X184099082Y-137915182D01*
X184186040Y-138010502D01*
X184311657Y-138195625D01*
X184356030Y-138337743D01*
X184348956Y-138363644D01*
X184282094Y-138376696D01*
X184227470Y-138280868D01*
X184069300Y-138056998D01*
X183820180Y-137890255D01*
X183586491Y-137834000D01*
X183400860Y-137863037D01*
X183370156Y-137935887D01*
X183493026Y-138031157D01*
X183601828Y-138077012D01*
X183843896Y-138241851D01*
X183962277Y-138491562D01*
X183946013Y-138784657D01*
X183845258Y-138998540D01*
X183812000Y-139061121D01*
X183812000Y-138637704D01*
X183746840Y-138371011D01*
X183547531Y-138193923D01*
X183208334Y-138102850D01*
X182932475Y-138088000D01*
X182616300Y-138107048D01*
X182392919Y-138178872D01*
X182227790Y-138293787D01*
X182227790Y-138006739D01*
X182144378Y-137900300D01*
X181965425Y-137785855D01*
X181779617Y-137781733D01*
X181648108Y-137882464D01*
X181625160Y-137946740D01*
X181658628Y-138120789D01*
X181751295Y-138254401D01*
X181869786Y-138352857D01*
X181965928Y-138341906D01*
X182097373Y-138232854D01*
X182222847Y-138101779D01*
X182227790Y-138006739D01*
X182227790Y-138293787D01*
X182216054Y-138301955D01*
X182004272Y-138553267D01*
X181896702Y-138837071D01*
X181910500Y-139099877D01*
X181939503Y-139164266D01*
X182002370Y-139245391D01*
X182045636Y-139194954D01*
X182082723Y-139042399D01*
X182161505Y-138817719D01*
X182271722Y-138661399D01*
X182363407Y-138600562D01*
X182355994Y-138668238D01*
X182334211Y-138723000D01*
X182237820Y-139049378D01*
X182227551Y-139326606D01*
X182288643Y-139485775D01*
X182401713Y-139593590D01*
X182467103Y-139569180D01*
X182495676Y-139398745D01*
X182499667Y-139217662D01*
X182516647Y-138978343D01*
X182559690Y-138822113D01*
X182586644Y-138793422D01*
X182637966Y-138847192D01*
X182646175Y-139039632D01*
X182641099Y-139104823D01*
X182652871Y-139390779D01*
X182735072Y-139602021D01*
X182869645Y-139695424D01*
X182888917Y-139696667D01*
X182924949Y-139625238D01*
X182912277Y-139452688D01*
X182910923Y-139445781D01*
X182897260Y-139174060D01*
X182930626Y-138958948D01*
X182971630Y-138844341D01*
X183000389Y-138850750D01*
X183025855Y-138995935D01*
X183046420Y-139188667D01*
X183083768Y-139463854D01*
X183138727Y-139611106D01*
X183230071Y-139671814D01*
X183269075Y-139679586D01*
X183450553Y-139652035D01*
X183579240Y-139546263D01*
X183612438Y-139410595D01*
X183571345Y-139337478D01*
X183482896Y-139178193D01*
X183473333Y-139115289D01*
X183501701Y-139035570D01*
X183529043Y-139046821D01*
X183630540Y-139062836D01*
X183730540Y-138955663D01*
X183798824Y-138768993D01*
X183812000Y-138637704D01*
X183812000Y-139061121D01*
X183743977Y-139189119D01*
X183711508Y-139331575D01*
X183712256Y-139335875D01*
X183692989Y-139490208D01*
X183644897Y-139607833D01*
X183556320Y-139709617D01*
X183400728Y-139757709D01*
X183128970Y-139766744D01*
X183112239Y-139766448D01*
X182806681Y-139748944D01*
X182534963Y-139714151D01*
X182439814Y-139693288D01*
X182227102Y-139586757D01*
X182010723Y-139412053D01*
X181988320Y-139388721D01*
X181834349Y-139176154D01*
X181790489Y-138947693D01*
X181797723Y-138816322D01*
X181792987Y-138551694D01*
X181698365Y-138359409D01*
X181631883Y-138286246D01*
X181434332Y-138088695D01*
X181017625Y-138299857D01*
X180707651Y-138479607D01*
X180404204Y-138690724D01*
X180294491Y-138780065D01*
X180099327Y-138936392D01*
X179983953Y-138981474D01*
X179914524Y-138930121D01*
X179797589Y-138599129D01*
X179776695Y-138176439D01*
X179843996Y-137704072D01*
X179991645Y-137224050D01*
X180211797Y-136778395D01*
X180355066Y-136570661D01*
X180448403Y-136401740D01*
X180440867Y-136291667D01*
X180324234Y-136248027D01*
X180089132Y-136204405D01*
X179786166Y-136170163D01*
X179782272Y-136169843D01*
X179376886Y-136155522D01*
X179031891Y-136197859D01*
X178647333Y-136308370D01*
X178352736Y-136415332D01*
X178115862Y-136514391D01*
X177991166Y-136582067D01*
X177899672Y-136620666D01*
X177885333Y-136587621D01*
X177914909Y-136445553D01*
X177990522Y-136202403D01*
X178092498Y-135913158D01*
X178201166Y-135632800D01*
X178296852Y-135416314D01*
X178320559Y-135371202D01*
X178681103Y-134848909D01*
X179121807Y-134396769D01*
X179606584Y-134045387D01*
X180099345Y-133825369D01*
X180164389Y-133807431D01*
X180539217Y-133712258D01*
X180080108Y-133375794D01*
X179777663Y-133156247D01*
X179559725Y-133009738D01*
X179374580Y-132908719D01*
X179170517Y-132825640D01*
X178895822Y-132732953D01*
X178838262Y-132714220D01*
X178565013Y-132615360D01*
X178366451Y-132524582D01*
X178287928Y-132464366D01*
X178344427Y-132370378D01*
X178538065Y-132250957D01*
X178840788Y-132117881D01*
X179224541Y-131982927D01*
X179661271Y-131857873D01*
X179832038Y-131816151D01*
X180642951Y-131675905D01*
X181476935Y-131619035D01*
X182279174Y-131646293D01*
X182994850Y-131758433D01*
X183050000Y-131771920D01*
X183587782Y-131928384D01*
X184078470Y-132109901D01*
X184484048Y-132300379D01*
X184766499Y-132483729D01*
X184798316Y-132511883D01*
X184920217Y-132605006D01*
X185063441Y-132647837D01*
X185280667Y-132648571D01*
X185530208Y-132625745D01*
X185846921Y-132603868D01*
X186119259Y-132606014D01*
X186266850Y-132626846D01*
X186367980Y-132673086D01*
X186420322Y-132758187D01*
X186434625Y-132924659D01*
X186434625Y-132924659D01*
X186434625Y-132924659D01*
G37*
X186434625Y-132924659D02*
X186421640Y-133215008D01*
X186420430Y-133234124D01*
X186387650Y-133525930D01*
X186352000Y-133680312D01*
X186352000Y-132754000D01*
X185756354Y-132754000D01*
X185456835Y-132759518D01*
X185281736Y-132789429D01*
X185230058Y-132863762D01*
X185300802Y-133002551D01*
X185492968Y-133225826D01*
X185720846Y-133465633D01*
X186120318Y-133880933D01*
X186233159Y-133677300D01*
X186306667Y-133460493D01*
X186346746Y-133179713D01*
X186349000Y-133113833D01*
X186352000Y-132754000D01*
X186352000Y-133680312D01*
X186336485Y-133747501D01*
X186283335Y-133844777D01*
X186228854Y-133931412D01*
X186228154Y-134114084D01*
X186267333Y-134362666D01*
X186307353Y-134658525D01*
X186295782Y-134834367D01*
X186273951Y-134866577D01*
X186218967Y-134974121D01*
X186173411Y-135187750D01*
X186160959Y-135295391D01*
X186142485Y-135484310D01*
X186130232Y-135529336D01*
X186120906Y-135421891D01*
X186111636Y-135167000D01*
X186084664Y-134744214D01*
X186036199Y-134447861D01*
X185969684Y-134295211D01*
X185934372Y-134278000D01*
X185867692Y-134350735D01*
X185772610Y-134535393D01*
X185669197Y-134781647D01*
X185577527Y-135039175D01*
X185517673Y-135257650D01*
X185505333Y-135353624D01*
X185477448Y-135576228D01*
X185409004Y-135779534D01*
X185322815Y-135911819D01*
X185251492Y-135929098D01*
X185180954Y-135809933D01*
X185166667Y-135707340D01*
X185135772Y-135591622D01*
X185088780Y-135586143D01*
X184984485Y-135563468D01*
X184851517Y-135426919D01*
X184721929Y-135220691D01*
X184627771Y-134988982D01*
X184613085Y-134930191D01*
X184542204Y-134708548D01*
X184417427Y-134412895D01*
X184300425Y-134174650D01*
X184037014Y-133792096D01*
X183729741Y-133531715D01*
X183403844Y-133398288D01*
X183084565Y-133396597D01*
X182797142Y-133531422D01*
X182566815Y-133807545D01*
X182548105Y-133842699D01*
X182362601Y-134362833D01*
X182323798Y-134886624D01*
X182404679Y-135291577D01*
X182481601Y-135546676D01*
X182500370Y-135683446D01*
X182462912Y-135687681D01*
X182371153Y-135545171D01*
X182370467Y-135543891D01*
X182264916Y-135222647D01*
X182220975Y-134813032D01*
X182240348Y-134385059D01*
X182324739Y-134008740D01*
X182332574Y-133987582D01*
X182549938Y-133591274D01*
X182836748Y-133348745D01*
X183186252Y-133262556D01*
X183591701Y-133335266D01*
X183806841Y-133428701D01*
X184060517Y-133599272D01*
X184272218Y-133844270D01*
X184462604Y-134194535D01*
X184652336Y-134680908D01*
X184659411Y-134701333D01*
X184814106Y-135112223D01*
X184946499Y-135362724D01*
X185069451Y-135458090D01*
X185195825Y-135403577D01*
X185338483Y-135204436D01*
X185436690Y-135018833D01*
X185568649Y-134740194D01*
X185673429Y-134495987D01*
X185714083Y-134383833D01*
X185817904Y-134220860D01*
X185971759Y-134216166D01*
X186087058Y-134299167D01*
X186154218Y-134343340D01*
X186157284Y-134261410D01*
X186133288Y-134151000D01*
X186036170Y-133904802D01*
X185904740Y-133821337D01*
X185767487Y-133880676D01*
X185679266Y-133935429D01*
X185689573Y-133857609D01*
X185696473Y-133838757D01*
X185678342Y-133711962D01*
X185549155Y-133507129D01*
X185300196Y-133211230D01*
X185213091Y-133115955D01*
X184721034Y-132652681D01*
X184192364Y-132298499D01*
X183601518Y-132044173D01*
X182922933Y-131880469D01*
X182131044Y-131798150D01*
X181526000Y-131783927D01*
X180545409Y-131830196D01*
X179696625Y-131967282D01*
X178967155Y-132197396D01*
X178816667Y-132262918D01*
X178435667Y-132438216D01*
X178905514Y-132587509D01*
X179193495Y-132701630D01*
X179511072Y-132863512D01*
X179832205Y-133054562D01*
X180130851Y-133256191D01*
X180380970Y-133449809D01*
X180556520Y-133616824D01*
X180631462Y-133738648D01*
X180594667Y-133793373D01*
X179921655Y-134034351D01*
X179383542Y-134333282D01*
X178948721Y-134717314D01*
X178585585Y-135213591D01*
X178300791Y-135763466D01*
X178180164Y-136039597D01*
X178097906Y-136247660D01*
X178069626Y-136347776D01*
X178070851Y-136350897D01*
X178157981Y-136337613D01*
X178356872Y-136279963D01*
X178562667Y-136211594D01*
X179090687Y-136088069D01*
X179665042Y-136052196D01*
X180208085Y-136106317D01*
X180406590Y-136155967D01*
X180768848Y-136267667D01*
X180430338Y-136717233D01*
X180236520Y-137005171D01*
X180078870Y-137293746D01*
X180005053Y-137479233D01*
X179953554Y-137739854D01*
X179926983Y-138032888D01*
X179923390Y-138323005D01*
X179940825Y-138574877D01*
X179977340Y-138753173D01*
X180030983Y-138822565D01*
X180077282Y-138788011D01*
X180196384Y-138676087D01*
X180414417Y-138517446D01*
X180680703Y-138344688D01*
X180944563Y-138190410D01*
X181155321Y-138087213D01*
X181182739Y-138076915D01*
X181410345Y-137945319D01*
X181564698Y-137785331D01*
X181745589Y-137613220D01*
X181952150Y-137608215D01*
X182182781Y-137770301D01*
X182203333Y-137791667D01*
X182470430Y-137968130D01*
X182787204Y-137983190D01*
X183080844Y-137875812D01*
X183336026Y-137788881D01*
X183626320Y-137749533D01*
X183644818Y-137749333D01*
X183901782Y-137783802D01*
X184099082Y-137915182D01*
X184186040Y-138010502D01*
X184311657Y-138195625D01*
X184356030Y-138337743D01*
X184348956Y-138363644D01*
X184282094Y-138376696D01*
X184227470Y-138280868D01*
X184069300Y-138056998D01*
X183820180Y-137890255D01*
X183586491Y-137834000D01*
X183400860Y-137863037D01*
X183370156Y-137935887D01*
X183493026Y-138031157D01*
X183601828Y-138077012D01*
X183843896Y-138241851D01*
X183962277Y-138491562D01*
X183946013Y-138784657D01*
X183845258Y-138998540D01*
X183812000Y-139061121D01*
X183812000Y-138637704D01*
X183746840Y-138371011D01*
X183547531Y-138193923D01*
X183208334Y-138102850D01*
X182932475Y-138088000D01*
X182616300Y-138107048D01*
X182392919Y-138178872D01*
X182227790Y-138293787D01*
X182227790Y-138006739D01*
X182144378Y-137900300D01*
X181965425Y-137785855D01*
X181779617Y-137781733D01*
X181648108Y-137882464D01*
X181625160Y-137946740D01*
X181658628Y-138120789D01*
X181751295Y-138254401D01*
X181869786Y-138352857D01*
X181965928Y-138341906D01*
X182097373Y-138232854D01*
X182222847Y-138101779D01*
X182227790Y-138006739D01*
X182227790Y-138293787D01*
X182216054Y-138301955D01*
X182004272Y-138553267D01*
X181896702Y-138837071D01*
X181910500Y-139099877D01*
X181939503Y-139164266D01*
X182002370Y-139245391D01*
X182045636Y-139194954D01*
X182082723Y-139042399D01*
X182161505Y-138817719D01*
X182271722Y-138661399D01*
X182363407Y-138600562D01*
X182355994Y-138668238D01*
X182334211Y-138723000D01*
X182237820Y-139049378D01*
X182227551Y-139326606D01*
X182288643Y-139485775D01*
X182401713Y-139593590D01*
X182467103Y-139569180D01*
X182495676Y-139398745D01*
X182499667Y-139217662D01*
X182516647Y-138978343D01*
X182559690Y-138822113D01*
X182586644Y-138793422D01*
X182637966Y-138847192D01*
X182646175Y-139039632D01*
X182641099Y-139104823D01*
X182652871Y-139390779D01*
X182735072Y-139602021D01*
X182869645Y-139695424D01*
X182888917Y-139696667D01*
X182924949Y-139625238D01*
X182912277Y-139452688D01*
X182910923Y-139445781D01*
X182897260Y-139174060D01*
X182930626Y-138958948D01*
X182971630Y-138844341D01*
X183000389Y-138850750D01*
X183025855Y-138995935D01*
X183046420Y-139188667D01*
X183083768Y-139463854D01*
X183138727Y-139611106D01*
X183230071Y-139671814D01*
X183269075Y-139679586D01*
X183450553Y-139652035D01*
X183579240Y-139546263D01*
X183612438Y-139410595D01*
X183571345Y-139337478D01*
X183482896Y-139178193D01*
X183473333Y-139115289D01*
X183501701Y-139035570D01*
X183529043Y-139046821D01*
X183630540Y-139062836D01*
X183730540Y-138955663D01*
X183798824Y-138768993D01*
X183812000Y-138637704D01*
X183812000Y-139061121D01*
X183743977Y-139189119D01*
X183711508Y-139331575D01*
X183712256Y-139335875D01*
X183692989Y-139490208D01*
X183644897Y-139607833D01*
X183556320Y-139709617D01*
X183400728Y-139757709D01*
X183128970Y-139766744D01*
X183112239Y-139766448D01*
X182806681Y-139748944D01*
X182534963Y-139714151D01*
X182439814Y-139693288D01*
X182227102Y-139586757D01*
X182010723Y-139412053D01*
X181988320Y-139388721D01*
X181834349Y-139176154D01*
X181790489Y-138947693D01*
X181797723Y-138816322D01*
X181792987Y-138551694D01*
X181698365Y-138359409D01*
X181631883Y-138286246D01*
X181434332Y-138088695D01*
X181017625Y-138299857D01*
X180707651Y-138479607D01*
X180404204Y-138690724D01*
X180294491Y-138780065D01*
X180099327Y-138936392D01*
X179983953Y-138981474D01*
X179914524Y-138930121D01*
X179797589Y-138599129D01*
X179776695Y-138176439D01*
X179843996Y-137704072D01*
X179991645Y-137224050D01*
X180211797Y-136778395D01*
X180355066Y-136570661D01*
X180448403Y-136401740D01*
X180440867Y-136291667D01*
X180324234Y-136248027D01*
X180089132Y-136204405D01*
X179786166Y-136170163D01*
X179782272Y-136169843D01*
X179376886Y-136155522D01*
X179031891Y-136197859D01*
X178647333Y-136308370D01*
X178352736Y-136415332D01*
X178115862Y-136514391D01*
X177991166Y-136582067D01*
X177899672Y-136620666D01*
X177885333Y-136587621D01*
X177914909Y-136445553D01*
X177990522Y-136202403D01*
X178092498Y-135913158D01*
X178201166Y-135632800D01*
X178296852Y-135416314D01*
X178320559Y-135371202D01*
X178681103Y-134848909D01*
X179121807Y-134396769D01*
X179606584Y-134045387D01*
X180099345Y-133825369D01*
X180164389Y-133807431D01*
X180539217Y-133712258D01*
X180080108Y-133375794D01*
X179777663Y-133156247D01*
X179559725Y-133009738D01*
X179374580Y-132908719D01*
X179170517Y-132825640D01*
X178895822Y-132732953D01*
X178838262Y-132714220D01*
X178565013Y-132615360D01*
X178366451Y-132524582D01*
X178287928Y-132464366D01*
X178344427Y-132370378D01*
X178538065Y-132250957D01*
X178840788Y-132117881D01*
X179224541Y-131982927D01*
X179661271Y-131857873D01*
X179832038Y-131816151D01*
X180642951Y-131675905D01*
X181476935Y-131619035D01*
X182279174Y-131646293D01*
X182994850Y-131758433D01*
X183050000Y-131771920D01*
X183587782Y-131928384D01*
X184078470Y-132109901D01*
X184484048Y-132300379D01*
X184766499Y-132483729D01*
X184798316Y-132511883D01*
X184920217Y-132605006D01*
X185063441Y-132647837D01*
X185280667Y-132648571D01*
X185530208Y-132625745D01*
X185846921Y-132603868D01*
X186119259Y-132606014D01*
X186266850Y-132626846D01*
X186367980Y-132673086D01*
X186420322Y-132758187D01*
X186434625Y-132924659D01*
X186434625Y-132924659D01*
G36*
X185255139Y-136086156D02*
X185151869Y-136141322D01*
X184957694Y-136216024D01*
X184709039Y-136298489D01*
X184442332Y-136376943D01*
X184194000Y-136439612D01*
X184000470Y-136474722D01*
X183943675Y-136478417D01*
X183704896Y-136451859D01*
X183401267Y-136385344D01*
X183096657Y-136296638D01*
X182854934Y-136203511D01*
X182762891Y-136149925D01*
X182623059Y-136078307D01*
X182400456Y-136000794D01*
X182358023Y-135988762D01*
X182050814Y-135960344D01*
X181836998Y-136050270D01*
X181720953Y-136232835D01*
X181707058Y-136482332D01*
X181799690Y-136773058D01*
X182003228Y-137079307D01*
X182146771Y-137229116D01*
X182351367Y-137385204D01*
X182628206Y-137554917D01*
X182768649Y-137628634D01*
X182976444Y-137742863D01*
X183048726Y-137812618D01*
X183007667Y-137829424D01*
X182816651Y-137793125D01*
X182582838Y-137704028D01*
X182567354Y-137696525D01*
X182212489Y-137470239D01*
X181924120Y-137188646D01*
X181711547Y-136878095D01*
X181584067Y-136564934D01*
X181550981Y-136275512D01*
X181621588Y-136036179D01*
X181805187Y-135873282D01*
X181910673Y-135835846D01*
X182095877Y-135840398D01*
X182388840Y-135903111D01*
X182744078Y-136010109D01*
X183116105Y-136147514D01*
X183459436Y-136301448D01*
X183493351Y-136318718D01*
X183793489Y-136389571D01*
X184191067Y-136355703D01*
X184638408Y-136225290D01*
X184912052Y-136131943D01*
X185138504Y-136073261D01*
X185231075Y-136062302D01*
X185255139Y-136086156D01*
X185255139Y-136086156D01*
X185255139Y-136086156D01*
G37*
X185255139Y-136086156D02*
X185151869Y-136141322D01*
X184957694Y-136216024D01*
X184709039Y-136298489D01*
X184442332Y-136376943D01*
X184194000Y-136439612D01*
X184000470Y-136474722D01*
X183943675Y-136478417D01*
X183704896Y-136451859D01*
X183401267Y-136385344D01*
X183096657Y-136296638D01*
X182854934Y-136203511D01*
X182762891Y-136149925D01*
X182623059Y-136078307D01*
X182400456Y-136000794D01*
X182358023Y-135988762D01*
X182050814Y-135960344D01*
X181836998Y-136050270D01*
X181720953Y-136232835D01*
X181707058Y-136482332D01*
X181799690Y-136773058D01*
X182003228Y-137079307D01*
X182146771Y-137229116D01*
X182351367Y-137385204D01*
X182628206Y-137554917D01*
X182768649Y-137628634D01*
X182976444Y-137742863D01*
X183048726Y-137812618D01*
X183007667Y-137829424D01*
X182816651Y-137793125D01*
X182582838Y-137704028D01*
X182567354Y-137696525D01*
X182212489Y-137470239D01*
X181924120Y-137188646D01*
X181711547Y-136878095D01*
X181584067Y-136564934D01*
X181550981Y-136275512D01*
X181621588Y-136036179D01*
X181805187Y-135873282D01*
X181910673Y-135835846D01*
X182095877Y-135840398D01*
X182388840Y-135903111D01*
X182744078Y-136010109D01*
X183116105Y-136147514D01*
X183459436Y-136301448D01*
X183493351Y-136318718D01*
X183793489Y-136389571D01*
X184191067Y-136355703D01*
X184638408Y-136225290D01*
X184912052Y-136131943D01*
X185138504Y-136073261D01*
X185231075Y-136062302D01*
X185255139Y-136086156D01*
X185255139Y-136086156D01*
G36*
X186337524Y-136001025D02*
X186300387Y-136166628D01*
X186173444Y-136358232D01*
X186009198Y-136511618D01*
X185877280Y-136564000D01*
X185767352Y-136634072D01*
X185719478Y-136725525D01*
X185627361Y-136876011D01*
X185451321Y-137075225D01*
X185234404Y-137283252D01*
X185019655Y-137460181D01*
X184850120Y-137566099D01*
X184797925Y-137580000D01*
X184647829Y-137639811D01*
X184574000Y-137707000D01*
X184456186Y-137790570D01*
X184313182Y-137831011D01*
X184204357Y-137821727D01*
X184189084Y-137756121D01*
X184193000Y-137749333D01*
X184316401Y-137669184D01*
X184354204Y-137664667D01*
X184501873Y-137615253D01*
X184731864Y-137488377D01*
X184997466Y-137316084D01*
X185251968Y-137130419D01*
X185448661Y-136963428D01*
X185539286Y-136851641D01*
X185532106Y-136672777D01*
X185457343Y-136591727D01*
X185352521Y-136431154D01*
X185385487Y-136236489D01*
X185540973Y-136046081D01*
X185719434Y-135933520D01*
X186026033Y-135828951D01*
X186234567Y-135849228D01*
X186335952Y-135993358D01*
X186337524Y-136001025D01*
X186337524Y-136001025D01*
X186337524Y-136001025D01*
G37*
X186337524Y-136001025D02*
X186300387Y-136166628D01*
X186173444Y-136358232D01*
X186009198Y-136511618D01*
X185877280Y-136564000D01*
X185767352Y-136634072D01*
X185719478Y-136725525D01*
X185627361Y-136876011D01*
X185451321Y-137075225D01*
X185234404Y-137283252D01*
X185019655Y-137460181D01*
X184850120Y-137566099D01*
X184797925Y-137580000D01*
X184647829Y-137639811D01*
X184574000Y-137707000D01*
X184456186Y-137790570D01*
X184313182Y-137831011D01*
X184204357Y-137821727D01*
X184189084Y-137756121D01*
X184193000Y-137749333D01*
X184316401Y-137669184D01*
X184354204Y-137664667D01*
X184501873Y-137615253D01*
X184731864Y-137488377D01*
X184997466Y-137316084D01*
X185251968Y-137130419D01*
X185448661Y-136963428D01*
X185539286Y-136851641D01*
X185532106Y-136672777D01*
X185457343Y-136591727D01*
X185352521Y-136431154D01*
X185385487Y-136236489D01*
X185540973Y-136046081D01*
X185719434Y-135933520D01*
X186026033Y-135828951D01*
X186234567Y-135849228D01*
X186335952Y-135993358D01*
X186337524Y-136001025D01*
X186337524Y-136001025D01*
G36*
X183812000Y-137146792D02*
X183739292Y-137215083D01*
X183552302Y-137234527D01*
X183297726Y-137208803D01*
X183022263Y-137141588D01*
X182838333Y-137070096D01*
X182587897Y-136940422D01*
X182381026Y-136813508D01*
X182340881Y-136783811D01*
X182227277Y-136624637D01*
X182261881Y-136485972D01*
X182424945Y-136409877D01*
X182518176Y-136406197D01*
X182664035Y-136417813D01*
X182648789Y-136436094D01*
X182563167Y-136454419D01*
X182414586Y-136507105D01*
X182372667Y-136555130D01*
X182448894Y-136704070D01*
X182646440Y-136854163D01*
X182918594Y-136985552D01*
X183218651Y-137078383D01*
X183499901Y-137112799D01*
X183644874Y-137095955D01*
X183778851Y-137098748D01*
X183812000Y-137146792D01*
X183812000Y-137146792D01*
X183812000Y-137146792D01*
G37*
X183812000Y-137146792D02*
X183739292Y-137215083D01*
X183552302Y-137234527D01*
X183297726Y-137208803D01*
X183022263Y-137141588D01*
X182838333Y-137070096D01*
X182587897Y-136940422D01*
X182381026Y-136813508D01*
X182340881Y-136783811D01*
X182227277Y-136624637D01*
X182261881Y-136485972D01*
X182424945Y-136409877D01*
X182518176Y-136406197D01*
X182664035Y-136417813D01*
X182648789Y-136436094D01*
X182563167Y-136454419D01*
X182414586Y-136507105D01*
X182372667Y-136555130D01*
X182448894Y-136704070D01*
X182646440Y-136854163D01*
X182918594Y-136985552D01*
X183218651Y-137078383D01*
X183499901Y-137112799D01*
X183644874Y-137095955D01*
X183778851Y-137098748D01*
X183812000Y-137146792D01*
X183812000Y-137146792D01*
G36*
X183550019Y-135158769D02*
X183506038Y-135475718D01*
X183465051Y-135620032D01*
X183355838Y-135818901D01*
X183231759Y-135882592D01*
X183123375Y-135799952D01*
X183101392Y-135752742D01*
X183052219Y-135518420D01*
X183044194Y-135220057D01*
X183070843Y-134902424D01*
X183125692Y-134610293D01*
X183202270Y-134388436D01*
X183294101Y-134281624D01*
X183314611Y-134278000D01*
X183425559Y-134354466D01*
X183504978Y-134555307D01*
X183548065Y-134837686D01*
X183550019Y-135158769D01*
X183550019Y-135158769D01*
X183550019Y-135158769D01*
G37*
X183550019Y-135158769D02*
X183506038Y-135475718D01*
X183465051Y-135620032D01*
X183355838Y-135818901D01*
X183231759Y-135882592D01*
X183123375Y-135799952D01*
X183101392Y-135752742D01*
X183052219Y-135518420D01*
X183044194Y-135220057D01*
X183070843Y-134902424D01*
X183125692Y-134610293D01*
X183202270Y-134388436D01*
X183294101Y-134281624D01*
X183314611Y-134278000D01*
X183425559Y-134354466D01*
X183504978Y-134555307D01*
X183548065Y-134837686D01*
X183550019Y-135158769D01*
X183550019Y-135158769D01*
G36*
X182873113Y-132647641D02*
X182819308Y-132633684D01*
X182753667Y-132600504D01*
X182364251Y-132430494D01*
X181960100Y-132305866D01*
X181612634Y-132247773D01*
X181556772Y-132246000D01*
X181252305Y-132246000D01*
X181286312Y-133092667D01*
X181300819Y-133509254D01*
X181303341Y-133774008D01*
X181292412Y-133904099D01*
X181266567Y-133916700D01*
X181224341Y-133828983D01*
X181223636Y-133827148D01*
X181207295Y-133697217D01*
X181199315Y-133442219D01*
X181200592Y-133106257D01*
X181205127Y-132916982D01*
X181229667Y-132119000D01*
X181610667Y-132149426D01*
X181986294Y-132210813D01*
X182357575Y-132323448D01*
X182662383Y-132465599D01*
X182796000Y-132564083D01*
X182873113Y-132647641D01*
X182873113Y-132647641D01*
X182873113Y-132647641D01*
G37*
X182873113Y-132647641D02*
X182819308Y-132633684D01*
X182753667Y-132600504D01*
X182364251Y-132430494D01*
X181960100Y-132305866D01*
X181612634Y-132247773D01*
X181556772Y-132246000D01*
X181252305Y-132246000D01*
X181286312Y-133092667D01*
X181300819Y-133509254D01*
X181303341Y-133774008D01*
X181292412Y-133904099D01*
X181266567Y-133916700D01*
X181224341Y-133828983D01*
X181223636Y-133827148D01*
X181207295Y-133697217D01*
X181199315Y-133442219D01*
X181200592Y-133106257D01*
X181205127Y-132916982D01*
X181229667Y-132119000D01*
X181610667Y-132149426D01*
X181986294Y-132210813D01*
X182357575Y-132323448D01*
X182662383Y-132465599D01*
X182796000Y-132564083D01*
X182873113Y-132647641D01*
X182873113Y-132647641D01*
G36*
X182572190Y-132941109D02*
X182568274Y-133000131D01*
X182519802Y-133008000D01*
X182396869Y-133062120D01*
X182371618Y-133080262D01*
X182371618Y-132910449D01*
X182300927Y-132849209D01*
X182130257Y-132772674D01*
X181924313Y-132704970D01*
X181747796Y-132670226D01*
X181725032Y-132669333D01*
X181646892Y-132736705D01*
X181612935Y-132948850D01*
X181610667Y-133057389D01*
X181622884Y-133280119D01*
X181653902Y-133405846D01*
X181674167Y-133417222D01*
X181778150Y-133356323D01*
X181965490Y-133236073D01*
X182054118Y-133177333D01*
X182244659Y-133038850D01*
X182358005Y-132935172D01*
X182371618Y-132910449D01*
X182371618Y-133080262D01*
X182202048Y-133202099D01*
X182034000Y-133346667D01*
X181825933Y-133528496D01*
X181664003Y-133651423D01*
X181596579Y-133685333D01*
X181560431Y-133608155D01*
X181534980Y-133406435D01*
X181526000Y-133142055D01*
X181538248Y-132809071D01*
X181591205Y-132621575D01*
X181709192Y-132556516D01*
X181916530Y-132590844D01*
X182058708Y-132637170D01*
X182287049Y-132735214D01*
X182468329Y-132844665D01*
X182572190Y-132941109D01*
X182572190Y-132941109D01*
X182572190Y-132941109D01*
G37*
X182572190Y-132941109D02*
X182568274Y-133000131D01*
X182519802Y-133008000D01*
X182396869Y-133062120D01*
X182371618Y-133080262D01*
X182371618Y-132910449D01*
X182300927Y-132849209D01*
X182130257Y-132772674D01*
X181924313Y-132704970D01*
X181747796Y-132670226D01*
X181725032Y-132669333D01*
X181646892Y-132736705D01*
X181612935Y-132948850D01*
X181610667Y-133057389D01*
X181622884Y-133280119D01*
X181653902Y-133405846D01*
X181674167Y-133417222D01*
X181778150Y-133356323D01*
X181965490Y-133236073D01*
X182054118Y-133177333D01*
X182244659Y-133038850D01*
X182358005Y-132935172D01*
X182371618Y-132910449D01*
X182371618Y-133080262D01*
X182202048Y-133202099D01*
X182034000Y-133346667D01*
X181825933Y-133528496D01*
X181664003Y-133651423D01*
X181596579Y-133685333D01*
X181560431Y-133608155D01*
X181534980Y-133406435D01*
X181526000Y-133142055D01*
X181538248Y-132809071D01*
X181591205Y-132621575D01*
X181709192Y-132556516D01*
X181916530Y-132590844D01*
X182058708Y-132637170D01*
X182287049Y-132735214D01*
X182468329Y-132844665D01*
X182572190Y-132941109D01*
X182572190Y-132941109D01*
G36*
X184066000Y-133306054D02*
X184064261Y-133332557D01*
X184033630Y-133333103D01*
X183935983Y-133295023D01*
X183733197Y-133205652D01*
X183642667Y-133165392D01*
X183310949Y-133056586D01*
X183039013Y-133040539D01*
X183024624Y-133043098D01*
X182864461Y-133054549D01*
X182839121Y-133006725D01*
X182973971Y-132934620D01*
X183210143Y-132933456D01*
X183497571Y-132998311D01*
X183730706Y-133094387D01*
X183932693Y-133205685D01*
X184052134Y-133287443D01*
X184066000Y-133306054D01*
X184066000Y-133306054D01*
X184066000Y-133306054D01*
G37*
X184066000Y-133306054D02*
X184064261Y-133332557D01*
X184033630Y-133333103D01*
X183935983Y-133295023D01*
X183733197Y-133205652D01*
X183642667Y-133165392D01*
X183310949Y-133056586D01*
X183039013Y-133040539D01*
X183024624Y-133043098D01*
X182864461Y-133054549D01*
X182839121Y-133006725D01*
X182973971Y-132934620D01*
X183210143Y-132933456D01*
X183497571Y-132998311D01*
X183730706Y-133094387D01*
X183932693Y-133205685D01*
X184052134Y-133287443D01*
X184066000Y-133306054D01*
X184066000Y-133306054D01*
G36*
X183197511Y-145004975D02*
X183194100Y-145138934D01*
X183165586Y-145272521D01*
X183152955Y-145241369D01*
X183146197Y-145143425D01*
X183113399Y-144914418D01*
X183085940Y-144804758D01*
X183056527Y-144697864D01*
X183092704Y-144736958D01*
X183133843Y-144800268D01*
X183197511Y-145004975D01*
X183197511Y-145004975D01*
X183197511Y-145004975D01*
G37*
X183197511Y-145004975D02*
X183194100Y-145138934D01*
X183165586Y-145272521D01*
X183152955Y-145241369D01*
X183146197Y-145143425D01*
X183113399Y-144914418D01*
X183085940Y-144804758D01*
X183056527Y-144697864D01*
X183092704Y-144736958D01*
X183133843Y-144800268D01*
X183197511Y-145004975D01*
X183197511Y-145004975D01*
D12*
X195825000Y-129475000D02*
X195825000Y-130475000D01*
X216175000Y-129475000D02*
X216175000Y-130550000D01*
X216175000Y-149825000D02*
X216175000Y-148750000D01*
X195825000Y-149825000D02*
X195825000Y-148750000D01*
X195825000Y-129475000D02*
X196900000Y-129475000D01*
X195825000Y-149825000D02*
X196900000Y-149825000D01*
X216175000Y-149825000D02*
X215100000Y-149825000D01*
X216175000Y-129475000D02*
X215100000Y-129475000D01*
X195825000Y-130475000D02*
X194725000Y-130475000D01*
X190650000Y-128550000D02*
X182500000Y-128550000D01*
X170350000Y-128550000D02*
X178500000Y-128550000D01*
X190650000Y-119650000D02*
X170350000Y-119650000D01*
X170350000Y-119650000D02*
X170350000Y-128550000D01*
X190650000Y-119650000D02*
X190650000Y-128550000D01*
D13*
X172482000Y-155050000D02*
G75*
G03X172482000Y-155050000I-2032000J0D01*
G01*
D10*
G36*
X170370625Y-157034375D02*
X170370625Y-152986250D01*
X168545000Y-154891250D01*
X168545000Y-155208750D01*
X170370625Y-157034375D01*
G37*
D12*
X248287500Y-145445500D02*
X245112500Y-145445500D01*
X248287500Y-140302000D02*
X245112500Y-140302000D01*
X245112500Y-140302000D02*
X245112500Y-146398000D01*
X245112500Y-146398000D02*
X248287500Y-146398000D01*
X248287500Y-146398000D02*
X248287500Y-140302000D01*
X245112500Y-152004500D02*
X248287500Y-152004500D01*
X245112500Y-157148000D02*
X248287500Y-157148000D01*
X248287500Y-157148000D02*
X248287500Y-151052000D01*
X248287500Y-151052000D02*
X245112500Y-151052000D01*
X245112500Y-151052000D02*
X245112500Y-157148000D01*
X239450000Y-124400000D02*
X238450000Y-124400000D01*
X238450000Y-126100000D02*
X239450000Y-126100000D01*
X219690000Y-120688800D02*
X219690000Y-120738800D01*
X223840000Y-120688800D02*
X223840000Y-120833800D01*
X223840000Y-125838800D02*
X223840000Y-125693800D01*
X219690000Y-125838800D02*
X219690000Y-125693800D01*
X219690000Y-120688800D02*
X223840000Y-120688800D01*
X219690000Y-125838800D02*
X223840000Y-125838800D01*
X219690000Y-120738800D02*
X218290000Y-120738800D01*
X230124300Y-120701500D02*
X230124300Y-120751500D01*
X234274300Y-120701500D02*
X234274300Y-120846500D01*
X234274300Y-125851500D02*
X234274300Y-125706500D01*
X230124300Y-125851500D02*
X230124300Y-125706500D01*
X230124300Y-120701500D02*
X234274300Y-120701500D01*
X230124300Y-125851500D02*
X234274300Y-125851500D01*
X230124300Y-120751500D02*
X228724300Y-120751500D01*
X236494000Y-149174000D02*
X236494000Y-152222000D01*
X236494000Y-152222000D02*
X243606000Y-152222000D01*
X243606000Y-152222000D02*
X243606000Y-149174000D01*
X236494000Y-146126000D02*
X236494000Y-145364000D01*
X236494000Y-145364000D02*
X238018000Y-143078000D01*
X238018000Y-143078000D02*
X242082000Y-143078000D01*
X242082000Y-143078000D02*
X243606000Y-145364000D01*
X243606000Y-145364000D02*
X243606000Y-146126000D01*
X205238095Y-126827381D02*
X205238095Y-127636905D01*
X205285714Y-127732143D01*
X205333333Y-127779762D01*
X205428571Y-127827381D01*
X205619048Y-127827381D01*
X205714286Y-127779762D01*
X205761905Y-127732143D01*
X205809524Y-127636905D01*
X205809524Y-126827381D01*
X206238095Y-126922619D02*
X206285714Y-126875000D01*
X206380952Y-126827381D01*
X206619048Y-126827381D01*
X206714286Y-126875000D01*
X206761905Y-126922619D01*
X206809524Y-127017857D01*
X206809524Y-127113095D01*
X206761905Y-127255952D01*
X206190476Y-127827381D01*
X206809524Y-127827381D01*
D14*
X175690971Y-158383485D02*
X175759914Y-158452428D01*
X175828857Y-158659257D01*
X175828857Y-158797143D01*
X175759914Y-159003971D01*
X175622029Y-159141857D01*
X175484143Y-159210800D01*
X175208371Y-159279743D01*
X175001543Y-159279743D01*
X174725771Y-159210800D01*
X174587886Y-159141857D01*
X174450000Y-159003971D01*
X174381057Y-158797143D01*
X174381057Y-158659257D01*
X174450000Y-158452428D01*
X174518943Y-158383485D01*
X175828857Y-157004628D02*
X175828857Y-157831943D01*
X175828857Y-157418285D02*
X174381057Y-157418285D01*
X174587886Y-157556171D01*
X174725771Y-157694057D01*
X174794714Y-157831943D01*
X175828857Y-155625771D02*
X175828857Y-156453086D01*
X175828857Y-156039428D02*
X174381057Y-156039428D01*
X174587886Y-156177314D01*
X174725771Y-156315200D01*
X174794714Y-156453086D01*
D15*
X167013690Y-153584143D02*
X166956238Y-153641595D01*
X166783881Y-153699048D01*
X166668976Y-153699048D01*
X166496619Y-153641595D01*
X166381714Y-153526690D01*
X166324262Y-153411786D01*
X166266810Y-153181976D01*
X166266810Y-153009619D01*
X166324262Y-152779810D01*
X166381714Y-152664905D01*
X166496619Y-152550000D01*
X166668976Y-152492548D01*
X166783881Y-152492548D01*
X166956238Y-152550000D01*
X167013690Y-152607452D01*
X167530762Y-153699048D02*
X167530762Y-152492548D01*
X167990381Y-152492548D01*
X168105286Y-152550000D01*
X168162738Y-152607452D01*
X168220190Y-152722357D01*
X168220190Y-152894714D01*
X168162738Y-153009619D01*
X168105286Y-153067071D01*
X167990381Y-153124524D01*
X167530762Y-153124524D01*
D16*
X188288321Y-185475989D02*
X188288321Y-183951989D01*
X188820512Y-183951989D01*
X188953559Y-184024560D01*
X189020083Y-184097131D01*
X189086607Y-184242274D01*
X189086607Y-184459989D01*
X189020083Y-184605131D01*
X188953559Y-184677703D01*
X188820512Y-184750274D01*
X188288321Y-184750274D01*
X190417083Y-185475989D02*
X189618797Y-185475989D01*
X190017940Y-185475989D02*
X190017940Y-183951989D01*
X189884892Y-184169703D01*
X189751845Y-184314846D01*
X189618797Y-184387417D01*
D12*
X249216143Y-143992857D02*
X249263762Y-144040476D01*
X249311381Y-144183333D01*
X249311381Y-144278571D01*
X249263762Y-144421429D01*
X249168524Y-144516667D01*
X249073286Y-144564286D01*
X248882810Y-144611905D01*
X248739952Y-144611905D01*
X248549476Y-144564286D01*
X248454238Y-144516667D01*
X248359000Y-144421429D01*
X248311381Y-144278571D01*
X248311381Y-144183333D01*
X248359000Y-144040476D01*
X248406619Y-143992857D01*
X249311381Y-143040476D02*
X249311381Y-143611905D01*
X249311381Y-143326191D02*
X248311381Y-143326191D01*
X248454238Y-143421429D01*
X248549476Y-143516667D01*
X248597095Y-143611905D01*
X248311381Y-142135714D02*
X248311381Y-142611905D01*
X248787571Y-142659524D01*
X248739952Y-142611905D01*
X248692333Y-142516667D01*
X248692333Y-142278571D01*
X248739952Y-142183333D01*
X248787571Y-142135714D01*
X248882810Y-142088095D01*
X249120905Y-142088095D01*
X249216143Y-142135714D01*
X249263762Y-142183333D01*
X249311381Y-142278571D01*
X249311381Y-142516667D01*
X249263762Y-142611905D01*
X249216143Y-142659524D01*
X244898143Y-154742857D02*
X244945762Y-154790476D01*
X244993381Y-154933333D01*
X244993381Y-155028571D01*
X244945762Y-155171429D01*
X244850524Y-155266667D01*
X244755286Y-155314286D01*
X244564810Y-155361905D01*
X244421952Y-155361905D01*
X244231476Y-155314286D01*
X244136238Y-155266667D01*
X244041000Y-155171429D01*
X243993381Y-155028571D01*
X243993381Y-154933333D01*
X244041000Y-154790476D01*
X244088619Y-154742857D01*
X244993381Y-153790476D02*
X244993381Y-154361905D01*
X244993381Y-154076191D02*
X243993381Y-154076191D01*
X244136238Y-154171429D01*
X244231476Y-154266667D01*
X244279095Y-154361905D01*
X243993381Y-153457143D02*
X243993381Y-152790476D01*
X244993381Y-153219048D01*
X238307143Y-123507143D02*
X238259524Y-123554762D01*
X238116667Y-123602381D01*
X238021429Y-123602381D01*
X237878571Y-123554762D01*
X237783333Y-123459524D01*
X237735714Y-123364286D01*
X237688095Y-123173810D01*
X237688095Y-123030952D01*
X237735714Y-122840476D01*
X237783333Y-122745238D01*
X237878571Y-122650000D01*
X238021429Y-122602381D01*
X238116667Y-122602381D01*
X238259524Y-122650000D01*
X238307143Y-122697619D01*
X239259524Y-123602381D02*
X238688095Y-123602381D01*
X238973809Y-123602381D02*
X238973809Y-122602381D01*
X238878571Y-122745238D01*
X238783333Y-122840476D01*
X238688095Y-122888095D01*
X239830952Y-123030952D02*
X239735714Y-122983333D01*
X239688095Y-122935714D01*
X239640476Y-122840476D01*
X239640476Y-122792857D01*
X239688095Y-122697619D01*
X239735714Y-122650000D01*
X239830952Y-122602381D01*
X240021429Y-122602381D01*
X240116667Y-122650000D01*
X240164286Y-122697619D01*
X240211905Y-122792857D01*
X240211905Y-122840476D01*
X240164286Y-122935714D01*
X240116667Y-122983333D01*
X240021429Y-123030952D01*
X239830952Y-123030952D01*
X239735714Y-123078571D01*
X239688095Y-123126190D01*
X239640476Y-123221429D01*
X239640476Y-123411905D01*
X239688095Y-123507143D01*
X239735714Y-123554762D01*
X239830952Y-123602381D01*
X240021429Y-123602381D01*
X240116667Y-123554762D01*
X240164286Y-123507143D01*
X240211905Y-123411905D01*
X240211905Y-123221429D01*
X240164286Y-123126190D01*
X240116667Y-123078571D01*
X240021429Y-123030952D01*
X217122143Y-120168562D02*
X217265000Y-120216181D01*
X217503096Y-120216181D01*
X217598334Y-120168562D01*
X217645953Y-120120943D01*
X217693572Y-120025705D01*
X217693572Y-119930467D01*
X217645953Y-119835229D01*
X217598334Y-119787610D01*
X217503096Y-119739990D01*
X217312619Y-119692371D01*
X217217381Y-119644752D01*
X217169762Y-119597133D01*
X217122143Y-119501895D01*
X217122143Y-119406657D01*
X217169762Y-119311419D01*
X217217381Y-119263800D01*
X217312619Y-119216181D01*
X217550715Y-119216181D01*
X217693572Y-119263800D01*
X218122143Y-120216181D02*
X218122143Y-119216181D01*
X218503096Y-119216181D01*
X218598334Y-119263800D01*
X218645953Y-119311419D01*
X218693572Y-119406657D01*
X218693572Y-119549514D01*
X218645953Y-119644752D01*
X218598334Y-119692371D01*
X218503096Y-119739990D01*
X218122143Y-119739990D01*
X219122143Y-120216181D02*
X219122143Y-119216181D01*
X220312619Y-119311419D02*
X220360238Y-119263800D01*
X220455476Y-119216181D01*
X220693572Y-119216181D01*
X220788810Y-119263800D01*
X220836429Y-119311419D01*
X220884048Y-119406657D01*
X220884048Y-119501895D01*
X220836429Y-119644752D01*
X220265000Y-120216181D01*
X220884048Y-120216181D01*
X221788810Y-119216181D02*
X221312619Y-119216181D01*
X221265000Y-119692371D01*
X221312619Y-119644752D01*
X221407857Y-119597133D01*
X221645953Y-119597133D01*
X221741191Y-119644752D01*
X221788810Y-119692371D01*
X221836429Y-119787610D01*
X221836429Y-120025705D01*
X221788810Y-120120943D01*
X221741191Y-120168562D01*
X221645953Y-120216181D01*
X221407857Y-120216181D01*
X221312619Y-120168562D01*
X221265000Y-120120943D01*
X222217381Y-119930467D02*
X222693572Y-119930467D01*
X222122143Y-120216181D02*
X222455476Y-119216181D01*
X222788810Y-120216181D01*
X223074524Y-119930467D02*
X223550715Y-119930467D01*
X222979286Y-120216181D02*
X223312619Y-119216181D01*
X223645953Y-120216181D01*
X224455477Y-119216181D02*
X223979286Y-119216181D01*
X223931667Y-119692371D01*
X223979286Y-119644752D01*
X224074524Y-119597133D01*
X224312620Y-119597133D01*
X224407858Y-119644752D01*
X224455477Y-119692371D01*
X224503096Y-119787610D01*
X224503096Y-120025705D01*
X224455477Y-120120943D01*
X224407858Y-120168562D01*
X224312620Y-120216181D01*
X224074524Y-120216181D01*
X223979286Y-120168562D01*
X223931667Y-120120943D01*
X225455477Y-120216181D02*
X224884048Y-120216181D01*
X225169762Y-120216181D02*
X225169762Y-119216181D01*
X225074524Y-119359038D01*
X224979286Y-119454276D01*
X224884048Y-119501895D01*
X225836429Y-119311419D02*
X225884048Y-119263800D01*
X225979286Y-119216181D01*
X226217382Y-119216181D01*
X226312620Y-119263800D01*
X226360239Y-119311419D01*
X226407858Y-119406657D01*
X226407858Y-119501895D01*
X226360239Y-119644752D01*
X225788810Y-120216181D01*
X226407858Y-120216181D01*
X228532633Y-120228881D02*
X228532633Y-119228881D01*
X228961204Y-118990786D02*
X229056442Y-118943167D01*
X229199299Y-118943167D01*
X229294538Y-118990786D01*
X229342157Y-119086024D01*
X229342157Y-119181262D01*
X229294538Y-119276500D01*
X228961204Y-119609833D01*
X229342157Y-119609833D01*
X230342157Y-120133643D02*
X230294538Y-120181262D01*
X230151681Y-120228881D01*
X230056443Y-120228881D01*
X229913585Y-120181262D01*
X229818347Y-120086024D01*
X229770728Y-119990786D01*
X229723109Y-119800310D01*
X229723109Y-119657452D01*
X229770728Y-119466976D01*
X229818347Y-119371738D01*
X229913585Y-119276500D01*
X230056443Y-119228881D01*
X230151681Y-119228881D01*
X230294538Y-119276500D01*
X230342157Y-119324119D01*
X231485014Y-119324119D02*
X231532633Y-119276500D01*
X231627871Y-119228881D01*
X231865967Y-119228881D01*
X231961205Y-119276500D01*
X232008824Y-119324119D01*
X232056443Y-119419357D01*
X232056443Y-119514595D01*
X232008824Y-119657452D01*
X231437395Y-120228881D01*
X232056443Y-120228881D01*
X232913586Y-119562214D02*
X232913586Y-120228881D01*
X232675490Y-119181262D02*
X232437395Y-119895548D01*
X233056443Y-119895548D01*
X234008824Y-120133643D02*
X233961205Y-120181262D01*
X233818348Y-120228881D01*
X233723110Y-120228881D01*
X233580252Y-120181262D01*
X233485014Y-120086024D01*
X233437395Y-119990786D01*
X233389776Y-119800310D01*
X233389776Y-119657452D01*
X233437395Y-119466976D01*
X233485014Y-119371738D01*
X233580252Y-119276500D01*
X233723110Y-119228881D01*
X233818348Y-119228881D01*
X233961205Y-119276500D01*
X234008824Y-119324119D01*
X234342157Y-119228881D02*
X234961205Y-119228881D01*
X234627871Y-119609833D01*
X234770729Y-119609833D01*
X234865967Y-119657452D01*
X234913586Y-119705071D01*
X234961205Y-119800310D01*
X234961205Y-120038405D01*
X234913586Y-120133643D01*
X234865967Y-120181262D01*
X234770729Y-120228881D01*
X234485014Y-120228881D01*
X234389776Y-120181262D01*
X234342157Y-120133643D01*
X235342157Y-119324119D02*
X235389776Y-119276500D01*
X235485014Y-119228881D01*
X235723110Y-119228881D01*
X235818348Y-119276500D01*
X235865967Y-119324119D01*
X235913586Y-119419357D01*
X235913586Y-119514595D01*
X235865967Y-119657452D01*
X235294538Y-120228881D01*
X235913586Y-120228881D01*
X239002381Y-147340381D02*
X238669047Y-146864190D01*
X238430952Y-147340381D02*
X238430952Y-146340381D01*
X238811905Y-146340381D01*
X238907143Y-146388000D01*
X238954762Y-146435619D01*
X239002381Y-146530857D01*
X239002381Y-146673714D01*
X238954762Y-146768952D01*
X238907143Y-146816571D01*
X238811905Y-146864190D01*
X238430952Y-146864190D01*
X239811905Y-147292762D02*
X239716667Y-147340381D01*
X239526190Y-147340381D01*
X239430952Y-147292762D01*
X239383333Y-147197524D01*
X239383333Y-146816571D01*
X239430952Y-146721333D01*
X239526190Y-146673714D01*
X239716667Y-146673714D01*
X239811905Y-146721333D01*
X239859524Y-146816571D01*
X239859524Y-146911810D01*
X239383333Y-147007048D01*
X240716667Y-146673714D02*
X240716667Y-147483238D01*
X240669048Y-147578476D01*
X240621429Y-147626095D01*
X240526190Y-147673714D01*
X240383333Y-147673714D01*
X240288095Y-147626095D01*
X240716667Y-147292762D02*
X240621429Y-147340381D01*
X240430952Y-147340381D01*
X240335714Y-147292762D01*
X240288095Y-147245143D01*
X240240476Y-147149905D01*
X240240476Y-146864190D01*
X240288095Y-146768952D01*
X240335714Y-146721333D01*
X240430952Y-146673714D01*
X240621429Y-146673714D01*
X240716667Y-146721333D01*
X241716667Y-147340381D02*
X241145238Y-147340381D01*
X241430952Y-147340381D02*
X241430952Y-146340381D01*
X241335714Y-146483238D01*
X241240476Y-146578476D01*
X241145238Y-146626095D01*
M02*
