G04 #@! TF.FileFunction,Paste,Bot*
%FSLAX46Y46*%
G04 Gerber Fmt 4.6, Leading zero omitted, Abs format (unit mm)*
G04 Created by KiCad (PCBNEW (after 2015-may-25 BZR unknown)-product) date 17/02/2017 21:19:06*
%MOMM*%
G01*
G04 APERTURE LIST*
%ADD10C,0.100000*%
%ADD11R,0.279400X1.270000*%
%ADD12R,1.250000X1.000000*%
%ADD13R,1.000000X1.250000*%
%ADD14R,1.600200X6.299200*%
%ADD15R,2.000000X0.600000*%
%ADD16R,1.300000X0.700000*%
G04 APERTURE END LIST*
D10*
D11*
X200440000Y-126398000D03*
X200948000Y-126398000D03*
X201430600Y-126398000D03*
X201938600Y-126398000D03*
X202446600Y-126398000D03*
X202929200Y-126398000D03*
X203437200Y-126398000D03*
X203945200Y-126398000D03*
X204427800Y-126398000D03*
X204935800Y-126398000D03*
X205443800Y-126398000D03*
X205951800Y-126398000D03*
X206434400Y-126398000D03*
X206942400Y-126398000D03*
X207450400Y-126398000D03*
X207933000Y-126398000D03*
X207933000Y-145829000D03*
X207425000Y-145829000D03*
X206942400Y-145829000D03*
X206434400Y-145829000D03*
X205926400Y-145829000D03*
X205443800Y-145829000D03*
X204935800Y-145829000D03*
X204427800Y-145829000D03*
X203945200Y-145829000D03*
X203437200Y-145829000D03*
X202929200Y-145829000D03*
X202421200Y-145829000D03*
X201938600Y-145829000D03*
X201430600Y-145829000D03*
X200922600Y-145829000D03*
X200440000Y-145829000D03*
X208441000Y-145829000D03*
X208949000Y-145829000D03*
X209457000Y-145829000D03*
X209965000Y-145829000D03*
X210473000Y-145829000D03*
X210981000Y-145829000D03*
X211489000Y-145829000D03*
X211997000Y-145829000D03*
X212505000Y-145829000D03*
X213013000Y-145829000D03*
X213521000Y-145829000D03*
X214029000Y-145829000D03*
X208441000Y-126398000D03*
X208949000Y-126398000D03*
X209457000Y-126398000D03*
X209965000Y-126398000D03*
X210473000Y-126398000D03*
X210981000Y-126398000D03*
X211489000Y-126398000D03*
X211997000Y-126398000D03*
X212505000Y-126398000D03*
X213013000Y-126398000D03*
X213521000Y-126398000D03*
X214029000Y-126398000D03*
D12*
X246450000Y-157150000D03*
X246450000Y-155150000D03*
D13*
X210450000Y-147650000D03*
X208450000Y-147650000D03*
D12*
X190000000Y-132500000D03*
X190000000Y-134500000D03*
D14*
X168443180Y-163981420D03*
X170983180Y-163981420D03*
X173523180Y-163981420D03*
X176063180Y-163981420D03*
X178603180Y-163981420D03*
X181143180Y-163981420D03*
X183683180Y-163981420D03*
X186223180Y-163981420D03*
X188763180Y-163981420D03*
X191303180Y-163981420D03*
X193843180Y-163981420D03*
X196383180Y-163981420D03*
X198923180Y-163981420D03*
X201463180Y-163981420D03*
X204003180Y-163981420D03*
X206543180Y-163981420D03*
X209083180Y-163981420D03*
X211623180Y-163981420D03*
X214163180Y-163981420D03*
X216703180Y-163981420D03*
X219243180Y-163981420D03*
X221783180Y-163981420D03*
X224323180Y-163981420D03*
X226863180Y-163981420D03*
X229403180Y-163981420D03*
X231943180Y-163981420D03*
X234483180Y-163981420D03*
X237023180Y-163981420D03*
X239563180Y-163981420D03*
X242103180Y-163981420D03*
X244643180Y-163981420D03*
X247183180Y-163981420D03*
D12*
X190000000Y-138000000D03*
X190000000Y-140000000D03*
X190000000Y-143900000D03*
X190000000Y-145900000D03*
D13*
X199650000Y-124050000D03*
X201650000Y-124050000D03*
X199900000Y-155850000D03*
X201900000Y-155850000D03*
X205150000Y-124000000D03*
X207150000Y-124000000D03*
X205400000Y-155850000D03*
X207400000Y-155850000D03*
X210650000Y-124000000D03*
X212650000Y-124000000D03*
X210900000Y-155850000D03*
X212900000Y-155850000D03*
D12*
X221900000Y-133150000D03*
X221900000Y-135150000D03*
X221900000Y-138650000D03*
X221900000Y-140650000D03*
X221900000Y-144150000D03*
X221900000Y-146150000D03*
D13*
X224450000Y-119550000D03*
X222450000Y-119550000D03*
X233250000Y-119650000D03*
X231250000Y-119650000D03*
D15*
X227156400Y-144942700D03*
X227156400Y-143672700D03*
X227156400Y-142402700D03*
X227156400Y-141132700D03*
X227156400Y-139862700D03*
X227156400Y-138592700D03*
X227156400Y-137322700D03*
X227156400Y-136052700D03*
X227156400Y-134782700D03*
X227156400Y-133512700D03*
X227156400Y-132242700D03*
X227156400Y-130972700D03*
X227156400Y-129702700D03*
X227156400Y-128432700D03*
X236556400Y-128432700D03*
X236556400Y-129702700D03*
X236556400Y-130972700D03*
X236556400Y-132242700D03*
X236556400Y-133512700D03*
X236556400Y-134782700D03*
X236556400Y-136052700D03*
X236556400Y-137322700D03*
X236556400Y-138592700D03*
X236556400Y-139862700D03*
X236556400Y-141132700D03*
X236556400Y-142402700D03*
X236556400Y-143672700D03*
X236556400Y-144942700D03*
D16*
X179250000Y-130700000D03*
X179250000Y-132600000D03*
X181650000Y-130700000D03*
X181650000Y-132600000D03*
X184050000Y-130700000D03*
X184050000Y-132600000D03*
M02*
