G04 #@! TF.FileFunction,Legend,Bot*
%FSLAX46Y46*%
G04 Gerber Fmt 4.6, Leading zero omitted, Abs format (unit mm)*
G04 Created by KiCad (PCBNEW (after 2015-may-25 BZR unknown)-product) date 17/02/2017 21:19:06*
%MOMM*%
G01*
G04 APERTURE LIST*
%ADD10C,0.100000*%
%ADD11C,0.150000*%
%ADD12C,0.304800*%
G04 APERTURE END LIST*
D10*
D11*
X201456000Y-128176000D02*
G75*
G03X201456000Y-128176000I-508000J0D01*
G01*
X200186000Y-144940000D02*
X214283000Y-144940000D01*
X214283000Y-144940000D02*
X214283000Y-127287000D01*
X214283000Y-127287000D02*
X200186000Y-127287000D01*
X200186000Y-127287000D02*
X200186000Y-144940000D01*
X247300000Y-155650000D02*
X247300000Y-156650000D01*
X245600000Y-156650000D02*
X245600000Y-155650000D01*
X208950000Y-146800000D02*
X209950000Y-146800000D01*
X209950000Y-148500000D02*
X208950000Y-148500000D01*
X189150000Y-134000000D02*
X189150000Y-133000000D01*
X190850000Y-133000000D02*
X190850000Y-134000000D01*
X189150000Y-139500000D02*
X189150000Y-138500000D01*
X190850000Y-138500000D02*
X190850000Y-139500000D01*
X189150000Y-145400000D02*
X189150000Y-144400000D01*
X190850000Y-144400000D02*
X190850000Y-145400000D01*
X201150000Y-124900000D02*
X200150000Y-124900000D01*
X200150000Y-123200000D02*
X201150000Y-123200000D01*
X201400000Y-156700000D02*
X200400000Y-156700000D01*
X200400000Y-155000000D02*
X201400000Y-155000000D01*
X206650000Y-124850000D02*
X205650000Y-124850000D01*
X205650000Y-123150000D02*
X206650000Y-123150000D01*
X206900000Y-156700000D02*
X205900000Y-156700000D01*
X205900000Y-155000000D02*
X206900000Y-155000000D01*
X212150000Y-124850000D02*
X211150000Y-124850000D01*
X211150000Y-123150000D02*
X212150000Y-123150000D01*
X212400000Y-156700000D02*
X211400000Y-156700000D01*
X211400000Y-155000000D02*
X212400000Y-155000000D01*
X221050000Y-134650000D02*
X221050000Y-133650000D01*
X222750000Y-133650000D02*
X222750000Y-134650000D01*
X221050000Y-140150000D02*
X221050000Y-139150000D01*
X222750000Y-139150000D02*
X222750000Y-140150000D01*
X221050000Y-145650000D02*
X221050000Y-144650000D01*
X222750000Y-144650000D02*
X222750000Y-145650000D01*
X222950000Y-118700000D02*
X223950000Y-118700000D01*
X223950000Y-120400000D02*
X222950000Y-120400000D01*
X231750000Y-118800000D02*
X232750000Y-118800000D01*
X232750000Y-120500000D02*
X231750000Y-120500000D01*
X227981400Y-145812700D02*
X227981400Y-145562700D01*
X235731400Y-145812700D02*
X235731400Y-145467700D01*
X235731400Y-127562700D02*
X235731400Y-127907700D01*
X227981400Y-127562700D02*
X227981400Y-127907700D01*
X227981400Y-145812700D02*
X235731400Y-145812700D01*
X227981400Y-127562700D02*
X235731400Y-127562700D01*
X227981400Y-145562700D02*
X226156400Y-145562700D01*
X180125000Y-132250000D02*
X180125000Y-131050000D01*
X178375000Y-131050000D02*
X178375000Y-132250000D01*
X182525000Y-132250000D02*
X182525000Y-131050000D01*
X180775000Y-131050000D02*
X180775000Y-132250000D01*
X184925000Y-132250000D02*
X184925000Y-131050000D01*
X183175000Y-131050000D02*
X183175000Y-132250000D01*
X205235781Y-134919867D02*
X204759590Y-134586533D01*
X205235781Y-134348438D02*
X204235781Y-134348438D01*
X204235781Y-134729391D01*
X204283400Y-134824629D01*
X204331019Y-134872248D01*
X204426257Y-134919867D01*
X204569114Y-134919867D01*
X204664352Y-134872248D01*
X204711971Y-134824629D01*
X204759590Y-134729391D01*
X204759590Y-134348438D01*
X204711971Y-135348438D02*
X204711971Y-135681772D01*
X205235781Y-135824629D02*
X205235781Y-135348438D01*
X204235781Y-135348438D01*
X204235781Y-135824629D01*
X204711971Y-136586534D02*
X204711971Y-136253200D01*
X205235781Y-136253200D02*
X204235781Y-136253200D01*
X204235781Y-136729391D01*
X204235781Y-137253200D02*
X204473876Y-137253200D01*
X204378638Y-137015105D02*
X204473876Y-137253200D01*
X204378638Y-137491296D01*
X204664352Y-137110343D02*
X204473876Y-137253200D01*
X204664352Y-137396058D01*
X204235781Y-138015105D02*
X204473876Y-138015105D01*
X204378638Y-137777010D02*
X204473876Y-138015105D01*
X204378638Y-138253201D01*
X204664352Y-137872248D02*
X204473876Y-138015105D01*
X204664352Y-138157963D01*
X248907143Y-155507143D02*
X248954762Y-155459524D01*
X249002381Y-155316667D01*
X249002381Y-155221429D01*
X248954762Y-155078571D01*
X248859524Y-154983333D01*
X248764286Y-154935714D01*
X248573810Y-154888095D01*
X248430952Y-154888095D01*
X248240476Y-154935714D01*
X248145238Y-154983333D01*
X248050000Y-155078571D01*
X248002381Y-155221429D01*
X248002381Y-155316667D01*
X248050000Y-155459524D01*
X248097619Y-155507143D01*
X248097619Y-155888095D02*
X248050000Y-155935714D01*
X248002381Y-156030952D01*
X248002381Y-156269048D01*
X248050000Y-156364286D01*
X248097619Y-156411905D01*
X248192857Y-156459524D01*
X248288095Y-156459524D01*
X248430952Y-156411905D01*
X249002381Y-155840476D01*
X249002381Y-156459524D01*
X248002381Y-157078571D02*
X248002381Y-157173810D01*
X248050000Y-157269048D01*
X248097619Y-157316667D01*
X248192857Y-157364286D01*
X248383333Y-157411905D01*
X248621429Y-157411905D01*
X248811905Y-157364286D01*
X248907143Y-157316667D01*
X248954762Y-157269048D01*
X249002381Y-157173810D01*
X249002381Y-157078571D01*
X248954762Y-156983333D01*
X248907143Y-156935714D01*
X248811905Y-156888095D01*
X248621429Y-156840476D01*
X248383333Y-156840476D01*
X248192857Y-156888095D01*
X248097619Y-156935714D01*
X248050000Y-156983333D01*
X248002381Y-157078571D01*
X209616666Y-145907143D02*
X209664285Y-145954762D01*
X209807142Y-146002381D01*
X209902380Y-146002381D01*
X210045238Y-145954762D01*
X210140476Y-145859524D01*
X210188095Y-145764286D01*
X210235714Y-145573810D01*
X210235714Y-145430952D01*
X210188095Y-145240476D01*
X210140476Y-145145238D01*
X210045238Y-145050000D01*
X209902380Y-145002381D01*
X209807142Y-145002381D01*
X209664285Y-145050000D01*
X209616666Y-145097619D01*
X208664285Y-146002381D02*
X209235714Y-146002381D01*
X208950000Y-146002381D02*
X208950000Y-145002381D01*
X209045238Y-145145238D01*
X209140476Y-145240476D01*
X209235714Y-145288095D01*
X188257143Y-133333334D02*
X188304762Y-133285715D01*
X188352381Y-133142858D01*
X188352381Y-133047620D01*
X188304762Y-132904762D01*
X188209524Y-132809524D01*
X188114286Y-132761905D01*
X187923810Y-132714286D01*
X187780952Y-132714286D01*
X187590476Y-132761905D01*
X187495238Y-132809524D01*
X187400000Y-132904762D01*
X187352381Y-133047620D01*
X187352381Y-133142858D01*
X187400000Y-133285715D01*
X187447619Y-133333334D01*
X187447619Y-133714286D02*
X187400000Y-133761905D01*
X187352381Y-133857143D01*
X187352381Y-134095239D01*
X187400000Y-134190477D01*
X187447619Y-134238096D01*
X187542857Y-134285715D01*
X187638095Y-134285715D01*
X187780952Y-134238096D01*
X188352381Y-133666667D01*
X188352381Y-134285715D01*
D12*
X190350559Y-144002869D02*
X190350559Y-142478869D01*
X189818368Y-142478869D01*
X189685321Y-142551440D01*
X189618797Y-142624011D01*
X189552273Y-142769154D01*
X189552273Y-142986869D01*
X189618797Y-143132011D01*
X189685321Y-143204583D01*
X189818368Y-143277154D01*
X190350559Y-143277154D01*
X189020083Y-142624011D02*
X188953559Y-142551440D01*
X188820511Y-142478869D01*
X188487892Y-142478869D01*
X188354845Y-142551440D01*
X188288321Y-142624011D01*
X188221797Y-142769154D01*
X188221797Y-142914297D01*
X188288321Y-143132011D01*
X189086607Y-144002869D01*
X188221797Y-144002869D01*
D11*
X188257143Y-138833334D02*
X188304762Y-138785715D01*
X188352381Y-138642858D01*
X188352381Y-138547620D01*
X188304762Y-138404762D01*
X188209524Y-138309524D01*
X188114286Y-138261905D01*
X187923810Y-138214286D01*
X187780952Y-138214286D01*
X187590476Y-138261905D01*
X187495238Y-138309524D01*
X187400000Y-138404762D01*
X187352381Y-138547620D01*
X187352381Y-138642858D01*
X187400000Y-138785715D01*
X187447619Y-138833334D01*
X187352381Y-139166667D02*
X187352381Y-139785715D01*
X187733333Y-139452381D01*
X187733333Y-139595239D01*
X187780952Y-139690477D01*
X187828571Y-139738096D01*
X187923810Y-139785715D01*
X188161905Y-139785715D01*
X188257143Y-139738096D01*
X188304762Y-139690477D01*
X188352381Y-139595239D01*
X188352381Y-139309524D01*
X188304762Y-139214286D01*
X188257143Y-139166667D01*
X188257143Y-144733334D02*
X188304762Y-144685715D01*
X188352381Y-144542858D01*
X188352381Y-144447620D01*
X188304762Y-144304762D01*
X188209524Y-144209524D01*
X188114286Y-144161905D01*
X187923810Y-144114286D01*
X187780952Y-144114286D01*
X187590476Y-144161905D01*
X187495238Y-144209524D01*
X187400000Y-144304762D01*
X187352381Y-144447620D01*
X187352381Y-144542858D01*
X187400000Y-144685715D01*
X187447619Y-144733334D01*
X187685714Y-145590477D02*
X188352381Y-145590477D01*
X187304762Y-145352381D02*
X188019048Y-145114286D01*
X188019048Y-145733334D01*
X200816666Y-126507143D02*
X200864285Y-126554762D01*
X201007142Y-126602381D01*
X201102380Y-126602381D01*
X201245238Y-126554762D01*
X201340476Y-126459524D01*
X201388095Y-126364286D01*
X201435714Y-126173810D01*
X201435714Y-126030952D01*
X201388095Y-125840476D01*
X201340476Y-125745238D01*
X201245238Y-125650000D01*
X201102380Y-125602381D01*
X201007142Y-125602381D01*
X200864285Y-125650000D01*
X200816666Y-125697619D01*
X199911904Y-125602381D02*
X200388095Y-125602381D01*
X200435714Y-126078571D01*
X200388095Y-126030952D01*
X200292857Y-125983333D01*
X200054761Y-125983333D01*
X199959523Y-126030952D01*
X199911904Y-126078571D01*
X199864285Y-126173810D01*
X199864285Y-126411905D01*
X199911904Y-126507143D01*
X199959523Y-126554762D01*
X200054761Y-126602381D01*
X200292857Y-126602381D01*
X200388095Y-126554762D01*
X200435714Y-126507143D01*
X201066666Y-158307143D02*
X201114285Y-158354762D01*
X201257142Y-158402381D01*
X201352380Y-158402381D01*
X201495238Y-158354762D01*
X201590476Y-158259524D01*
X201638095Y-158164286D01*
X201685714Y-157973810D01*
X201685714Y-157830952D01*
X201638095Y-157640476D01*
X201590476Y-157545238D01*
X201495238Y-157450000D01*
X201352380Y-157402381D01*
X201257142Y-157402381D01*
X201114285Y-157450000D01*
X201066666Y-157497619D01*
X200209523Y-157402381D02*
X200400000Y-157402381D01*
X200495238Y-157450000D01*
X200542857Y-157497619D01*
X200638095Y-157640476D01*
X200685714Y-157830952D01*
X200685714Y-158211905D01*
X200638095Y-158307143D01*
X200590476Y-158354762D01*
X200495238Y-158402381D01*
X200304761Y-158402381D01*
X200209523Y-158354762D01*
X200161904Y-158307143D01*
X200114285Y-158211905D01*
X200114285Y-157973810D01*
X200161904Y-157878571D01*
X200209523Y-157830952D01*
X200304761Y-157783333D01*
X200495238Y-157783333D01*
X200590476Y-157830952D01*
X200638095Y-157878571D01*
X200685714Y-157973810D01*
X200590476Y-154107143D02*
X200638095Y-154154762D01*
X200780952Y-154202381D01*
X200876190Y-154202381D01*
X201019048Y-154154762D01*
X201114286Y-154059524D01*
X201161905Y-153964286D01*
X201209524Y-153773810D01*
X201209524Y-153630952D01*
X201161905Y-153440476D01*
X201114286Y-153345238D01*
X201019048Y-153250000D01*
X200876190Y-153202381D01*
X200780952Y-153202381D01*
X200638095Y-153250000D01*
X200590476Y-153297619D01*
X206316666Y-126457143D02*
X206364285Y-126504762D01*
X206507142Y-126552381D01*
X206602380Y-126552381D01*
X206745238Y-126504762D01*
X206840476Y-126409524D01*
X206888095Y-126314286D01*
X206935714Y-126123810D01*
X206935714Y-125980952D01*
X206888095Y-125790476D01*
X206840476Y-125695238D01*
X206745238Y-125600000D01*
X206602380Y-125552381D01*
X206507142Y-125552381D01*
X206364285Y-125600000D01*
X206316666Y-125647619D01*
X205983333Y-125552381D02*
X205316666Y-125552381D01*
X205745238Y-126552381D01*
X206566666Y-158307143D02*
X206614285Y-158354762D01*
X206757142Y-158402381D01*
X206852380Y-158402381D01*
X206995238Y-158354762D01*
X207090476Y-158259524D01*
X207138095Y-158164286D01*
X207185714Y-157973810D01*
X207185714Y-157830952D01*
X207138095Y-157640476D01*
X207090476Y-157545238D01*
X206995238Y-157450000D01*
X206852380Y-157402381D01*
X206757142Y-157402381D01*
X206614285Y-157450000D01*
X206566666Y-157497619D01*
X205995238Y-157830952D02*
X206090476Y-157783333D01*
X206138095Y-157735714D01*
X206185714Y-157640476D01*
X206185714Y-157592857D01*
X206138095Y-157497619D01*
X206090476Y-157450000D01*
X205995238Y-157402381D01*
X205804761Y-157402381D01*
X205709523Y-157450000D01*
X205661904Y-157497619D01*
X205614285Y-157592857D01*
X205614285Y-157640476D01*
X205661904Y-157735714D01*
X205709523Y-157783333D01*
X205804761Y-157830952D01*
X205995238Y-157830952D01*
X206090476Y-157878571D01*
X206138095Y-157926190D01*
X206185714Y-158021429D01*
X206185714Y-158211905D01*
X206138095Y-158307143D01*
X206090476Y-158354762D01*
X205995238Y-158402381D01*
X205804761Y-158402381D01*
X205709523Y-158354762D01*
X205661904Y-158307143D01*
X205614285Y-158211905D01*
X205614285Y-158021429D01*
X205661904Y-157926190D01*
X205709523Y-157878571D01*
X205804761Y-157830952D01*
X211816666Y-126457143D02*
X211864285Y-126504762D01*
X212007142Y-126552381D01*
X212102380Y-126552381D01*
X212245238Y-126504762D01*
X212340476Y-126409524D01*
X212388095Y-126314286D01*
X212435714Y-126123810D01*
X212435714Y-125980952D01*
X212388095Y-125790476D01*
X212340476Y-125695238D01*
X212245238Y-125600000D01*
X212102380Y-125552381D01*
X212007142Y-125552381D01*
X211864285Y-125600000D01*
X211816666Y-125647619D01*
X211340476Y-126552381D02*
X211150000Y-126552381D01*
X211054761Y-126504762D01*
X211007142Y-126457143D01*
X210911904Y-126314286D01*
X210864285Y-126123810D01*
X210864285Y-125742857D01*
X210911904Y-125647619D01*
X210959523Y-125600000D01*
X211054761Y-125552381D01*
X211245238Y-125552381D01*
X211340476Y-125600000D01*
X211388095Y-125647619D01*
X211435714Y-125742857D01*
X211435714Y-125980952D01*
X211388095Y-126076190D01*
X211340476Y-126123810D01*
X211245238Y-126171429D01*
X211054761Y-126171429D01*
X210959523Y-126123810D01*
X210911904Y-126076190D01*
X210864285Y-125980952D01*
X212542857Y-158307143D02*
X212590476Y-158354762D01*
X212733333Y-158402381D01*
X212828571Y-158402381D01*
X212971429Y-158354762D01*
X213066667Y-158259524D01*
X213114286Y-158164286D01*
X213161905Y-157973810D01*
X213161905Y-157830952D01*
X213114286Y-157640476D01*
X213066667Y-157545238D01*
X212971429Y-157450000D01*
X212828571Y-157402381D01*
X212733333Y-157402381D01*
X212590476Y-157450000D01*
X212542857Y-157497619D01*
X211590476Y-158402381D02*
X212161905Y-158402381D01*
X211876191Y-158402381D02*
X211876191Y-157402381D01*
X211971429Y-157545238D01*
X212066667Y-157640476D01*
X212161905Y-157688095D01*
X210971429Y-157402381D02*
X210876190Y-157402381D01*
X210780952Y-157450000D01*
X210733333Y-157497619D01*
X210685714Y-157592857D01*
X210638095Y-157783333D01*
X210638095Y-158021429D01*
X210685714Y-158211905D01*
X210733333Y-158307143D01*
X210780952Y-158354762D01*
X210876190Y-158402381D01*
X210971429Y-158402381D01*
X211066667Y-158354762D01*
X211114286Y-158307143D01*
X211161905Y-158211905D01*
X211209524Y-158021429D01*
X211209524Y-157783333D01*
X211161905Y-157592857D01*
X211114286Y-157497619D01*
X211066667Y-157450000D01*
X210971429Y-157402381D01*
X220157143Y-133507143D02*
X220204762Y-133459524D01*
X220252381Y-133316667D01*
X220252381Y-133221429D01*
X220204762Y-133078571D01*
X220109524Y-132983333D01*
X220014286Y-132935714D01*
X219823810Y-132888095D01*
X219680952Y-132888095D01*
X219490476Y-132935714D01*
X219395238Y-132983333D01*
X219300000Y-133078571D01*
X219252381Y-133221429D01*
X219252381Y-133316667D01*
X219300000Y-133459524D01*
X219347619Y-133507143D01*
X220252381Y-134459524D02*
X220252381Y-133888095D01*
X220252381Y-134173809D02*
X219252381Y-134173809D01*
X219395238Y-134078571D01*
X219490476Y-133983333D01*
X219538095Y-133888095D01*
X219347619Y-134840476D02*
X219300000Y-134888095D01*
X219252381Y-134983333D01*
X219252381Y-135221429D01*
X219300000Y-135316667D01*
X219347619Y-135364286D01*
X219442857Y-135411905D01*
X219538095Y-135411905D01*
X219680952Y-135364286D01*
X220252381Y-134792857D01*
X220252381Y-135411905D01*
X220157143Y-139007143D02*
X220204762Y-138959524D01*
X220252381Y-138816667D01*
X220252381Y-138721429D01*
X220204762Y-138578571D01*
X220109524Y-138483333D01*
X220014286Y-138435714D01*
X219823810Y-138388095D01*
X219680952Y-138388095D01*
X219490476Y-138435714D01*
X219395238Y-138483333D01*
X219300000Y-138578571D01*
X219252381Y-138721429D01*
X219252381Y-138816667D01*
X219300000Y-138959524D01*
X219347619Y-139007143D01*
X220252381Y-139959524D02*
X220252381Y-139388095D01*
X220252381Y-139673809D02*
X219252381Y-139673809D01*
X219395238Y-139578571D01*
X219490476Y-139483333D01*
X219538095Y-139388095D01*
X219252381Y-140292857D02*
X219252381Y-140911905D01*
X219633333Y-140578571D01*
X219633333Y-140721429D01*
X219680952Y-140816667D01*
X219728571Y-140864286D01*
X219823810Y-140911905D01*
X220061905Y-140911905D01*
X220157143Y-140864286D01*
X220204762Y-140816667D01*
X220252381Y-140721429D01*
X220252381Y-140435714D01*
X220204762Y-140340476D01*
X220157143Y-140292857D01*
X220157143Y-144507143D02*
X220204762Y-144459524D01*
X220252381Y-144316667D01*
X220252381Y-144221429D01*
X220204762Y-144078571D01*
X220109524Y-143983333D01*
X220014286Y-143935714D01*
X219823810Y-143888095D01*
X219680952Y-143888095D01*
X219490476Y-143935714D01*
X219395238Y-143983333D01*
X219300000Y-144078571D01*
X219252381Y-144221429D01*
X219252381Y-144316667D01*
X219300000Y-144459524D01*
X219347619Y-144507143D01*
X220252381Y-145459524D02*
X220252381Y-144888095D01*
X220252381Y-145173809D02*
X219252381Y-145173809D01*
X219395238Y-145078571D01*
X219490476Y-144983333D01*
X219538095Y-144888095D01*
X219585714Y-146316667D02*
X220252381Y-146316667D01*
X219204762Y-146078571D02*
X219919048Y-145840476D01*
X219919048Y-146459524D01*
X224092857Y-117807143D02*
X224140476Y-117854762D01*
X224283333Y-117902381D01*
X224378571Y-117902381D01*
X224521429Y-117854762D01*
X224616667Y-117759524D01*
X224664286Y-117664286D01*
X224711905Y-117473810D01*
X224711905Y-117330952D01*
X224664286Y-117140476D01*
X224616667Y-117045238D01*
X224521429Y-116950000D01*
X224378571Y-116902381D01*
X224283333Y-116902381D01*
X224140476Y-116950000D01*
X224092857Y-116997619D01*
X223140476Y-117902381D02*
X223711905Y-117902381D01*
X223426191Y-117902381D02*
X223426191Y-116902381D01*
X223521429Y-117045238D01*
X223616667Y-117140476D01*
X223711905Y-117188095D01*
X222283333Y-116902381D02*
X222473810Y-116902381D01*
X222569048Y-116950000D01*
X222616667Y-116997619D01*
X222711905Y-117140476D01*
X222759524Y-117330952D01*
X222759524Y-117711905D01*
X222711905Y-117807143D01*
X222664286Y-117854762D01*
X222569048Y-117902381D01*
X222378571Y-117902381D01*
X222283333Y-117854762D01*
X222235714Y-117807143D01*
X222188095Y-117711905D01*
X222188095Y-117473810D01*
X222235714Y-117378571D01*
X222283333Y-117330952D01*
X222378571Y-117283333D01*
X222569048Y-117283333D01*
X222664286Y-117330952D01*
X222711905Y-117378571D01*
X222759524Y-117473810D01*
X232892857Y-117907143D02*
X232940476Y-117954762D01*
X233083333Y-118002381D01*
X233178571Y-118002381D01*
X233321429Y-117954762D01*
X233416667Y-117859524D01*
X233464286Y-117764286D01*
X233511905Y-117573810D01*
X233511905Y-117430952D01*
X233464286Y-117240476D01*
X233416667Y-117145238D01*
X233321429Y-117050000D01*
X233178571Y-117002381D01*
X233083333Y-117002381D01*
X232940476Y-117050000D01*
X232892857Y-117097619D01*
X231940476Y-118002381D02*
X232511905Y-118002381D01*
X232226191Y-118002381D02*
X232226191Y-117002381D01*
X232321429Y-117145238D01*
X232416667Y-117240476D01*
X232511905Y-117288095D01*
X231464286Y-118002381D02*
X231273810Y-118002381D01*
X231178571Y-117954762D01*
X231130952Y-117907143D01*
X231035714Y-117764286D01*
X230988095Y-117573810D01*
X230988095Y-117192857D01*
X231035714Y-117097619D01*
X231083333Y-117050000D01*
X231178571Y-117002381D01*
X231369048Y-117002381D01*
X231464286Y-117050000D01*
X231511905Y-117097619D01*
X231559524Y-117192857D01*
X231559524Y-117430952D01*
X231511905Y-117526190D01*
X231464286Y-117573810D01*
X231369048Y-117621429D01*
X231178571Y-117621429D01*
X231083333Y-117573810D01*
X231035714Y-117526190D01*
X230988095Y-117430952D01*
X232832590Y-147190081D02*
X232832590Y-146190081D01*
X231784971Y-147094843D02*
X231832590Y-147142462D01*
X231975447Y-147190081D01*
X232070685Y-147190081D01*
X232213543Y-147142462D01*
X232308781Y-147047224D01*
X232356400Y-146951986D01*
X232404019Y-146761510D01*
X232404019Y-146618652D01*
X232356400Y-146428176D01*
X232308781Y-146332938D01*
X232213543Y-146237700D01*
X232070685Y-146190081D01*
X231975447Y-146190081D01*
X231832590Y-146237700D01*
X231784971Y-146285319D01*
X230832590Y-147190081D02*
X231404019Y-147190081D01*
X231118305Y-147190081D02*
X231118305Y-146190081D01*
X231213543Y-146332938D01*
X231308781Y-146428176D01*
X231404019Y-146475795D01*
X177602381Y-130316667D02*
X177126190Y-129983333D01*
X177602381Y-129745238D02*
X176602381Y-129745238D01*
X176602381Y-130126191D01*
X176650000Y-130221429D01*
X176697619Y-130269048D01*
X176792857Y-130316667D01*
X176935714Y-130316667D01*
X177030952Y-130269048D01*
X177078571Y-130221429D01*
X177126190Y-130126191D01*
X177126190Y-129745238D01*
X177078571Y-130745238D02*
X177078571Y-131078572D01*
X177602381Y-131221429D02*
X177602381Y-130745238D01*
X176602381Y-130745238D01*
X176602381Y-131221429D01*
X177078571Y-131983334D02*
X177078571Y-131650000D01*
X177602381Y-131650000D02*
X176602381Y-131650000D01*
X176602381Y-132126191D01*
X176602381Y-132650000D02*
X176840476Y-132650000D01*
X176745238Y-132411905D02*
X176840476Y-132650000D01*
X176745238Y-132888096D01*
X177030952Y-132507143D02*
X176840476Y-132650000D01*
X177030952Y-132792858D01*
X176602381Y-133411905D02*
X176840476Y-133411905D01*
X176745238Y-133173810D02*
X176840476Y-133411905D01*
X176745238Y-133650001D01*
X177030952Y-133269048D02*
X176840476Y-133411905D01*
X177030952Y-133554763D01*
X180002381Y-130316667D02*
X179526190Y-129983333D01*
X180002381Y-129745238D02*
X179002381Y-129745238D01*
X179002381Y-130126191D01*
X179050000Y-130221429D01*
X179097619Y-130269048D01*
X179192857Y-130316667D01*
X179335714Y-130316667D01*
X179430952Y-130269048D01*
X179478571Y-130221429D01*
X179526190Y-130126191D01*
X179526190Y-129745238D01*
X179478571Y-130745238D02*
X179478571Y-131078572D01*
X180002381Y-131221429D02*
X180002381Y-130745238D01*
X179002381Y-130745238D01*
X179002381Y-131221429D01*
X179478571Y-131983334D02*
X179478571Y-131650000D01*
X180002381Y-131650000D02*
X179002381Y-131650000D01*
X179002381Y-132126191D01*
X179002381Y-132650000D02*
X179240476Y-132650000D01*
X179145238Y-132411905D02*
X179240476Y-132650000D01*
X179145238Y-132888096D01*
X179430952Y-132507143D02*
X179240476Y-132650000D01*
X179430952Y-132792858D01*
X179002381Y-133411905D02*
X179240476Y-133411905D01*
X179145238Y-133173810D02*
X179240476Y-133411905D01*
X179145238Y-133650001D01*
X179430952Y-133269048D02*
X179240476Y-133411905D01*
X179430952Y-133554763D01*
X182402381Y-130316667D02*
X181926190Y-129983333D01*
X182402381Y-129745238D02*
X181402381Y-129745238D01*
X181402381Y-130126191D01*
X181450000Y-130221429D01*
X181497619Y-130269048D01*
X181592857Y-130316667D01*
X181735714Y-130316667D01*
X181830952Y-130269048D01*
X181878571Y-130221429D01*
X181926190Y-130126191D01*
X181926190Y-129745238D01*
X181878571Y-130745238D02*
X181878571Y-131078572D01*
X182402381Y-131221429D02*
X182402381Y-130745238D01*
X181402381Y-130745238D01*
X181402381Y-131221429D01*
X181878571Y-131983334D02*
X181878571Y-131650000D01*
X182402381Y-131650000D02*
X181402381Y-131650000D01*
X181402381Y-132126191D01*
X181402381Y-132650000D02*
X181640476Y-132650000D01*
X181545238Y-132411905D02*
X181640476Y-132650000D01*
X181545238Y-132888096D01*
X181830952Y-132507143D02*
X181640476Y-132650000D01*
X181830952Y-132792858D01*
X181402381Y-133411905D02*
X181640476Y-133411905D01*
X181545238Y-133173810D02*
X181640476Y-133411905D01*
X181545238Y-133650001D01*
X181830952Y-133269048D02*
X181640476Y-133411905D01*
X181830952Y-133554763D01*
M02*
