G04 #@! TF.FileFunction,Copper,L2,Bot,Signal*
%FSLAX46Y46*%
G04 Gerber Fmt 4.6, Leading zero omitted, Abs format (unit mm)*
G04 Created by KiCad (PCBNEW (after 2015-may-25 BZR unknown)-product) date 17/02/2017 21:19:06*
%MOMM*%
G01*
G04 APERTURE LIST*
%ADD10C,0.100000*%
%ADD11R,0.279400X1.270000*%
%ADD12R,1.250000X1.000000*%
%ADD13R,1.000000X1.250000*%
%ADD14R,1.600200X6.299200*%
%ADD15R,1.900000X1.900000*%
%ADD16C,1.900000*%
%ADD17C,1.168400*%
%ADD18R,2.000000X0.600000*%
%ADD19R,1.300000X0.700000*%
%ADD20C,0.889000*%
%ADD21C,0.210000*%
%ADD22C,0.310000*%
%ADD23C,0.200000*%
%ADD24C,0.300000*%
G04 APERTURE END LIST*
D10*
D11*
X200440000Y-126398000D03*
X200948000Y-126398000D03*
X201430600Y-126398000D03*
X201938600Y-126398000D03*
X202446600Y-126398000D03*
X202929200Y-126398000D03*
X203437200Y-126398000D03*
X203945200Y-126398000D03*
X204427800Y-126398000D03*
X204935800Y-126398000D03*
X205443800Y-126398000D03*
X205951800Y-126398000D03*
X206434400Y-126398000D03*
X206942400Y-126398000D03*
X207450400Y-126398000D03*
X207933000Y-126398000D03*
X207933000Y-145829000D03*
X207425000Y-145829000D03*
X206942400Y-145829000D03*
X206434400Y-145829000D03*
X205926400Y-145829000D03*
X205443800Y-145829000D03*
X204935800Y-145829000D03*
X204427800Y-145829000D03*
X203945200Y-145829000D03*
X203437200Y-145829000D03*
X202929200Y-145829000D03*
X202421200Y-145829000D03*
X201938600Y-145829000D03*
X201430600Y-145829000D03*
X200922600Y-145829000D03*
X200440000Y-145829000D03*
X208441000Y-145829000D03*
X208949000Y-145829000D03*
X209457000Y-145829000D03*
X209965000Y-145829000D03*
X210473000Y-145829000D03*
X210981000Y-145829000D03*
X211489000Y-145829000D03*
X211997000Y-145829000D03*
X212505000Y-145829000D03*
X213013000Y-145829000D03*
X213521000Y-145829000D03*
X214029000Y-145829000D03*
X208441000Y-126398000D03*
X208949000Y-126398000D03*
X209457000Y-126398000D03*
X209965000Y-126398000D03*
X210473000Y-126398000D03*
X210981000Y-126398000D03*
X211489000Y-126398000D03*
X211997000Y-126398000D03*
X212505000Y-126398000D03*
X213013000Y-126398000D03*
X213521000Y-126398000D03*
X214029000Y-126398000D03*
D12*
X246450000Y-157150000D03*
X246450000Y-155150000D03*
D13*
X210450000Y-147650000D03*
X208450000Y-147650000D03*
D12*
X190000000Y-132500000D03*
X190000000Y-134500000D03*
D14*
X168443180Y-163981420D03*
X170983180Y-163981420D03*
X173523180Y-163981420D03*
X176063180Y-163981420D03*
X178603180Y-163981420D03*
X181143180Y-163981420D03*
X183683180Y-163981420D03*
X186223180Y-163981420D03*
X188763180Y-163981420D03*
X191303180Y-163981420D03*
X193843180Y-163981420D03*
X196383180Y-163981420D03*
X198923180Y-163981420D03*
X201463180Y-163981420D03*
X204003180Y-163981420D03*
X206543180Y-163981420D03*
X209083180Y-163981420D03*
X211623180Y-163981420D03*
X214163180Y-163981420D03*
X216703180Y-163981420D03*
X219243180Y-163981420D03*
X221783180Y-163981420D03*
X224323180Y-163981420D03*
X226863180Y-163981420D03*
X229403180Y-163981420D03*
X231943180Y-163981420D03*
X234483180Y-163981420D03*
X237023180Y-163981420D03*
X239563180Y-163981420D03*
X242103180Y-163981420D03*
X244643180Y-163981420D03*
X247183180Y-163981420D03*
D15*
X175420000Y-125370000D03*
D16*
X175420000Y-122830000D03*
X177960000Y-125370000D03*
X177960000Y-122830000D03*
X180500000Y-125370000D03*
X180500000Y-122830000D03*
X183040000Y-125370000D03*
X183040000Y-122830000D03*
X185580000Y-125370000D03*
X185580000Y-122830000D03*
D17*
X169402250Y-155050000D03*
X171497750Y-155050000D03*
D12*
X190000000Y-138000000D03*
X190000000Y-140000000D03*
X190000000Y-143900000D03*
X190000000Y-145900000D03*
D13*
X199650000Y-124050000D03*
X201650000Y-124050000D03*
X199900000Y-155850000D03*
X201900000Y-155850000D03*
X205150000Y-124000000D03*
X207150000Y-124000000D03*
X205400000Y-155850000D03*
X207400000Y-155850000D03*
X210650000Y-124000000D03*
X212650000Y-124000000D03*
X210900000Y-155850000D03*
X212900000Y-155850000D03*
D12*
X221900000Y-133150000D03*
X221900000Y-135150000D03*
X221900000Y-138650000D03*
X221900000Y-140650000D03*
X221900000Y-144150000D03*
X221900000Y-146150000D03*
D13*
X224450000Y-119550000D03*
X222450000Y-119550000D03*
X233250000Y-119650000D03*
X231250000Y-119650000D03*
D18*
X227156400Y-144942700D03*
X227156400Y-143672700D03*
X227156400Y-142402700D03*
X227156400Y-141132700D03*
X227156400Y-139862700D03*
X227156400Y-138592700D03*
X227156400Y-137322700D03*
X227156400Y-136052700D03*
X227156400Y-134782700D03*
X227156400Y-133512700D03*
X227156400Y-132242700D03*
X227156400Y-130972700D03*
X227156400Y-129702700D03*
X227156400Y-128432700D03*
X236556400Y-128432700D03*
X236556400Y-129702700D03*
X236556400Y-130972700D03*
X236556400Y-132242700D03*
X236556400Y-133512700D03*
X236556400Y-134782700D03*
X236556400Y-136052700D03*
X236556400Y-137322700D03*
X236556400Y-138592700D03*
X236556400Y-139862700D03*
X236556400Y-141132700D03*
X236556400Y-142402700D03*
X236556400Y-143672700D03*
X236556400Y-144942700D03*
D19*
X179250000Y-130700000D03*
X179250000Y-132600000D03*
X181650000Y-130700000D03*
X181650000Y-132600000D03*
X184050000Y-130700000D03*
X184050000Y-132600000D03*
D20*
X213703157Y-139272752D03*
X205250000Y-159250000D03*
X247450000Y-159450000D03*
X223350000Y-138750000D03*
X223250000Y-135350000D03*
X212450000Y-122450000D03*
X205250000Y-122450000D03*
X190050000Y-136300000D03*
X188450000Y-145850000D03*
X212850000Y-157450000D03*
X229250000Y-119650000D03*
X247650000Y-123350000D03*
X202050000Y-122450000D03*
X223450000Y-145850000D03*
X226850001Y-125870470D03*
X211849998Y-147850002D03*
X197250000Y-156250000D03*
X198650000Y-144250000D03*
X207050000Y-147850000D03*
X220150000Y-134250000D03*
X210650000Y-122650000D03*
X207050000Y-122250000D03*
X191450000Y-140050000D03*
X189950000Y-131000000D03*
X188650000Y-143850000D03*
X207250000Y-157450000D03*
X211050000Y-157450000D03*
X198400000Y-155850000D03*
X200450000Y-120850000D03*
X215650000Y-120850000D03*
X223650000Y-140450000D03*
X214850000Y-142850000D03*
X223250000Y-131650000D03*
X230250000Y-128250000D03*
X246250000Y-143450000D03*
X200250000Y-148050000D03*
X186050000Y-130250000D03*
X242448200Y-154112100D03*
X248149999Y-148650000D03*
X232850000Y-121550000D03*
X226950000Y-119650001D03*
X196450000Y-158850000D03*
X233024176Y-149710192D03*
X229850000Y-145650001D03*
X187050000Y-158450000D03*
X226469550Y-146650000D03*
X230620308Y-149057449D03*
X173800000Y-158650000D03*
X179450000Y-158250000D03*
X184450000Y-158450000D03*
X189650000Y-158450000D03*
X194906431Y-158706431D03*
X198850000Y-159299510D03*
X234114948Y-149864060D03*
X233331639Y-148655064D03*
X229250000Y-134850000D03*
X236250000Y-148850000D03*
X237170000Y-147613911D03*
X204050000Y-158850000D03*
X230450000Y-133650000D03*
X209450000Y-159450000D03*
X236012064Y-150398576D03*
X215450000Y-159250000D03*
X229450000Y-132350000D03*
X238689021Y-147843347D03*
X240548551Y-146392813D03*
X224650000Y-158850000D03*
X229250000Y-131150000D03*
X232850000Y-159050000D03*
X242550000Y-147550000D03*
X229250000Y-129750000D03*
X240450000Y-158850000D03*
X244550000Y-147550000D03*
X239450000Y-128550000D03*
X238050000Y-159050000D03*
X244450000Y-137850000D03*
X243650000Y-146350000D03*
X230050000Y-158250000D03*
X242350000Y-138550000D03*
X241306764Y-147446066D03*
X222050000Y-158850000D03*
X241150000Y-139850000D03*
X239787889Y-147825536D03*
X214050000Y-159250000D03*
X239250000Y-139450000D03*
X238609176Y-146747239D03*
X218650000Y-137250000D03*
X214650000Y-140650000D03*
X230850000Y-135250000D03*
X177050000Y-158250000D03*
X232050000Y-137450000D03*
X229650000Y-141050000D03*
X234050000Y-137250000D03*
X225050000Y-138050000D03*
X213369021Y-147674441D03*
X181902700Y-158250000D03*
X233850000Y-139050000D03*
X228806997Y-149577054D03*
X233083303Y-140592749D03*
X234434416Y-148210382D03*
X234650000Y-140050000D03*
X178250000Y-156850000D03*
X236382642Y-146847169D03*
X231386533Y-145954633D03*
X227650000Y-146250000D03*
X175050000Y-156850000D03*
X234090627Y-141032208D03*
X192250000Y-158650000D03*
X234438236Y-142076152D03*
X233779220Y-146278283D03*
X230283905Y-143086608D03*
X229050000Y-142050000D03*
X230410917Y-144402028D03*
X234650000Y-143650012D03*
X197750000Y-131250000D03*
X198350000Y-132950000D03*
X199550000Y-133150000D03*
X200750000Y-133150000D03*
X203250000Y-120650000D03*
X204450000Y-121050000D03*
X201850000Y-131650000D03*
X201950000Y-133050000D03*
X203350000Y-133150000D03*
X204650000Y-133150000D03*
X205950000Y-133150000D03*
X207950000Y-134250000D03*
X208450000Y-133050000D03*
X207850000Y-120550002D03*
X209072330Y-120534466D03*
X210350000Y-120550000D03*
X209969021Y-132748225D03*
X211250000Y-132650000D03*
X212450000Y-132550000D03*
X213750000Y-133050000D03*
X214550000Y-132150000D03*
X214650000Y-130950000D03*
X214350000Y-123950000D03*
X212682484Y-138865255D03*
X211644249Y-139263583D03*
X212406324Y-137346234D03*
X212465280Y-136248805D03*
X213401915Y-135609853D03*
X212549994Y-134650000D03*
X211350000Y-133950000D03*
X208450000Y-136050000D03*
X207889291Y-138183727D03*
X207393447Y-139524675D03*
X206250000Y-136550000D03*
X206765454Y-141041477D03*
X205817561Y-138931439D03*
X204510684Y-137909807D03*
X204063109Y-138913552D03*
X202838694Y-138943935D03*
X203739956Y-140456389D03*
X201531986Y-139835216D03*
X203146383Y-141987582D03*
X202042088Y-141926828D03*
X200950000Y-142050000D03*
X197450000Y-146650000D03*
X181650000Y-129250000D03*
X197450000Y-148250000D03*
X168650000Y-149250000D03*
X169650000Y-145050000D03*
X184250000Y-129050000D03*
X193871758Y-148050360D03*
X179050000Y-129250000D03*
X192511800Y-148050360D03*
X201450000Y-159719520D03*
X207050000Y-159250000D03*
X216250000Y-158450000D03*
X227450000Y-158650000D03*
X235050000Y-159050000D03*
X243050000Y-158850000D03*
X222409520Y-126950000D03*
X220650000Y-126950000D03*
X199250000Y-126750000D03*
X197650000Y-126750000D03*
X209550000Y-134250000D03*
X215550000Y-127050000D03*
X213249996Y-140450000D03*
X215050000Y-125150000D03*
X199851871Y-142005954D03*
X198766036Y-141836277D03*
D21*
X212490495Y-140814561D02*
X212490495Y-140135382D01*
X212490495Y-140135382D02*
X213353125Y-139272752D01*
X213521000Y-145829000D02*
X213521000Y-141845066D01*
X213521000Y-141845066D02*
X212490495Y-140814561D01*
X213353125Y-139272752D02*
X213703157Y-139272752D01*
X205400000Y-159100000D02*
X205400000Y-155850000D01*
X205250000Y-159250000D02*
X205400000Y-159100000D01*
D22*
X247450000Y-159450000D02*
X247183180Y-159716820D01*
D21*
X223250000Y-138650000D02*
X221900000Y-138650000D01*
X223350000Y-138750000D02*
X223250000Y-138650000D01*
X223050000Y-135150000D02*
X221900000Y-135150000D01*
X223250000Y-135350000D02*
X223050000Y-135150000D01*
X211997000Y-145829000D02*
X211997000Y-147950000D01*
X202421200Y-155328800D02*
X201900000Y-155850000D01*
D22*
X188500000Y-145900000D02*
X190000000Y-145900000D01*
D23*
X190000000Y-136250000D02*
X190000000Y-134500000D01*
X190050000Y-137950000D02*
X190000000Y-138000000D01*
X190050000Y-136300000D02*
X190050000Y-137950000D01*
D21*
X212650000Y-122650000D02*
X212650000Y-124000000D01*
X212450000Y-122450000D02*
X212650000Y-122650000D01*
X205150000Y-122550000D02*
X205150000Y-124000000D01*
X205250000Y-122450000D02*
X205150000Y-122550000D01*
D23*
X204850000Y-124300000D02*
X205150000Y-124000000D01*
D22*
X211623180Y-159476820D02*
X211623180Y-163981420D01*
X247183180Y-159716820D02*
X247183180Y-163981420D01*
D23*
X190050000Y-136300000D02*
X190000000Y-136250000D01*
D22*
X188450000Y-145850000D02*
X188500000Y-145900000D01*
X168443180Y-156009070D02*
X169402250Y-155050000D01*
X168443180Y-163981420D02*
X168443180Y-156009070D01*
X212900000Y-155850000D02*
X212900000Y-157450000D01*
X212900000Y-158200000D02*
X212500000Y-158600000D01*
X212500000Y-158600000D02*
X211623180Y-159476820D01*
X212900000Y-157450000D02*
X212900000Y-158200000D01*
D21*
X212850000Y-157450000D02*
X212900000Y-157450000D01*
X212900000Y-157450000D02*
X212850000Y-157450000D01*
X212850000Y-157450000D02*
X212900000Y-157450000D01*
D23*
X221850000Y-136800000D02*
X221900000Y-136800000D01*
X221900000Y-136800000D02*
X221850000Y-136800000D01*
X221850000Y-136800000D02*
X221900000Y-136800000D01*
X221900000Y-136800000D02*
X221900000Y-138650000D01*
X221900000Y-135150000D02*
X221900000Y-136800000D01*
D22*
X211450000Y-147950000D02*
X210450000Y-147950000D01*
X211997000Y-147950000D02*
X211450000Y-147950000D01*
D24*
X247350000Y-159450000D02*
X246450000Y-158550000D01*
X246450000Y-158550000D02*
X246450000Y-157150000D01*
X247450000Y-159450000D02*
X247350000Y-159450000D01*
X229250000Y-119650000D02*
X231250000Y-119650000D01*
D21*
X202050000Y-122450000D02*
X201650000Y-122850000D01*
X201650000Y-122850000D02*
X201650000Y-124050000D01*
D22*
X187550000Y-132750000D02*
X187550000Y-132650000D01*
X187550000Y-133850000D02*
X187550000Y-132750000D01*
X187550000Y-137150000D02*
X187550000Y-133850000D01*
X187550000Y-137950000D02*
X187550000Y-137150000D01*
X187550000Y-145150000D02*
X187550000Y-137950000D01*
X188250000Y-145850000D02*
X187550000Y-145150000D01*
X188450000Y-145850000D02*
X188250000Y-145850000D01*
X187550000Y-138000000D02*
X187550000Y-137950000D01*
X188200000Y-134500000D02*
X187550000Y-133850000D01*
X190000000Y-134500000D02*
X188200000Y-134500000D01*
X188400000Y-138000000D02*
X187550000Y-137150000D01*
X190000000Y-138000000D02*
X188400000Y-138000000D01*
X186130000Y-122830000D02*
X185580000Y-122830000D01*
X187550000Y-124250000D02*
X186130000Y-122830000D01*
X187550000Y-132750000D02*
X187550000Y-124250000D01*
X176950000Y-119650000D02*
X175420000Y-121180000D01*
X186750000Y-119650000D02*
X176950000Y-119650000D01*
X187550000Y-120450000D02*
X186750000Y-119650000D01*
X175420000Y-121180000D02*
X175420000Y-122830000D01*
X187550000Y-124250000D02*
X187550000Y-120450000D01*
X213650000Y-119550000D02*
X212450000Y-120750000D01*
X212450000Y-120750000D02*
X212450000Y-122450000D01*
X222450000Y-119550000D02*
X213650000Y-119550000D01*
X201650000Y-121950000D02*
X201650000Y-124050000D01*
X202150000Y-119350000D02*
X201650000Y-119850000D01*
X201650000Y-119850000D02*
X201650000Y-121950000D01*
X206150000Y-119350000D02*
X202150000Y-119350000D01*
X212550000Y-119550000D02*
X212350000Y-119350000D01*
X212350000Y-119350000D02*
X206150000Y-119350000D01*
X213650000Y-119550000D02*
X212550000Y-119550000D01*
X202050000Y-122350000D02*
X201650000Y-121950000D01*
X202050000Y-122450000D02*
X202050000Y-122350000D01*
X205250000Y-121950000D02*
X206150000Y-121050000D01*
X206150000Y-121050000D02*
X206150000Y-119350000D01*
X205250000Y-122450000D02*
X205250000Y-121950000D01*
X188650000Y-119350000D02*
X187550000Y-120450000D01*
X202150000Y-119350000D02*
X188650000Y-119350000D01*
X223450000Y-142050000D02*
X223450000Y-145221383D01*
D21*
X222821383Y-145850000D02*
X223450000Y-145850000D01*
X221900000Y-146150000D02*
X223150000Y-146150000D01*
D22*
X223450000Y-145221383D02*
X223450000Y-145850000D01*
X224650000Y-140050000D02*
X224650000Y-140850000D01*
X224650000Y-140850000D02*
X223450000Y-142050000D01*
X223350000Y-138750000D02*
X224650000Y-140050000D01*
D21*
X222550000Y-146150000D02*
X222550000Y-146121383D01*
X222550000Y-146121383D02*
X222821383Y-145850000D01*
X223150000Y-146150000D02*
X223450000Y-145850000D01*
D24*
X227156400Y-128432700D02*
X227156400Y-126176869D01*
D22*
X224360236Y-128360235D02*
X226405502Y-126314969D01*
D24*
X222450000Y-119550000D02*
X222450000Y-121470469D01*
X227478618Y-125870470D02*
X226850001Y-125870470D01*
X222450000Y-121470469D02*
X226405502Y-125425971D01*
X227156400Y-126176869D02*
X226850001Y-125870470D01*
D22*
X226405502Y-126314969D02*
X226850001Y-125870470D01*
D24*
X245129530Y-125870470D02*
X227478618Y-125870470D01*
X247650000Y-123350000D02*
X245129530Y-125870470D01*
X226405502Y-125425971D02*
X226850001Y-125870470D01*
D22*
X211997000Y-147704938D02*
X211997000Y-147950000D01*
X220285999Y-146829001D02*
X212872937Y-146829001D01*
X221900000Y-146150000D02*
X220965000Y-146150000D01*
X212872937Y-146829001D02*
X211997000Y-147704938D01*
X220965000Y-146150000D02*
X220285999Y-146829001D01*
X224360236Y-129360236D02*
X225250000Y-130250000D01*
X225250000Y-130250000D02*
X225250000Y-134450000D01*
X225250000Y-134450000D02*
X224350000Y-135350000D01*
X224350000Y-135350000D02*
X223250000Y-135350000D01*
X224360236Y-128360235D02*
X224360236Y-129360236D01*
D21*
X211450000Y-148050000D02*
X211450000Y-147950000D01*
X211450000Y-147950000D02*
X211450000Y-148050000D01*
X211549998Y-147850002D02*
X211849998Y-147850002D01*
X211450000Y-147950000D02*
X211549998Y-147850002D01*
X201900000Y-155975000D02*
X200425000Y-157450000D01*
X201900000Y-155850000D02*
X201900000Y-155975000D01*
X200425000Y-157450000D02*
X198450000Y-157450000D01*
X198450000Y-157450000D02*
X197694499Y-156694499D01*
X197694499Y-156694499D02*
X197250000Y-156250000D01*
D22*
X201900000Y-155850000D02*
X205400000Y-155850000D01*
D21*
X200078800Y-147078800D02*
X198650000Y-145650000D01*
X202421200Y-145829000D02*
X202421200Y-146674000D01*
X202016400Y-147078800D02*
X200078800Y-147078800D01*
X202421200Y-146674000D02*
X202016400Y-147078800D01*
X198650000Y-145650000D02*
X198650000Y-144878617D01*
X198650000Y-144878617D02*
X198650000Y-144250000D01*
X207250000Y-147650000D02*
X208450000Y-147650000D01*
X207050000Y-147850000D02*
X207250000Y-147650000D01*
X221250000Y-133150000D02*
X221900000Y-133150000D01*
X220150000Y-134250000D02*
X221250000Y-133150000D01*
X206942400Y-155392400D02*
X207400000Y-155850000D01*
X207400000Y-157300000D02*
X207400000Y-155850000D01*
X210650000Y-122650000D02*
X210650000Y-124000000D01*
X207050000Y-122250000D02*
X207150000Y-122350000D01*
X207150000Y-122350000D02*
X207150000Y-124000000D01*
X199650000Y-123450000D02*
X199650000Y-124050000D01*
D23*
X207350000Y-124200000D02*
X207150000Y-124000000D01*
X210450000Y-124200000D02*
X210650000Y-124000000D01*
D21*
X221900000Y-144400000D02*
X221900000Y-144150000D01*
X221850000Y-144450000D02*
X221900000Y-144400000D01*
X191400000Y-140000000D02*
X190000000Y-140000000D01*
D22*
X190000000Y-143900000D02*
X190000000Y-140000000D01*
D23*
X190200000Y-143700000D02*
X190000000Y-143900000D01*
X190000000Y-131050000D02*
X190000000Y-132500000D01*
D21*
X191450000Y-140050000D02*
X191400000Y-140000000D01*
X188650000Y-143850000D02*
X188700000Y-143900000D01*
X188700000Y-143900000D02*
X190000000Y-143900000D01*
X207250000Y-157450000D02*
X207400000Y-157300000D01*
D23*
X189950000Y-131000000D02*
X190000000Y-131050000D01*
D21*
X211050000Y-157450000D02*
X210900000Y-157300000D01*
X210900000Y-157300000D02*
X210900000Y-155850000D01*
D23*
X198400000Y-155850000D02*
X199900000Y-155850000D01*
D21*
X199650000Y-121650000D02*
X200005501Y-121294499D01*
X199650000Y-124050000D02*
X199650000Y-121650000D01*
X200005501Y-121294499D02*
X200450000Y-120850000D01*
D22*
X207400000Y-155850000D02*
X207400000Y-155300000D01*
X210900000Y-155850000D02*
X210900000Y-155400000D01*
X191450000Y-143050000D02*
X191450000Y-129750000D01*
X190600000Y-143900000D02*
X191450000Y-143050000D01*
X190000000Y-143900000D02*
X190600000Y-143900000D01*
X189950000Y-130250000D02*
X190450000Y-129750000D01*
X190450000Y-129750000D02*
X191450000Y-129750000D01*
X189950000Y-131000000D02*
X189950000Y-130250000D01*
X215650000Y-123250000D02*
X215650000Y-120850000D01*
X216450000Y-127550000D02*
X216450000Y-124050000D01*
X216450000Y-124050000D02*
X215650000Y-123250000D01*
X220150000Y-131250000D02*
X216450000Y-127550000D01*
X220150000Y-134250000D02*
X220150000Y-131250000D01*
X207050000Y-147950000D02*
X208450000Y-147950000D01*
D21*
X206942400Y-147842400D02*
X207050000Y-147950000D01*
X206942400Y-145829000D02*
X206942400Y-147842400D01*
D22*
X220150000Y-139950000D02*
X220850000Y-140650000D01*
X220850000Y-140650000D02*
X221900000Y-140650000D01*
X220150000Y-139750000D02*
X220150000Y-139950000D01*
X220150000Y-134250000D02*
X220150000Y-139750000D01*
X221050000Y-144150000D02*
X221900000Y-144150000D01*
X220150000Y-143250000D02*
X221050000Y-144150000D01*
X220150000Y-139750000D02*
X220150000Y-143250000D01*
D21*
X223450000Y-140650000D02*
X223650000Y-140450000D01*
X221900000Y-140650000D02*
X223450000Y-140650000D01*
X207400000Y-155850000D02*
X210900000Y-155850000D01*
X214850000Y-142850000D02*
X216150000Y-144150000D01*
X216150000Y-144150000D02*
X221900000Y-144150000D01*
D22*
X221900000Y-133000000D02*
X221900000Y-133150000D01*
X223250000Y-131650000D02*
X221900000Y-133000000D01*
X231450000Y-127050000D02*
X230250000Y-128250000D01*
X247050000Y-127050000D02*
X231450000Y-127050000D01*
X248050000Y-128050000D02*
X247050000Y-127050000D01*
X248050000Y-139450000D02*
X248050000Y-128050000D01*
X246250000Y-141250000D02*
X248050000Y-139450000D01*
X246250000Y-143450000D02*
X246250000Y-141250000D01*
X201850000Y-147850000D02*
X200450000Y-147850000D01*
X200450000Y-147850000D02*
X200250000Y-148050000D01*
X207050000Y-147850000D02*
X201850000Y-147850000D01*
X186050000Y-132050000D02*
X185500000Y-132600000D01*
X185500000Y-132600000D02*
X184050000Y-132600000D01*
X186050000Y-130250000D02*
X186050000Y-132050000D01*
X184050000Y-132600000D02*
X181650000Y-132600000D01*
X181650000Y-132600000D02*
X179250000Y-132600000D01*
X244643180Y-163981420D02*
X244643180Y-158643180D01*
X244643180Y-156307080D02*
X242448200Y-154112100D01*
X244643180Y-158643180D02*
X244643180Y-156307080D01*
X170983180Y-159116820D02*
X171050000Y-159050000D01*
X171497750Y-158602250D02*
X171050000Y-159050000D01*
X171497750Y-158602250D02*
X171497750Y-155050000D01*
X170983180Y-163981420D02*
X170983180Y-159116820D01*
D24*
X246450000Y-154650000D02*
X246450000Y-155150000D01*
X245912100Y-154112100D02*
X246450000Y-154650000D01*
X242448200Y-154112100D02*
X245912100Y-154112100D01*
X248694503Y-148105496D02*
X248594498Y-148205501D01*
X248594498Y-148205501D02*
X248149999Y-148650000D01*
X248694503Y-145394503D02*
X248694503Y-148105496D01*
X233250000Y-121150000D02*
X232850000Y-121550000D01*
X233250000Y-119650000D02*
X233250000Y-121150000D01*
X224450000Y-119550000D02*
X226849999Y-119550000D01*
X226849999Y-119550000D02*
X226950000Y-119650001D01*
X232850000Y-121550000D02*
X228849999Y-121550000D01*
X228849999Y-121550000D02*
X227394499Y-120094500D01*
X227394499Y-120094500D02*
X226950000Y-119650001D01*
D22*
X248242700Y-144942700D02*
X248694503Y-145394503D01*
X236556400Y-144942700D02*
X248242700Y-144942700D01*
D24*
X249250000Y-144839006D02*
X248694503Y-145394503D01*
X249250000Y-122550000D02*
X249250000Y-144839006D01*
X246350000Y-119650000D02*
X249250000Y-122550000D01*
X233250000Y-119650000D02*
X246350000Y-119650000D01*
D21*
X196383180Y-158916820D02*
X196450000Y-158850000D01*
X196383180Y-163981420D02*
X196383180Y-158916820D01*
X227156400Y-144942700D02*
X226157300Y-144942700D01*
X233110192Y-149710192D02*
X233024176Y-149710192D01*
X233250000Y-149850000D02*
X233110192Y-149710192D01*
X227156400Y-144942700D02*
X229142699Y-144942700D01*
X229142699Y-144942700D02*
X229405501Y-145205502D01*
X229405501Y-145205502D02*
X229850000Y-145650001D01*
X205784296Y-153510111D02*
X229989889Y-153510111D01*
X204102054Y-153409980D02*
X205684165Y-153409980D01*
X194250008Y-153849992D02*
X203662042Y-153849992D01*
X203662042Y-153849992D02*
X204102054Y-153409980D01*
X194250008Y-156650008D02*
X194250008Y-153849992D01*
X205684165Y-153409980D02*
X205784296Y-153510111D01*
X196450000Y-158850000D02*
X194250008Y-156650008D01*
X233024176Y-150475824D02*
X233024176Y-149710192D01*
X229989889Y-153510111D02*
X233024176Y-150475824D01*
X186250000Y-163954600D02*
X186223180Y-163981420D01*
X186250000Y-159250000D02*
X186250000Y-163954600D01*
X187050000Y-158450000D02*
X186250000Y-159250000D01*
X227156400Y-143672700D02*
X226456400Y-143672700D01*
X226456400Y-143672700D02*
X225450000Y-144679100D01*
X225450000Y-144679100D02*
X225450000Y-145630450D01*
X225450000Y-145630450D02*
X226025051Y-146205501D01*
X226025051Y-146205501D02*
X226469550Y-146650000D01*
X230005501Y-149805501D02*
X230005501Y-149494499D01*
X230175809Y-149501948D02*
X230620308Y-149057449D01*
X230005501Y-149494499D02*
X230012950Y-149501948D01*
X230012950Y-149501948D02*
X230175809Y-149501948D01*
X206480188Y-151830071D02*
X228263912Y-151830071D01*
X203406162Y-151729940D02*
X206380057Y-151729940D01*
X202966150Y-152169952D02*
X203406162Y-151729940D01*
X187050000Y-158450000D02*
X193330048Y-152169952D01*
X206380057Y-151729940D02*
X206480188Y-151830071D01*
X193330048Y-152169952D02*
X202966150Y-152169952D01*
X228263912Y-151830071D02*
X230005501Y-150088482D01*
X230005501Y-150088482D02*
X230005501Y-149494499D01*
X227156400Y-142402700D02*
X226497300Y-142402700D01*
X224953014Y-148789870D02*
X224910130Y-148789870D01*
D23*
X173523180Y-158926820D02*
X173800000Y-158650000D01*
X173523180Y-158926820D02*
X173523180Y-163981420D01*
D21*
X224953014Y-147953014D02*
X224953014Y-148789870D01*
X224850000Y-143250000D02*
X224850000Y-147850000D01*
X224850000Y-147850000D02*
X224953014Y-147953014D01*
X225697300Y-142402700D02*
X224850000Y-143250000D01*
X227156400Y-142402700D02*
X225697300Y-142402700D01*
X202188351Y-148789870D02*
X207634999Y-148789870D01*
X207634999Y-148789870D02*
X207735130Y-148890001D01*
X186332785Y-150850000D02*
X186832835Y-150349950D01*
X179450000Y-150850000D02*
X186332785Y-150850000D01*
X173800000Y-156500000D02*
X179450000Y-150850000D01*
X189598186Y-150349950D02*
X190718254Y-149229882D01*
X224852883Y-148890001D02*
X224953014Y-148789870D01*
X173800000Y-158650000D02*
X173800000Y-156500000D01*
X201748339Y-149229882D02*
X202188351Y-148789870D01*
X186832835Y-150349950D02*
X189598186Y-150349950D01*
X190718254Y-149229882D02*
X201748339Y-149229882D01*
X207735130Y-148890001D02*
X224852883Y-148890001D01*
X179450000Y-158250000D02*
X178650000Y-159050000D01*
X178650000Y-163934600D02*
X178603180Y-163981420D01*
X178650000Y-159050000D02*
X178650000Y-163934600D01*
X228443238Y-141132700D02*
X229285439Y-140290499D01*
X207002107Y-150570041D02*
X206901976Y-150469910D01*
X191414146Y-150909922D02*
X190294078Y-152029990D01*
X230409502Y-141491455D02*
X231466569Y-142548522D01*
X206901976Y-150469910D02*
X202884243Y-150469910D01*
X231590447Y-145084426D02*
X232179699Y-145673677D01*
X232179699Y-145673677D02*
X232179699Y-146356952D01*
X225935976Y-150570041D02*
X207002107Y-150570041D01*
X230409501Y-140685439D02*
X230409502Y-141491455D01*
X231466569Y-143148525D02*
X231590447Y-143272404D01*
X227156400Y-141132700D02*
X228443238Y-141132700D01*
X230014561Y-140290499D02*
X230409501Y-140685439D01*
X231590447Y-143272404D02*
X231590447Y-145084426D01*
X187528727Y-152029990D02*
X186928727Y-152629990D01*
X179894499Y-157805501D02*
X179450000Y-158250000D01*
X202884243Y-150469910D02*
X202444231Y-150909922D01*
X229285439Y-140290499D02*
X230014561Y-140290499D01*
X186928727Y-152629990D02*
X185070010Y-152629990D01*
X202444231Y-150909922D02*
X191414146Y-150909922D01*
X231466569Y-142548522D02*
X231466569Y-143148525D01*
X232179699Y-146356952D02*
X231287128Y-147249521D01*
X229256496Y-147249521D02*
X225935976Y-150570041D01*
X190294078Y-152029990D02*
X187528727Y-152029990D01*
X231287128Y-147249521D02*
X229256496Y-147249521D01*
X185070010Y-152629990D02*
X179894499Y-157805501D01*
X183683180Y-159216820D02*
X183683180Y-163981420D01*
X184450000Y-158450000D02*
X183683180Y-159216820D01*
X206554030Y-151309930D02*
X206654161Y-151410061D01*
X230180744Y-139862700D02*
X228366400Y-139862700D01*
X202792177Y-151749942D02*
X203232189Y-151309930D01*
X185506533Y-158005501D02*
X191762092Y-151749942D01*
X184894499Y-158005501D02*
X185506533Y-158005501D01*
X232599709Y-146530925D02*
X232599709Y-145499705D01*
X229585491Y-149914509D02*
X229585491Y-148950626D01*
X228366400Y-139862700D02*
X227156400Y-139862700D01*
X230829511Y-140511467D02*
X230180744Y-139862700D01*
X231461101Y-147669531D02*
X232599709Y-146530925D01*
X229585491Y-148950626D02*
X230866586Y-147669531D01*
X230866586Y-147669531D02*
X231461101Y-147669531D01*
X231886577Y-142974548D02*
X231886578Y-142904959D01*
X191762092Y-151749942D02*
X202792177Y-151749942D01*
X231886578Y-142374549D02*
X230829511Y-141317481D01*
X184450000Y-158450000D02*
X184894499Y-158005501D01*
X230829511Y-141317481D02*
X230829511Y-140511467D01*
X232010457Y-144910453D02*
X232010457Y-143098430D01*
X206654161Y-151410061D02*
X228089939Y-151410061D01*
X228089939Y-151410061D02*
X229585491Y-149914509D01*
X231886578Y-142904959D02*
X231886578Y-142374549D01*
X232010457Y-143098430D02*
X231886577Y-142974548D01*
X203232189Y-151309930D02*
X206554030Y-151309930D01*
X232599709Y-145499705D02*
X232010457Y-144910453D01*
X188650000Y-163868240D02*
X188763180Y-163981420D01*
X188650000Y-159450000D02*
X188650000Y-163868240D01*
X189650000Y-158450000D02*
X188650000Y-159450000D01*
X232430467Y-144736480D02*
X233019719Y-145325731D01*
X231409501Y-149890499D02*
X229049919Y-152250081D01*
X193728089Y-152589962D02*
X189650000Y-156668051D01*
X231409501Y-148315114D02*
X231409501Y-149890499D01*
X189650000Y-156668051D02*
X189650000Y-157821383D01*
X231249522Y-140337496D02*
X231249522Y-141143509D01*
X189650000Y-157821383D02*
X189650000Y-158450000D01*
X232306588Y-142200576D02*
X232306588Y-142800578D01*
X229049919Y-152250081D02*
X206306215Y-152250081D01*
X231249522Y-141143509D02*
X232306588Y-142200576D01*
X203140123Y-152589962D02*
X193728089Y-152589962D01*
X229504726Y-138592700D02*
X231249522Y-140337496D01*
X227156400Y-138592700D02*
X229504726Y-138592700D01*
X206306215Y-152250081D02*
X206206084Y-152149950D01*
X232430467Y-142924457D02*
X232430467Y-144736480D01*
X233019719Y-146704898D02*
X231409501Y-148315114D01*
X232306588Y-142800578D02*
X232430467Y-142924457D01*
X233019719Y-145325731D02*
X233019719Y-146704898D01*
X206206084Y-152149950D02*
X203580135Y-152149950D01*
X203580135Y-152149950D02*
X203140123Y-152589962D01*
X194277814Y-158706431D02*
X194906431Y-158706431D01*
X203488069Y-153429982D02*
X194076035Y-153429982D01*
X205958269Y-153090101D02*
X205858138Y-152989970D01*
X229809899Y-153090101D02*
X205958269Y-153090101D01*
X232264675Y-150635325D02*
X229809899Y-153090101D01*
X191650000Y-155856017D02*
X191650000Y-156078617D01*
X234261306Y-147030853D02*
X233881728Y-147030853D01*
X194076035Y-153429982D02*
X191650000Y-155856017D01*
X234783102Y-146108421D02*
X234783102Y-146509057D01*
X234124204Y-145449523D02*
X234783102Y-146108421D01*
X233737493Y-145449523D02*
X234124204Y-145449523D01*
X232850477Y-144562507D02*
X233737493Y-145449523D01*
X233881728Y-147030853D02*
X232264675Y-148647906D01*
X232850477Y-142750484D02*
X232850477Y-144562507D01*
X232264675Y-148647906D02*
X232264675Y-150635325D01*
X191650000Y-156078617D02*
X194277814Y-158706431D01*
X203928081Y-152989970D02*
X203488069Y-153429982D01*
X232726599Y-142626606D02*
X232850477Y-142750484D01*
X232726598Y-142026603D02*
X232726599Y-142626606D01*
X231669532Y-140163523D02*
X231669532Y-140969536D01*
X231669532Y-140969536D02*
X232726598Y-142026603D01*
X228828709Y-137322700D02*
X231669532Y-140163523D01*
X234783102Y-146509057D02*
X234261306Y-147030853D01*
X205858138Y-152989970D02*
X203928081Y-152989970D01*
X227156400Y-137322700D02*
X228828709Y-137322700D01*
X193843180Y-159769682D02*
X194461932Y-159150930D01*
X193843180Y-159769682D02*
X193843180Y-163981420D01*
X194461932Y-159150930D02*
X194906431Y-158706431D01*
X198923180Y-163981420D02*
X198923180Y-159372690D01*
X198923180Y-159372690D02*
X198850000Y-159299510D01*
X232450000Y-152250000D02*
X232450000Y-152050000D01*
X232450000Y-152050000D02*
X233605501Y-150894499D01*
X233605501Y-150373507D02*
X233670449Y-150308559D01*
X233670449Y-150308559D02*
X234114948Y-149864060D01*
X233605501Y-150894499D02*
X233605501Y-150373507D01*
X228366400Y-136562700D02*
X228662692Y-136562700D01*
X233146608Y-141852630D02*
X233146608Y-142452632D01*
X233270487Y-144388534D02*
X233911466Y-145029513D01*
X232089542Y-139989550D02*
X232089542Y-140795563D01*
X234435279Y-147450863D02*
X234055700Y-147450863D01*
X233911466Y-145029513D02*
X234298177Y-145029513D01*
X234055700Y-147450863D02*
X233331639Y-148174923D01*
X227156400Y-136052700D02*
X227856400Y-136052700D01*
X234298177Y-145029513D02*
X235203112Y-145934448D01*
X233146608Y-142452632D02*
X233270487Y-142576511D01*
X227856400Y-136052700D02*
X228366400Y-136562700D01*
X232089542Y-140795563D02*
X233146608Y-141852630D01*
X235203112Y-145934448D02*
X235203112Y-146683030D01*
X235203112Y-146683030D02*
X234435279Y-147450863D01*
X233331639Y-148174923D02*
X233331639Y-148655064D01*
X228662692Y-136562700D02*
X232089542Y-139989550D01*
X233270487Y-142576511D02*
X233270487Y-144388534D01*
X205610323Y-153930121D02*
X230569879Y-153930121D01*
X205510192Y-153829990D02*
X205610323Y-153930121D01*
X204276027Y-153829990D02*
X205510192Y-153829990D01*
X203836015Y-154270002D02*
X204276027Y-153829990D01*
X195629998Y-154270002D02*
X203836015Y-154270002D01*
X195050000Y-154850000D02*
X195629998Y-154270002D01*
X195050000Y-156050000D02*
X195050000Y-154850000D01*
X198299510Y-159299510D02*
X195050000Y-156050000D01*
X230569879Y-153930121D02*
X233605501Y-150894499D01*
X198850000Y-159299510D02*
X198299510Y-159299510D01*
X227156400Y-134782700D02*
X227856400Y-134782700D01*
X229250000Y-134850000D02*
X229182700Y-134782700D01*
X229182700Y-134782700D02*
X227156400Y-134782700D01*
X204003180Y-158896820D02*
X204050000Y-158850000D01*
X204003180Y-163981420D02*
X204003180Y-158896820D01*
X235805501Y-149523116D02*
X235805501Y-149294499D01*
X235805501Y-149294499D02*
X236250000Y-148850000D01*
X204349869Y-154350131D02*
X230978486Y-154350131D01*
X204009988Y-154690012D02*
X204349869Y-154350131D01*
X196250000Y-155850000D02*
X197409988Y-154690012D01*
X196250000Y-156374062D02*
X196250000Y-155850000D01*
X197409988Y-154690012D02*
X204009988Y-154690012D01*
X196885439Y-157009501D02*
X196250000Y-156374062D01*
X197009501Y-157009501D02*
X196885439Y-157009501D01*
X198050000Y-158050000D02*
X197009501Y-157009501D01*
X200050000Y-158050000D02*
X198050000Y-158050000D01*
X200850000Y-158850000D02*
X200050000Y-158050000D01*
X230978486Y-154350131D02*
X235805501Y-149523116D01*
X204050000Y-158850000D02*
X200850000Y-158850000D01*
X230312700Y-133512700D02*
X227156400Y-133512700D01*
X230450000Y-133650000D02*
X230312700Y-133512700D01*
X209450000Y-159450000D02*
X209450000Y-158450000D01*
X231329867Y-154770133D02*
X232950000Y-153150000D01*
X232950000Y-153150000D02*
X233050000Y-153050000D01*
X209850000Y-154770133D02*
X231329867Y-154770133D01*
X209810067Y-154810066D02*
X209850000Y-154770133D01*
X209083180Y-159816820D02*
X209083180Y-163981420D01*
X209450000Y-159450000D02*
X209083180Y-159816820D01*
X232950000Y-153150000D02*
X233889257Y-153150000D01*
X233889257Y-153150000D02*
X236012064Y-151027193D01*
X236012064Y-151027193D02*
X236012064Y-150398576D01*
X206689934Y-154810066D02*
X206450000Y-155050000D01*
X206450000Y-155050000D02*
X206450000Y-156650000D01*
X206450000Y-156650000D02*
X206250000Y-156850000D01*
X206250000Y-156850000D02*
X206250000Y-157650000D01*
X206250000Y-157650000D02*
X207050000Y-158450000D01*
X207050000Y-158450000D02*
X209450000Y-158450000D01*
X209810067Y-154810066D02*
X206689934Y-154810066D01*
X216703180Y-160503180D02*
X216703180Y-163981420D01*
X215450000Y-159250000D02*
X216703180Y-160503180D01*
X229342700Y-132242700D02*
X227156400Y-132242700D01*
X229342700Y-132242700D02*
X229450000Y-132350000D01*
X215450000Y-159250000D02*
X215450000Y-158125938D01*
X237737408Y-154250892D02*
X237927000Y-154061300D01*
X215450000Y-158125938D02*
X216034838Y-157541100D01*
X238244522Y-148287846D02*
X238689021Y-147843347D01*
X237927000Y-148605368D02*
X238244522Y-148287846D01*
X234946326Y-154250892D02*
X237737408Y-154250892D01*
X224086627Y-156219390D02*
X232977828Y-156219390D01*
X222764918Y-157541100D02*
X224086627Y-156219390D01*
X237927000Y-154061300D02*
X237927000Y-148605368D01*
X232977828Y-156219390D02*
X234946326Y-154250892D01*
X216034838Y-157541100D02*
X222764918Y-157541100D01*
X224650000Y-158850000D02*
X224323180Y-159176820D01*
X225278617Y-158850000D02*
X226828817Y-157299800D01*
X224650000Y-158850000D02*
X225278617Y-158850000D01*
X226828817Y-157299800D02*
X233304200Y-157299800D01*
X233304200Y-157299800D02*
X235387000Y-155217000D01*
X235387000Y-155217000D02*
X238866800Y-155217000D01*
X238866800Y-155217000D02*
X239171600Y-154912200D01*
X239171600Y-153550000D02*
X239171600Y-153527900D01*
X239171600Y-154912200D02*
X239171600Y-153550000D01*
X224323180Y-159176820D02*
X224323180Y-163981420D01*
X229072700Y-130972700D02*
X229250000Y-131150000D01*
X229072700Y-130972700D02*
X227156400Y-130972700D01*
X240104052Y-146837312D02*
X240548551Y-146392813D01*
X239171600Y-153550000D02*
X239171600Y-149565887D01*
X240104052Y-147066035D02*
X240104052Y-146837312D01*
X240547390Y-147509373D02*
X240104052Y-147066035D01*
X239171600Y-149565887D02*
X240547390Y-148190097D01*
X240547390Y-148190097D02*
X240547390Y-147509373D01*
X232450000Y-163474600D02*
X231943180Y-163981420D01*
X232450000Y-159450000D02*
X232450000Y-163474600D01*
X232850000Y-159050000D02*
X232450000Y-159450000D01*
X242550000Y-148250000D02*
X242850000Y-148550000D01*
X242850000Y-148550000D02*
X242850000Y-149450000D01*
X242850000Y-149450000D02*
X240250000Y-152050000D01*
X240250000Y-152050000D02*
X240250000Y-153261010D01*
X240250000Y-153261010D02*
X240262890Y-153273900D01*
X229202700Y-129702700D02*
X227156400Y-129702700D01*
X229202700Y-129702700D02*
X229250000Y-129750000D01*
X240262890Y-155941810D02*
X240262890Y-153273900D01*
X236105117Y-156423500D02*
X239781200Y-156423500D01*
X239781200Y-156423500D02*
X240262890Y-155941810D01*
X232850000Y-159050000D02*
X233478617Y-159050000D01*
X233478617Y-159050000D02*
X236105117Y-156423500D01*
X242550000Y-147550000D02*
X242550000Y-148250000D01*
X239563180Y-159736820D02*
X239563180Y-163981420D01*
X240450000Y-158850000D02*
X239563180Y-159736820D01*
X240450000Y-158221383D02*
X241127400Y-157543983D01*
X240450000Y-158850000D02*
X240450000Y-158221383D01*
X241127400Y-153250000D02*
X241127400Y-153210400D01*
X241127400Y-157543983D02*
X241127400Y-153250000D01*
X241127400Y-153072600D02*
X244550000Y-149650000D01*
X244550000Y-149650000D02*
X244550000Y-147550000D01*
X239450000Y-128550000D02*
X239332700Y-128432700D01*
X239332700Y-128432700D02*
X236556400Y-128432700D01*
X241127400Y-153250000D02*
X241127400Y-153072600D01*
X237023180Y-160076820D02*
X237023180Y-163981420D01*
X238050000Y-159050000D02*
X237023180Y-160076820D01*
X240682900Y-153250000D02*
X240682900Y-153248500D01*
X238894599Y-158605501D02*
X240682900Y-156817200D01*
X238050000Y-159050000D02*
X238494499Y-158605501D01*
X238494499Y-158605501D02*
X238894599Y-158605501D01*
X240682900Y-156817200D02*
X240682900Y-153250000D01*
X240682900Y-152717100D02*
X240682900Y-153250000D01*
X243650000Y-149750000D02*
X243650000Y-146350000D01*
X240682900Y-152717100D02*
X243650000Y-149750000D01*
X236709100Y-129550000D02*
X236556400Y-129702700D01*
X244850000Y-129550000D02*
X236709100Y-129550000D01*
X247250000Y-135450000D02*
X247250000Y-131950000D01*
X247250000Y-131950000D02*
X244850000Y-129550000D01*
X244850000Y-137850000D02*
X247250000Y-135450000D01*
X244450000Y-137850000D02*
X244850000Y-137850000D01*
X229403180Y-158896820D02*
X229403180Y-163981420D01*
X230050000Y-158250000D02*
X229403180Y-158896820D01*
X242150000Y-137850000D02*
X242150000Y-137950000D01*
X239550000Y-135250000D02*
X242150000Y-137850000D01*
X239550000Y-131450000D02*
X239550000Y-135250000D01*
X239072700Y-130972700D02*
X239550000Y-131450000D01*
X236556400Y-130972700D02*
X239072700Y-130972700D01*
X242150000Y-138350000D02*
X242150000Y-137850000D01*
X242150000Y-138350000D02*
X242350000Y-138550000D01*
X235666400Y-155763100D02*
X239463700Y-155763100D01*
X239743100Y-155483700D02*
X239743100Y-151356900D01*
X241306764Y-148074683D02*
X241306764Y-147446066D01*
X233179500Y-158250000D02*
X235666400Y-155763100D01*
X230050000Y-158250000D02*
X233179500Y-158250000D01*
X241306764Y-149793236D02*
X241306764Y-148074683D01*
X239743100Y-151356900D02*
X241306764Y-149793236D01*
X239463700Y-155763100D02*
X239743100Y-155483700D01*
X222050000Y-158850000D02*
X221783180Y-159116820D01*
X221783180Y-159116820D02*
X221783180Y-163981420D01*
X238642700Y-132242700D02*
X236556400Y-132242700D01*
X241050000Y-139750000D02*
X241150000Y-139850000D01*
X241050000Y-137650000D02*
X241050000Y-139750000D01*
X238950000Y-135550000D02*
X241050000Y-137650000D01*
X238950000Y-132550000D02*
X238950000Y-135550000D01*
X238642700Y-132242700D02*
X238950000Y-132550000D01*
X238384200Y-149229225D02*
X239787889Y-147825536D01*
X235120300Y-154670900D02*
X238384200Y-154670900D01*
X233151800Y-156639400D02*
X235120300Y-154670900D01*
X224260600Y-156639400D02*
X233151800Y-156639400D01*
X222050000Y-158850000D02*
X224260600Y-156639400D01*
X238384200Y-154670900D02*
X238384200Y-149229225D01*
X214050000Y-159250000D02*
X214163180Y-159363180D01*
X214163180Y-159363180D02*
X214163180Y-163981420D01*
X236593700Y-133550000D02*
X236556400Y-133512700D01*
X239250000Y-139450000D02*
X240250000Y-138450000D01*
X240250000Y-138450000D02*
X240250000Y-137650000D01*
X240250000Y-137650000D02*
X238250000Y-135650000D01*
X238250000Y-135650000D02*
X238250000Y-133850000D01*
X238250000Y-133850000D02*
X237950000Y-133550000D01*
X237950000Y-133550000D02*
X236593700Y-133550000D01*
X214050000Y-158621383D02*
X217021383Y-155650000D01*
X238164677Y-147191738D02*
X238609176Y-146747239D01*
X237929501Y-147426914D02*
X238164677Y-147191738D01*
X237929501Y-147965337D02*
X237929501Y-147426914D01*
X237484077Y-148410761D02*
X237929501Y-147965337D01*
X237484077Y-150815923D02*
X237484077Y-148410761D01*
X232650000Y-155650000D02*
X237484077Y-150815923D01*
X214050000Y-159250000D02*
X214050000Y-158621383D01*
X217021383Y-155650000D02*
X232650000Y-155650000D01*
X218650000Y-137250000D02*
X215650000Y-137250000D01*
X215650000Y-137250000D02*
X214650000Y-138250000D01*
X214650000Y-138250000D02*
X214650000Y-140650000D01*
X236556400Y-134782700D02*
X231317300Y-134782700D01*
X231317300Y-134782700D02*
X230850000Y-135250000D01*
X176250000Y-163794600D02*
X176063180Y-163981420D01*
X177050000Y-158250000D02*
X176250000Y-159050000D01*
X176250000Y-159050000D02*
X176250000Y-163794600D01*
X236556400Y-136052700D02*
X233447300Y-136052700D01*
X233447300Y-136052700D02*
X232494499Y-137005501D01*
X232494499Y-137005501D02*
X232050000Y-137450000D01*
X177050000Y-155050000D02*
X180050000Y-152050000D01*
X225569979Y-149730021D02*
X228890498Y-146409502D01*
X189946132Y-151189970D02*
X191066200Y-150069902D01*
X183728081Y-151789970D02*
X186580781Y-151789970D01*
X207350053Y-149730021D02*
X225569979Y-149730021D01*
X228890498Y-146409502D02*
X230394336Y-146409501D01*
X231046558Y-143322498D02*
X231046558Y-142722495D01*
X177050000Y-158250000D02*
X177050000Y-155050000D01*
X231170437Y-145046667D02*
X231170437Y-143446377D01*
X202096285Y-150069902D02*
X202536297Y-149629890D01*
X231170437Y-143446377D02*
X231046558Y-143322498D01*
X230627032Y-145590072D02*
X231170437Y-145046667D01*
X230394336Y-146409501D02*
X230627032Y-146176805D01*
X231046558Y-142722495D02*
X229650000Y-141325936D01*
X202536297Y-149629890D02*
X207249922Y-149629890D01*
X180050000Y-152050000D02*
X183468051Y-152050000D01*
X230627032Y-146176805D02*
X230627032Y-145590072D01*
X186580781Y-151789970D02*
X187180781Y-151189970D01*
X207249922Y-149629890D02*
X207350053Y-149730021D01*
X183468051Y-152050000D02*
X183728081Y-151789970D01*
X187180781Y-151189970D02*
X189946132Y-151189970D01*
X229650000Y-141325936D02*
X229650000Y-141050000D01*
X191066200Y-150069902D02*
X202096285Y-150069902D01*
X234050000Y-137250000D02*
X234122700Y-137322700D01*
X234122700Y-137322700D02*
X236556400Y-137322700D01*
X223425559Y-147674441D02*
X213997638Y-147674441D01*
X213997638Y-147674441D02*
X213369021Y-147674441D01*
X225494499Y-141405501D02*
X224250000Y-142650000D01*
X224250000Y-142650000D02*
X224250000Y-146850000D01*
X224250000Y-146850000D02*
X223425559Y-147674441D01*
X225494499Y-138494499D02*
X225494499Y-141405501D01*
X225050000Y-138050000D02*
X225494499Y-138494499D01*
X181143180Y-163981420D02*
X181143180Y-159009520D01*
X181143180Y-159009520D02*
X181458201Y-158694499D01*
X181458201Y-158694499D02*
X181902700Y-158250000D01*
X234307300Y-138592700D02*
X233850000Y-139050000D01*
X236556400Y-138592700D02*
X234307300Y-138592700D01*
X234878915Y-147765883D02*
X234434416Y-148210382D01*
X234472150Y-144609503D02*
X235623122Y-145760475D01*
X234085439Y-144609503D02*
X234472150Y-144609503D01*
X233083303Y-140592749D02*
X233083303Y-141195341D01*
X233566618Y-141678657D02*
X233566618Y-142278658D01*
X233566618Y-142278658D02*
X233690497Y-142402537D01*
X233690497Y-144214561D02*
X234085439Y-144609503D01*
X235623122Y-145760475D02*
X235623122Y-147021676D01*
X235623122Y-147021676D02*
X234878915Y-147765883D01*
X233083303Y-141195341D02*
X233566618Y-141678657D01*
X233690497Y-142402537D02*
X233690497Y-144214561D01*
X228362498Y-150021553D02*
X228806997Y-149577054D01*
X202618204Y-151329932D02*
X203058216Y-150889920D01*
X227394000Y-150990051D02*
X228362498Y-150021553D01*
X187702700Y-152450000D02*
X190468051Y-152450000D01*
X190468051Y-152450000D02*
X191588119Y-151329932D01*
X181902700Y-158250000D02*
X187702700Y-152450000D01*
X203058216Y-150889920D02*
X206728003Y-150889920D01*
X206728003Y-150889920D02*
X206828134Y-150990051D01*
X206828134Y-150990051D02*
X227394000Y-150990051D01*
X191588119Y-151329932D02*
X202618204Y-151329932D01*
X234837300Y-139862700D02*
X234650000Y-140050000D01*
X234837300Y-139862700D02*
X236556400Y-139862700D01*
X183902054Y-152209980D02*
X186754754Y-152209980D01*
X191240173Y-150489912D02*
X202270258Y-150489912D01*
X179262034Y-156850000D02*
X183902054Y-152209980D01*
X178250000Y-156850000D02*
X179262034Y-156850000D01*
X202710270Y-150049900D02*
X207075949Y-150049900D01*
X202270258Y-150489912D02*
X202710270Y-150049900D01*
X207176080Y-150150031D02*
X225762003Y-150150031D01*
X187354754Y-151609980D02*
X190120105Y-151609980D01*
X231386533Y-146011286D02*
X231386533Y-145954633D01*
X186754754Y-152209980D02*
X187354754Y-151609980D01*
X207075949Y-150049900D02*
X207176080Y-150150031D01*
X225762003Y-150150031D02*
X229082523Y-146829511D01*
X229082523Y-146829511D02*
X230568308Y-146829511D01*
X190120105Y-151609980D02*
X191240173Y-150489912D01*
X230568308Y-146829511D02*
X231386533Y-146011286D01*
X234191119Y-141132700D02*
X234090627Y-141032208D01*
X236556400Y-141132700D02*
X234191119Y-141132700D01*
X225218606Y-149310011D02*
X227650000Y-146878617D01*
X202362324Y-149209880D02*
X207423895Y-149209880D01*
X189772159Y-150769960D02*
X190892227Y-149649892D01*
X201922312Y-149649892D02*
X202362324Y-149209880D01*
X187006808Y-150769960D02*
X189772159Y-150769960D01*
X186406808Y-151369960D02*
X187006808Y-150769960D01*
X175050000Y-156221383D02*
X179821383Y-151450000D01*
X183554108Y-151369960D02*
X186406808Y-151369960D01*
X190892227Y-149649892D02*
X201922312Y-149649892D01*
X183474068Y-151450000D02*
X183554108Y-151369960D01*
X207423895Y-149209880D02*
X207524026Y-149310011D01*
X175050000Y-156850000D02*
X175050000Y-156221383D01*
X179821383Y-151450000D02*
X183474068Y-151450000D01*
X227650000Y-146878617D02*
X227650000Y-146250000D01*
X207524026Y-149310011D02*
X225218606Y-149310011D01*
X191250000Y-163928240D02*
X191303180Y-163981420D01*
X191250000Y-159650000D02*
X191250000Y-163928240D01*
X192250000Y-158650000D02*
X191250000Y-159650000D01*
X236556400Y-142402700D02*
X234764784Y-142402700D01*
X234764784Y-142402700D02*
X234438236Y-142076152D01*
X206032111Y-152569960D02*
X206132242Y-152670091D01*
X190850000Y-157250000D02*
X190850000Y-156062034D01*
X231844665Y-150246531D02*
X231844665Y-148473932D01*
X231844665Y-148473932D02*
X233779220Y-146539377D01*
X233779220Y-146539377D02*
X233779220Y-146278283D01*
X203314096Y-153009972D02*
X203754108Y-152569960D01*
X193902062Y-153009972D02*
X203314096Y-153009972D01*
X192250000Y-158650000D02*
X190850000Y-157250000D01*
X206132242Y-152670091D02*
X229421105Y-152670091D01*
X229421105Y-152670091D02*
X231844665Y-150246531D01*
X203754108Y-152569960D02*
X206032111Y-152569960D01*
X190850000Y-156062034D02*
X193902062Y-153009972D01*
X229450000Y-143850000D02*
X229605501Y-144005501D01*
X236556400Y-143672700D02*
X234672688Y-143672700D01*
X234672688Y-143672700D02*
X234650000Y-143650012D01*
X229050000Y-143450000D02*
X229605501Y-144005501D01*
X229050000Y-142050000D02*
X229050000Y-143450000D01*
X230058889Y-144050000D02*
X230410917Y-144402028D01*
X229650000Y-144050000D02*
X230058889Y-144050000D01*
X229605501Y-144005501D02*
X229650000Y-144050000D01*
X201430600Y-126398000D02*
X201430600Y-128369400D01*
X198550000Y-131250000D02*
X197750000Y-131250000D01*
X201430600Y-128369400D02*
X198550000Y-131250000D01*
X201938600Y-126398000D02*
X201938600Y-128561400D01*
X198350000Y-132150000D02*
X198350000Y-132950000D01*
X201938600Y-128561400D02*
X198350000Y-132150000D01*
X202446600Y-128853400D02*
X202446600Y-126398000D01*
X199550000Y-131750000D02*
X199550000Y-133150000D01*
X202446600Y-128853400D02*
X199550000Y-131750000D01*
X202929200Y-129070800D02*
X202929200Y-126398000D01*
X200750000Y-131250000D02*
X200750000Y-133150000D01*
X202929200Y-129070800D02*
X200750000Y-131250000D01*
X203437200Y-126398000D02*
X203437200Y-120837200D01*
X203437200Y-120837200D02*
X203250000Y-120650000D01*
X203945200Y-121554800D02*
X204450000Y-121050000D01*
X203945200Y-126398000D02*
X203945200Y-121554800D01*
X204427800Y-126398000D02*
X204427800Y-129972200D01*
X204427800Y-129972200D02*
X202750000Y-131650000D01*
X202750000Y-131650000D02*
X201850000Y-131650000D01*
X202750000Y-132250000D02*
X201950000Y-133050000D01*
X203250000Y-132250000D02*
X202750000Y-132250000D01*
X204935800Y-130564200D02*
X203250000Y-132250000D01*
X204935800Y-126398000D02*
X204935800Y-130564200D01*
X205443800Y-126398000D02*
X205443800Y-129243800D01*
X206350000Y-130150000D02*
X203350000Y-133150000D01*
X205443800Y-129243800D02*
X206350000Y-130150000D01*
X205951800Y-126398000D02*
X205951800Y-128948200D01*
X204650000Y-133050000D02*
X204650000Y-133150000D01*
X207053600Y-130646400D02*
X204650000Y-133050000D01*
X207053600Y-130050000D02*
X207053600Y-130646400D01*
X205951800Y-128948200D02*
X207053600Y-130050000D01*
X206150000Y-132950000D02*
X205950000Y-133150000D01*
X206150000Y-132150000D02*
X206150000Y-132950000D01*
X207850000Y-130450000D02*
X206150000Y-132150000D01*
X207850000Y-130050000D02*
X207850000Y-130450000D01*
X206434400Y-128634400D02*
X207850000Y-130050000D01*
X206434400Y-126398000D02*
X206434400Y-128634400D01*
X207505501Y-131794499D02*
X207505501Y-133805501D01*
X208850000Y-130450000D02*
X207505501Y-131794499D01*
X207505501Y-133805501D02*
X207950000Y-134250000D01*
X208850000Y-129850000D02*
X208850000Y-130450000D01*
X207950000Y-128950000D02*
X208850000Y-129850000D01*
X207350000Y-128950000D02*
X207950000Y-128950000D01*
X206942400Y-128542400D02*
X207350000Y-128950000D01*
X206942400Y-126398000D02*
X206942400Y-128542400D01*
X207450400Y-128250400D02*
X207550000Y-128350000D01*
X207450400Y-126398000D02*
X207450400Y-128250400D01*
X210150000Y-129950000D02*
X210150000Y-130321383D01*
X208450000Y-132021383D02*
X208450000Y-132421383D01*
X207550000Y-128350000D02*
X208550000Y-128350000D01*
X210150000Y-130321383D02*
X208450000Y-132021383D01*
X208450000Y-132421383D02*
X208450000Y-133050000D01*
X208550000Y-128350000D02*
X210150000Y-129950000D01*
X208441000Y-126398000D02*
X208441000Y-122441000D01*
X208441000Y-122441000D02*
X207850000Y-121850000D01*
X207850000Y-121850000D02*
X207850000Y-121178619D01*
X207850000Y-121178619D02*
X207850000Y-120550002D01*
X208949000Y-120657796D02*
X209072330Y-120534466D01*
X208949000Y-126398000D02*
X208949000Y-120657796D01*
X209450000Y-121549013D02*
X209450000Y-121850000D01*
X209450000Y-126391000D02*
X209450000Y-121549013D01*
X209457000Y-126398000D02*
X209450000Y-126391000D01*
X209450000Y-121550000D02*
X209450000Y-121549013D01*
X209750000Y-121250000D02*
X209750000Y-121150000D01*
X209750000Y-121150000D02*
X209905501Y-120994499D01*
X209905501Y-120994499D02*
X210350000Y-120550000D01*
X209750000Y-121250000D02*
X209450000Y-121550000D01*
X211950000Y-130767246D02*
X210413520Y-132303726D01*
X209965000Y-126398000D02*
X209965000Y-128065000D01*
X209965000Y-128065000D02*
X211950000Y-130050000D01*
X211950000Y-130050000D02*
X211950000Y-130767246D01*
X210413520Y-132303726D02*
X209969021Y-132748225D01*
X210473000Y-126398000D02*
X210473000Y-127973000D01*
X212529998Y-130029998D02*
X212529998Y-131270002D01*
X210473000Y-127973000D02*
X212529998Y-130029998D01*
X211250000Y-132550000D02*
X211250000Y-132650000D01*
X212529998Y-131270002D02*
X211250000Y-132550000D01*
X210981000Y-126398000D02*
X210981000Y-127681000D01*
X210981000Y-127681000D02*
X212950000Y-129650000D01*
X212950000Y-132050000D02*
X212450000Y-132550000D01*
X212950000Y-129650000D02*
X212950000Y-132050000D01*
X211489000Y-126398000D02*
X211489000Y-127382972D01*
X213429998Y-132729998D02*
X213750000Y-133050000D01*
X213429998Y-129323970D02*
X213429998Y-132729998D01*
X211489000Y-127382972D02*
X213429998Y-129323970D01*
X211997000Y-127297000D02*
X211997000Y-126398000D01*
X213850000Y-131450000D02*
X214550000Y-132150000D01*
X213850000Y-129150000D02*
X213850000Y-131450000D01*
X211997000Y-127297000D02*
X213850000Y-129150000D01*
X214350000Y-130650000D02*
X214650000Y-130950000D01*
X214350000Y-129050000D02*
X214350000Y-130650000D01*
X212558299Y-127258299D02*
X214350000Y-129050000D01*
X212558299Y-126451299D02*
X212558299Y-127258299D01*
X212505000Y-126398000D02*
X212558299Y-126451299D01*
X213013000Y-125287000D02*
X214350000Y-123950000D01*
X213013000Y-126398000D02*
X213013000Y-125287000D01*
X212070488Y-140988534D02*
X212070488Y-139911466D01*
X212682484Y-139299470D02*
X212682484Y-138865255D01*
X213013000Y-141931046D02*
X212070488Y-140988534D01*
X213013000Y-145829000D02*
X213013000Y-141931046D01*
X212070488Y-139911466D02*
X212682484Y-139299470D01*
X211644249Y-139892200D02*
X211644249Y-139263583D01*
X212505000Y-142017029D02*
X211650478Y-141162507D01*
X212505000Y-145829000D02*
X212505000Y-142017029D01*
X211650478Y-139898429D02*
X211644249Y-139892200D01*
X211650478Y-141162507D02*
X211650478Y-139898429D01*
X211961825Y-137790733D02*
X212406324Y-137346234D01*
X210884748Y-139628144D02*
X210884748Y-138867810D01*
X210884748Y-138867810D02*
X211961825Y-137790733D01*
X211230468Y-141336480D02*
X211230468Y-139973864D01*
X211489000Y-145829000D02*
X211489000Y-141595011D01*
X211230468Y-139973864D02*
X210884748Y-139628144D01*
X211489000Y-141595011D02*
X211230468Y-141336480D01*
X210981000Y-141781000D02*
X210950000Y-141750000D01*
X210981000Y-145829000D02*
X210981000Y-141781000D01*
X210810458Y-141510453D02*
X210810458Y-140158268D01*
X210810458Y-140158268D02*
X210464738Y-139812548D01*
X210464738Y-138693837D02*
X210495810Y-138662765D01*
X211836663Y-136248805D02*
X212465280Y-136248805D01*
X210495810Y-138662765D02*
X210495810Y-137589658D01*
X210981000Y-141680995D02*
X210810458Y-141510453D01*
X210464738Y-139812548D02*
X210464738Y-138693837D01*
X210495810Y-137589658D02*
X211836663Y-136248805D01*
X210981000Y-141781000D02*
X210981000Y-141680995D01*
X213269624Y-135477562D02*
X213401915Y-135609853D01*
X210075800Y-137024200D02*
X211622438Y-135477562D01*
X211622438Y-135477562D02*
X213269624Y-135477562D01*
X210044728Y-138519864D02*
X210075800Y-138488792D01*
X210044728Y-139986521D02*
X210044728Y-138519864D01*
X210075800Y-138488792D02*
X210075800Y-137024200D01*
X210390448Y-140332240D02*
X210044728Y-139986521D01*
X210390448Y-141684426D02*
X210390448Y-140332240D01*
X210473000Y-141766978D02*
X210390448Y-141684426D01*
X210473000Y-145829000D02*
X210473000Y-141766978D01*
X210473000Y-145829000D02*
X210419701Y-145775701D01*
X209965000Y-145829000D02*
X209911701Y-145775701D01*
X209965000Y-140500776D02*
X209624718Y-140160494D01*
X209965000Y-145829000D02*
X209965000Y-140500776D01*
X209655790Y-138346031D02*
X209655790Y-136815593D01*
X209624718Y-138377103D02*
X209655790Y-138346031D01*
X209624718Y-140160494D02*
X209624718Y-138377103D01*
X209655790Y-136815593D02*
X211821383Y-134650000D01*
X211821383Y-134650000D02*
X211921377Y-134650000D01*
X211921377Y-134650000D02*
X212549994Y-134650000D01*
X209457000Y-145829000D02*
X209409980Y-145781980D01*
X209457000Y-145829000D02*
X209457000Y-140586759D01*
X209204708Y-140334467D02*
X209204708Y-138203130D01*
X209235780Y-136064220D02*
X210905501Y-134394499D01*
X209457000Y-140586759D02*
X209204708Y-140334467D01*
X209235780Y-138172058D02*
X209235780Y-136064220D01*
X209204708Y-138203130D02*
X209235780Y-138172058D01*
X210905501Y-134394499D02*
X211350000Y-133950000D01*
X208789970Y-141456442D02*
X208789970Y-140503281D01*
X208789970Y-140503281D02*
X208784698Y-140498009D01*
X208784698Y-140498009D02*
X208784698Y-137013315D01*
X208949000Y-141615472D02*
X208789970Y-141456442D01*
X208949000Y-145829000D02*
X208949000Y-141615472D01*
X208784698Y-137013315D02*
X208450000Y-136678617D01*
X208450000Y-136678617D02*
X208450000Y-136050000D01*
X208369960Y-141630415D02*
X208369960Y-140677254D01*
X208441000Y-141701455D02*
X208369960Y-141630415D01*
X208333790Y-138628226D02*
X207889291Y-138183727D01*
X208364688Y-140671982D02*
X208364688Y-138659124D01*
X208369960Y-140677254D02*
X208364688Y-140671982D01*
X208364688Y-138659124D02*
X208333790Y-138628226D01*
X208441000Y-145829000D02*
X208441000Y-141701455D01*
X207933000Y-145829000D02*
X207950000Y-145812000D01*
X207933000Y-145829000D02*
X207933000Y-144984000D01*
X207972438Y-144944562D02*
X207972438Y-141826876D01*
X207933000Y-144984000D02*
X207972438Y-144944562D01*
X207837946Y-139969174D02*
X207393447Y-139524675D01*
X207949950Y-140851227D02*
X207944678Y-140845955D01*
X207949950Y-141804388D02*
X207949950Y-140851227D01*
X207972438Y-141826876D02*
X207949950Y-141804388D01*
X207944678Y-140845955D02*
X207944678Y-140075906D01*
X207944678Y-140075906D02*
X207837946Y-139969174D01*
X206250000Y-137178617D02*
X206250000Y-136550000D01*
X206946524Y-140281836D02*
X206617658Y-139952970D01*
X207425000Y-145829000D02*
X207425000Y-141709475D01*
X207425000Y-141709475D02*
X207529940Y-141604535D01*
X207524668Y-141019928D02*
X207524668Y-140472867D01*
X207333637Y-140281836D02*
X206946524Y-140281836D01*
X207529940Y-141025200D02*
X207524668Y-141019928D01*
X207529940Y-141604535D02*
X207529940Y-141025200D01*
X206617658Y-139952970D02*
X206617658Y-137546275D01*
X207524668Y-140472867D02*
X207333637Y-140281836D01*
X206617658Y-137546275D02*
X206250000Y-137178617D01*
X206434400Y-141372531D02*
X206765454Y-141041477D01*
X206434400Y-145829000D02*
X206434400Y-141372531D01*
X205926400Y-143667581D02*
X206005953Y-143588028D01*
X205926400Y-145829000D02*
X205926400Y-143667581D01*
X205817561Y-139560056D02*
X205817561Y-138931439D01*
X206005953Y-139748448D02*
X205817561Y-139560056D01*
X206005953Y-143588028D02*
X206005953Y-139748448D01*
X204955183Y-138354306D02*
X204510684Y-137909807D01*
X204955183Y-139364403D02*
X204955183Y-138354306D01*
X205585943Y-139995163D02*
X204955183Y-139364403D01*
X205585943Y-143414055D02*
X205585943Y-139995163D01*
X205443800Y-143556198D02*
X205585943Y-143414055D01*
X205443800Y-145829000D02*
X205443800Y-143556198D01*
X204935800Y-145829000D02*
X204935800Y-143470215D01*
X204507608Y-139358051D02*
X204063109Y-138913552D01*
X205165933Y-140214261D02*
X204507608Y-139555936D01*
X205165933Y-143240082D02*
X205165933Y-140214261D01*
X204507608Y-139555936D02*
X204507608Y-139358051D01*
X204935800Y-143470215D02*
X205165933Y-143240082D01*
X204427800Y-143384233D02*
X204745923Y-143066110D01*
X203283193Y-139388434D02*
X202838694Y-138943935D01*
X204745923Y-143066110D02*
X204745923Y-140388235D01*
X204745923Y-140388235D02*
X204030762Y-139673072D01*
X204427800Y-145829000D02*
X204427800Y-143384233D01*
X203567831Y-139673072D02*
X203283193Y-139388434D01*
X204030762Y-139673072D02*
X203567831Y-139673072D01*
X204325913Y-142892136D02*
X204325913Y-141042346D01*
X204184455Y-140900888D02*
X203739956Y-140456389D01*
X203945200Y-145829000D02*
X203945200Y-143272849D01*
X203945200Y-143272849D02*
X204325913Y-142892136D01*
X204325913Y-141042346D02*
X204184455Y-140900888D01*
X201976485Y-140279715D02*
X201531986Y-139835216D01*
X203739956Y-141215890D02*
X202912660Y-141215890D01*
X203905903Y-142718165D02*
X203905903Y-141381837D01*
X203437200Y-143186868D02*
X203905903Y-142718165D01*
X203905903Y-141381837D02*
X203739956Y-141215890D01*
X203437200Y-145829000D02*
X203437200Y-143186868D01*
X202912660Y-141215890D02*
X201976485Y-140279715D01*
X202929200Y-142204765D02*
X203146383Y-141987582D01*
X202929200Y-145829000D02*
X202929200Y-142204765D01*
X201938600Y-145829000D02*
X201938600Y-142030316D01*
X201938600Y-142030316D02*
X202042088Y-141926828D01*
X201394499Y-142494499D02*
X200950000Y-142050000D01*
X201430600Y-145829000D02*
X201430600Y-142530600D01*
X201430600Y-142530600D02*
X201394499Y-142494499D01*
D23*
X196821383Y-146650000D02*
X197450000Y-146650000D01*
X192215657Y-146650000D02*
X196821383Y-146650000D01*
X185144499Y-147094499D02*
X191771158Y-147094499D01*
X191771158Y-147094499D02*
X192215657Y-146650000D01*
X184475000Y-146425000D02*
X185144499Y-147094499D01*
D21*
X184475000Y-146425000D02*
X168425000Y-146425000D01*
X168050000Y-146050000D02*
X168050000Y-130000000D01*
X168425000Y-146425000D02*
X168050000Y-146050000D01*
X168050000Y-130000000D02*
X168050000Y-129900000D01*
D23*
X168050000Y-129900000D02*
X168050000Y-129950000D01*
X168050000Y-129950000D02*
X168000000Y-129900000D01*
X170600000Y-127300000D02*
X168050000Y-129850000D01*
X178950000Y-127300000D02*
X170600000Y-127300000D01*
X168050000Y-129850000D02*
X168050000Y-129900000D01*
X180500000Y-125750000D02*
X178950000Y-127300000D01*
X180500000Y-125370000D02*
X180500000Y-125750000D01*
D21*
X181650000Y-130700000D02*
X181650000Y-129250000D01*
X190544273Y-148809880D02*
X190104153Y-149250000D01*
X196890120Y-148809880D02*
X190544273Y-148809880D01*
X197450000Y-148250000D02*
X196890120Y-148809880D01*
X169278617Y-149250000D02*
X168650000Y-149250000D01*
X190104153Y-149250000D02*
X169278617Y-149250000D01*
X182700000Y-128250000D02*
X185580000Y-125370000D01*
X171450000Y-128250000D02*
X182700000Y-128250000D01*
X169050000Y-130650000D02*
X171450000Y-128250000D01*
X169050000Y-144450000D02*
X169050000Y-130650000D01*
X169650000Y-145050000D02*
X169050000Y-144450000D01*
X184250000Y-130500000D02*
X184050000Y-130700000D01*
X184250000Y-130500000D02*
X184250000Y-129050000D01*
D23*
X168230000Y-125370000D02*
X166950000Y-126650000D01*
X166950000Y-146950000D02*
X167639990Y-147639990D01*
X192149639Y-147295859D02*
X193267570Y-147295859D01*
X167639990Y-147639990D02*
X191805508Y-147639990D01*
X191805508Y-147639990D02*
X192149639Y-147295859D01*
X166950000Y-126650000D02*
X166950000Y-146950000D01*
D21*
X193814964Y-147644989D02*
X193871758Y-147701783D01*
X193616700Y-147644989D02*
X193814964Y-147644989D01*
D23*
X175420000Y-125370000D02*
X168230000Y-125370000D01*
D21*
X193871758Y-147701783D02*
X193871758Y-148050360D01*
D23*
X193267570Y-147295859D02*
X193616700Y-147644989D01*
D21*
X179050000Y-130500000D02*
X179250000Y-130700000D01*
X179050000Y-130500000D02*
X179050000Y-129250000D01*
X193057900Y-148055000D02*
X192987200Y-148055000D01*
X192982560Y-148050360D02*
X192511800Y-148050360D01*
X192987200Y-148055000D02*
X192982560Y-148050360D01*
D23*
X192919000Y-148193900D02*
X193057900Y-148055000D01*
X167264059Y-148193900D02*
X192919000Y-148193900D01*
X166539990Y-125360010D02*
X166539990Y-147469831D01*
X167250000Y-124650000D02*
X166539990Y-125360010D01*
X166539990Y-147469831D02*
X167264059Y-148193900D01*
D21*
X167850000Y-124050000D02*
X167250000Y-124650000D01*
X177050000Y-124050000D02*
X167850000Y-124050000D01*
X177960000Y-124960000D02*
X177050000Y-124050000D01*
X177960000Y-125370000D02*
X177960000Y-124960000D01*
X201463180Y-163981420D02*
X201463180Y-159732700D01*
X201463180Y-159732700D02*
X201450000Y-159719520D01*
X207050000Y-159250000D02*
X206543180Y-159756820D01*
X206543180Y-159756820D02*
X206543180Y-163981420D01*
X219243180Y-160043180D02*
X219243180Y-163981420D01*
X218650000Y-159450000D02*
X219243180Y-160043180D01*
X216250000Y-158450000D02*
X217250000Y-159450000D01*
X217250000Y-159450000D02*
X218650000Y-159450000D01*
X226863180Y-159236820D02*
X226863180Y-163981420D01*
X227450000Y-158650000D02*
X226863180Y-159236820D01*
X234483180Y-159616820D02*
X234483180Y-163981420D01*
X235050000Y-159050000D02*
X234483180Y-159616820D01*
X242103180Y-159796820D02*
X242103180Y-163981420D01*
X243050000Y-158850000D02*
X242103180Y-159796820D01*
X222409520Y-126950000D02*
X220650000Y-126950000D01*
X200440000Y-126398000D02*
X199602000Y-126398000D01*
X199602000Y-126398000D02*
X199250000Y-126750000D01*
X200948000Y-126398000D02*
X200948000Y-128152000D01*
X200948000Y-128152000D02*
X199050000Y-130050000D01*
X197650000Y-128950000D02*
X197650000Y-127378617D01*
X199050000Y-130050000D02*
X198750000Y-130050000D01*
X197650000Y-127378617D02*
X197650000Y-126750000D01*
X198750000Y-130050000D02*
X197650000Y-128950000D01*
X207933000Y-126398000D02*
X207933000Y-127243000D01*
X207933000Y-127243000D02*
X208471685Y-127781685D01*
X209550000Y-133621383D02*
X209550000Y-134250000D01*
X208471685Y-127781685D02*
X208881685Y-127781685D01*
X208881685Y-127781685D02*
X210850000Y-129750000D01*
X210850000Y-130750000D02*
X209209501Y-132390499D01*
X210850000Y-129750000D02*
X210850000Y-130750000D01*
X209209501Y-132390499D02*
X209209501Y-133280884D01*
X209209501Y-133280884D02*
X209550000Y-133621383D01*
X214898000Y-126398000D02*
X215550000Y-127050000D01*
X214029000Y-126398000D02*
X214898000Y-126398000D01*
X214029000Y-145829000D02*
X214029000Y-141229004D01*
X214029000Y-141229004D02*
X213694495Y-140894499D01*
X213694495Y-140894499D02*
X213249996Y-140450000D01*
X213521000Y-125379000D02*
X213750000Y-125150000D01*
X213750000Y-125150000D02*
X215050000Y-125150000D01*
X213521000Y-126398000D02*
X213521000Y-125379000D01*
X200922600Y-145829000D02*
X200922600Y-143322600D01*
X200922600Y-143322600D02*
X200296370Y-142696370D01*
X200296370Y-142696370D02*
X200296370Y-142450453D01*
X200296370Y-142450453D02*
X199851871Y-142005954D01*
X200440000Y-145829000D02*
X200440000Y-144140000D01*
X200440000Y-144140000D02*
X198766036Y-142466036D01*
X198766036Y-142466036D02*
X198766036Y-142464894D01*
X198766036Y-142464894D02*
X198766036Y-141836277D01*
M02*
