M48
;DRILL file {KiCad (after 2015-may-25 BZR unknown)-product} date 17/02/2017 21:19:09
;FORMAT={-:-/ absolute / inch / decimal}
FMAT,2
INCH,TZ
T1C0.025
T2C0.028
T3C0.043
%
G90
G05
M72
T1
X6.6398Y-5.876
X6.6791Y-5.7106
X6.8425Y-6.2461
X6.8917Y-6.1752
X6.9705Y-6.2303
X7.0177Y-6.1752
X7.0492Y-5.0886
X7.065Y-6.2303
X7.1516Y-5.0886
X7.1615Y-6.2303
X7.2539Y-5.0807
X7.2618Y-6.2382
X7.3248Y-5.128
X7.3642Y-6.2382
X7.4193Y-5.7421
X7.4272Y-5.6634
X7.4665Y-6.2382
X7.4783Y-5.1575
X7.4823Y-5.3661
X7.5374Y-5.5138
X7.5689Y-6.2461
X7.5792Y-5.8288
X7.6327Y-5.8288
X7.6735Y-6.2483
X7.7343Y-6.2539
X7.7657Y-6.1516
X7.7736Y-5.7736
X7.7736Y-5.8366
X7.7815Y-4.9902
X7.7854Y-5.1673
X7.8091Y-5.2343
X7.811Y-6.1358
X7.8209Y-5.6791
X7.8254Y-5.5841
X7.8287Y-6.2716
X7.8445Y-4.9902
X7.8563Y-5.2421
X7.8682Y-5.5908
X7.8839Y-5.8287
X7.8917Y-4.7579
X7.9035Y-5.2421
X7.9114Y-5.5925
X7.9311Y-6.2882
X7.9343Y-5.5053
X7.9469Y-5.1831
X7.9508Y-5.2382
X7.9544Y-5.5877
X7.9547Y-4.8209
X7.9858Y-5.4702
X7.9979Y-5.5901
X8.002Y-4.75
X8.0059Y-5.2421
X8.0213Y-5.5298
X8.0335Y-6.2539
X8.034Y-5.469
X8.0492Y-4.7657
X8.0516Y-5.4295
X8.0571Y-5.2421
X8.0807Y-4.8209
X8.0807Y-6.2697
X8.1031Y-5.4697
X8.1083Y-5.2421
X8.1201Y-5.376
X8.1404Y-5.5528
X8.1516Y-4.813
X8.1516Y-5.8209
X8.1516Y-6.2697
X8.1594Y-6.1988
X8.1651Y-5.4931
X8.1831Y-4.7461
X8.1846Y-5.4403
X8.187Y-5.2854
X8.2067Y-5.2382
X8.2067Y-5.3563
X8.2312Y-4.7455
X8.2461Y-6.2776
X8.25Y-5.2854
X8.2665Y-5.2263
X8.2815Y-4.7461
X8.2933Y-4.8287
X8.3091Y-6.1988
X8.3169Y-5.2224
X8.3209Y-5.2736
X8.3325Y-5.4828
X8.3406Y-5.8209
X8.3625Y-5.4073
X8.3642Y-4.8209
X8.3642Y-5.2185
X8.3648Y-5.3641
X8.3681Y-5.3012
X8.3733Y-5.4671
X8.3799Y-6.1988
X8.3957Y-5.5295
X8.4004Y-5.814
X8.4017Y-5.339
X8.4135Y-5.4832
X8.4154Y-5.2382
X8.4272Y-6.2697
X8.439Y-4.8799
X8.4469Y-5.2028
X8.4508Y-5.1555
X8.4508Y-5.5374
X8.4587Y-5.624
X8.4665Y-4.9272
X8.4823Y-6.2697
X8.4862Y-5.002
X8.4902Y-4.7579
X8.5138Y-6.2382
X8.6083Y-5.4035
X8.6673Y-5.2854
X8.687Y-4.998
X8.7421Y-6.2539
X8.7563Y-4.998
X8.7894Y-5.1831
X8.7894Y-5.3287
X8.7933Y-5.4626
X8.7972Y-5.7421
X8.8051Y-5.5295
X8.8445Y-6.2539
X8.8602Y-5.435
X8.9161Y-5.7736
X8.9311Y-4.9555
X8.935Y-4.7106
X8.9547Y-6.2461
X8.9626Y-5.7579
X9.0081Y-5.8889
X9.0177Y-5.5925
X9.0256Y-4.7106
X9.0256Y-5.1083
X9.0256Y-5.1634
X9.0256Y-5.3091
X9.0335Y-5.2106
X9.0413Y-5.5531
X9.0492Y-5.7343
X9.0571Y-6.2303
X9.065Y-5.0492
X9.0663Y-5.6333
X9.0713Y-5.6851
X9.0728Y-5.2618
X9.0795Y-5.8684
X9.0886Y-5.3248
X9.1097Y-5.7462
X9.1358Y-5.4114
X9.1673Y-4.7854
X9.1673Y-6.2618
X9.1742Y-5.8941
X9.1765Y-5.5351
X9.1863Y-5.8526
X9.2039Y-5.759
X9.2067Y-5.4744
X9.2146Y-5.4035
X9.2162Y-5.5524
X9.2171Y-5.9002
X9.2297Y-5.8351
X9.2299Y-5.5935
X9.2382Y-5.5138
X9.2382Y-5.6555
X9.2539Y-6.2618
X9.2918Y-5.9212
X9.3012Y-5.8602
X9.3064Y-5.7814
X9.3374Y-5.8116
X9.372Y-6.2618
X9.3941Y-5.7775
X9.3972Y-5.8206
X9.4193Y-5.4902
X9.4272Y-5.061
X9.4405Y-5.8199
X9.4665Y-6.2539
X9.4704Y-5.7635
X9.4941Y-5.5059
X9.5003Y-5.805
X9.5413Y-5.4547
X9.5452Y-6.0674
X9.5492Y-5.8091
X9.5689Y-6.2539
X9.5925Y-5.7618
X9.624Y-5.4272
X9.628Y-5.8091
X9.6949Y-5.6476
X9.7421Y-6.2776
X9.75Y-4.8563
X9.7697Y-5.8524
T2
X6.6694Y-6.1043
X6.7519Y-6.1043
T3
X6.9063Y-4.8358
X6.9063Y-4.9358
X7.0063Y-4.8358
X7.0063Y-4.9358
X7.1063Y-4.8358
X7.1063Y-4.9358
X7.2063Y-4.8358
X7.2063Y-4.9358
X7.3063Y-4.8358
X7.3063Y-4.9358
T0
M30
