G04 #@! TF.FileFunction,Copper,L1,Top,Signal*
%FSLAX46Y46*%
G04 Gerber Fmt 4.6, Leading zero omitted, Abs format (unit mm)*
G04 Created by KiCad (PCBNEW (after 2015-may-25 BZR unknown)-product) date 17/02/2017 21:19:06*
%MOMM*%
G01*
G04 APERTURE LIST*
%ADD10C,0.100000*%
%ADD11R,1.450000X0.250000*%
%ADD12R,0.250000X1.450000*%
%ADD13R,1.900000X1.900000*%
%ADD14C,1.900000*%
%ADD15C,1.168400*%
%ADD16R,1.600200X6.299200*%
%ADD17R,2.499360X2.550160*%
%ADD18R,1.000000X1.250000*%
%ADD19R,1.550000X0.600000*%
%ADD20R,1.016000X2.032000*%
%ADD21C,0.889000*%
%ADD22C,0.210000*%
%ADD23C,0.200000*%
%ADD24C,0.310000*%
%ADD25C,0.300000*%
G04 APERTURE END LIST*
D10*
D11*
X195450000Y-130900000D03*
X195450000Y-131400000D03*
X195450000Y-131900000D03*
X195450000Y-132400000D03*
X195450000Y-132900000D03*
X195450000Y-133400000D03*
X195450000Y-133900000D03*
X195450000Y-134400000D03*
X195450000Y-134900000D03*
X195450000Y-135400000D03*
X195450000Y-135900000D03*
X195450000Y-136400000D03*
X195450000Y-136900000D03*
X195450000Y-137400000D03*
X195450000Y-137900000D03*
X195450000Y-138400000D03*
X195450000Y-138900000D03*
X195450000Y-139400000D03*
X195450000Y-139900000D03*
X195450000Y-140400000D03*
X195450000Y-140900000D03*
X195450000Y-141400000D03*
X195450000Y-141900000D03*
X195450000Y-142400000D03*
X195450000Y-142900000D03*
X195450000Y-143400000D03*
X195450000Y-143900000D03*
X195450000Y-144400000D03*
X195450000Y-144900000D03*
X195450000Y-145400000D03*
X195450000Y-145900000D03*
X195450000Y-146400000D03*
X195450000Y-146900000D03*
X195450000Y-147400000D03*
X195450000Y-147900000D03*
X195450000Y-148400000D03*
D12*
X197250000Y-150200000D03*
X197750000Y-150200000D03*
X198250000Y-150200000D03*
X198750000Y-150200000D03*
X199250000Y-150200000D03*
X199750000Y-150200000D03*
X200250000Y-150200000D03*
X200750000Y-150200000D03*
X201250000Y-150200000D03*
X201750000Y-150200000D03*
X202250000Y-150200000D03*
X202750000Y-150200000D03*
X203250000Y-150200000D03*
X203750000Y-150200000D03*
X204250000Y-150200000D03*
X204750000Y-150200000D03*
X205250000Y-150200000D03*
X205750000Y-150200000D03*
X206250000Y-150200000D03*
X206750000Y-150200000D03*
X207250000Y-150200000D03*
X207750000Y-150200000D03*
X208250000Y-150200000D03*
X208750000Y-150200000D03*
X209250000Y-150200000D03*
X209750000Y-150200000D03*
X210250000Y-150200000D03*
X210750000Y-150200000D03*
X211250000Y-150200000D03*
X211750000Y-150200000D03*
X212250000Y-150200000D03*
X212750000Y-150200000D03*
X213250000Y-150200000D03*
X213750000Y-150200000D03*
X214250000Y-150200000D03*
X214750000Y-150200000D03*
D11*
X216550000Y-148400000D03*
X216550000Y-147900000D03*
X216550000Y-147400000D03*
X216550000Y-146900000D03*
X216550000Y-146400000D03*
X216550000Y-145900000D03*
X216550000Y-145400000D03*
X216550000Y-144900000D03*
X216550000Y-144400000D03*
X216550000Y-143900000D03*
X216550000Y-143400000D03*
X216550000Y-142900000D03*
X216550000Y-142400000D03*
X216550000Y-141900000D03*
X216550000Y-141400000D03*
X216550000Y-140900000D03*
X216550000Y-140400000D03*
X216550000Y-139900000D03*
X216550000Y-139400000D03*
X216550000Y-138900000D03*
X216550000Y-138400000D03*
X216550000Y-137900000D03*
X216550000Y-137400000D03*
X216550000Y-136900000D03*
X216550000Y-136400000D03*
X216550000Y-135900000D03*
X216550000Y-135400000D03*
X216550000Y-134900000D03*
X216550000Y-134400000D03*
X216550000Y-133900000D03*
X216550000Y-133400000D03*
X216550000Y-132900000D03*
X216550000Y-132400000D03*
X216550000Y-131900000D03*
X216550000Y-131400000D03*
X216550000Y-130900000D03*
D12*
X214750000Y-129100000D03*
X214250000Y-129100000D03*
X213750000Y-129100000D03*
X213250000Y-129100000D03*
X212750000Y-129100000D03*
X212250000Y-129100000D03*
X211750000Y-129100000D03*
X211250000Y-129100000D03*
X210750000Y-129100000D03*
X210250000Y-129100000D03*
X209750000Y-129100000D03*
X209250000Y-129100000D03*
X208750000Y-129100000D03*
X208250000Y-129100000D03*
X207750000Y-129100000D03*
X207250000Y-129100000D03*
X206750000Y-129100000D03*
X206250000Y-129100000D03*
X205750000Y-129100000D03*
X205250000Y-129100000D03*
X204750000Y-129100000D03*
X204250000Y-129100000D03*
X203750000Y-129100000D03*
X203250000Y-129100000D03*
X202750000Y-129100000D03*
X202250000Y-129100000D03*
X201750000Y-129100000D03*
X201250000Y-129100000D03*
X200750000Y-129100000D03*
X200250000Y-129100000D03*
X199750000Y-129100000D03*
X199250000Y-129100000D03*
X198750000Y-129100000D03*
X198250000Y-129100000D03*
X197750000Y-129100000D03*
X197250000Y-129100000D03*
D13*
X175420000Y-125370000D03*
D14*
X175420000Y-122830000D03*
X177960000Y-125370000D03*
X177960000Y-122830000D03*
X180500000Y-125370000D03*
X180500000Y-122830000D03*
X183040000Y-125370000D03*
X183040000Y-122830000D03*
X185580000Y-125370000D03*
X185580000Y-122830000D03*
D15*
X169402250Y-155050000D03*
X171497750Y-155050000D03*
D16*
X168443180Y-164118580D03*
X170983180Y-164118580D03*
X173523180Y-164118580D03*
X176063180Y-164118580D03*
X178603180Y-164118580D03*
X181143180Y-164118580D03*
X183683180Y-164118580D03*
X186223180Y-164118580D03*
X188763180Y-164118580D03*
X191303180Y-164118580D03*
X193843180Y-164118580D03*
X196383180Y-164118580D03*
X198923180Y-164118580D03*
X201463180Y-164118580D03*
X204003180Y-164118580D03*
X206543180Y-164118580D03*
X209083180Y-164118580D03*
X211623180Y-164118580D03*
X214163180Y-164118580D03*
X216703180Y-164118580D03*
X219243180Y-164118580D03*
X221783180Y-164118580D03*
X224323180Y-164118580D03*
X226863180Y-164118580D03*
X229403180Y-164118580D03*
X231943180Y-164118580D03*
X234483180Y-164118580D03*
X237023180Y-164118580D03*
X239563180Y-164118580D03*
X242103180Y-164118580D03*
X244643180Y-164118580D03*
X247183180Y-164118580D03*
D17*
X246700000Y-145874760D03*
X246700000Y-140825240D03*
X246700000Y-151575240D03*
X246700000Y-156624760D03*
D18*
X237950000Y-125250000D03*
X239950000Y-125250000D03*
D19*
X219065000Y-121358800D03*
X219065000Y-122628800D03*
X219065000Y-123898800D03*
X219065000Y-125168800D03*
X224465000Y-125168800D03*
X224465000Y-123898800D03*
X224465000Y-122628800D03*
X224465000Y-121358800D03*
X229499300Y-121371500D03*
X229499300Y-122641500D03*
X229499300Y-123911500D03*
X229499300Y-125181500D03*
X234899300Y-125181500D03*
X234899300Y-123911500D03*
X234899300Y-122641500D03*
X234899300Y-121371500D03*
D20*
X240050000Y-150952000D03*
X242336000Y-150952000D03*
X237764000Y-150952000D03*
D21*
X213703157Y-139272752D03*
X205250000Y-159250000D03*
X247450000Y-159450000D03*
X223350000Y-138750000D03*
X223250000Y-135350000D03*
X212450000Y-122450000D03*
X205250000Y-122450000D03*
X190050000Y-136300000D03*
X188450000Y-145850000D03*
X212850000Y-157450000D03*
X229250000Y-119650000D03*
X247650000Y-123350000D03*
X202050000Y-122450000D03*
X223450000Y-145850000D03*
X226850001Y-125870470D03*
X211849998Y-147850002D03*
X197250000Y-156250000D03*
X198650000Y-144250000D03*
X207050000Y-147850000D03*
X220150000Y-134250000D03*
X210650000Y-122650000D03*
X207050000Y-122250000D03*
X191450000Y-140050000D03*
X189950000Y-131000000D03*
X188650000Y-143850000D03*
X207250000Y-157450000D03*
X211050000Y-157450000D03*
X198400000Y-155850000D03*
X200450000Y-120850000D03*
X215650000Y-120850000D03*
X223650000Y-140450000D03*
X214850000Y-142850000D03*
X223250000Y-131650000D03*
X230250000Y-128250000D03*
X246250000Y-143450000D03*
X200250000Y-148050000D03*
X186050000Y-130250000D03*
X242448200Y-154112100D03*
X248149999Y-148650000D03*
X232850000Y-121550000D03*
X226950000Y-119650001D03*
X196450000Y-158850000D03*
X233024176Y-149710192D03*
X229850000Y-145650001D03*
X187050000Y-158450000D03*
X226469550Y-146650000D03*
X230620308Y-149057449D03*
X173800000Y-158650000D03*
X179450000Y-158250000D03*
X184450000Y-158450000D03*
X189650000Y-158450000D03*
X194906431Y-158706431D03*
X198850000Y-159299510D03*
X234114948Y-149864060D03*
X233331639Y-148655064D03*
X229250000Y-134850000D03*
X236250000Y-148850000D03*
X237170000Y-147613911D03*
X204050000Y-158850000D03*
X230450000Y-133650000D03*
X209450000Y-159450000D03*
X236012064Y-150398576D03*
X215450000Y-159250000D03*
X229450000Y-132350000D03*
X238689021Y-147843347D03*
X240548551Y-146392813D03*
X224650000Y-158850000D03*
X229250000Y-131150000D03*
X232850000Y-159050000D03*
X242550000Y-147550000D03*
X229250000Y-129750000D03*
X240450000Y-158850000D03*
X244550000Y-147550000D03*
X239450000Y-128550000D03*
X238050000Y-159050000D03*
X244450000Y-137850000D03*
X243650000Y-146350000D03*
X230050000Y-158250000D03*
X242350000Y-138550000D03*
X241306764Y-147446066D03*
X222050000Y-158850000D03*
X241150000Y-139850000D03*
X239787889Y-147825536D03*
X214050000Y-159250000D03*
X239250000Y-139450000D03*
X238609176Y-146747239D03*
X218650000Y-137250000D03*
X214650000Y-140650000D03*
X230850000Y-135250000D03*
X177050000Y-158250000D03*
X232050000Y-137450000D03*
X229650000Y-141050000D03*
X234050000Y-137250000D03*
X225050000Y-138050000D03*
X213369021Y-147674441D03*
X181902700Y-158250000D03*
X233850000Y-139050000D03*
X228806997Y-149577054D03*
X233083303Y-140592749D03*
X234434416Y-148210382D03*
X234650000Y-140050000D03*
X178250000Y-156850000D03*
X236382642Y-146847169D03*
X231386533Y-145954633D03*
X227650000Y-146250000D03*
X175050000Y-156850000D03*
X234090627Y-141032208D03*
X192250000Y-158650000D03*
X234438236Y-142076152D03*
X233779220Y-146278283D03*
X230283905Y-143086608D03*
X229050000Y-142050000D03*
X230410917Y-144402028D03*
X234650000Y-143650012D03*
X197750000Y-131250000D03*
X198350000Y-132950000D03*
X199550000Y-133150000D03*
X200750000Y-133150000D03*
X203250000Y-120650000D03*
X204450000Y-121050000D03*
X201850000Y-131650000D03*
X201950000Y-133050000D03*
X203350000Y-133150000D03*
X204650000Y-133150000D03*
X205950000Y-133150000D03*
X207950000Y-134250000D03*
X208450000Y-133050000D03*
X207850000Y-120550002D03*
X209072330Y-120534466D03*
X210350000Y-120550000D03*
X209969021Y-132748225D03*
X211250000Y-132650000D03*
X212450000Y-132550000D03*
X213750000Y-133050000D03*
X214550000Y-132150000D03*
X214650000Y-130950000D03*
X214350000Y-123950000D03*
X212682484Y-138865255D03*
X211644249Y-139263583D03*
X212406324Y-137346234D03*
X212465280Y-136248805D03*
X213401915Y-135609853D03*
X212549994Y-134650000D03*
X211350000Y-133950000D03*
X208450000Y-136050000D03*
X207889291Y-138183727D03*
X207393447Y-139524675D03*
X206250000Y-136550000D03*
X206765454Y-141041477D03*
X205817561Y-138931439D03*
X204510684Y-137909807D03*
X204063109Y-138913552D03*
X202838694Y-138943935D03*
X203739956Y-140456389D03*
X201531986Y-139835216D03*
X203146383Y-141987582D03*
X202042088Y-141926828D03*
X200950000Y-142050000D03*
X197450000Y-146650000D03*
X181650000Y-129250000D03*
X197450000Y-148250000D03*
X168650000Y-149250000D03*
X169650000Y-145050000D03*
X184250000Y-129050000D03*
X193871758Y-148050360D03*
X179050000Y-129250000D03*
X192511800Y-148050360D03*
X201450000Y-159719520D03*
X207050000Y-159250000D03*
X216250000Y-158450000D03*
X227450000Y-158650000D03*
X235050000Y-159050000D03*
X243050000Y-158850000D03*
X222409520Y-126950000D03*
X220650000Y-126950000D03*
X199250000Y-126750000D03*
X197650000Y-126750000D03*
X209550000Y-134250000D03*
X215550000Y-127050000D03*
X213249996Y-140450000D03*
X215050000Y-125150000D03*
X199851871Y-142005954D03*
X198766036Y-141836277D03*
D22*
X214147656Y-138828253D02*
X213703157Y-139272752D01*
X214575909Y-138400000D02*
X214147656Y-138828253D01*
X216550000Y-138400000D02*
X214575909Y-138400000D01*
D23*
X205750000Y-153850000D02*
X205750000Y-153950000D01*
X205750000Y-150200000D02*
X205750000Y-153850000D01*
D22*
X205750000Y-158750000D02*
X205250000Y-159250000D01*
X188894499Y-145405501D02*
X188450000Y-145850000D01*
X192754241Y-143400000D02*
X191383442Y-144770799D01*
X189529201Y-144770799D02*
X188894499Y-145405501D01*
X191383442Y-144770799D02*
X189529201Y-144770799D01*
X195450000Y-143400000D02*
X192754241Y-143400000D01*
D24*
X219065000Y-125168800D02*
X217368800Y-125168800D01*
X214850000Y-122650000D02*
X212650000Y-122650000D01*
X217368800Y-125168800D02*
X214850000Y-122650000D01*
X212650000Y-122650000D02*
X212450000Y-122450000D01*
X247450000Y-157374760D02*
X246700000Y-156624760D01*
X247450000Y-159450000D02*
X247450000Y-157374760D01*
X246700000Y-156624760D02*
X246700000Y-155039680D01*
X246700000Y-155039680D02*
X246001020Y-154340700D01*
X246001020Y-154340700D02*
X244823100Y-154340700D01*
X244823100Y-154340700D02*
X243654700Y-155509100D01*
X243654700Y-155509100D02*
X241432200Y-155509100D01*
X241432200Y-155509100D02*
X239311300Y-153388200D01*
X239311300Y-153388200D02*
X238117500Y-153388200D01*
X238117500Y-153388200D02*
X237764000Y-153034700D01*
X247183180Y-159716820D02*
X247450000Y-159450000D01*
D22*
X216550000Y-138900000D02*
X223200000Y-138900000D01*
X223200000Y-138900000D02*
X223350000Y-138750000D01*
X216550000Y-135400000D02*
X223200000Y-135400000D01*
X223200000Y-135400000D02*
X223250000Y-135350000D01*
X211750000Y-129100000D02*
X211750000Y-123150000D01*
X211750000Y-123150000D02*
X212450000Y-122450000D01*
X205250000Y-129100000D02*
X205250000Y-122450000D01*
X195450000Y-138900000D02*
X190900000Y-138900000D01*
D23*
X202250000Y-150200000D02*
X202250000Y-154350000D01*
X195450000Y-135400000D02*
X190950000Y-135400000D01*
X211250000Y-150200000D02*
X211250000Y-152600000D01*
D24*
X247183180Y-164118580D02*
X247183180Y-159716820D01*
X237764000Y-153034700D02*
X237764000Y-150952000D01*
D22*
X190900000Y-138900000D02*
X190050000Y-138050000D01*
X190050000Y-138050000D02*
X190050000Y-136300000D01*
D23*
X190950000Y-135400000D02*
X190050000Y-136300000D01*
D24*
X188450000Y-146250000D02*
X184650000Y-150050000D01*
X188450000Y-145850000D02*
X188450000Y-146250000D01*
X176250000Y-152250000D02*
X172250000Y-152250000D01*
X178450000Y-150050000D02*
X176250000Y-152250000D01*
X184650000Y-150050000D02*
X178450000Y-150050000D01*
X172250000Y-152250000D02*
X172202250Y-152250000D01*
X172202250Y-152250000D02*
X169402250Y-155050000D01*
D23*
X202250000Y-154250000D02*
X202250000Y-154350000D01*
X202250000Y-154350000D02*
X202250000Y-154250000D01*
D22*
X211250000Y-152600000D02*
X211250000Y-156250000D01*
X211250000Y-156250000D02*
X212450000Y-157450000D01*
X212450000Y-157450000D02*
X212850000Y-157450000D01*
D24*
X249115700Y-157784300D02*
X249115700Y-144826020D01*
X249115700Y-144826020D02*
X246700000Y-142410320D01*
X246700000Y-142410320D02*
X246700000Y-140825240D01*
X247450000Y-159450000D02*
X249115700Y-157784300D01*
D25*
X229499300Y-122641500D02*
X229499300Y-121371500D01*
X229499300Y-119899300D02*
X229250000Y-119650000D01*
X229499300Y-121371500D02*
X229499300Y-119899300D01*
X248050000Y-139475240D02*
X246700000Y-140825240D01*
X248050000Y-123750000D02*
X248050000Y-139475240D01*
X247650000Y-123350000D02*
X248050000Y-123750000D01*
D22*
X201750000Y-129100000D02*
X201750000Y-122750000D01*
X201750000Y-122750000D02*
X202050000Y-122450000D01*
X223450000Y-145421383D02*
X223450000Y-145850000D01*
X223050000Y-144450000D02*
X223250000Y-144650000D01*
X223250000Y-144650000D02*
X223250000Y-145221383D01*
X223250000Y-145221383D02*
X223450000Y-145421383D01*
D25*
X229499300Y-125181500D02*
X227718500Y-125181500D01*
X229499300Y-123400700D02*
X227294499Y-125605501D01*
X227718500Y-125181500D02*
X227294499Y-125605501D01*
X229499300Y-122641500D02*
X229499300Y-123400700D01*
X229499300Y-123911500D02*
X229024300Y-123911500D01*
X227294499Y-125605501D02*
X227294489Y-125605501D01*
X229024300Y-123911500D02*
X227065330Y-125870470D01*
X227294489Y-125605501D02*
X227029520Y-125870470D01*
X227029520Y-125870470D02*
X226850001Y-125870470D01*
X227065330Y-125870470D02*
X226850001Y-125870470D01*
D22*
X221428617Y-143400000D02*
X223250000Y-145221383D01*
X216550000Y-143400000D02*
X221428617Y-143400000D01*
X211405499Y-148294501D02*
X211849998Y-147850002D01*
X211250000Y-150200000D02*
X211250000Y-148450000D01*
X211250000Y-148450000D02*
X211405499Y-148294501D01*
X205750000Y-153950000D02*
X205750000Y-158750000D01*
X202250000Y-155850000D02*
X201405501Y-156694499D01*
X202250000Y-154350000D02*
X202250000Y-155850000D01*
X201405501Y-156694499D02*
X197694499Y-156694499D01*
X197694499Y-156694499D02*
X197250000Y-156250000D01*
X202250000Y-150200000D02*
X202250000Y-147850000D01*
X195450000Y-143400000D02*
X197800000Y-143400000D01*
X197800000Y-143400000D02*
X198205501Y-143805501D01*
X198205501Y-143805501D02*
X198650000Y-144250000D01*
X202250000Y-147850000D02*
X199094499Y-144694499D01*
X199094499Y-144694499D02*
X198650000Y-144250000D01*
X206750000Y-150200000D02*
X206750000Y-148150000D01*
D24*
X246700000Y-145874760D02*
X246700000Y-145849360D01*
D22*
X216550000Y-134900000D02*
X219500000Y-134900000D01*
X219500000Y-134900000D02*
X220150000Y-134250000D01*
X211250000Y-129100000D02*
X211250000Y-123250000D01*
X211250000Y-123250000D02*
X210650000Y-122650000D01*
X206250000Y-129100000D02*
X206250000Y-123050000D01*
X206250000Y-123050000D02*
X207050000Y-122250000D01*
X195450000Y-139900000D02*
X191600000Y-139900000D01*
D23*
X210750000Y-150200000D02*
X210750000Y-154450000D01*
X195450000Y-134900000D02*
X190700000Y-134900000D01*
X206750000Y-150200000D02*
X206750000Y-153200000D01*
D22*
X221300000Y-143900000D02*
X221850000Y-144450000D01*
X216550000Y-143900000D02*
X221300000Y-143900000D01*
D24*
X240050000Y-150952000D02*
X240050000Y-150444000D01*
D23*
X189950000Y-134150000D02*
X189950000Y-131000000D01*
D22*
X206750000Y-156950000D02*
X207250000Y-157450000D01*
X191600000Y-139900000D02*
X191450000Y-140050000D01*
X210750000Y-157150000D02*
X211050000Y-157450000D01*
X210750000Y-154450000D02*
X210750000Y-157150000D01*
D23*
X190700000Y-134900000D02*
X189950000Y-134150000D01*
D22*
X191650000Y-143850000D02*
X188650000Y-143850000D01*
X195450000Y-142900000D02*
X192600000Y-142900000D01*
X192600000Y-142900000D02*
X191650000Y-143850000D01*
D23*
X201250000Y-155850000D02*
X198400000Y-155850000D01*
X201750000Y-150200000D02*
X201750000Y-155350000D01*
X201750000Y-155350000D02*
X201250000Y-155850000D01*
D22*
X206750000Y-153200000D02*
X206750000Y-156950000D01*
D23*
X210750000Y-154450000D02*
X210750000Y-154500000D01*
D22*
X201250000Y-121650000D02*
X200894499Y-121294499D01*
X201250000Y-129100000D02*
X201250000Y-121650000D01*
X200894499Y-121294499D02*
X200450000Y-120850000D01*
D24*
X189950000Y-123550000D02*
X186650000Y-120250000D01*
X186550000Y-120250000D02*
X179550000Y-120250000D01*
X186650000Y-120250000D02*
X186550000Y-120250000D01*
X179550000Y-120250000D02*
X177960000Y-121840000D01*
X177960000Y-121840000D02*
X177960000Y-122830000D01*
X189950000Y-131000000D02*
X189950000Y-123550000D01*
X199850000Y-120250000D02*
X200450000Y-120850000D01*
X186550000Y-120250000D02*
X199850000Y-120250000D01*
X205450000Y-119650000D02*
X207050000Y-121250000D01*
X207050000Y-121250000D02*
X207050000Y-122250000D01*
X201350000Y-119650000D02*
X205450000Y-119650000D01*
X200450000Y-120550000D02*
X201350000Y-119650000D01*
X200450000Y-120850000D02*
X200450000Y-120550000D01*
X215650000Y-120850000D02*
X214250000Y-119450000D01*
X214250000Y-119450000D02*
X211450000Y-119450000D01*
X206550000Y-119650000D02*
X205450000Y-119650000D01*
X206550000Y-119650000D02*
X206750000Y-119450000D01*
X210650000Y-122650000D02*
X212150000Y-121150000D01*
X211350000Y-119450000D02*
X211650000Y-119450000D01*
X211650000Y-119450000D02*
X212150000Y-119950000D01*
X212150000Y-119950000D02*
X212150000Y-121150000D01*
X211350000Y-119450000D02*
X206750000Y-119450000D01*
X240050000Y-149450000D02*
X240750000Y-148750000D01*
X240750000Y-148750000D02*
X246150000Y-148750000D01*
X246150000Y-148750000D02*
X246700000Y-148200000D01*
X246700000Y-148200000D02*
X246700000Y-145874760D01*
X240050000Y-150952000D02*
X240050000Y-149450000D01*
D22*
X216550000Y-139900000D02*
X223100000Y-139900000D01*
X223100000Y-139900000D02*
X223205501Y-140005501D01*
X223205501Y-140005501D02*
X223650000Y-140450000D01*
X206750000Y-148150000D02*
X207050000Y-147850000D01*
X214850000Y-144450000D02*
X215400000Y-143900000D01*
X215400000Y-143900000D02*
X216550000Y-143900000D01*
X214850000Y-144450000D02*
X214850000Y-142850000D01*
D24*
X223850000Y-132250000D02*
X223250000Y-131650000D01*
X246700000Y-145874760D02*
X246700000Y-143900000D01*
X224250000Y-130450000D02*
X224250000Y-132250000D01*
X226450000Y-128250000D02*
X224250000Y-130450000D01*
X230250000Y-128250000D02*
X226450000Y-128250000D01*
X246700000Y-143900000D02*
X246250000Y-143450000D01*
X224250000Y-132250000D02*
X223850000Y-132250000D01*
D22*
X214050000Y-148650000D02*
X214850000Y-147850000D01*
X212609501Y-148409501D02*
X212850000Y-148650000D01*
X211774064Y-146650000D02*
X212609503Y-147485437D01*
X212850000Y-148650000D02*
X214050000Y-148650000D01*
X207050000Y-147850000D02*
X208250000Y-146650000D01*
X214850000Y-147850000D02*
X214850000Y-144450000D01*
X208250000Y-146650000D02*
X211774064Y-146650000D01*
X212609503Y-147485437D02*
X212609501Y-148409501D01*
X201050000Y-148050000D02*
X201750000Y-148750000D01*
X201750000Y-148750000D02*
X201750000Y-150200000D01*
X200250000Y-148050000D02*
X201050000Y-148050000D01*
D24*
X189950000Y-131000000D02*
X186800000Y-131000000D01*
X186800000Y-131000000D02*
X186050000Y-130250000D01*
X242448200Y-151064200D02*
X242336000Y-150952000D01*
X242448200Y-154112100D02*
X242448200Y-151064200D01*
X171497750Y-155702250D02*
X170150000Y-157050000D01*
X170150000Y-157050000D02*
X168050000Y-157050000D01*
X168050000Y-157050000D02*
X166850000Y-155850000D01*
X166850000Y-155850000D02*
X166850000Y-148350000D01*
X171497750Y-155050000D02*
X171497750Y-155702250D01*
X246700000Y-149990160D02*
X248040160Y-148650000D01*
X246700000Y-151575240D02*
X246700000Y-149990160D01*
X248040160Y-148650000D02*
X248149999Y-148650000D01*
D25*
X232850000Y-121550000D02*
X233028500Y-121371500D01*
X233028500Y-121371500D02*
X234899300Y-121371500D01*
X227041200Y-121358800D02*
X224465000Y-121358800D01*
X227041200Y-121858800D02*
X226271200Y-122628800D01*
X226271200Y-122628800D02*
X224465000Y-122628800D01*
X227041200Y-121358800D02*
X227041200Y-121858800D01*
X227041200Y-121358800D02*
X226950000Y-121267600D01*
X226950000Y-121267600D02*
X226950000Y-120278618D01*
X226950000Y-120278618D02*
X226950000Y-119650001D01*
X216950000Y-123550000D02*
X217298800Y-123898800D01*
X216950000Y-120550000D02*
X216950000Y-123550000D01*
X217298800Y-123898800D02*
X219065000Y-123898800D01*
X217350000Y-120150000D02*
X216950000Y-120550000D01*
X220350000Y-120150000D02*
X217450000Y-120150000D01*
X222828800Y-122628800D02*
X220350000Y-120150000D01*
X224465000Y-122628800D02*
X222828800Y-122628800D01*
X238671500Y-121371500D02*
X239950000Y-122650000D01*
X239950000Y-122650000D02*
X239950000Y-125250000D01*
X234899300Y-121371500D02*
X238671500Y-121371500D01*
D22*
X217450000Y-120150000D02*
X217350000Y-120150000D01*
X166850000Y-120550000D02*
X166850000Y-148350000D01*
X168650000Y-118750000D02*
X166850000Y-120550000D01*
X215950000Y-118750000D02*
X168650000Y-118750000D01*
X217350000Y-120150000D02*
X215950000Y-118750000D01*
D24*
X242448200Y-153651800D02*
X244524760Y-151575240D01*
X244524760Y-151575240D02*
X246700000Y-151575240D01*
X242448200Y-154112100D02*
X242448200Y-153651800D01*
D22*
X203750000Y-150200000D02*
X203750000Y-156762036D01*
X197078617Y-158850000D02*
X196450000Y-158850000D01*
X197458607Y-158470010D02*
X197078617Y-158850000D01*
X202042026Y-158470010D02*
X197458607Y-158470010D01*
X203750000Y-156762036D02*
X202042026Y-158470010D01*
X233050009Y-150049991D02*
X233024176Y-150024158D01*
X233024176Y-150024158D02*
X233024176Y-149710192D01*
X229850000Y-146278618D02*
X229850000Y-145650001D01*
X233024176Y-149710192D02*
X229850000Y-146536016D01*
X229850000Y-146536016D02*
X229850000Y-146278618D01*
X199250000Y-150200000D02*
X199250000Y-152250000D01*
X191850000Y-152850000D02*
X187050000Y-157650000D01*
X187050000Y-157650000D02*
X187050000Y-158450000D01*
X199250000Y-152250000D02*
X198650000Y-152850000D01*
X198650000Y-152850000D02*
X191850000Y-152850000D01*
X226914049Y-147094499D02*
X228657358Y-147094499D01*
X230175809Y-148612950D02*
X230620308Y-149057449D01*
X226469550Y-146650000D02*
X226914049Y-147094499D01*
X228657358Y-147094499D02*
X230175809Y-148612950D01*
X178450000Y-151250000D02*
X173800000Y-155900000D01*
X192848223Y-143900000D02*
X191557414Y-145190809D01*
X189652249Y-147162664D02*
X185564913Y-151250000D01*
X185564913Y-151250000D02*
X178450000Y-151250000D01*
X191277374Y-145190809D02*
X189652249Y-146815934D01*
X189652249Y-146815934D02*
X189652249Y-147162664D01*
X173800000Y-158021383D02*
X173800000Y-158650000D01*
X191557414Y-145190809D02*
X191277374Y-145190809D01*
X195450000Y-143900000D02*
X192848223Y-143900000D01*
X173800000Y-155900000D02*
X173800000Y-158021383D01*
X192253306Y-146870849D02*
X191973266Y-146870849D01*
X195450000Y-145900000D02*
X193224155Y-145900000D01*
X193224155Y-145900000D02*
X192253306Y-146870849D01*
X191332289Y-147511826D02*
X191332289Y-147858564D01*
X191332289Y-147858564D02*
X185940853Y-153250000D01*
X185940853Y-153250000D02*
X182250000Y-153250000D01*
X182250000Y-153250000D02*
X179450000Y-156050000D01*
X179450000Y-157621383D02*
X179450000Y-158250000D01*
X179450000Y-156050000D02*
X179450000Y-157621383D01*
X191973266Y-146870849D02*
X191332289Y-147511826D01*
X198250000Y-151450000D02*
X197850000Y-151850000D01*
X198250000Y-150200000D02*
X198250000Y-151450000D01*
X197850000Y-151850000D02*
X191050000Y-151850000D01*
X191050000Y-151850000D02*
X187250000Y-155650000D01*
X187250000Y-155650000D02*
X185850000Y-155650000D01*
X184450000Y-157050000D02*
X184450000Y-158450000D01*
X185850000Y-155650000D02*
X184450000Y-157050000D01*
X200250000Y-150200000D02*
X200250000Y-153050000D01*
X194250000Y-153850000D02*
X189650000Y-158450000D01*
X199450000Y-153850000D02*
X194250000Y-153850000D01*
X200250000Y-153050000D02*
X199450000Y-153850000D01*
X203250000Y-150200000D02*
X203250000Y-156668054D01*
X203250000Y-156668054D02*
X202068054Y-157850000D01*
X195294499Y-158205501D02*
X194850000Y-158650000D01*
X195650000Y-157850000D02*
X195294499Y-158205501D01*
X202068054Y-157850000D02*
X195650000Y-157850000D01*
X199478617Y-159299510D02*
X198850000Y-159299510D01*
X199888107Y-158890020D02*
X199478617Y-159299510D01*
X204250000Y-156856018D02*
X202215998Y-158890020D01*
X202215998Y-158890020D02*
X199888107Y-158890020D01*
X204250000Y-150200000D02*
X204250000Y-156856018D01*
X233534569Y-148655064D02*
X233331639Y-148655064D01*
X234114948Y-149235443D02*
X233534569Y-148655064D01*
X234114948Y-149864060D02*
X234114948Y-149235443D01*
X233050000Y-134450000D02*
X237170000Y-138570000D01*
X230278617Y-134450000D02*
X233050000Y-134450000D01*
X237170000Y-146985294D02*
X237170000Y-147613911D01*
X229878617Y-134850000D02*
X230278617Y-134450000D01*
X236250000Y-148850000D02*
X237170000Y-147930000D01*
X237170000Y-147930000D02*
X237170000Y-147613911D01*
X237170000Y-138570000D02*
X237170000Y-146985294D01*
X229250000Y-134850000D02*
X229878617Y-134850000D01*
X205250000Y-150200000D02*
X205250000Y-157650000D01*
X205250000Y-157650000D02*
X204494499Y-158405501D01*
X204494499Y-158405501D02*
X204050000Y-158850000D01*
X208250000Y-150200000D02*
X208250000Y-155650000D01*
X208250000Y-155650000D02*
X209229990Y-156629990D01*
X209229990Y-156629990D02*
X209229990Y-158601373D01*
X209229990Y-158601373D02*
X209450000Y-158821383D01*
X209450000Y-158821383D02*
X209450000Y-159450000D01*
X237850000Y-138050000D02*
X237850000Y-146382353D01*
X236456563Y-149954077D02*
X236012064Y-150398576D01*
X237850000Y-146382353D02*
X237849675Y-146382678D01*
X237929501Y-148481139D02*
X236456563Y-149954077D01*
X237849675Y-147169524D02*
X237929501Y-147249350D01*
X237929501Y-147249350D02*
X237929501Y-148481139D01*
X233450000Y-133650000D02*
X237850000Y-138050000D01*
X237849675Y-146382678D02*
X237849675Y-147169524D01*
X230450000Y-133650000D02*
X233450000Y-133650000D01*
X210250000Y-150200000D02*
X210250000Y-157850000D01*
X210250000Y-157850000D02*
X210250000Y-157050000D01*
X210250000Y-157850000D02*
X211050000Y-158650000D01*
X211050000Y-158650000D02*
X212850000Y-158650000D01*
X212850000Y-158650000D02*
X213050000Y-158450000D01*
X214650000Y-158450000D02*
X215450000Y-159250000D01*
X213050000Y-158450000D02*
X214650000Y-158450000D01*
X239369021Y-145418494D02*
X239369021Y-147163347D01*
X234950000Y-132350000D02*
X240250000Y-137650000D01*
X229450000Y-132350000D02*
X234950000Y-132350000D01*
X240250000Y-144537515D02*
X239369021Y-145418494D01*
X239369021Y-147163347D02*
X239133520Y-147398848D01*
X239133520Y-147398848D02*
X238689021Y-147843347D01*
X240250000Y-137650000D02*
X240250000Y-144537515D01*
X242150000Y-139650000D02*
X242150000Y-144791364D01*
X238950000Y-132550000D02*
X238950000Y-135550000D01*
X241050000Y-137650000D02*
X241050000Y-138550000D01*
X238950000Y-135550000D02*
X241050000Y-137650000D01*
X237994499Y-131594499D02*
X238950000Y-132550000D01*
X229694499Y-131594499D02*
X237994499Y-131594499D01*
X229250000Y-131150000D02*
X229694499Y-131594499D01*
X241050000Y-138550000D02*
X242150000Y-139650000D01*
X242150000Y-144791364D02*
X240993050Y-145948314D01*
X240993050Y-145948314D02*
X240548551Y-146392813D01*
X218650000Y-156450000D02*
X222250000Y-156450000D01*
X222250000Y-156450000D02*
X224650000Y-158850000D01*
X216850000Y-154650000D02*
X218650000Y-156450000D01*
X213750000Y-153350000D02*
X215050000Y-154650000D01*
X213750000Y-150200000D02*
X213750000Y-153350000D01*
X215050000Y-154650000D02*
X216850000Y-154650000D01*
X230050000Y-155850000D02*
X232850000Y-158650000D01*
X232850000Y-158650000D02*
X232850000Y-159050000D01*
X224450000Y-152850000D02*
X227450000Y-155850000D01*
X227450000Y-155850000D02*
X230050000Y-155850000D01*
X219450000Y-152450000D02*
X219850000Y-152850000D01*
X219850000Y-152850000D02*
X224450000Y-152850000D01*
X219450000Y-147650000D02*
X219450000Y-152450000D01*
X218700000Y-146900000D02*
X219450000Y-147650000D01*
X216550000Y-146900000D02*
X218700000Y-146900000D01*
X242550000Y-146150000D02*
X242550000Y-147550000D01*
X243550000Y-138450000D02*
X243550000Y-145150000D01*
X241675110Y-137275110D02*
X242375110Y-137275110D01*
X239550000Y-135150000D02*
X241675110Y-137275110D01*
X239550000Y-131450000D02*
X239550000Y-135150000D01*
X239050000Y-130950000D02*
X239550000Y-131450000D01*
X236050000Y-130950000D02*
X239050000Y-130950000D01*
X235050000Y-129950000D02*
X236050000Y-130950000D01*
X242375110Y-137275110D02*
X243550000Y-138450000D01*
X229450000Y-129950000D02*
X235050000Y-129950000D01*
X243550000Y-145150000D02*
X242550000Y-146150000D01*
X229250000Y-129750000D02*
X229450000Y-129950000D01*
X245150000Y-128550000D02*
X239450000Y-128550000D01*
X247250000Y-130650000D02*
X245150000Y-128550000D01*
X247250000Y-136450000D02*
X247250000Y-130650000D01*
X244650000Y-139050000D02*
X247250000Y-136450000D01*
X244650000Y-147450000D02*
X244650000Y-139050000D01*
X244550000Y-147550000D02*
X244650000Y-147450000D01*
X222100000Y-142900000D02*
X224209501Y-145009501D01*
X224209501Y-145009501D02*
X224209501Y-148203484D01*
X228456025Y-152450008D02*
X231050008Y-152450008D01*
X237850000Y-156250000D02*
X240005501Y-158405501D01*
X240005501Y-158405501D02*
X240450000Y-158850000D01*
X231050008Y-152450008D02*
X234850000Y-156250000D01*
X224209501Y-148203484D02*
X228456025Y-152450008D01*
X216550000Y-142900000D02*
X222100000Y-142900000D01*
X234850000Y-156250000D02*
X237850000Y-156250000D01*
X225050000Y-150450000D02*
X228250000Y-153650000D01*
X221850000Y-150450000D02*
X225050000Y-150450000D01*
X219500000Y-144900000D02*
X221850000Y-147250000D01*
X221850000Y-147250000D02*
X221850000Y-150450000D01*
X216550000Y-144900000D02*
X219500000Y-144900000D01*
X236450000Y-157450000D02*
X238050000Y-159050000D01*
X228250000Y-153650000D02*
X230650000Y-153650000D01*
X230650000Y-153650000D02*
X234450000Y-157450000D01*
X234450000Y-157450000D02*
X236450000Y-157450000D01*
X244150000Y-138150000D02*
X244450000Y-137850000D01*
X244150000Y-145850000D02*
X244150000Y-138150000D01*
X243650000Y-146350000D02*
X244150000Y-145850000D01*
X227050000Y-157050000D02*
X228850000Y-157050000D01*
X228850000Y-157050000D02*
X230050000Y-158250000D01*
X218250000Y-152450000D02*
X218250000Y-152850000D01*
X218250000Y-152850000D02*
X219450000Y-154050000D01*
X217900000Y-147900000D02*
X218250000Y-148250000D01*
X216550000Y-147900000D02*
X217900000Y-147900000D01*
X218250000Y-148250000D02*
X218250000Y-152450000D01*
X219450000Y-154050000D02*
X224050000Y-154050000D01*
X224050000Y-154050000D02*
X227050000Y-157050000D01*
X241306764Y-146817449D02*
X241306764Y-147446066D01*
X241306764Y-146693236D02*
X241306764Y-146817449D01*
X242794499Y-145205501D02*
X241306764Y-146693236D01*
X242350000Y-138550000D02*
X242794499Y-138994499D01*
X242794499Y-138994499D02*
X242794499Y-145205501D01*
X212750000Y-150200000D02*
X212750000Y-154150000D01*
X221050000Y-157850000D02*
X222050000Y-158850000D01*
X216250000Y-155850000D02*
X218250000Y-157850000D01*
X218250000Y-157850000D02*
X221050000Y-157850000D01*
X214450000Y-155850000D02*
X216250000Y-155850000D01*
X212750000Y-154150000D02*
X214450000Y-155850000D01*
X239789031Y-145710969D02*
X239789031Y-147195777D01*
X239787889Y-147196919D02*
X239787889Y-147825536D01*
X241150000Y-139850000D02*
X241150000Y-144350000D01*
X241150000Y-144350000D02*
X239789031Y-145710969D01*
X239789031Y-147195777D02*
X239787889Y-147196919D01*
X209750000Y-153050000D02*
X209750000Y-150200000D01*
X209650000Y-156450000D02*
X209050000Y-155850000D01*
X209050000Y-153750000D02*
X209750000Y-153050000D01*
X209050000Y-155850000D02*
X209050000Y-153750000D01*
X209650000Y-158250000D02*
X209650000Y-156450000D01*
X210650000Y-159250000D02*
X209650000Y-158250000D01*
X214050000Y-159250000D02*
X210650000Y-159250000D01*
X238609176Y-140090824D02*
X238609176Y-146118622D01*
X238609176Y-146118622D02*
X238609176Y-146747239D01*
X239250000Y-139450000D02*
X238609176Y-140090824D01*
X214650000Y-140650000D02*
X214900000Y-140400000D01*
X214900000Y-140400000D02*
X216550000Y-140400000D01*
X229450000Y-136650000D02*
X219250000Y-136650000D01*
X230850000Y-135250000D02*
X229450000Y-136650000D01*
X219250000Y-136650000D02*
X218650000Y-137250000D01*
X190492269Y-147163880D02*
X190492269Y-147510614D01*
X177050000Y-155850000D02*
X177050000Y-157621383D01*
X185814463Y-152188420D02*
X180711580Y-152188420D01*
X180711580Y-152188420D02*
X177050000Y-155850000D01*
X190492269Y-147510614D02*
X185814463Y-152188420D01*
X191625320Y-146030829D02*
X190492269Y-147163880D01*
X195450000Y-144900000D02*
X193036189Y-144900000D01*
X177050000Y-157621383D02*
X177050000Y-158250000D01*
X193036189Y-144900000D02*
X191905360Y-146030829D01*
X191905360Y-146030829D02*
X191625320Y-146030829D01*
X232050000Y-137450000D02*
X232050000Y-138650000D01*
X230094499Y-140605501D02*
X229650000Y-141050000D01*
X232050000Y-138650000D02*
X230094499Y-140605501D01*
X206250000Y-156850000D02*
X206250000Y-150200000D01*
X206250000Y-163825400D02*
X206250000Y-156850000D01*
X206250000Y-163825400D02*
X206543180Y-164118580D01*
X232850000Y-136050000D02*
X234050000Y-137250000D01*
X225050000Y-138050000D02*
X230325938Y-138050000D01*
X230325938Y-138050000D02*
X232325938Y-136050000D01*
X232325938Y-136050000D02*
X232450000Y-136050000D01*
X232450000Y-136050000D02*
X232850000Y-136050000D01*
X213369021Y-147045824D02*
X213369021Y-147674441D01*
X206650000Y-146050000D02*
X212373197Y-146050000D01*
X206250000Y-146450000D02*
X206650000Y-146050000D01*
X206250000Y-150200000D02*
X206250000Y-146450000D01*
X212373197Y-146050000D02*
X213369021Y-147045824D01*
X195089900Y-150200000D02*
X191100000Y-150200000D01*
X191100000Y-150200000D02*
X186850000Y-154450000D01*
X197250000Y-150200000D02*
X195089900Y-150200000D01*
X186850000Y-154450000D02*
X185074083Y-154450000D01*
X185074083Y-154450000D02*
X181902700Y-157621383D01*
X181902700Y-157621383D02*
X181902700Y-158250000D01*
X233850000Y-139050000D02*
X233850000Y-139826052D01*
X233850000Y-139826052D02*
X233527802Y-140148250D01*
X233527802Y-140148250D02*
X233083303Y-140592749D01*
X234450000Y-151850000D02*
X234878915Y-151421085D01*
X232250000Y-150250000D02*
X233850000Y-151850000D01*
X233850000Y-151850000D02*
X234450000Y-151850000D01*
X228806997Y-149577054D02*
X229479943Y-150250000D01*
X229479943Y-150250000D02*
X232250000Y-150250000D01*
X234878915Y-151421085D02*
X234878915Y-148654881D01*
X234878915Y-148654881D02*
X234434416Y-148210382D01*
X234434416Y-148150553D02*
X234434416Y-148210382D01*
X234298931Y-148015068D02*
X234434416Y-148150553D01*
X190912279Y-147337853D02*
X190912279Y-147684589D01*
X181650000Y-152650000D02*
X178603180Y-155696820D01*
X190912279Y-147684589D02*
X185946868Y-152650000D01*
X195450000Y-145400000D02*
X193130172Y-145400000D01*
X191799293Y-146450839D02*
X190912279Y-147337853D01*
X193130172Y-145400000D02*
X192079333Y-146450839D01*
X192079333Y-146450839D02*
X191799293Y-146450839D01*
X178603180Y-155696820D02*
X178603180Y-157250000D01*
X185946868Y-152650000D02*
X181650000Y-152650000D01*
X178603180Y-157250000D02*
X178603180Y-160758980D01*
X178603180Y-160758980D02*
X178603180Y-164118580D01*
X178603180Y-157203180D02*
X178250000Y-156850000D01*
X178603180Y-157250000D02*
X178603180Y-157203180D01*
X236382642Y-146218552D02*
X236382642Y-146847169D01*
X234650000Y-140050000D02*
X236382642Y-141782642D01*
X236382642Y-141782642D02*
X236382642Y-146218552D01*
X236382642Y-146847169D02*
X234406302Y-146847169D01*
X234406302Y-146847169D02*
X233403471Y-147850000D01*
X232653283Y-147850000D02*
X231386533Y-146583250D01*
X231386533Y-146583250D02*
X231386533Y-145954633D01*
X233403471Y-147850000D02*
X232653283Y-147850000D01*
X180131590Y-151768410D02*
X176063180Y-155836820D01*
X191731387Y-145610819D02*
X191451347Y-145610819D01*
X192942206Y-144400000D02*
X191731387Y-145610819D01*
X191451347Y-145610819D02*
X190072259Y-146989907D01*
X190072259Y-146989907D02*
X190072259Y-147336639D01*
X195450000Y-144400000D02*
X192942206Y-144400000D01*
X185640488Y-151768410D02*
X180131590Y-151768410D01*
X190072259Y-147336639D02*
X185640488Y-151768410D01*
X176063180Y-155836820D02*
X176063180Y-156050000D01*
X176063180Y-156050000D02*
X176063180Y-160758980D01*
X176063180Y-160758980D02*
X176063180Y-164118580D01*
X175250000Y-156850000D02*
X175050000Y-156850000D01*
X176050000Y-156050000D02*
X175250000Y-156850000D01*
X176063180Y-156050000D02*
X176050000Y-156050000D01*
X227650000Y-146250000D02*
X227650000Y-144596451D01*
X227650000Y-144596451D02*
X230769744Y-141476707D01*
X233646128Y-141476707D02*
X234090627Y-141032208D01*
X230769744Y-141476707D02*
X233646128Y-141476707D01*
X196050000Y-154850000D02*
X192250000Y-158650000D01*
X200250000Y-154850000D02*
X196050000Y-154850000D01*
X201250000Y-153850000D02*
X200250000Y-154850000D01*
X201250000Y-150200000D02*
X201250000Y-153850000D01*
X232357844Y-146745812D02*
X232909512Y-146745812D01*
X232909512Y-146745812D02*
X233657815Y-145997509D01*
X233779220Y-146118914D02*
X233779220Y-146278283D01*
X233657815Y-145997509D02*
X233779220Y-146118914D01*
X230728404Y-142642109D02*
X230283905Y-143086608D01*
X234438236Y-142076152D02*
X231294361Y-142076152D01*
X231294361Y-142076152D02*
X230728404Y-142642109D01*
X234876152Y-142076152D02*
X235650000Y-142850000D01*
X235650000Y-142850000D02*
X235650000Y-145450000D01*
X235650000Y-145450000D02*
X234821717Y-146278283D01*
X234821717Y-146278283D02*
X233779220Y-146278283D01*
X234438236Y-142076152D02*
X234876152Y-142076152D01*
X234021383Y-143650012D02*
X234650000Y-143650012D01*
X230410917Y-144402028D02*
X231162933Y-143650012D01*
X231162933Y-143650012D02*
X234021383Y-143650012D01*
X216550000Y-140900000D02*
X222975938Y-140900000D01*
X222975938Y-140900000D02*
X224325938Y-142250000D01*
X224325938Y-142250000D02*
X228850000Y-142250000D01*
X228850000Y-142250000D02*
X229050000Y-142050000D01*
X198450000Y-131250000D02*
X199250000Y-130450000D01*
X199250000Y-130450000D02*
X199250000Y-129100000D01*
X197750000Y-131250000D02*
X198450000Y-131250000D01*
X198350000Y-132150000D02*
X199750000Y-130750000D01*
X199750000Y-130750000D02*
X199750000Y-129100000D01*
X198350000Y-132950000D02*
X198350000Y-132150000D01*
X200250000Y-131050000D02*
X199450000Y-131850000D01*
X199450000Y-131850000D02*
X199450000Y-133050000D01*
X199450000Y-133050000D02*
X199550000Y-133150000D01*
X200250000Y-129100000D02*
X200250000Y-131050000D01*
X200750000Y-129100000D02*
X200750000Y-133150000D01*
X202250000Y-128050000D02*
X203250000Y-127050000D01*
X202250000Y-129100000D02*
X202250000Y-128050000D01*
X203250000Y-127050000D02*
X203250000Y-121278617D01*
X203250000Y-121278617D02*
X203250000Y-120650000D01*
X202750000Y-128150000D02*
X202750000Y-129100000D01*
X203950000Y-126950000D02*
X202750000Y-128150000D01*
X203950000Y-121550000D02*
X203950000Y-126950000D01*
X204450000Y-121050000D02*
X203950000Y-121550000D01*
X203250000Y-130450000D02*
X203250000Y-129100000D01*
X202050000Y-131650000D02*
X203250000Y-130450000D01*
X201850000Y-131650000D02*
X202050000Y-131650000D01*
X201950000Y-133050000D02*
X202650000Y-132350000D01*
X202650000Y-132350000D02*
X202650000Y-131950000D01*
X202650000Y-131950000D02*
X203750000Y-130850000D01*
X203750000Y-130850000D02*
X203750000Y-129100000D01*
X203350000Y-132250000D02*
X204250000Y-131350000D01*
X204250000Y-131350000D02*
X204250000Y-129100000D01*
X203350000Y-133150000D02*
X203350000Y-132250000D01*
X204650000Y-132150000D02*
X204750000Y-132050000D01*
X204750000Y-132050000D02*
X204750000Y-129100000D01*
X204650000Y-133150000D02*
X204650000Y-132150000D01*
X205950000Y-133150000D02*
X205950000Y-130350000D01*
X205950000Y-130350000D02*
X205750000Y-130150000D01*
X205750000Y-130150000D02*
X205750000Y-129100000D01*
X206750000Y-129100000D02*
X206750000Y-133050000D01*
X206750000Y-133050000D02*
X207505501Y-133805501D01*
X207505501Y-133805501D02*
X207950000Y-134250000D01*
X207250000Y-129100000D02*
X207250000Y-131850000D01*
X207250000Y-131850000D02*
X208005501Y-132605501D01*
X208005501Y-132605501D02*
X208450000Y-133050000D01*
X208250000Y-129100000D02*
X208250000Y-120950002D01*
X208250000Y-120950002D02*
X207850000Y-120550002D01*
X208750000Y-120856796D02*
X209072330Y-120534466D01*
X208750000Y-129100000D02*
X208750000Y-120856796D01*
X209250000Y-121650000D02*
X209905501Y-120994499D01*
X209905501Y-120994499D02*
X210350000Y-120550000D01*
X209250000Y-129100000D02*
X209250000Y-121650000D01*
X209750000Y-132529204D02*
X209969021Y-132748225D01*
X209750000Y-129100000D02*
X209750000Y-132529204D01*
X210250000Y-130550000D02*
X210250000Y-129100000D01*
X211350000Y-132550000D02*
X211350000Y-131650000D01*
X211250000Y-132650000D02*
X211350000Y-132550000D01*
X211350000Y-131650000D02*
X210250000Y-130550000D01*
X212550000Y-132450000D02*
X212550000Y-132150000D01*
X212450000Y-132550000D02*
X212550000Y-132450000D01*
X210750000Y-130350000D02*
X210750000Y-129100000D01*
X212550000Y-132150000D02*
X210750000Y-130350000D01*
X213750000Y-132250000D02*
X212250000Y-130750000D01*
X212250000Y-130750000D02*
X212250000Y-129100000D01*
X213750000Y-133050000D02*
X213750000Y-132250000D01*
X212750000Y-130350000D02*
X214550000Y-132150000D01*
X212750000Y-129100000D02*
X212750000Y-130350000D01*
X213250000Y-130035000D02*
X214165000Y-130950000D01*
X213250000Y-129100000D02*
X213250000Y-130035000D01*
X214165000Y-130950000D02*
X214650000Y-130950000D01*
X214350000Y-123950000D02*
X213750000Y-124550000D01*
X213750000Y-124550000D02*
X213750000Y-129100000D01*
X213126983Y-138420756D02*
X212682484Y-138865255D01*
X216550000Y-137900000D02*
X213647739Y-137900000D01*
X213647739Y-137900000D02*
X213126983Y-138420756D01*
X216550000Y-137400000D02*
X213476620Y-137400000D01*
X212770885Y-138105735D02*
X212173480Y-138105735D01*
X212173480Y-138105735D02*
X211644249Y-138634966D01*
X211644249Y-138634966D02*
X211644249Y-139263583D01*
X213476620Y-137400000D02*
X212770885Y-138105735D01*
X216550000Y-136900000D02*
X212947902Y-136900000D01*
X212501668Y-137346234D02*
X212406324Y-137346234D01*
X212947902Y-136900000D02*
X212501668Y-137346234D01*
X216550000Y-136400000D02*
X212616475Y-136400000D01*
X212616475Y-136400000D02*
X212465280Y-136248805D01*
X212465280Y-136134720D02*
X212465280Y-136248805D01*
X212700000Y-135900000D02*
X212465280Y-136134720D01*
X213692062Y-135900000D02*
X213401915Y-135609853D01*
X216550000Y-135900000D02*
X213692062Y-135900000D01*
X216550000Y-135900000D02*
X216500000Y-135850000D01*
X216550000Y-134400000D02*
X212799994Y-134400000D01*
X212799994Y-134400000D02*
X212549994Y-134650000D01*
X216550000Y-133900000D02*
X213024062Y-133900000D01*
X213024062Y-133900000D02*
X212629563Y-133505501D01*
X212629563Y-133505501D02*
X211794499Y-133505501D01*
X211794499Y-133505501D02*
X211350000Y-133950000D01*
X196680964Y-133119979D02*
X196774947Y-133119979D01*
X196774947Y-133119979D02*
X196854936Y-133199969D01*
X196600974Y-133039989D02*
X196680964Y-133119979D01*
X196948920Y-133199969D02*
X197898951Y-134150000D01*
X206550000Y-134150000D02*
X208450000Y-136050000D01*
X196854936Y-133199969D02*
X196948920Y-133199969D01*
X195509999Y-132959999D02*
X196427001Y-132959999D01*
X195450000Y-132900000D02*
X195509999Y-132959999D01*
X196427001Y-132959999D02*
X196490001Y-133022999D01*
X196490001Y-133022999D02*
X196490001Y-133039989D01*
X196490001Y-133039989D02*
X196600974Y-133039989D01*
X197898951Y-134150000D02*
X206550000Y-134150000D01*
X195450000Y-133400000D02*
X195509999Y-133459999D01*
X197724978Y-134570010D02*
X206376028Y-134570010D01*
X196490001Y-133539989D02*
X196600973Y-133539989D01*
X207690499Y-135884481D02*
X207690499Y-137356318D01*
X196410011Y-133459999D02*
X196490001Y-133539989D01*
X207889291Y-137555110D02*
X207889291Y-138183727D01*
X196774947Y-133619979D02*
X197724978Y-134570010D01*
X196600973Y-133539989D02*
X196680963Y-133619979D01*
X207690499Y-137356318D02*
X207889291Y-137555110D01*
X195509999Y-133459999D02*
X196410011Y-133459999D01*
X196680963Y-133619979D02*
X196774947Y-133619979D01*
X206376028Y-134570010D02*
X207690499Y-135884481D01*
X206202056Y-134990020D02*
X207129790Y-135917754D01*
X197551005Y-134990020D02*
X206202056Y-134990020D01*
X207129790Y-138632401D02*
X207393447Y-138896058D01*
X196490001Y-134039989D02*
X196600974Y-134039989D01*
X196410011Y-133959999D02*
X196490001Y-134039989D01*
X195450000Y-133900000D02*
X195509999Y-133959999D01*
X195509999Y-133959999D02*
X196410011Y-133959999D01*
X207129790Y-135917754D02*
X207129790Y-138632401D01*
X196600974Y-134039989D02*
X197551005Y-134990020D01*
X207393447Y-138896058D02*
X207393447Y-139524675D01*
X205805501Y-136105501D02*
X206250000Y-136550000D01*
X205110029Y-135410030D02*
X205805501Y-136105501D01*
X195450000Y-134400000D02*
X195509999Y-134459999D01*
X195509999Y-134459999D02*
X196427001Y-134459999D01*
X196427001Y-134459999D02*
X197377032Y-135410030D01*
X197377032Y-135410030D02*
X205110029Y-135410030D01*
X206577062Y-140224468D02*
X206765454Y-140412860D01*
X204204331Y-135900000D02*
X206577062Y-138272731D01*
X206577062Y-138272731D02*
X206577062Y-140224468D01*
X206765454Y-140412860D02*
X206765454Y-141041477D01*
X195450000Y-135900000D02*
X204204331Y-135900000D01*
X195450000Y-136400000D02*
X204110348Y-136400000D01*
X204110348Y-136400000D02*
X205817561Y-138107213D01*
X205817561Y-138302822D02*
X205817561Y-138931439D01*
X205817561Y-138107213D02*
X205817561Y-138302822D01*
X204066185Y-137465308D02*
X204510684Y-137909807D01*
X203500877Y-136900000D02*
X204066185Y-137465308D01*
X195450000Y-136900000D02*
X203500877Y-136900000D01*
X203618610Y-138469053D02*
X204063109Y-138913552D01*
X195450000Y-137400000D02*
X202549557Y-137400000D01*
X202549557Y-137400000D02*
X203618610Y-138469053D01*
X201794759Y-137900000D02*
X202394195Y-138499436D01*
X202394195Y-138499436D02*
X202838694Y-138943935D01*
X195450000Y-137900000D02*
X201794759Y-137900000D01*
X203295457Y-140011890D02*
X203739956Y-140456389D01*
X201195926Y-138400000D02*
X202807816Y-140011890D01*
X195450000Y-138400000D02*
X201195926Y-138400000D01*
X202807816Y-140011890D02*
X203295457Y-140011890D01*
X195450000Y-139400000D02*
X196385000Y-139400000D01*
X196385000Y-139400000D02*
X196394283Y-139390717D01*
X201087487Y-139390717D02*
X201531986Y-139835216D01*
X196394283Y-139390717D02*
X201087487Y-139390717D01*
X202382135Y-140594717D02*
X203146383Y-141358965D01*
X200389454Y-139816746D02*
X201167425Y-140594717D01*
X195450000Y-140400000D02*
X196385000Y-140400000D01*
X201167425Y-140594717D02*
X202382135Y-140594717D01*
X196385000Y-140400000D02*
X196968254Y-139816746D01*
X203146383Y-141358965D02*
X203146383Y-141987582D01*
X196968254Y-139816746D02*
X200389454Y-139816746D01*
X201461054Y-141482329D02*
X201597589Y-141482329D01*
X200215481Y-140236756D02*
X201461054Y-141482329D01*
X198053529Y-140236756D02*
X200215481Y-140236756D01*
X195450000Y-140900000D02*
X197390285Y-140900000D01*
X197390285Y-140900000D02*
X198053529Y-140236756D01*
X201597589Y-141482329D02*
X202042088Y-141926828D01*
X199880838Y-140656766D02*
X200505501Y-141281429D01*
X198227502Y-140656766D02*
X199880838Y-140656766D01*
X197484268Y-141400000D02*
X198227502Y-140656766D01*
X200505501Y-141605501D02*
X200950000Y-142050000D01*
X195450000Y-141400000D02*
X197484268Y-141400000D01*
X200505501Y-141281429D02*
X200505501Y-141605501D01*
X241650000Y-156650000D02*
X242650000Y-157650000D01*
X232050000Y-150850000D02*
X235650000Y-154450000D01*
X243250000Y-157650000D02*
X244643180Y-159043180D01*
X225469531Y-147269531D02*
X228047496Y-149847496D01*
X235650000Y-154450000D02*
X238250000Y-154450000D01*
X244643180Y-160758980D02*
X244643180Y-164118580D01*
X216550000Y-141400000D02*
X222881955Y-141400000D01*
X228047496Y-149847496D02*
X228047496Y-149941615D01*
X222881955Y-141400000D02*
X225469531Y-143987576D01*
X225469531Y-143987576D02*
X225469531Y-147269531D01*
X244643180Y-159043180D02*
X244643180Y-160758980D01*
X238250000Y-154450000D02*
X240450000Y-156650000D01*
X228955881Y-150850000D02*
X232050000Y-150850000D01*
X228047496Y-149941615D02*
X228955881Y-150850000D01*
X240450000Y-156650000D02*
X241650000Y-156650000D01*
X242650000Y-157650000D02*
X243250000Y-157650000D01*
X224629511Y-144835528D02*
X224629511Y-148029511D01*
X240250000Y-157850000D02*
X241250000Y-157850000D01*
X242103180Y-158703180D02*
X242103180Y-160758980D01*
X216550000Y-142400000D02*
X222193983Y-142400000D01*
X222193983Y-142400000D02*
X224629511Y-144835528D01*
X228629998Y-152029998D02*
X231429998Y-152029998D01*
X224629511Y-148029511D02*
X228629998Y-152029998D01*
X231429998Y-152029998D02*
X235050000Y-155650000D01*
X235050000Y-155650000D02*
X238050000Y-155650000D01*
X238050000Y-155650000D02*
X240250000Y-157850000D01*
X241250000Y-157850000D02*
X242103180Y-158703180D01*
X242103180Y-160758980D02*
X242103180Y-164118580D01*
X230850000Y-153050000D02*
X234650000Y-156850000D01*
X239563180Y-158963180D02*
X239563180Y-164118580D01*
X237450000Y-156850000D02*
X239563180Y-158963180D01*
X234650000Y-156850000D02*
X237450000Y-156850000D01*
X225250000Y-149850000D02*
X228450000Y-153050000D01*
X228450000Y-153050000D02*
X230850000Y-153050000D01*
X222450000Y-149850000D02*
X224450000Y-149850000D01*
X224450000Y-149850000D02*
X225250000Y-149850000D01*
X222450000Y-147050000D02*
X222450000Y-149850000D01*
X219800000Y-144400000D02*
X222450000Y-147050000D01*
X216550000Y-144400000D02*
X219800000Y-144400000D01*
X230429998Y-154229998D02*
X234250000Y-158050000D01*
X237023180Y-159223180D02*
X237023180Y-164118580D01*
X235850000Y-158050000D02*
X237023180Y-159223180D01*
X234250000Y-158050000D02*
X235850000Y-158050000D01*
X225050000Y-151050000D02*
X228229998Y-154229998D01*
X228229998Y-154229998D02*
X230429998Y-154229998D01*
X221250000Y-150850000D02*
X221450000Y-151050000D01*
X221450000Y-151050000D02*
X225050000Y-151050000D01*
X221250000Y-147250000D02*
X221250000Y-150850000D01*
X219400000Y-145400000D02*
X221250000Y-147250000D01*
X216550000Y-145400000D02*
X219400000Y-145400000D01*
X220050000Y-147450000D02*
X220050000Y-152050000D01*
X219000000Y-146400000D02*
X220050000Y-147450000D01*
X216550000Y-146400000D02*
X219000000Y-146400000D01*
X220050000Y-152050000D02*
X220250000Y-152250000D01*
X230250000Y-155250000D02*
X234250000Y-159250000D01*
X227650000Y-155250000D02*
X230250000Y-155250000D01*
X234250000Y-163885400D02*
X234483180Y-164118580D01*
X234250000Y-159250000D02*
X234250000Y-163885400D01*
X220250000Y-152250000D02*
X224650000Y-152250000D01*
X224650000Y-152250000D02*
X227650000Y-155250000D01*
X229850000Y-156450000D02*
X231943180Y-158543180D01*
X227250000Y-156450000D02*
X229850000Y-156450000D01*
X224250000Y-153450000D02*
X227250000Y-156450000D01*
X231943180Y-158543180D02*
X231943180Y-164118580D01*
X216550000Y-147400000D02*
X218400000Y-147400000D01*
X218400000Y-147400000D02*
X218850000Y-147850000D01*
X218850000Y-152650000D02*
X219650000Y-153450000D01*
X218850000Y-147850000D02*
X218850000Y-152650000D01*
X219650000Y-153450000D02*
X224250000Y-153450000D01*
D23*
X195450000Y-146900000D02*
X197200000Y-146900000D01*
X197200000Y-146900000D02*
X197450000Y-146650000D01*
D22*
X180500000Y-128100000D02*
X180500000Y-125370000D01*
X180500000Y-128100000D02*
X181650000Y-129250000D01*
X196600000Y-147400000D02*
X197450000Y-148250000D01*
X195450000Y-147400000D02*
X196600000Y-147400000D01*
X168450000Y-149050000D02*
X168450000Y-145450000D01*
X168650000Y-149250000D02*
X168450000Y-149050000D01*
X169250000Y-145450000D02*
X169650000Y-145050000D01*
X168450000Y-145450000D02*
X169250000Y-145450000D01*
X185580000Y-127720000D02*
X185580000Y-125370000D01*
X185580000Y-127720000D02*
X184250000Y-129050000D01*
X194022118Y-147900000D02*
X193871758Y-148050360D01*
X195450000Y-147900000D02*
X194022118Y-147900000D01*
X175420000Y-126820000D02*
X175420000Y-125370000D01*
X177850000Y-129250000D02*
X179050000Y-129250000D01*
X175420000Y-126820000D02*
X177850000Y-129250000D01*
X195450000Y-148400000D02*
X194850000Y-148400000D01*
X192956299Y-148494859D02*
X192511800Y-148050360D01*
X193951200Y-149298800D02*
X193760240Y-149298800D01*
X194850000Y-148400000D02*
X193951200Y-149298800D01*
X193760240Y-149298800D02*
X192956299Y-148494859D01*
D23*
X195450000Y-148400000D02*
X196377045Y-148400000D01*
D22*
X201450000Y-159650000D02*
X201450000Y-159719520D01*
X202050000Y-159650000D02*
X201450000Y-159650000D01*
X204750000Y-156950000D02*
X202050000Y-159650000D01*
X204750000Y-150200000D02*
X204750000Y-156950000D01*
X207850000Y-158450000D02*
X207050000Y-159250000D01*
X207250000Y-150200000D02*
X207250000Y-156250000D01*
X208050000Y-157050000D02*
X208050000Y-158450000D01*
X207250000Y-156250000D02*
X208050000Y-157050000D01*
X208050000Y-158450000D02*
X207850000Y-158450000D01*
X191752299Y-148032539D02*
X185934838Y-153850000D01*
X181143180Y-160758980D02*
X181143180Y-164118580D01*
X181143180Y-155556820D02*
X181143180Y-160758980D01*
X185934838Y-153850000D02*
X182850000Y-153850000D01*
X191752299Y-147685799D02*
X191752299Y-148032539D01*
X192427279Y-147290859D02*
X192147239Y-147290859D01*
X193318138Y-146400000D02*
X192427279Y-147290859D01*
X195450000Y-146400000D02*
X193318138Y-146400000D01*
X182850000Y-153850000D02*
X181143180Y-155556820D01*
X192147239Y-147290859D02*
X191752299Y-147685799D01*
X185450000Y-155050000D02*
X183683180Y-156816820D01*
X183683180Y-156816820D02*
X183683180Y-164118580D01*
X190850000Y-151250000D02*
X187050000Y-155050000D01*
X187050000Y-155050000D02*
X185450000Y-155050000D01*
X197650000Y-151250000D02*
X190850000Y-151250000D01*
X197750000Y-151150000D02*
X197650000Y-151250000D01*
X197750000Y-150200000D02*
X197750000Y-151150000D01*
X208650000Y-163685400D02*
X209083180Y-164118580D01*
X208650000Y-156850000D02*
X208650000Y-163685400D01*
X207750000Y-155950000D02*
X208650000Y-156850000D01*
X207750000Y-150200000D02*
X207750000Y-155950000D01*
X186223180Y-157476820D02*
X186223180Y-164118580D01*
X198750000Y-150200000D02*
X198750000Y-151750000D01*
X191250000Y-152450000D02*
X186223180Y-157476820D01*
X198050000Y-152450000D02*
X191250000Y-152450000D01*
X198750000Y-151750000D02*
X198050000Y-152450000D01*
X188763180Y-157936820D02*
X188763180Y-164118580D01*
X199750000Y-150200000D02*
X199750000Y-152750000D01*
X193250000Y-153450000D02*
X188763180Y-157936820D01*
X199050000Y-153450000D02*
X193250000Y-153450000D01*
X199750000Y-152750000D02*
X199050000Y-153450000D01*
X191303180Y-158396820D02*
X191303180Y-164118580D01*
X195250000Y-154450000D02*
X191303180Y-158396820D01*
X199650000Y-154450000D02*
X195250000Y-154450000D01*
X200750000Y-153350000D02*
X199650000Y-154450000D01*
X200750000Y-150200000D02*
X200750000Y-153350000D01*
X193843180Y-160758980D02*
X193843180Y-164118580D01*
X193843180Y-158695558D02*
X193843180Y-160758980D01*
X195108748Y-157429990D02*
X193843180Y-158695558D01*
X201894082Y-157429990D02*
X195108748Y-157429990D01*
X202750000Y-156574072D02*
X201894082Y-157429990D01*
X202750000Y-150200000D02*
X202750000Y-156574072D01*
X211750000Y-155350000D02*
X212050000Y-155650000D01*
X211750000Y-150200000D02*
X211750000Y-155350000D01*
X212050000Y-155650000D02*
X212650000Y-155650000D01*
X212650000Y-155650000D02*
X214050000Y-157050000D01*
X214050000Y-157050000D02*
X214650000Y-157050000D01*
X214650000Y-157050000D02*
X216250000Y-158650000D01*
X216250000Y-158650000D02*
X216250000Y-158450000D01*
X214750000Y-152750000D02*
X215450000Y-153450000D01*
X214750000Y-150200000D02*
X214750000Y-152750000D01*
X215450000Y-153450000D02*
X217250000Y-153450000D01*
X217250000Y-153450000D02*
X219050000Y-155250000D01*
X219050000Y-155250000D02*
X223250000Y-155250000D01*
X223250000Y-155250000D02*
X226650000Y-158650000D01*
X226650000Y-158650000D02*
X227450000Y-158650000D01*
X230250000Y-154650000D02*
X234650000Y-159050000D01*
X234650000Y-159050000D02*
X235050000Y-159050000D01*
X220650000Y-151650000D02*
X224450000Y-151650000D01*
X224450000Y-151650000D02*
X225050000Y-151650000D01*
X219300000Y-145900000D02*
X220650000Y-147250000D01*
X216550000Y-145900000D02*
X219300000Y-145900000D01*
X220650000Y-147250000D02*
X220650000Y-151650000D01*
X225050000Y-151650000D02*
X228050000Y-154650000D01*
X228050000Y-154650000D02*
X230250000Y-154650000D01*
X235250000Y-155050000D02*
X238250000Y-155050000D01*
X240450000Y-157250000D02*
X241450000Y-157250000D01*
X216550000Y-141900000D02*
X222700000Y-141900000D01*
X222700000Y-141900000D02*
X225049521Y-144249521D01*
X225049521Y-144249521D02*
X225049521Y-147649521D01*
X225049521Y-147649521D02*
X228850000Y-151450000D01*
X228850000Y-151450000D02*
X231650000Y-151450000D01*
X238250000Y-155050000D02*
X240450000Y-157250000D01*
X231650000Y-151450000D02*
X235250000Y-155050000D01*
X241450000Y-157250000D02*
X242605501Y-158405501D01*
X242605501Y-158405501D02*
X243050000Y-158850000D01*
X223850000Y-154650000D02*
X226850000Y-157650000D01*
X219250000Y-154650000D02*
X223850000Y-154650000D01*
X216550000Y-151950000D02*
X219250000Y-154650000D01*
X216550000Y-148400000D02*
X216550000Y-151950000D01*
X226850000Y-157650000D02*
X228450000Y-157650000D01*
X228450000Y-157650000D02*
X229250000Y-158450000D01*
X229250000Y-163965400D02*
X229403180Y-164118580D01*
X229250000Y-158450000D02*
X229250000Y-163965400D01*
X223050000Y-155850000D02*
X226850000Y-159650000D01*
X217050000Y-154050000D02*
X218850000Y-155850000D01*
X218850000Y-155850000D02*
X223050000Y-155850000D01*
X215250000Y-154050000D02*
X217050000Y-154050000D01*
X214250000Y-153050000D02*
X215250000Y-154050000D01*
X226850000Y-164105400D02*
X226863180Y-164118580D01*
X226850000Y-159650000D02*
X226850000Y-164105400D01*
X214250000Y-150200000D02*
X214250000Y-153050000D01*
X213250000Y-153650000D02*
X214850000Y-155250000D01*
X213250000Y-150200000D02*
X213250000Y-153650000D01*
X224050000Y-163845400D02*
X224323180Y-164118580D01*
X224050000Y-159450000D02*
X224050000Y-163845400D01*
X214850000Y-155250000D02*
X216650000Y-155250000D01*
X216650000Y-155250000D02*
X218450000Y-157050000D01*
X218450000Y-157050000D02*
X221650000Y-157050000D01*
X221650000Y-157050000D02*
X224050000Y-159450000D01*
X221783180Y-160183180D02*
X221783180Y-164118580D01*
X220250000Y-158650000D02*
X221783180Y-160183180D01*
X215850000Y-156450000D02*
X218050000Y-158650000D01*
X218050000Y-158650000D02*
X220250000Y-158650000D01*
X214250000Y-156450000D02*
X215850000Y-156450000D01*
X212250000Y-154450000D02*
X214250000Y-156450000D01*
X212250000Y-150200000D02*
X212250000Y-154450000D01*
X225450000Y-127050000D02*
X232045800Y-127050000D01*
X219100000Y-133400000D02*
X225450000Y-127050000D01*
X216550000Y-133400000D02*
X219100000Y-133400000D01*
X232045800Y-127050000D02*
X233914300Y-125181500D01*
X233914300Y-125181500D02*
X234899300Y-125181500D01*
X234424300Y-123911500D02*
X234899300Y-123911500D01*
X231705810Y-126629990D02*
X234424300Y-123911500D01*
X218987966Y-132900000D02*
X225257976Y-126629990D01*
X225257976Y-126629990D02*
X231705810Y-126629990D01*
X216550000Y-132900000D02*
X218987966Y-132900000D01*
X224546200Y-125250000D02*
X224465000Y-125168800D01*
X224465000Y-126828983D02*
X224465000Y-125678800D01*
X216550000Y-132400000D02*
X218893983Y-132400000D01*
X218893983Y-132400000D02*
X224465000Y-126828983D01*
X224465000Y-125678800D02*
X224465000Y-125168800D01*
X224465000Y-123898800D02*
X223990000Y-123898800D01*
X223990000Y-123898800D02*
X223169021Y-124719779D01*
X223169021Y-124719779D02*
X223169021Y-127530979D01*
X223169021Y-127530979D02*
X218800000Y-131900000D01*
X218800000Y-131900000D02*
X217485000Y-131900000D01*
X217485000Y-131900000D02*
X216550000Y-131900000D01*
X220750000Y-122950000D02*
X219386200Y-122950000D01*
X221650000Y-123850000D02*
X220750000Y-122950000D01*
X221650000Y-128350000D02*
X221650000Y-123850000D01*
X218600000Y-131400000D02*
X221650000Y-128350000D01*
X219386200Y-122950000D02*
X219065000Y-122628800D01*
X216550000Y-131400000D02*
X218600000Y-131400000D01*
X220050000Y-121358800D02*
X222409520Y-123718320D01*
X219065000Y-121358800D02*
X220050000Y-121358800D01*
X222409520Y-123718320D02*
X222409520Y-126321383D01*
X222409520Y-126321383D02*
X222409520Y-126950000D01*
X216550000Y-130900000D02*
X216550000Y-130565000D01*
X216550000Y-130565000D02*
X220165000Y-126950000D01*
X220165000Y-126950000D02*
X220650000Y-126950000D01*
X198750000Y-129100000D02*
X198750000Y-127250000D01*
X198750000Y-127250000D02*
X198805501Y-127194499D01*
X198805501Y-127194499D02*
X199250000Y-126750000D01*
X198250000Y-129100000D02*
X198250000Y-127350000D01*
X198250000Y-127350000D02*
X198094499Y-127194499D01*
X198094499Y-127194499D02*
X197650000Y-126750000D01*
X207750000Y-129100000D02*
X207750000Y-130035000D01*
X207750000Y-130035000D02*
X209209501Y-131494501D01*
X209209501Y-131494501D02*
X209209501Y-133280884D01*
X209209501Y-133280884D02*
X209550000Y-133621383D01*
X209550000Y-133621383D02*
X209550000Y-134250000D01*
X215550000Y-127050000D02*
X214950000Y-127650000D01*
X214950000Y-127650000D02*
X214950000Y-128900000D01*
X214950000Y-128900000D02*
X214750000Y-129100000D01*
X213600062Y-140450000D02*
X213249996Y-140450000D01*
X216550000Y-139400000D02*
X214650062Y-139400000D01*
X214650062Y-139400000D02*
X213600062Y-140450000D01*
X215050000Y-125150000D02*
X214650000Y-125550000D01*
X214650000Y-125550000D02*
X214650000Y-127250000D01*
X214650000Y-127250000D02*
X214250000Y-127650000D01*
X214250000Y-127650000D02*
X214250000Y-129100000D01*
X198401475Y-141076776D02*
X199137686Y-141076776D01*
X199851871Y-141790961D02*
X199851871Y-142005954D01*
X195450000Y-141900000D02*
X197578251Y-141900000D01*
X197578251Y-141900000D02*
X198401475Y-141076776D01*
X199137686Y-141076776D02*
X199851871Y-141790961D01*
X195450000Y-142400000D02*
X198202313Y-142400000D01*
X198202313Y-142400000D02*
X198321537Y-142280776D01*
X198321537Y-142280776D02*
X198766036Y-141836277D01*
M02*
